<svg xmlns="http://www.w3.org/2000/svg" width="400" height="300" viewBox="0 0 400 300"><defs><linearGradient id="a" x1="40.009%" x2="100%" y1="21.875%" y2="82.927%"><stop offset=".069%" stop-color="#E6CCFF"/><stop offset="100%" stop-color="#40C"/></linearGradient><linearGradient id="c" x1="50%" x2="50%" y1="0%" y2="93.594%"><stop offset="0%" stop-color="#D9E3E8"/><stop offset="100%" stop-color="#869298"/></linearGradient><linearGradient id="d" x1="0%" x2="100%" y1="0%" y2="100%"><stop offset="0%" stop-color="#FFF"/><stop offset="100%" stop-color="#B367FF"/></linearGradient><radialGradient id="b" cx="0%" cy="0%" r="142.4%" fx="0%" fy="0%" gradientTransform="matrix(.70225 .35112 -.26334 .93633 0 0)"><stop offset="0%" stop-color="#8000FF"/><stop offset="99.966%" stop-color="#40C"/></radialGradient></defs><g fill="none" fill-rule="evenodd"><rect width="400" height="300" fill="url(#a)"/><rect width="400" height="300" fill="url(#b)" opacity=".5"/><g transform="translate(80 78)"><g transform="translate(19)"><path fill="#95A8B2" d="M195,0 C198.865993,-7.10171439e-16 202,3.13400675 202,7 L202,135 L201,135 L201,7 C201,3.6862915 198.313708,1 195,1 L195,1 L7,1 C3.6862915,1 1,3.6862915 1,7 L1,7 L1,135 L0,135 L0,7 C4.14730794e-16,3.13400675 3.13400675,7.10171439e-16 7,0 L195,0 Z"/><path fill="#0A0A0B" d="M195,1 C198.313708,1 201,3.6862915 201,7 L201,133 L1,133 L1,7 C1,3.6862915 3.6862915,1 7,1 L195,1 Z M195,5 L7,5 C5.8954305,5 5,5.8954305 5,7 L5,7 L5,125 L197,125 L197,7 C197,5.8954305 196.104569,5 195,5 L195,5 Z"/><rect width="200" height="8" x="1" y="125" fill="#131516"/><path fill="#0A0A0B" d="M85,5 L85,1 L89,1 L113,1 L117,1 L117,5 L114,5 C113.447715,5 113,5.44771525 113,6 L113,7 C113,8.1045695 112.104569,9 111,9 L91,9 C89.8954305,9 89,8.1045695 89,7 L89,6 C89,5.44771525 88.5522847,5 88,5 L85,5 L85,5 Z"/></g><g transform="translate(0 133)"><rect width="12" height="4" x="208" y="7" fill="#869298" rx="1"/><rect width="12" height="4" x="20" y="7" fill="#869298" rx="1"/><rect width="42" height="6" x="99" fill="#95A8B2"/><path fill="url(#c)" d="M239,0 C239.552285,-1.01453063e-16 240,0.44771525 240,1 L240,5 C240,7.209139 238.209139,9 236,9 L4,9 C1.790861,9 2.705415e-16,7.209139 0,5 L0,1 C-6.76353751e-17,0.44771525 0.44771525,1.01453063e-16 1,0 L100,0 L100,2 C100,3.0543618 100.815878,3.91816512 101.850738,3.99451426 L102,4 L138,4 C139.104569,4 140,3.1045695 140,2 L140,2 L140,0 L239,0 Z"/></g><path fill="url(#d)" fill-rule="nonzero" d="M114.5,65 C114.5,68.03755 116.962435,70.5 120,70.5 C123.03755,70.5 125.5,68.03755 125.5,65 L128,65 C128,69.4183 124.4183,73 120,73 C115.58172,73 112,69.4183 112,65 L114.5,65 Z M125,57 L121.5,65 L118.5,65 L116.5,61 L119,61 L119.93335,62.86665 L122.5,57 L125,57 Z" opacity=".7"/></g></g></svg>