<svg xmlns="http://www.w3.org/2000/svg" width="12" height="12" viewBox="0 0 12 12"><path fill="#FF8000" d="M0 9 3.03267974.761442441 5.7254902.761442441 8.74509804 9 6.43137255 9 4.74509804 3.7073509 4.36601307 2.40915395 4.33986928 2.40915395 3.9869281 3.69486824 2.26143791 9 0 9ZM1.97385621 7.14008322 1.97385621 5.67961165 6.77124183 5.67961165 6.77124183 7.14008322 1.97385621 7.14008322ZM10.7058824 2.03467406C10.2527233 2.03467406 9.92374728 1.95353675 9.71895425 1.79126214 9.51416122 1.62898752 9.41176471 1.37309293 9.41176471 1.02357836 9.41176471.665742025 9.51416122.405686546 9.71895425.243411928 9.92374728.0811373093 10.2527233 0 10.7058824 0 11.1503268 0 11.4771242.0811373093 11.6862745.243411928 11.8954248.405686546 12 .665742025 12 1.02357836 12 1.37309293 11.8954248 1.62898752 11.6862745 1.79126214 11.4771242 1.95353675 11.1503268 2.03467406 10.7058824 2.03467406ZM11.8169935 2.75866852 11.8169935 9 9.59477124 9 9.59477124 2.75866852 11.8169935 2.75866852Z" transform="translate(0 1)"/></svg>