<svg xmlns="http://www.w3.org/2000/svg" width="400" height="300" viewBox="0 0 400 300"><path fill="#F80" fill-rule="evenodd" d="M400,0 L400,300 L0,300 L0,0 L400,0 Z M199.898396,100.00188 L199.694002,100.016922 L169.837935,103.336589 C169.455398,103.378735 169.08569,103.499638 168.752016,103.691676 C168.485166,103.845307 168.246019,104.041808 168.043998,104.272861 L167.899592,104.4525 L145.545889,134.803743 C145.167923,135.312908 144.977431,135.934215 145.002132,136.565789 C145.024089,137.127188 145.214919,137.667251 145.547189,138.116306 L145.678366,138.2803 L198.421557,199.275699 C198.617901,199.502998 198.860877,199.685329 199.133975,199.810305 C199.407072,199.93528 199.703931,200 200.004249,200 C200.304567,200 200.601426,199.93528 200.874523,199.810305 C201.093001,199.710324 201.292273,199.573636 201.463771,199.406583 L201.587053,199.275699 L254.319701,138.2803 C254.733363,137.802268 254.972435,137.198032 254.997759,136.566347 C255.020269,136.004948 254.872746,135.451484 254.576972,134.977586 L254.45915,134.803743 L232.10199,104.448929 C231.873405,104.139246 231.583127,103.880222 231.249565,103.688184 C230.982715,103.534553 230.692661,103.426456 230.391454,103.367784 L230.163646,103.333108 L200.307579,100.016922 L200.103186,100.00188 L200.103186,100.00188 L199.898396,100.00188 Z M207.210647,108.782278 C207.391597,108.786367 207.564067,108.86046 207.691357,108.989118 L228.772613,128.907121 C228.976878,129.100722 229.235026,129.22793 229.512921,129.272117 C229.790815,129.316194 230.075626,129.275242 230.329758,129.154506 C230.584002,129.033771 230.795741,128.839054 230.937199,128.595686 C231.078656,128.352319 231.143249,128.071904 231.122387,127.791267 L230.111325,113.654729 C230.097157,113.481771 230.147916,113.309818 230.253786,113.172345 C230.359656,113.03476 230.512939,112.941698 230.683736,112.911235 C230.854533,112.880661 231.030462,112.915029 231.177386,113.00731 C231.324198,113.099703 231.431407,113.243536 231.477927,113.410691 L236.100723,129.597501 C236.256348,130.142596 236.542386,130.641494 236.934182,131.051013 C237.325979,131.460531 237.811708,131.768396 238.349313,131.947825 L248.215397,135.236137 C248.372696,135.287801 248.506567,135.393919 248.592802,135.535409 C248.679149,135.676899 248.712282,135.844501 248.686178,136.008085 C248.660184,136.171781 248.576738,136.320859 248.450899,136.428539 C248.32506,136.536331 248.164861,136.595694 247.999195,136.596029 L238.516652,136.596029 C237.93063,136.596364 237.354092,136.744437 236.840361,137.026637 C236.326742,137.308837 235.892441,137.716012 235.577732,138.210559 L209.730884,178.834583 C209.586192,179.056303 209.362962,179.214754 209.106041,179.278358 C208.849231,179.34185 208.577807,179.305585 208.346545,179.176927 C208.115282,179.048269 207.941473,178.836703 207.860034,178.584854 C207.778484,178.333006 207.795553,178.059622 207.907559,177.819936 L226.433437,139.601918 C226.588169,139.282895 226.659344,138.929727 226.640268,138.575555 C226.621191,138.221494 226.512421,137.878034 226.32422,137.577534 C226.13602,137.277035 225.874524,137.029315 225.564278,136.857585 C225.254143,136.685855 224.905297,136.595917 224.550761,136.596029 L175.45082,136.596029 C175.096284,136.595917 174.747438,136.685855 174.437303,136.857585 C174.127057,137.029315 173.865562,137.277035 173.677361,137.577534 C173.489161,137.878034 173.38039,138.221494 173.361314,138.575555 C173.342237,138.929727 173.413412,139.282895 173.568256,139.601918 L192.094023,177.819936 C192.210379,178.060068 192.230571,178.335796 192.15036,178.590434 C192.07026,178.845072 191.895782,179.059316 191.662734,179.189536 C191.429687,179.319645 191.155697,179.355687 190.896879,179.290409 C190.638173,179.225132 190.414162,179.063221 190.270697,178.838153 L164.423849,138.214018 C164.109251,137.718355 163.674616,137.310176 163.160216,137.027418 C162.645816,136.744549 162.068385,136.59614 161.481471,136.596029 L151.709543,136.596029 C151.543866,136.595694 151.383734,136.536331 151.257839,136.428539 C151.131944,136.320859 151.04852,136.171781 151.022505,136.008085 C150.9965,135.844501 151.0296,135.676899 151.11588,135.535409 C151.202171,135.393919 151.335998,135.287801 151.493397,135.236137 L161.631407,131.940795 C162.174589,131.763821 162.66612,131.455845 163.06249,131.044206 C163.458749,130.632567 163.747911,130.129763 163.904429,129.580093 L168.523654,113.410691 C168.570175,113.243536 168.677383,113.099703 168.824195,113.00731 C168.971119,112.915029 169.147048,112.880661 169.317845,112.911235 C169.488643,112.941698 169.641925,113.03476 169.747795,113.172345 C169.853665,113.309818 169.904424,113.481771 169.890256,113.654729 L168.879194,127.791267 C168.858332,128.071904 168.922925,128.352319 169.064383,128.595686 C169.20584,128.839054 169.417579,129.033771 169.671823,129.154506 C169.925955,129.275242 170.210766,129.316194 170.488661,129.272117 C170.766555,129.22793 171.024703,129.100722 171.228968,128.907121 L192.310113,108.989118 C192.437514,108.86046 192.609985,108.786367 192.790934,108.782278 C192.971883,108.778779 193.147254,108.845507 193.279898,108.968698 C193.412654,109.091888 193.492196,109.261833 193.50179,109.442713 C193.511496,109.623481 193.450473,109.801014 193.331662,109.937594 L179.187946,127.348384 C179.022169,127.55292 178.917526,127.800194 178.88629,128.06175 C178.855053,128.323195 178.898561,128.58821 179.011571,128.82611 C179.12458,129.063899 179.302741,129.264864 179.52519,129.405685 C179.747639,129.546506 180.005453,129.621492 180.268733,129.621938 L219.732848,129.621938 C219.996128,129.621492 220.253942,129.546506 220.476391,129.405685 C220.698841,129.264864 220.877001,129.063899 220.99001,128.82611 C221.10302,128.58821 221.146528,128.323195 221.115292,128.06175 C221.084055,127.800194 220.979412,127.55292 220.813524,127.348384 L206.669919,109.937594 C206.551109,109.801014 206.490086,109.623481 206.499791,109.442713 C206.509385,109.261833 206.588927,109.091888 206.721683,108.968698 C206.854327,108.845507 207.029698,108.778779 207.210647,108.782278 Z"/></svg>