<svg xmlns="http://www.w3.org/2000/svg" width="32" height="32" viewBox="0 0 32 32"><path fill="#2ED19B" fill-rule="evenodd" d="M31.17,7.00008249 C31.6275277,7.00008249 31.998427,7.37098195 31.998427,7.82850962 C31.998427,8.04822215 31.9111462,8.25893583 31.755786,8.41429605 L28.5293009,11.471247 C28.833276,12.2555755 29,13.1083175 29,14 C29,17.7854517 25.9952166,20.8690987 22.2406498,20.995941 L22,21.0000825 L19,21 L16.8574929,24.510845 C16.5733448,24.9844253 15.9590845,25.1379902 15.4855042,24.853842 C15.3447546,24.7693922 15.2269568,24.6515946 15.1425071,24.510845 L13,21 L10,21.0000825 L9.75935025,20.995941 C6.00478338,20.8690987 3,17.7854517 3,14 C3,13.1083175 3.16672404,12.2555755 3.47069913,11.471247 L0.244214,8.41429605 C-0.0793069162,8.09077514 -0.0793069162,7.56624409 0.244214,7.24272318 C0.373680852,7.11325633 0.541586926,7.03106708 0.721108,7.00726697 L0.83,7.00008249 L31.17,7.00008249 Z M16,15 L14,18 L16,21 L18,18 L16,15 Z M7.34969302,11.994342 C6.95745715,12.5023915 6.76333921,13.076591 6.74663331,13.7711653 L6.76873628,14.0007178 C6.77233923,14.0312651 6.7765157,14.0625963 6.78145689,14.093815 C6.95745715,15.2235389 7.59345808,15.9975382 8.66169495,16.3570878 C9.73134359,16.7179875 10.701698,16.4693627 11.5344051,15.6969385 C11.6212287,15.6161635 11.6339346,15.5653136 11.5334639,15.4802637 C11.2638164,15.2527889 11.002169,15.0165391 10.744051,14.7769143 C10.6709136,14.7094144 10.6239201,14.6878519 10.5513274,14.7352738 L10.5042859,14.7721893 C9.95275568,15.2647139 9.14122507,15.2536889 8.59534191,14.7712893 C8.14887067,14.3770475 7.95986763,13.6110287 8.32089269,13.0112467 L8.4005181,12.8936661 C8.47087114,12.8005162 8.47863586,12.7496663 8.3833416,12.6688914 C8.11416473,12.4407416 7.84992905,12.2074168 7.59369338,11.964642 C7.48428145,11.8600171 7.43063431,11.8897171 7.34969302,11.994342 Z M24.4172476,11.962167 C24.1607766,12.2035918 23.8965409,12.4380416 23.6287758,12.6668664 C23.5551757,12.7287863 23.5380463,12.7728503 23.571364,12.8378806 L23.605717,12.8911911 C23.863835,13.2372408 23.9367763,13.6318904 23.8355997,14.04769 C23.5945503,15.0503453 22.426453,15.4580828 21.6167224,14.86395 L21.5132433,14.7807393 C21.408302,14.6896144 21.3553607,14.6896144 21.2581841,14.7818643 C21.0115955,15.0147391 20.7593598,15.2422139 20.4977124,15.4582137 C20.3784181,15.5572136 20.3843005,15.6134635 20.4911241,15.7174134 C21.289243,16.4947877 22.503833,16.7260875 23.5426581,16.2902629 C24.5800714,15.8537633 25.2560723,14.8417143 25.2584253,13.6415654 C25.2464253,13.074116 25.0471309,12.4947415 24.6490126,11.982867 C24.5694831,11.8804921 24.5167771,11.8685671 24.4172476,11.962167 Z"/></svg>