<svg xmlns="http://www.w3.org/2000/svg" width="32" height="32" viewBox="0 0 32 32"><path fill="#F70" fill-rule="evenodd" d="M8.5,3 L16.5,3 C16.7761424,3 17,3.22385763 17,3.5 L17,4.5 C17,4.77614237 16.7761424,5 16.5,5 L8.5,5 C8.22385763,5 8,4.77614237 8,4.5 L8,3.5 C8,3.22385763 8.22385763,3 8.5,3 Z M4.5,6 L14.5,6 C14.7761424,6 15,6.22385763 15,6.5 L15,7.5 C15,7.77614237 14.7761424,8 14.5,8 L4.5,8 C4.22385763,8 4,7.77614237 4,7.5 L4,6.5 C4,6.22385763 4.22385763,6 4.5,6 Z M0.5,9 L12.5,9 C12.7761424,9 13,9.22385763 13,9.5 L13,10.5 C13,10.7761424 12.7761424,11 12.5,11 L0.5,11 C0.223857625,11 3.38176876e-17,10.7761424 0,10.5 L0,9.5 C-3.38176876e-17,9.22385763 0.223857625,9 0.5,9 Z M0.5,12 L13.5,12 C13.7761424,12 14,12.2238576 14,12.5 L14,13.5 C14,13.7761424 13.7761424,14 13.5,14 L0.5,14 C0.223857625,14 3.38176876e-17,13.7761424 0,13.5 L0,12.5 C-3.38176876e-17,12.2238576 0.223857625,12 0.5,12 Z M15.5,12 L23.5,12 C23.7761424,12 24,12.2238576 24,12.5 L24,13.5 C24,13.7761424 23.7761424,14 23.5,14 L15.5,14 C15.2238576,14 15,13.7761424 15,13.5 L15,12.5 C15,12.2238576 15.2238576,12 15.5,12 Z M8.5,18 L16.5,18 C16.7761424,18 17,18.2238576 17,18.5 L17,19.5 C17,19.7761424 16.7761424,20 16.5,20 L8.5,20 C8.22385763,20 8,19.7761424 8,19.5 L8,18.5 C8,18.2238576 8.22385763,18 8.5,18 Z M18.5,18 L31.5,18 C31.7761424,18 32,18.2238576 32,18.5 L32,19.5 C32,19.7761424 31.7761424,20 31.5,20 L18.5,20 C18.2238576,20 18,19.7761424 18,19.5 L18,18.5 C18,18.2238576 18.2238576,18 18.5,18 Z M18.5,21 L31.5,21 C31.7761424,21 32,21.2238576 32,21.5 L32,22.5 C32,22.7761424 31.7761424,23 31.5,23 L18.5,23 C18.2238576,23 18,22.7761424 18,22.5 L18,21.5 C18,21.2238576 18.2238576,21 18.5,21 Z M17.5,24 L27.5,24 C27.7761424,24 28,24.2238576 28,24.5 L28,25.5 C28,25.7761424 27.7761424,26 27.5,26 L17.5,26 C17.2238576,26 17,25.7761424 17,25.5 L17,24.5 C17,24.2238576 17.2238576,24 17.5,24 Z M15.5,27 L23.5,27 C23.7761424,27 24,27.2238576 24,27.5 L24,28.5 C24,28.7761424 23.7761424,29 23.5,29 L15.5,29 C15.2238576,29 15,28.7761424 15,28.5 L15,27.5 C15,27.2238576 15.2238576,27 15.5,27 Z M4.5,15 L15.5,15 C15.7761424,15 16,15.2238576 16,15.5 L16,16.5 C16,16.7761424 15.7761424,17 15.5,17 L4.5,17 C4.22385763,17 4,16.7761424 4,16.5 L4,15.5 C4,15.2238576 4.22385763,15 4.5,15 Z M17.5,15 L28.5,15 C28.7761424,15 29,15.2238576 29,15.5 L29,16.5 C29,16.7761424 28.7761424,17 28.5,17 L17.5,17 C17.2238576,17 17,16.7761424 17,16.5 L17,15.5 C17,15.2238576 17.2238576,15 17.5,15 Z"/></svg>