<svg xmlns="http://www.w3.org/2000/svg" width="32" height="32" viewBox="0 0 32 32"><path fill="#8D6FF4" fill-rule="evenodd" d="M25.7516135,25.4614158 L25.7516135,14.9902493 C25.7516135,11.8948874 24.0642124,9.0346256 21.3252107,7.48694464 L10.3230639,1.27019279 L12.5138853,0 L23.5735521,6.24924388 C26.3124138,7.79692484 27.9998149,10.6571466 27.9998149,13.7525285 L27.9998149,24.223815 C27.9998149,26.2790163 26.528414,27.8358173 24.7284129,28.2478175 L24.7514129,28.1354174 C25.3674133,27.431617 25.7516135,26.5118164 25.7516135,25.4614158 Z M22.6605116,16.7783504 L22.6605116,27.2496169 C22.6605116,28.2998176 22.2763513,29.2198181 21.660451,29.9234186 L21.6374709,30.0360186 C23.4374921,29.6238184 24.908813,28.0672174 24.908813,26.0118161 L24.908813,15.5406096 C24.908813,12.4452477 23.2215119,9.58500594 20.4824702,8.03732498 L9.42288336,1.78808711 L7.232062,3.0582819 L18.2341888,9.27504575 C20.9731905,10.8227267 22.6605116,13.6829685 22.6605116,16.7783504 Z M9.19936322,7.86902488 L9.19936322,22.0456137 L9.21386323,22.0372137 L19.4569896,27.8250173 L19.4569896,26.6490165 L10.441584,21.5548134 L10.3235439,21.4900133 L10.3235439,8.50424527 L9.19936322,7.86902488 Z M7.37262209,6.83682424 L7.37262209,23.0444143 L7.42546212,23.0740143 L7.37262209,23.1046143 L19.4432496,29.9252186 C19.3425495,30.4692189 18.7082491,30.7800191 18.1923488,30.4884189 L6.24828139,23.7392147 L6.24828139,6.20150385 L7.37262209,6.83682424 Z M12.009765,9.45704586 L15.0306868,11.1640269 C17.7696885,12.7117079 19.4569896,15.5719497 19.4569896,18.6673116 L19.4569896,24.7458153 L12.009765,20.5376127 L12.009765,9.45704586 Z M21.705291,26.0162161 L21.705291,17.3969108 C21.705291,14.3015489 20.0179899,11.4412871 17.2789682,9.89360614 L6.21936138,3.64438226 L4,4.93112306 L4,25.0294155 L5.35835284,25.777216 L15.3819671,31.4410195 C18.1772488,33.0206205 21.667571,31.0654193 21.704991,27.9192173 L21.705531,27.9194173 L21.705531,26.0164161 L21.705291,26.0162161 Z"/></svg>