<svg xmlns="http://www.w3.org/2000/svg" width="32" height="32" viewBox="0 0 32 32"><path fill="#FF6C0A" fill-rule="evenodd" d="M16,0 C24.836556,0 32,7.163444 32,16 C32,24.836556 24.836556,32 16,32 C7.163444,32 0,24.836556 0,16 C0,7.163444 7.163444,0 16,0 Z M18,20 C16.3431458,20 15,21.3431458 15,23 C15,24.6568542 16.3431458,26 18,26 C19.6568542,26 21,24.6568542 21,23 C21,21.3431458 19.6568542,20 18,20 Z M19.5,8 L12.5,8 C10.0147186,8 8,10.0147186 8,12.5 L8.00695818,12.7523824 L8.00695818,12.7523824 L8.02758826,13.0011193 L8,13 L8,16 C8,18.7614237 10.2385763,21 13,21 C11.8954305,21 11,20.1045695 11,19 C11,17.9743283 11.7720804,17.1289857 12.7667577,17.0134555 L13,17 L19.5,17 C21.9852814,17 24,14.9852814 24,12.5 C24,10.118272 22.1496768,8.16871017 19.8080976,8.01038163 L19.5,8 Z"/></svg>