<svg xmlns="http://www.w3.org/2000/svg" width="32" height="32" viewBox="0 0 32 32"><defs><linearGradient id="a" x1="0%" x2="0%" y1="0%" y2="100%"><stop offset="0%" stop-color="#FE0"/><stop offset="100%" stop-color="#FC0"/></linearGradient></defs><g fill="none" fill-rule="evenodd"><rect width="32" height="32" fill="url(#a)" fill-rule="nonzero"/><polygon fill="#20292C" points="5.5 11.563 5.5 12.908 7.785 12.908 7.785 19.477 9.286 19.477 9.286 12.908 11.652 12.908 11.652 11.563"/><path fill="#20292C" d="M13.9133 15.546 16.0703 15.546C16.5843 15.546 16.9255 15.4542 17.0938 15.2706 17.2618 15.087 17.346 14.7189 17.346 14.166 17.346 13.6017 17.2735 13.2374 17.1285 13.073 16.9835 12.9087 16.6655 12.8265 16.1747 12.8265L13.9133 12.8265 13.9133 15.546ZM12.4116 19.4772 12.4116 11.5625 16.3139 11.5625C17.2841 11.5625 17.9528 11.7306 18.3201 12.0669 18.6873 12.4033 18.8709 13.0121 18.8709 13.8934 18.8709 14.6936 18.7791 15.2406 18.5955 15.5343 18.4119 15.8282 18.036 16.0311 17.4677 16.1432L17.4677 16.1954C18.3452 16.2496 18.784 16.7617 18.784 17.7319L18.784 19.4772 17.2822 19.4772 17.2822 18.0334C17.2822 17.2179 16.8801 16.81 16.0761 16.81L13.9134 16.81 13.9134 19.4772 12.4116 19.4772ZM26.7336 11.5625 24.3563 15.3952 26.8902 19.4773 25.1275 19.4773 23.991 17.5754C23.8171 17.2817 23.6508 16.9839 23.4924 16.6824L23.33 16.3693 23.1619 16.062 23.1386 16.062 22.9705 16.3751C22.7695 16.754 22.5415 17.1541 22.2863 17.5754L21.144 19.4773 19.335 19.4773 21.9326 15.3952 19.5205 11.5625 21.3122 11.5625 22.3675 13.3252C22.5336 13.6035 22.6902 13.8781 22.8371 14.1486L22.9821 14.4269 23.1271 14.7052 23.1503 14.7052C23.216 14.5816 23.2642 14.4888 23.2952 14.4269L23.4402 14.1544C23.5638 13.9148 23.7185 13.6403 23.9041 13.331L24.9593 11.5625 26.7336 11.5625Z"/></g></svg>