<svg xmlns="http://www.w3.org/2000/svg" width="32" height="32" viewBox="0 0 32 32"><path fill="#05F" fill-rule="evenodd" d="M29.5843426,9.74678266 C30.9334322,9.74678266 32,8.81012901 32,7.66187534 C32,6.75547428 31.4038947,6.24185261 30.3059162,6.21160003 L24.0626905,6.24185261 C22.7764223,6.2721052 22.4314282,6.42320005 21.8981443,7.29918046 L21.5215649,7.93398054 L14.0863031,20.1108141 L14.0863031,14.2792922 C14.0863031,11.4689951 13.9294241,10.0187198 13.5216085,8.87063418 C12.9255032,7.23884336 10.7921931,6 8.53341477,6 C3.95303664,6 0,9.77703525 0,14.1584499 C0,17.240348 2.47847876,19.6575295 5.58429901,19.6575295 C7.84325188,19.6575295 9.44310355,18.6906233 9.44310355,17.3006851 C9.44310355,16.5453789 8.65888307,15.8504098 7.81184118,15.8806624 L6.4941623,15.9109149 C5.17648342,15.9409995 4.14115183,14.9740932 4.14115183,13.7655024 C4.14115183,11.6805951 6.05493601,9.68644556 8.06277777,9.68644556 C8.84717276,9.68644556 9.53733565,10.2000672 9.81968295,11.0157105 C10.0393833,11.5900054 10.0706195,12.0130374 10.1334409,14.2792922 L10.3843775,24.2201236 C10.4157882,25.1870298 10.5098458,25.6102299 10.7921931,26.0633464 C11.1373618,26.6072206 11.9215823,27 12.7059773,27 C13.8667772,27 14.5881763,26.4863783 15.4666289,25.0359349 L24.9097324,9.74678266 L29.5843426,9.74678266 Z"/></svg>