<svg width="16" height="16" viewBox="0 0 16 16" fill="none" xmlns="http://www.w3.org/2000/svg">
<path fill-rule="evenodd" clip-rule="evenodd" d="M1.228 3C2.89538 3 4.38786 4.03429 4.97331 5.59551L5.5 7L6.02669 5.59551C6.61214 4.03429 8.10462 3 9.772 3H10H12.5C13.8807 3 15 4.11929 15 5.5C15 6.19469 14.7167 6.82321 14.2592 7.27627C15.287 7.75224 16 8.79286 16 10C16 11.6569 14.6569 13 13 13H11H9C8.44771 13 8 12.5523 8 12V9L7.27639 10.4472C7.107 10.786 6.76074 11 6.38197 11H4.61803C4.23926 11 3.893 10.786 3.72361 10.4472L3 9V12C3 12.5523 2.55228 13 2 13H1C0.447715 13 0 12.5523 0 12V4C0 3.44772 0.447715 3 1 3H1.228Z" fill="#00E05A"/>
</svg>
