<svg width="16" height="16" viewBox="0 0 16 16" fill="none" xmlns="http://www.w3.org/2000/svg">
<path d="M2.02786 3C3.54295 3 4.928 3.85601 5.60557 5.21115L6 6L6.39443 5.21115C7.072 3.85601 8.45705 3 9.97214 3H12.3032C13.7457 3 14.868 4.25127 14.7087 5.682C14.6592 6.12692 14.4689 6.52527 14.1852 6.83488C15.3359 7.40299 16.0959 8.62836 15.9902 9.99926C15.8597 11.6925 14.4448 13 12.743 13C12.0112 13 10.9008 13 9.99944 13C9.17101 13 8.5 12.3284 8.5 11.5V9L7.77639 10.4472C7.607 10.786 7.26074 11 6.88197 11H5.11803C4.73926 11 4.393 10.786 4.22361 10.4472L3.5 9V11.5C3.5 12.3284 2.82843 13 2 13H0V3H2.02786Z" fill="#00CC36"/>
</svg>
