<svg xmlns="http://www.w3.org/2000/svg" width="400" height="300" viewBox="0 0 400 300"><defs><linearGradient id="b" x1="0%" x2="100%" y1="21.875%" y2="50%"><stop offset="0%" stop-color="#0AF"/><stop offset="99.966%" stop-color="#00F"/></linearGradient><linearGradient id="c" x1="50%" x2="50%" y1="0%" y2="100%"><stop offset="0%" stop-color="#FFF"/><stop offset="100%" stop-color="#B8D3E0"/></linearGradient><linearGradient id="d" x1="0%" x2="100%" y1="31.995%" y2="68.005%"><stop offset="0%" stop-color="#81C4FF"/><stop offset="100%" stop-color="#4382FF"/></linearGradient><linearGradient id="e" x1="50%" x2="50%" y1="0%" y2="93.594%"><stop offset="0%" stop-color="#FFF"/><stop offset="100%" stop-color="#B8D3E0"/></linearGradient><radialGradient id="a" cx="50%" cy="0%" r="83.333%" fx="50%" fy="0%" gradientTransform="matrix(.6 .6 -.45 .8 .2 -.3)"><stop offset="0%" stop-color="#4CA7F8"/><stop offset="100%" stop-color="#0000F5"/></radialGradient></defs><g fill="none" fill-rule="evenodd"><rect width="400" height="300" fill="url(#a)"/><rect width="400" height="300" fill="url(#b)" opacity=".75"/><g transform="translate(96 84)"><g transform="translate(14)"><path fill="url(#c)" d="M176,0 C178.209139,-4.05812251e-16 180,1.790861 180,4 L180,122 C180,124.209139 178.209139,126 176,126 L156,126 L156,122 C156,121.447715 155.552285,121 155,121 L139,121 C138.447715,121 138,121.447715 138,122 L138,126 L42,126 L42,122 C42,121.447715 41.5522847,121 41,121 L25,121 C24.4477153,121 24,121.447715 24,122 L24,126 L4,126 C1.790861,126 2.705415e-16,124.209139 0,122 L0,4 C-2.705415e-16,1.790861 1.790861,4.05812251e-16 4,0 L176,0 Z M175,3 L5,3 C3.8954305,3 3,3.8954305 3,5 L3,5 L3,117 C3,118.104569 3.8954305,119 5,119 L5,119 L175,119 C176.104569,119 177,118.104569 177,117 L177,117 L177,5 C177,3.8954305 176.104569,3 175,3 L175,3 Z"/><path fill="#0A0A0B" d="M175,3 C176.104569,3 177,3.8954305 177,5 L177,117 C177,118.104569 176.104569,119 175,119 L5,119 C3.8954305,119 3,118.104569 3,117 L3,5 C3,3.8954305 3.8954305,3 5,3 L175,3 Z M165,15 L15,15 L15,99 L165,99 L165,15 Z"/></g><polygon fill="#9BC2D4" fill-rule="nonzero" points="169 122 169 132 153 132 153 122"/><polygon fill="#9BC2D4" fill-rule="nonzero" points="55 122 55 132 39 132 39 122"/><path fill="url(#d)" d="M95.3419972,51 C97.8088034,51 100.020405,52.509223 100.923119,54.797467 L101,55 L101.040028,54.8932594 C101.918211,52.551437 104.156935,51 106.658003,51 L109.4975,51 C111.154354,51 112.4975,52.3431458 112.4975,54 C112.4975,54.5751631 112.33564,55.1125221 112.054987,55.5690123 C113.2188,56.2684289 113.9975,57.543277 113.9975,59 C113.9975,61.209139 112.206639,63 109.9975,63 L107,63 C105.343146,63 104,61.6568542 104,60 L104,57.9902713 C103.746737,58.6314773 103.516105,59.2840033 103.308113,59.9478492 C103.112524,60.5738809 102.532705,61 101.876831,61 L100.123169,61 C99.467295,61 98.8874759,60.5738809 98.6918871,59.9478492 C98.4839488,59.2841755 98.2533824,58.6318159 98.0001878,57.9907704 L98,60 C98,61.6313642 96.6978639,62.9585982 95.0762437,62.99905 L95,63 L94,63 L94,51 L95.3419972,51 Z" opacity=".8"/><path fill="url(#e)" d="M1,126 L207,126 C207.552285,126 208,126.447715 208,127 L208,128 C208,129.225732 207.307474,130.346263 206.211146,130.894427 L205.689165,131.155418 C204.578321,131.710839 203.353417,132 202.111456,132 L200,132 L200,132 L8,132 L5.88854382,132 C4.64658306,132 3.42167853,131.710839 2.31083506,131.155418 L1.78885438,130.894427 C0.692526237,130.346263 1.50108893e-16,129.225732 0,128 L0,127 C-6.76353751e-17,126.447715 0.44771525,126 1,126 Z"/></g></g></svg>