<svg xmlns="http://www.w3.org/2000/svg" width="400" height="300" viewBox="0 0 400 300"><defs><linearGradient id="b" x1="0%" x2="100%" y1="21.875%" y2="50%"><stop offset="0%" stop-color="#0AF"/><stop offset="99.966%" stop-color="#00F"/></linearGradient><linearGradient id="c" x1="50%" x2="50%" y1="95.79%" y2="1.389%"><stop offset="0%" stop-color="#90A5AF"/><stop offset="48.117%" stop-color="#BDD1DB"/><stop offset="100%" stop-color="#5E7682"/></linearGradient><linearGradient id="d" x1="0%" x2="100%" y1="31.995%" y2="68.005%"><stop offset="0%" stop-color="#81C4FF"/><stop offset="100%" stop-color="#4382FF"/></linearGradient><linearGradient id="e" x1="3.58%" x2="94.75%" y1="50.254%" y2="50.33%"><stop offset="0%" stop-color="#758D99"/><stop offset="47.431%" stop-color="#586B74"/><stop offset="100%" stop-color="#93A8B2"/></linearGradient><linearGradient id="f" x1="50%" x2="50%" y1="0%" y2="87.33%"><stop offset="0%" stop-color="#96ABB5"/><stop offset="100%" stop-color="#5D8498"/></linearGradient><radialGradient id="a" cx="50%" cy="0%" r="83.333%" fx="50%" fy="0%" gradientTransform="matrix(.6 .6 -.45 .8 .2 -.3)"><stop offset="0%" stop-color="#4CA7F8"/><stop offset="100%" stop-color="#0000F5"/></radialGradient></defs><g fill="none" fill-rule="evenodd"><rect width="400" height="300" fill="url(#a)"/><rect width="400" height="300" fill="url(#b)" opacity=".75"/><g transform="translate(52 40)"><g transform="translate(136 167)"><path fill="url(#c)" d="M0,35 C2,23.6666667 2,10 2,0 L20,0 C20,6.4 20.6666667,18.0666667 22,35 C22.6666667,37 19.3333333,38 12,38 C4.66666667,38 0.666666667,37 0,35 Z"/><rect width="18" height="3" x="2" fill="#131516" fill-opacity=".12"/></g><path fill="#5E7682" d="M294,0 C295.104569,-2.02906125e-16 296,0.8954305 296,2 L296,166 C296,167.104569 295.104569,168 294,168 L2,168 C0.8954305,168 1.3527075e-16,167.104569 0,166 L0,2 C-1.3527075e-16,0.8954305 0.8954305,2.02906125e-16 2,0 L294,0 Z M294,1 L2,1 C1.44771525,1 1,1.44771525 1,2 L1,2 L1,166 C1,166.552285 1.44771525,167 2,167 L2,167 L294,167 C294.552285,167 295,166.552285 295,166 L295,166 L295,2 C295,1.44771525 294.552285,1 294,1 L294,1 Z"/><path fill="#0A0A0B" d="M294,1 C294.552285,1 295,1.44771525 295,2 L295,166 C295,166.552285 294.552285,167 294,167 L2,167 C1.44771525,167 1,166.552285 1,166 L1,2 C1,1.44771525 1.44771525,1 2,1 L294,1 Z M292,4 L4,4 L4,158 L292,158 L292,4 Z"/><path fill="url(#d)" d="M139.341997,75 C141.808803,75 144.020405,76.509223 144.923119,78.797467 L145,79 L145.040028,78.8932594 C145.918211,76.551437 148.156935,75 150.658003,75 L153.4975,75 C155.154354,75 156.4975,76.3431458 156.4975,78 C156.4975,78.5751631 156.33564,79.1125221 156.054987,79.5690123 C157.2188,80.2684289 157.9975,81.543277 157.9975,83 C157.9975,85.209139 156.206639,87 153.9975,87 L151,87 C149.343146,87 148,85.6568542 148,84 L148,81.9902713 C147.746737,82.6314773 147.516105,83.2840033 147.308113,83.9478492 C147.112524,84.5738809 146.532705,85 145.876831,85 L144.123169,85 C143.467295,85 142.887476,84.5738809 142.691887,83.9478492 C142.483949,83.2841755 142.253382,82.6318159 142.000188,81.9907704 L142,84 C142,85.6313642 140.697864,86.9585982 139.076244,86.99905 L139,87 L138,87 L138,75 L139.341997,75 Z" opacity=".8"/><path fill="#131516" d="M1,161 L295,161 L295,166 C295,166.552285 294.552285,167 294,167 L2,167 C1.44771525,167 1,166.552285 1,166 L1,161 L1,161 Z"/><g transform="translate(44 201)"><path fill="url(#e)" d="M101.332507,11.3345588 L98.6834131,11.3492736 L96.0536988,11.3736389 L93.4443467,11.4075241 L90.8563388,11.4507987 L87.6528402,11.5178969 L84.4861443,11.5992072 L83.2302004,11.6356537 L81.9805745,11.6743169 L79.500768,11.7582288 L77.0477068,11.8508122 L74.622373,11.9519367 L72.2257486,12.0614718 L68.6867903,12.2412588 L67.5225561,12.3052517 L65.217952,12.4392355 L62.9459855,12.5811079 L60.7076385,12.7307383 L58.503893,12.8879963 L56.3357311,13.0527513 L54.2041349,13.2248728 L52.1100863,13.4042304 L50.0545674,13.5906935 L49.0415634,13.6865488 L46.553075,13.9337089 L44.1290089,14.1914107 L42.2374289,14.4049908 L40.3892888,14.6250238 L39.4818155,14.7374194 L38.5855705,14.8513793 L36.8272561,15.0839268 L35.1153275,15.3225357 L33.4507669,15.5670756 L32.6365565,15.6915289 L31.044889,15.9447205 C29.7913534,16.149533 28.5856478,16.3597261 27.4300348,16.5749989 L26.5727529,16.7374013 L25.1862696,17.0122286 L24.653674,17.1218967 L24.1273539,17.2323455 L23.0943287,17.4555536 L22.0887716,17.6817891 L20.8728558,17.9687436 L19.7054054,18.2602041 L18.8084109,18.4965329 L18.3727779,18.6157289 L17.945984,18.7356019 L17.1197025,18.9773473 C15.1094691,19.5823024 13.4497519,20.2115327 12.2500077,20.8606099 L12,21 L12,18 L5.58665764,10.4192703 L6.82373741,10.2219735 L9.26201389,9.83787521 L12.8297209,9.28796609 L15.1483871,8.93885222 L17.4192092,8.60373211 L19.6421872,8.28260577 L21.8173212,7.97547319 L23.944611,7.68233438 L27.045838,7.26886447 L29.0535175,7.01071007 L30.7256453,6.80188524 L33.9657943,6.41468537 L35.0149976,6.29464091 L36.0487776,6.17910752 L38.0700682,5.96157398 L39.0575787,5.85957383 L40.0296661,5.76208476 L42.5015587,5.52553623 C45.8378151,5.21623024 49.3341769,4.93147535 52.9727234,4.67346673 L54.3438082,4.57797151 L57.1251274,4.39460637 L58.5349417,4.30678789 L62.1136609,4.09871828 L65.7671601,3.90736538 L67.2487632,3.83559492 L70.2454486,3.70037386 L71.7601109,3.63697471 L73.285373,3.57641743 L76.3668565,3.46393141 L79.4882189,3.36312161 L81.0633297,3.3171596 L84.2413605,3.23424999 L85.8438605,3.19735384 L89.0747796,3.13280746 L92.3388575,3.08076048 L95.6344141,3.0414187 C97.7036241,3.02084333 99.7902943,3.007833 101.892579,3.00261379 L104,3 C106.816652,3 109.606639,3.01398488 112.365586,3.0414187 L115.661143,3.08076048 L118.92522,3.13280746 L122.156139,3.19735384 L123.758639,3.23424999 L126.93667,3.3171596 L128.511781,3.36312161 L131.633144,3.46393141 L134.714627,3.57641743 C135.734955,3.61583594 136.748356,3.65716618 137.754551,3.70037386 L140.751237,3.83559492 L142.23284,3.90736538 L145.886339,4.09871828 L149.465058,4.30678789 L150.874873,4.39460637 L153.656192,4.57797151 C157.789231,4.86067024 161.745153,5.17756699 165.498441,5.52553623 L167.970334,5.76208476 C168.613251,5.82557378 169.26645,5.89207019 169.929932,5.96157398 L171.951222,6.17910752 C172.635268,6.25462609 173.329596,6.33315204 174.034206,6.41468537 L177.274355,6.80188524 L178.946482,7.01071007 L180.954162,7.26886447 L184.055389,7.68233438 L186.182679,7.97547319 L188.357813,8.28260577 L190.580791,8.60373211 L192.851613,8.93885222 L195.170279,9.28796609 L198.737986,9.83787521 L201.176263,10.2219735 L202.413342,10.4192703 L196,18 L196,21 C194.022746,20.0836756 192.316178,19.4094581 190.880298,18.9773473 L190.054016,18.7356019 C189.772477,18.6554627 189.484914,18.5757694 189.191589,18.4965329 L188.294595,18.2602041 L187.127144,17.9687436 L185.911228,17.6817891 L184.905671,17.4555536 L183.872646,17.2323455 C183.523902,17.1584544 183.170842,17.0850786 182.81373,17.0122286 L181.427247,16.7374013 C180.014216,16.4651589 178.522031,16.2007362 176.955111,15.9447205 L175.363444,15.6915289 L174.549233,15.5670756 L172.884672,15.3225357 L171.172744,15.0839268 L169.41443,14.8513793 C168.820703,14.7748882 168.219409,14.6994291 167.610711,14.6250238 L165.762571,14.4049908 L163.870991,14.1914107 L161.446925,13.9337089 L158.958437,13.6865488 L157.945433,13.5906935 L155.889914,13.4042304 L153.795865,13.2248728 L151.664269,13.0527513 L149.496107,12.8879963 L147.292362,12.7307383 L145.054015,12.5811079 L142.782048,12.4392355 L140.477444,12.3052517 L139.31321,12.2412588 L135.774251,12.0614718 L133.377627,11.9519367 L130.952293,11.8508122 L128.499232,11.7582288 L126.019426,11.6743169 C125.188475,11.6478061 124.35323,11.6227623 123.513856,11.5992072 L120.34716,11.5178969 L117.143661,11.4507987 L114.555653,11.4075241 L111.946301,11.3736389 L109.316587,11.3492736 L106.667493,11.3345588 L104,11.3296248 L101.332507,11.3345588 Z"/><path fill="#93A8B2" d="M194,18 L203,10 L206.714725,18.1723941 C207.171799,19.1779572 206.727161,20.3636588 205.721598,20.820733 C205.461686,20.9388744 205.179493,21 204.893992,21 L196,21 L196,21 L194,18 Z"/><path fill="#748B97" d="M0,18 L9,10 L12.7147246,18.1723941 C13.1717987,19.1779572 12.7271606,20.3636588 11.7215975,20.820733 C11.4616863,20.9388744 11.1794934,21 10.8939916,21 L2,21 L2,21 L0,18 Z" transform="matrix(-1 0 0 1 14 0)"/><path fill="url(#f)" d="M101.332507,8.33455876 L98.6834131,8.34927364 L96.0536988,8.37363892 L93.4443467,8.4075241 L90.8563388,8.45079867 L87.6528402,8.5178969 L84.4861443,8.59920724 L83.2302004,8.63565367 L83.2302004,8.63565367 L81.9805745,8.67431694 L79.500768,8.75822875 L77.0477068,8.85081217 L74.622373,8.95193668 L72.2257486,9.06147177 L68.6867903,9.24125878 L67.5225561,9.3052517 L65.217952,9.43923551 L62.9459855,9.58110789 L60.7076385,9.73073831 L58.503893,9.88799628 L56.3357311,10.0527513 L54.2041349,10.2248728 L52.1100863,10.4042304 L50.0545674,10.5906935 L49.0415634,10.6865488 L46.553075,10.9337089 L44.1290089,11.1914107 L42.2374289,11.4049908 L40.3892888,11.6250238 L39.4818155,11.7374194 L39.4818155,11.7374194 L38.5855705,11.8513793 L36.8272561,12.0839268 L35.1153275,12.3225357 L33.4507669,12.5670756 L32.6365565,12.6915289 L31.044889,12.9447205 C29.7913534,13.149533 28.5856478,13.3597261 27.4300348,13.5749989 L26.5727529,13.7374013 L25.1862696,14.0122286 L24.6207812,14.1289989 L24.6207812,14.1289989 L24.0648179,14.2466534 L22.9817559,14.4845765 C22.5090119,14.5910861 22.0478143,14.6986095 21.598392,14.8071161 L20.9331187,14.9706097 L19.9687021,15.2185658 L19.5017228,15.343745 L19.5017228,15.343745 L19.0449928,15.4697122 L18.1625701,15.7239719 C17.9341085,15.7917984 17.6972371,15.8650544 17.4519559,15.9437399 L17.0777266,16.0658403 L16.2914237,16.334474 L15.4546617,16.6356849 L15.0173585,16.7985068 L14.1049078,17.1485835 C13.7923477,17.2707053 13.4713778,17.3982565 13.141998,17.5312373 C12.4917179,17.7932548 11.7562503,17.6943391 11.2010524,17.2800406 L11.0661621,17.1699219 L5.55102539,12.2675781 C5.29141219,12.0359967 5.09650446,11.740828 4.98570083,11.4110532 C4.63389543,10.3640065 5.19749985,9.23001283 6.24518104,8.88009588 C7.7202731,8.38164679 9.24298622,7.88086985 10.8133204,7.37776506 L12,7 L12.1833185,6.94591209 L12.5552618,6.84873414 L13.4337419,6.64398134 L14.6354403,6.38574159 L16.7979914,5.94680683 L18.9768068,5.52098251 L21.546129,5.0305362 L22.5484531,4.87664141 L24.0923436,4.64889391 L25.6839441,4.42483673 L27.3223825,4.20444365 L29.0067869,3.98768846 L30.7362853,3.77454493 L32.5100056,3.56498686 L34.3270759,3.35898802 L36.8157622,3.08981418 L39.3778979,2.82685912 L42.5015587,2.52553623 C45.8378151,2.21623024 49.3341769,1.93147535 52.9727234,1.67346673 L54.3438082,1.57797151 L57.1251274,1.39460637 L58.5349417,1.30678789 L62.1136609,1.09871828 L65.7671601,0.907365376 L67.2487632,0.835594923 L70.2454486,0.700373864 L71.7601109,0.636974705 L71.7601109,0.636974705 L73.285373,0.576417428 L76.3668565,0.463931412 L79.4882189,0.363121611 L81.0633297,0.317159603 L84.2413605,0.234249994 L85.8438605,0.197353841 L89.0747796,0.132807463 L92.3388575,0.0807604835 L95.6344141,0.041418699 C97.7036241,0.0208433311 99.7902943,0.00783299689 101.892579,0.00261379025 L104,0 C106.816652,0 109.606639,0.0139848752 112.365586,0.041418699 L115.661143,0.0807604835 L118.92522,0.132807463 L122.156139,0.197353841 L123.758639,0.234249994 L126.93667,0.317159603 L128.511781,0.363121611 L131.633144,0.463931412 L134.714627,0.576417428 C135.734955,0.615835936 136.748356,0.657166181 137.754551,0.700373864 L140.751237,0.835594923 L142.23284,0.907365376 L145.886339,1.09871828 L149.465058,1.30678789 L150.874873,1.39460637 L153.656192,1.57797151 C157.789231,1.86067024 161.745153,2.17756699 165.498441,2.52553623 L168.622102,2.82685912 L171.184238,3.08981418 L173.672924,3.35898802 L175.489994,3.56498686 L177.263715,3.77454493 L178.993213,3.98768846 L180.677617,4.20444365 L182.316056,4.42483673 L183.907656,4.64889391 L185.451547,4.87664141 L186.453871,5.0305362 L189.023193,5.52098251 L191.202009,5.94680683 L193.36456,6.38574159 L194.566258,6.64398134 L195.444738,6.84873414 L195.816681,6.94591209 L196,7 C197.992681,7.63033589 199.910954,8.25703452 201.754819,8.88009588 C202.8025,9.23001283 203.366105,10.3640065 203.014299,11.4110532 C202.903496,11.740828 202.708588,12.0359967 202.448975,12.2675781 L196.933838,17.1699219 C196.366919,17.6753466 195.562472,17.8150896 194.858002,17.5312373 C194.528622,17.3982565 194.207652,17.2707053 193.895092,17.1485835 L192.982641,16.7985068 L192.545338,16.6356849 L192.545338,16.6356849 L191.708576,16.334474 L190.922273,16.0658403 C190.541737,15.9396678 190.180122,15.8257116 189.83743,15.7239719 L188.955007,15.4697122 C188.653953,15.3854736 188.346018,15.3017538 188.031298,15.2185658 L187.066881,14.9706097 C186.410497,14.8063862 185.72736,14.6443409 185.018244,14.4845765 L183.935182,14.2466534 C183.567731,14.1679245 183.193882,14.0897786 182.81373,14.0122286 L181.427247,13.7374013 C180.014216,13.4651589 178.522031,13.2007362 176.955111,12.9447205 L175.363444,12.6915289 L174.549233,12.5670756 L172.884672,12.3225357 L171.172744,12.0839268 L169.41443,11.8513793 C168.820703,11.7748882 168.219409,11.6994291 167.610711,11.6250238 L165.762571,11.4049908 L163.870991,11.1914107 L161.446925,10.9337089 L158.958437,10.6865488 L157.945433,10.5906935 L155.889914,10.4042304 L153.795865,10.2248728 L151.664269,10.0527513 L149.496107,9.88799628 L147.292362,9.73073831 L145.054015,9.58110789 L142.782048,9.43923551 L140.477444,9.3052517 L139.31321,9.24125878 L135.774251,9.06147177 L133.377627,8.95193668 L130.952293,8.85081217 L128.499232,8.75822875 L126.019426,8.67431694 C125.188475,8.64780611 124.35323,8.62276229 123.513856,8.59920724 L120.34716,8.5178969 L117.143661,8.45079867 L114.555653,8.4075241 L111.946301,8.37363892 L109.316587,8.34927364 L106.667493,8.33455876 L104,8.3296248 L101.332507,8.33455876 Z"/></g></g></g></svg>