<svg xmlns="http://www.w3.org/2000/svg" width="400" height="300" viewBox="0 0 400 300"><defs><linearGradient id="b" x1="0%" x2="100%" y1="21.875%" y2="50%"><stop offset="0%" stop-color="#0AF"/><stop offset="99.966%" stop-color="#00F"/></linearGradient><linearGradient id="c" x1="50%" x2="50%" y1="95.79%" y2="1.389%"><stop offset="0%" stop-color="#90A5AF"/><stop offset="48.117%" stop-color="#BDD1DB"/><stop offset="100%" stop-color="#5E7682"/></linearGradient><linearGradient id="d" x1="3.58%" x2="94.75%" y1="50.189%" y2="50.245%"><stop offset="0%" stop-color="#758D99"/><stop offset="47.431%" stop-color="#586B74"/><stop offset="100%" stop-color="#93A8B2"/></linearGradient><linearGradient id="e" x1="50%" x2="50%" y1="0%" y2="87.33%"><stop offset="0%" stop-color="#96ABB5"/><stop offset="100%" stop-color="#5D8498"/></linearGradient><linearGradient id="f" x1="84.164%" x2="0%" y1="56.389%" y2="38.48%"><stop offset="0%" stop-color="#96ABB5"/><stop offset="100%" stop-color="#5C7480"/></linearGradient><linearGradient id="g" x1="0%" x2="66.544%" y1="33.517%" y2="73.656%"><stop offset="0%" stop-color="#ACBBC3"/><stop offset="100%" stop-color="#67818E"/></linearGradient><linearGradient id="h" x1="0%" x2="100%" y1="31.995%" y2="68.005%"><stop offset="0%" stop-color="#81C4FF"/><stop offset="100%" stop-color="#4382FF"/></linearGradient><radialGradient id="a" cx="50%" cy="0%" r="83.333%" fx="50%" fy="0%" gradientTransform="matrix(.6 .6 -.45 .8 .2 -.3)"><stop offset="0%" stop-color="#4CA7F8"/><stop offset="100%" stop-color="#0000F5"/></radialGradient></defs><g fill="none" fill-rule="evenodd"><rect width="400" height="300" fill="url(#a)"/><rect width="400" height="300" fill="url(#b)" opacity=".75"/><g transform="translate(52 40)"><g transform="translate(45 167)"><path fill="url(#c)" d="M91,35 C93,23.6666667 93,10 93,0 L111,0 C111,6.4 111.666667,18.0666667 113,35 C113.666667,37 110.333333,38 103,38 C95.6666667,38 91.6666667,37 91,35 Z"/><path fill="url(#d)" d="M101.044908,45.0039537 C73.7037925,45.1146002 47.6000617,47.5452995 19,52 C15.6666667,52.6666667 11.6666667,50.6666667 7,46 C25.6666667,40.6666667 57.6666667,37.6666667 103,37 L103,37 C148.333333,37.6666667 180.333333,40.6666667 199,46 C194.333333,50.6666667 190.333333,52.6666667 187,52 C157.718984,47.4392352 131.054588,45 103,45 Z"/><path fill="url(#e)" d="M100.952407,42.0043267 C72.2709573,42.1254732 42.9534884,44.7906977 13,50 L12.650646,49.8670705 L11.9785899,49.60359 C11.8695419,49.5599409 11.7619745,49.516424 11.6558878,49.4730392 L11.0371355,49.214316 C10.9369715,49.1714598 10.8382881,49.1287357 10.7410853,49.0861437 L10.1756368,48.8321779 L9.64572422,48.5813835 C9.56036677,48.5398487 9.47648998,48.4984461 9.39409385,48.4571757 L8.91748503,48.2111386 C8.6115911,48.048171 8.32938775,47.8873178 8.07087497,47.7285789 L7.70087375,47.4920564 C6.35064612,46.5914654 5.7836882,45.76078 6,45 C4.49299145,44.2464957 4.40540463,43.6349336 5.25594638,43.1118367 L5.44514857,43.0048545 C5.47886063,42.9872286 5.51364871,42.9697036 5.54949308,42.9522772 L5.7770769,42.8488845 L6.02906445,42.7477532 L6.30450848,42.6487782 L6.60246176,42.5518541 L6.92197707,42.4568757 L7.26210716,42.3637378 L7.6219048,42.2723351 L8.00042276,42.1825623 L8.60122823,42.0507292 L9.23882624,41.9219714 L9.91001986,41.7959337 L11.0946499,41.5909511 L12.3489202,41.3908934 L14.4636626,41.0769399 L15,41 L16.1672085,40.7574559 C16.3637599,40.7173787 16.5613196,40.6774749 16.7598875,40.6377446 L17.9633949,40.4014448 C18.165996,40.3624085 18.3696055,40.3235457 18.5742232,40.2848565 L19.8140288,40.0548041 L21.078033,39.8289186 L23.0194111,39.4979061 L24.3439107,39.2824438 L25.6926081,39.0711533 L27.065503,38.8640361 L28.4625952,38.6610936 L29.8838845,38.4623272 L31.3293706,38.2677384 L33.5429683,37.9836913 L35.0489455,37.7995527 L36.5791187,37.6195967 L38.1334878,37.4438247 L39.7120524,37.2722383 L41.3148123,37.1048387 L42.9417674,36.9416275 L44.5929173,36.782606 L46.2682619,36.6277758 L48.8266432,36.4033922 L51.4394612,36.1884469 L54.106715,35.9829448 L56.828404,35.7868907 L59.6045273,35.6002895 L62.4350841,35.423146 L65.3200737,35.2554651 L67.2736401,35.1489373 L69.2513983,35.0466186 L71.253348,34.9485105 L73.2794891,34.8546145 L75.3298212,34.764932 L78.4506771,34.6383116 L81.6259616,34.5211797 L84.855674,34.4135411 L88.1398134,34.3154007 L91.478379,34.2267632 L93.7343259,34.1729534 L97.1636004,34.100165 L99.480019,34.0569258 L101.820626,34.0179173 L103,34 L105.352701,34.0368926 L108.8364,34.100165 L112.265674,34.1729534 L114.521621,34.2267632 L116.753379,34.2847987 L120.05566,34.3797721 L123.303515,34.4842451 L126.496942,34.5982131 L129.635941,34.7216712 L132.720511,34.8546145 L134.746652,34.9485105 L136.748602,35.0466186 L138.72636,35.1489373 L141.647638,35.3103071 L144.514483,35.4811427 L147.326895,35.6614393 L149.171596,35.7868907 L151.893285,35.9829448 L153.677503,36.1188967 L156.308466,36.3306948 L158.884993,36.5519329 L160.572435,36.7046669 L162.235682,36.8615929 L163.874735,37.0227094 L166.287948,37.2722383 L167.866512,37.4438247 L169.420881,37.6195967 L170.951054,37.7995527 L172.457032,37.9836913 L174.670629,38.2677384 L176.116116,38.4623272 L177.537405,38.6610936 L178.934497,38.8640361 L180.307392,39.0711533 L181.656089,39.2824438 L182.980589,39.4979061 L184.280891,39.7175388 C184.495591,39.7544917 184.709283,39.7916183 184.921967,39.8289186 L186.185971,40.0548041 L187.425777,40.2848565 L188.641384,40.5190742 C188.841968,40.5584575 189.041544,40.5980144 189.240112,40.6377446 L190.419421,40.8782077 C190.613955,40.9186317 190.807482,40.9592292 191,41 L193.36931,41.34769 L194.620543,41.5442438 L195.575785,41.7045972 L196.482476,41.8685919 L197.126252,41.9944643 L197.53647,42.0799386 L198.121074,42.2107419 L198.489,42.2998196 L198.838416,42.3905157 L199.168411,42.4829313 L199.478076,42.5771675 L199.7665,42.6733256 L200.032772,42.7715066 L200.275982,42.8718117 C201.509988,43.4126165 201.721185,44.0483656 200.28812,44.8481094 L200,45 C200.216312,45.76078 199.649354,46.5914654 198.299126,47.4920564 L197.929125,47.7285789 C197.670612,47.8873178 197.388409,48.048171 197.082515,48.2111386 L196.605906,48.4571757 C196.52351,48.4984461 196.439633,48.5398487 196.354276,48.5813835 L195.824363,48.8321779 L195.258915,49.0861437 L194.65793,49.3432811 C194.554805,49.3864017 194.450199,49.4296543 194.344112,49.4730392 L193.689824,49.7349338 C193.465805,49.8227606 193.235864,49.911116 193,50 C162.333333,44.6666667 132.333333,42 103,42 L100.952407,42.0043267 Z"/><path fill="url(#f)" d="M181.575352,50.7054583 L183.711597,45.8989061 C184.517666,44.0852506 186.168453,42.7875541 188.121154,42.4325175 L196,41 L196,41 L187.988602,42.6022796 C187.447042,42.7105915 187.095826,43.2374166 187.204138,43.7789764 C187.247314,43.99486 187.360527,44.1904612 187.526214,44.3354369 L191.863225,48.1303221 C193.215841,49.3138607 195.027789,49.8287019 196.800647,49.5332255 L200,49 L200,49 L200.229385,49.0764616 C201.020965,49.3403216 201.448766,50.1959248 201.184906,50.9875047 C201.007939,51.5184065 200.552005,51.9079991 200,52 L194.959199,52.8401336 C194.322078,52.9463204 193.674441,52.974957 193.030435,52.9254181 L182.412467,52.1086513 C181.861809,52.066293 181.449751,51.5855583 181.492109,51.0349003 C181.50086,50.9211416 181.529014,50.8097194 181.575352,50.7054583 Z" transform="matrix(-1 0 0 1 387 0)"/><path fill="url(#g)" d="M0.575351845,50.7054583 L2.71159728,45.8989061 C3.51766639,44.0852506 5.16845254,42.7875541 7.12115394,42.4325175 L15,41 L15,41 L6.98860212,42.6022796 C6.44704237,42.7105915 6.09582563,43.2374166 6.20413758,43.7789764 C6.24731431,43.99486 6.36052713,44.1904612 6.52621365,44.3354369 L10.8632253,48.1303221 C12.2158408,49.3138607 14.0277888,49.8287019 15.8006469,49.5332255 L19,49 L19,49 L19.2293848,49.0764616 C20.0209648,49.3403216 20.4487664,50.1959248 20.1849064,50.9875047 C20.0079391,51.5184065 19.5520054,51.9079991 19,52 L13.9591986,52.8401336 C13.3220777,52.9463204 12.6744415,52.974957 12.0304347,52.9254181 L1.4124669,52.1086513 C0.861808908,52.066293 0.449750602,51.5855583 0.492108908,51.0349003 C0.500859576,50.9211416 0.529013581,50.8097194 0.575351845,50.7054583 Z"/></g><path fill="#5E7682" d="M294,0 C295.104569,-2.02906125e-16 296,0.8954305 296,2 L296,166 C296,167.104569 295.104569,168 294,168 L2,168 C0.8954305,168 1.3527075e-16,167.104569 0,166 L0,2 C-1.3527075e-16,0.8954305 0.8954305,2.02906125e-16 2,0 L294,0 Z M294,1 L2,1 C1.44771525,1 1,1.44771525 1,2 L1,2 L1,166 C1,166.552285 1.44771525,167 2,167 L2,167 L294,167 C294.552285,167 295,166.552285 295,166 L295,166 L295,2 C295,1.44771525 294.552285,1 294,1 L294,1 Z"/><path fill="#0A0A0B" d="M294,1 C294.552285,1 295,1.44771525 295,2 L295,166 C295,166.552285 294.552285,167 294,167 L2,167 C1.44771525,167 1,166.552285 1,166 L1,2 C1,1.44771525 1.44771525,1 2,1 L294,1 Z M292,4 L4,4 L4,158 L292,158 L292,4 Z"/><path fill="url(#h)" d="M139.341997,75 C141.808803,75 144.020405,76.509223 144.923119,78.797467 L145,79 L145.040028,78.8932594 C145.918211,76.551437 148.156935,75 150.658003,75 L153.4975,75 C155.154354,75 156.4975,76.3431458 156.4975,78 C156.4975,78.5751631 156.33564,79.1125221 156.054987,79.5690123 C157.2188,80.2684289 157.9975,81.543277 157.9975,83 C157.9975,85.209139 156.206639,87 153.9975,87 L151,87 C149.343146,87 148,85.6568542 148,84 L148,81.9902713 C147.746737,82.6314773 147.516105,83.2840033 147.308113,83.9478492 C147.112524,84.5738809 146.532705,85 145.876831,85 L144.123169,85 C143.467295,85 142.887476,84.5738809 142.691887,83.9478492 C142.483949,83.2841755 142.253382,82.6318159 142.000188,81.9907704 L142,84 C142,85.6313642 140.697864,86.9585982 139.076244,86.99905 L139,87 L138,87 L138,75 L139.341997,75 Z" opacity=".8"/><path fill="#131516" d="M1,161 L295,161 L295,166 C295,166.552285 294.552285,167 294,167 L2,167 C1.44771525,167 1,166.552285 1,166 L1,161 L1,161 Z"/></g></g></svg>