<svg xmlns="http://www.w3.org/2000/svg" width="400" height="300" viewBox="0 0 400 300"><defs><linearGradient id="a" x1="40.009%" x2="100%" y1="21.875%" y2="82.927%"><stop offset=".069%" stop-color="#CEF"/><stop offset="100%" stop-color="#05F"/></linearGradient><linearGradient id="c" x1="50%" x2="50%" y1="0%" y2="93.594%"><stop offset="0%" stop-color="#D9E3E8"/><stop offset="100%" stop-color="#869298"/></linearGradient><linearGradient id="d" x1="-86.145%" x2="-44.128%" y1="44.289%" y2="96.169%"><stop offset="0%" stop-color="#FAFDFF"/><stop offset="100%" stop-color="#77C0FF"/></linearGradient><radialGradient id="b" cx="0%" cy="0%" r="142.4%" fx="0%" fy="0%" gradientTransform="matrix(.70225 .35112 -.26334 .93633 0 0)"><stop offset="0%" stop-color="#0AF"/><stop offset="99.966%" stop-color="#002BFF"/></radialGradient></defs><g fill="none" fill-rule="evenodd"><rect width="400" height="300" fill="url(#a)"/><rect width="400" height="300" fill="url(#b)" opacity=".5"/><g transform="translate(72 76)"><g transform="translate(19)"><path fill="#95A8B2" d="M213,0 C215.761424,-1.52230872e-14 218,2.23857625 218,5 L218,138 C218,140.761424 215.761424,143 213,143 L5,143 C2.23857625,143 3.38176876e-16,140.761424 0,138 L0,5 C-3.38176876e-16,2.23857625 2.23857625,5.07265313e-16 5,0 L213,0 Z M213,1 L5,1 C2.790861,1 1,2.790861 1,5 L1,5 L1,138 C1,140.209139 2.790861,142 5,142 L5,142 L213,142 C215.209139,142 217,140.209139 217,138 L217,138 L217,5 C217,2.790861 215.209139,1 213,1 L213,1 Z"/><path fill="#0A0A0B" d="M213,1 C215.209139,1 217,2.790861 217,5 L217,138 C217,140.209139 215.209139,142 213,142 L5,142 C2.790861,142 1,140.209139 1,138 L1,5 C1,2.790861 2.790861,1 5,1 L213,1 Z M210,7 L8,7 C7.44771525,7 7,7.44771525 7,8 L7,8 L7,130 C7,130.552285 7.44771525,131 8,131 L8,131 L210,131 C210.552285,131 211,130.552285 211,130 L211,130 L211,8 C211,7.44771525 210.552285,7 210,7 L210,7 Z"/><path fill="#131516" d="M1,136 L217,136 L217,138 C217,140.209139 215.209139,142 213,142 L5,142 C2.790861,142 1,140.209139 1,138 L1,136 L1,136 Z"/></g><g transform="translate(0 140)"><rect width="58" height="6" x="99" fill="#95A8B2"/><path fill="url(#c)" d="M255,0 C255.552285,-1.01453063e-16 256,0.44771525 256,1 L256,3.76393202 C256,5.1343422 255.225732,6.38713394 254,7 L253.689165,7.15541753 C252.578321,7.71083927 251.353417,8 250.111456,8 L5.88854382,8 C4.64658306,8 3.42167853,7.71083927 2.31083506,7.15541753 L2,7 C0.774267871,6.38713394 1.67826844e-16,5.1343422 0,3.76393202 L0,1 C-6.76353751e-17,0.44771525 0.44771525,1.01453063e-16 1,0 L108,0 L108,2 C108,3.0543618 108.815878,3.91816512 109.850738,3.99451426 L110,4 L146,4 C147.104569,4 148,3.1045695 148,2 L148,2 L148,0 L255,0 Z"/></g><path fill="url(#d)" d="M119.341997,63 C121.808803,63 124.020405,64.509223 124.923119,66.797467 L125,67 L125.040028,66.8932594 C125.918211,64.551437 128.156935,63 130.658003,63 L133.4975,63 C135.154354,63 136.4975,64.3431458 136.4975,66 C136.4975,66.5751631 136.33564,67.1125221 136.054987,67.5690123 C137.2188,68.2684289 137.9975,69.543277 137.9975,71 C137.9975,73.209139 136.206639,75 133.9975,75 L131,75 C129.343146,75 128,73.6568542 128,72 L128,69.9902713 C127.746737,70.6314773 127.516105,71.2840033 127.308113,71.9478492 C127.112524,72.5738809 126.532705,73 125.876831,73 L124.123169,73 C123.467295,73 122.887476,72.5738809 122.691887,71.9478492 C122.483949,71.2841755 122.253382,70.6318159 122.000188,69.9907704 L122,72 C122,73.6313642 120.697864,74.9585982 119.076244,74.99905 L119,75 L118,75 L118,63 L119.341997,63 Z"/></g></g></svg>