<svg xmlns="http://www.w3.org/2000/svg" width="400" height="300" viewBox="0 0 400 300"><defs><linearGradient id="a" x1="40.009%" x2="100%" y1="21.875%" y2="82.927%"><stop offset=".069%" stop-color="#CEF"/><stop offset="100%" stop-color="#05F"/></linearGradient><linearGradient id="c" x1="3.172%" x2="50%" y1="8.052%" y2="88.15%"><stop offset="0%" stop-color="#D9E3E8"/><stop offset="100%" stop-color="#869298"/></linearGradient><linearGradient id="d" x1="0%" x2="50%" y1="35.778%" y2="64.222%"><stop offset="0%" stop-color="#1C1F21"/><stop offset="100%" stop-color="#0A0A0B"/></linearGradient><linearGradient id="e" x1="0%" x2="50%" y1="49.601%" y2="50.399%"><stop offset="0%" stop-color="#1C1F21"/><stop offset="100%" stop-color="#0A0A0B"/></linearGradient><linearGradient id="f" x1="3.172%" x2="50%" y1="2.066%" y2="93.594%"><stop offset="0%" stop-color="#E6ECEF"/><stop offset="100%" stop-color="#98A7AE"/></linearGradient><linearGradient id="g" x1="3.172%" x2="50%" y1="2.066%" y2="93.594%"><stop offset="0%" stop-color="#D9E3E8"/><stop offset="100%" stop-color="#869298"/></linearGradient><linearGradient id="h" x1="3.172%" x2="50%" y1="44.674%" y2="54.844%"><stop offset="0%" stop-color="#E6ECEF"/><stop offset="100%" stop-color="#98A7AE"/></linearGradient><linearGradient id="i" x1="50%" x2="50%" y1="0%" y2="100%"><stop offset=".027%" stop-color="#262A2C" stop-opacity=".72"/><stop offset="100%" stop-color="#131516"/></linearGradient><radialGradient id="b" cx="0%" cy="0%" r="142.4%" fx="0%" fy="0%" gradientTransform="matrix(.70225 .35112 -.26334 .93633 0 0)"><stop offset="0%" stop-color="#0AF"/><stop offset="99.966%" stop-color="#002BFF"/></radialGradient></defs><g fill="none" fill-rule="evenodd"><rect width="400" height="300" fill="url(#a)"/><rect width="400" height="300" fill="url(#b)" opacity=".5"/><path fill="#131516" fill-opacity=".24" d="M85,42 C193,42 282,42 315,42 C321,42 324,46.6666667 324,56 L324,272 C324,273.104569 323.104569,274 322,274 L78,274 C76.8954305,274 76,273.104569 76,272 L76,56 L76,56 C76,46.6666667 79,42 85,42 Z"/><path fill="url(#c)" d="M85,34 C193,34 282,34 315,34 C321,34 324,38.6666667 324,48 L324,264 C324,265.104569 323.104569,266 322,266 L78,266 C76.8954305,266 76,265.104569 76,264 L76,48 L76,48 C76,38.6666667 79,34 85,34 Z"/><path fill="url(#d)" d="M200,86 C215.696452,86 229.271659,92.127912 240.725623,104.383736 C245.260406,109.242637 251.608929,111.99916 258.255219,111.999602 L288,111.999975 C289.10456,112.000014 289.999975,112.89544 290,114 L290,170 C289.999928,171.104542 289.104542,171.99996 288,172.000072 L253.102648,172.00132 C249.277839,172.001457 245.69361,173.867522 243.5,177.000769 L241.367086,180.047321 C240.733591,180.952174 239.486515,181.172153 238.581662,180.538659 C238.486247,180.471858 238.396851,180.396851 238.314491,180.314491 L232.34198,174.34198 C231.598948,173.599042 231.557674,172.407805 232.247592,171.615298 C240.082531,162.647564 244,152.775798 244,142 C244,117.699471 224.300529,98 200,98 C175.699471,98 156,118 156,142 C156,153.950765 159.857348,163.824496 167.572044,171.621194 C168.343274,172.403824 168.338643,173.662061 167.56134,174.43866 L161.579932,180.420068 C160.798883,181.201117 159.532554,181.201117 158.751505,180.420068 C158.699363,180.367926 158.650144,180.31294 158.604075,180.255362 L156,177.000769 C153.471724,173.840911 149.644312,172.001452 145.597476,172.001304 L112,172.000073 C110.895459,171.99996 110.000073,171.104541 110,170 L110,114 C110.000025,112.89544 110.89544,112.000014 112,111.999975 L141.744781,111.999602 C148.391071,111.99916 154.739594,109.242637 159.274377,104.383736 C170.728341,92.127912 184.303548,86 200,86 Z"/><g transform="translate(144 219)"><rect width="12" height="12" fill="#211E1E" rx="3"/><rect width="8" height="8" x="2" y="2" fill="#FFF" rx="1"/></g><g transform="translate(123 199)"><rect width="12" height="12" fill="#211E1E" rx="3"/><rect width="8" height="8" x="2" y="2" fill="#FFF" rx="1"/></g><g transform="translate(265 199)"><rect width="12" height="12" fill="#211E1E" rx="3"/><rect width="8" height="8" x="2" y="2" fill="#FFF" rx="1"/></g><rect width="112" height="10" x="144" y="200" fill="url(#e)" rx="3"/><g transform="translate(164 219)"><rect width="12" height="12" fill="#211E1E" rx="3"/><rect width="8" height="8" x="2" y="2" fill="#FFF" rx="1"/></g><g transform="translate(184 219)"><rect width="12" height="12" fill="#211E1E" rx="3"/><rect width="8" height="8" x="2" y="2" fill="#FFF" rx="1"/></g><g transform="translate(204 219)"><rect width="12" height="12" fill="#211E1E" rx="3"/><rect width="8" height="8" x="2" y="2" fill="#FFF" rx="1"/></g><g transform="translate(224 219)"><rect width="12" height="12" fill="#211E1E" rx="3"/><rect width="8" height="8" x="2" y="2" fill="#FFF" rx="1"/></g><g transform="translate(244 219)"><rect width="12" height="12" fill="#211E1E" rx="3"/><rect width="8" height="8" x="2" y="2" fill="#FFF" rx="1"/></g><circle cx="204" cy="147" r="36" fill="#131516" fill-opacity=".24"/><circle cx="200" cy="142" r="36" fill="url(#f)"/><circle cx="200" cy="142" r="35" fill="url(#g)"/><path fill="#131516" d="M120.450677 31 135.549323 31C136.508619 31 137.460094 31.1725354 138.358311 31.5093666L145 34 145 34 111 34 117.641689 31.5093666C118.539906 31.1725354 119.491381 31 120.450677 31ZM158.450677 31 173.549323 31C174.508619 31 175.460094 31.1725354 176.358311 31.5093666L183 34 183 34 149 34 155.641689 31.5093666C156.539906 31.1725354 157.491381 31 158.450677 31Z"/><path fill="url(#h)" d="M196,27 L206,27 C206.552285,27 207,27.4477153 207,28 L207,31 L207,31 L195,31 L195,28 C195,27.4477153 195.447715,27 196,27 Z"/><path fill="#131516" d="M193,30 L209,30 C210.104569,30 211,30.8954305 211,32 L211,34 L211,34 L191,34 L191,32 C191,30.8954305 191.895431,30 193,30 Z"/><path fill="url(#h)" d="M220,27 L230,27 C230.552285,27 231,27.4477153 231,28 L231,31 L231,31 L219,31 L219,28 C219,27.4477153 219.447715,27 220,27 Z"/><path fill="#131516" d="M217,30 L233,30 C234.104569,30 235,30.8954305 235,32 L235,34 L235,34 L215,34 L215,32 C215,30.8954305 215.895431,30 217,30 Z"/><path fill="url(#i)" d="M99,34 L99,43 C99,44.6568542 97.6568542,46 96,46 C94.3431458,46 93,44.6568542 93,43 L93,34 L99,34 Z M115,34 L115,43 C115,44.6568542 113.656854,46 112,46 C110.343146,46 109,44.6568542 109,43 L109,34 L115,34 Z M131,34 L131,43 C131,44.6568542 129.656854,46 128,46 C126.343146,46 125,44.6568542 125,43 L125,34 L131,34 Z M147,34 L147,43 C147,44.6568542 145.656854,46 144,46 C142.343146,46 141,44.6568542 141,43 L141,34 L147,34 Z M163,34 L163,43 C163,44.6568542 161.656854,46 160,46 C158.343146,46 157,44.6568542 157,43 L157,34 L163,34 Z M179,34 L179,43 C179,44.6568542 177.656854,46 176,46 C174.343146,46 173,44.6568542 173,43 L173,34 L179,34 Z M195,34 L195,43 C195,44.6568542 193.656854,46 192,46 C190.343146,46 189,44.6568542 189,43 L189,34 L195,34 Z M211,34 L211,43 C211,44.6568542 209.656854,46 208,46 C206.343146,46 205,44.6568542 205,43 L205,34 L211,34 Z M227,34 L227,43 C227,44.6568542 225.656854,46 224,46 C222.343146,46 221,44.6568542 221,43 L221,34 L227,34 Z M243,34 L243,43 C243,44.6568542 241.656854,46 240,46 C238.343146,46 237,44.6568542 237,43 L237,34 L243,34 Z M259,34 L259,43 C259,44.6568542 257.656854,46 256,46 C254.343146,46 253,44.6568542 253,43 L253,34 L259,34 Z M275,34 L275,43 C275,44.6568542 273.656854,46 272,46 C270.343146,46 269,44.6568542 269,43 L269,34 L275,34 Z M291,34 L291,43 C291,44.6568542 289.656854,46 288,46 C286.343146,46 285,44.6568542 285,43 L285,34 L291,34 Z M307,34 L307,43 C307,44.6568542 305.656854,46 304,46 C302.343146,46 301,44.6568542 301,43 L301,34 L307,34 Z"/><g transform="translate(262 132)"><rect width="7" height="2" x="11" y="16" fill="#63BF4D"/><rect width="7" height="2" y="12" fill="#63BF4D"/><rect width="7" height="2" x="11" y="12" fill="#63BF4D"/><rect width="7" height="2" y="8" fill="#63BF4D"/><rect width="7" height="2" x="11" y="8" fill="#63BF4D"/><rect width="7" height="2" y="4" fill="#C5C15E"/><rect width="7" height="2" x="11" y="4" fill="#C5C15E"/><rect width="7" height="2" fill="#B93722" opacity=".25"/><rect width="7" height="2" x="11" fill="#B93722" opacity=".25"/><rect width="7" height="2" y="16" fill="#63BF4D"/></g><g fill="#63BF4D" transform="translate(147 89)"><rect width="2" height="6" x="13.698" y="82.139" transform="rotate(-130 14.698 85.14)"/><rect width="2" height="6" x="8.699" y="75" transform="rotate(-120 9.699 78)"/><rect width="2" height="6" x="5.015" y="67.101" transform="rotate(-110 6.015 70.101)"/><rect width="2" height="6" x="2.76" y="58.682" transform="rotate(-100 3.76 61.682)"/><rect width="2" height="6" x="2" y="50" transform="rotate(-90 3 53)"/><rect width="2" height="6" x="2.76" y="41.318" transform="rotate(-80 3.76 44.318)"/><rect width="2" height="6" x="5.015" y="32.899" transform="rotate(-70 6.015 35.899)"/><rect width="2" height="6" x="8.699" y="25" transform="rotate(-60 9.699 28)"/><rect width="2" height="6" x="13.698" y="17.861" transform="rotate(-50 14.698 20.86)"/><rect width="2" height="6" x="19.861" y="11.698" transform="rotate(-40 20.86 14.698)"/><rect width="2" height="6" x="27" y="6.699" opacity=".25" transform="rotate(-30 28 9.699)"/><rect width="2" height="6" x="34.899" y="3.015" opacity=".25" transform="rotate(-20 35.899 6.015)"/><rect width="2" height="6" x="43.318" y=".76" opacity=".25" transform="rotate(-10 44.318 3.76)"/><rect width="2" height="6" x="84.139" y="11.698" opacity=".25" transform="rotate(40 85.14 14.698)"/><rect width="2" height="6" x="90.302" y="17.861" opacity=".25" transform="rotate(50 91.302 20.86)"/><rect width="2" height="6" x="95.301" y="25" opacity=".25" transform="rotate(60 96.301 28)"/><rect width="2" height="6" x="98.985" y="32.899" opacity=".25" transform="rotate(70 99.985 35.899)"/><rect width="2" height="6" x="101.24" y="41.318" opacity=".25" transform="rotate(80 102.24 44.318)"/><rect width="2" height="6" x="102" y="50" opacity=".25" transform="rotate(90 103 53)"/><rect width="2" height="6" x="101.24" y="58.682" opacity=".25" transform="rotate(100 102.24 61.682)"/><rect width="2" height="6" x="98.985" y="67.101" opacity=".25" transform="rotate(110 99.985 70.101)"/><rect width="2" height="6" x="95.301" y="75" opacity=".25" transform="rotate(120 96.301 78)"/><rect width="2" height="6" x="90.302" y="82.139" opacity=".25" transform="rotate(130 91.302 85.14)"/><rect width="2" height="6" x="52" opacity=".25"/><rect width="2" height="6" x="60.682" y=".76" opacity=".25" transform="rotate(10 61.682 3.76)"/><rect width="2" height="6" x="69.101" y="3.015" opacity=".25" transform="rotate(20 70.101 6.015)"/><rect width="2" height="6" x="77" y="6.699" opacity=".25" transform="rotate(30 78 9.699)"/></g><g transform="translate(120 132)"><rect width="7" height="2" x="11" y="16" fill="#63BF4D"/><rect width="7" height="2" y="12" fill="#63BF4D"/><rect width="7" height="2" x="11" y="12" fill="#63BF4D"/><rect width="7" height="2" y="8" fill="#63BF4D"/><rect width="7" height="2" x="11" y="8" fill="#63BF4D" opacity=".25"/><rect width="7" height="2" y="4" fill="#C5C15E"/><rect width="7" height="2" x="11" y="4" fill="#C5C15E" opacity=".25"/><rect width="7" height="2" fill="#B93722" opacity=".25"/><rect width="7" height="2" x="11" fill="#B93722" opacity=".25"/><rect width="7" height="2" y="16" fill="#63BF4D"/></g></g></svg>