<svg xmlns="http://www.w3.org/2000/svg" width="400" height="300" viewBox="0 0 400 300"><defs><radialGradient id="a" cx="50%" cy="0%" r="83.333%" fx="50%" fy="0%" gradientTransform="matrix(.6 .6 -.45 .8 .2 -.3)"><stop offset="0%" stop-color="#4CA7F8"/><stop offset="100%" stop-color="#0000F5"/></radialGradient><linearGradient id="b" x1="0%" x2="100%" y1="21.875%" y2="50%"><stop offset="0%" stop-color="#0AF"/><stop offset="99.966%" stop-color="#00F"/></linearGradient></defs><g fill="none" fill-rule="evenodd"><rect width="400" height="300" fill="url(#a)"/><rect width="400" height="300" fill="url(#b)" opacity=".75"/><g transform="translate(54 89)"><rect width="293" height="123" fill="#A6BDC9" rx="4"/><rect width="27" height="17" x="3" y="3" fill="#E6ECEF" rx="2"/><rect width="17" height="17" x="33" y="3" fill="#E6ECEF" rx="2"/><rect width="17" height="17" x="3" y="23" fill="#E6ECEF" rx="2"/><rect width="17" height="17" x="73" y="3" fill="#E6ECEF" rx="2"/><rect width="17" height="17" x="43" y="23" fill="#E6ECEF" rx="2"/><rect width="17" height="17" x="113" y="3" fill="#E6ECEF" rx="2"/><rect width="17" height="17" x="153" y="3" fill="#E6ECEF" rx="2"/><rect width="17" height="17" x="193" y="3" fill="#E6ECEF" rx="2"/><rect width="17" height="17" x="233" y="3" fill="#E6ECEF" rx="2"/><rect width="17" height="17" x="53" y="3" fill="#E6ECEF" rx="2"/><rect width="17" height="17" x="23" y="23" fill="#E6ECEF" rx="2"/><rect width="17" height="17" x="63" y="23" fill="#E6ECEF" rx="2"/><rect width="17" height="17" x="103" y="23" fill="#E6ECEF" rx="2"/><rect width="17" height="17" x="83" y="23" fill="#E6ECEF" rx="2"/><rect width="17" height="17" x="123" y="23" fill="#E6ECEF" rx="2"/><rect width="17" height="17" x="163" y="23" fill="#E6ECEF" rx="2"/><rect width="17" height="17" x="143" y="23" fill="#E6ECEF" rx="2"/><rect width="17" height="17" x="183" y="23" fill="#E6ECEF" rx="2"/><rect width="17" height="17" x="223" y="23" fill="#E6ECEF" rx="2"/><rect width="17" height="17" x="243" y="23" fill="#E6ECEF" rx="2"/><rect width="27" height="17" x="263" y="23" fill="#E6ECEF" rx="2"/><rect width="17" height="17" x="203" y="23" fill="#E6ECEF" rx="2"/><rect width="27" height="17" x="3" y="43" fill="#E6ECEF" rx="2"/><rect width="17" height="17" x="73" y="43" fill="#E6ECEF" rx="2"/><rect width="17" height="17" x="53" y="43" fill="#E6ECEF" rx="2"/><rect width="17" height="17" x="33" y="43" fill="#E6ECEF" rx="2"/><rect width="17" height="17" x="93" y="43" fill="#E6ECEF" rx="2"/><rect width="17" height="17" x="133" y="43" fill="#E6ECEF" rx="2"/><rect width="17" height="17" x="113" y="43" fill="#E6ECEF" rx="2"/><rect width="17" height="17" x="153" y="43" fill="#E6ECEF" rx="2"/><rect width="17" height="17" x="193" y="43" fill="#E6ECEF" rx="2"/><rect width="17" height="17" x="173" y="43" fill="#E6ECEF" rx="2"/><rect width="17" height="17" x="213" y="43" fill="#E6ECEF" rx="2"/><rect width="17" height="17" x="253" y="43" fill="#E6ECEF" rx="2"/><rect width="17" height="17" x="273" y="43" fill="#E6ECEF" rx="2"/><rect width="17" height="17" x="233" y="43" fill="#E6ECEF" rx="2"/><rect width="31" height="17" x="3" y="63" fill="#E6ECEF" rx="2"/><rect width="17" height="17" x="77" y="63" fill="#E6ECEF" rx="2"/><rect width="17" height="17" x="57" y="63" fill="#E6ECEF" rx="2"/><rect width="17" height="17" x="37" y="63" fill="#E6ECEF" rx="2"/><rect width="17" height="17" x="97" y="63" fill="#E6ECEF" rx="2"/><rect width="17" height="17" x="137" y="63" fill="#E6ECEF" rx="2"/><rect width="17" height="17" x="117" y="63" fill="#E6ECEF" rx="2"/><rect width="17" height="17" x="157" y="63" fill="#E6ECEF" rx="2"/><rect width="17" height="17" x="197" y="63" fill="#E6ECEF" rx="2"/><rect width="17" height="17" x="177" y="63" fill="#E6ECEF" rx="2"/><rect width="17" height="17" x="217" y="63" fill="#E6ECEF" rx="2"/><rect width="17" height="17" x="237" y="63" fill="#E6ECEF" rx="2"/><rect width="39" height="17" x="3" y="83" fill="#E6ECEF" rx="2"/><rect width="17" height="17" x="85" y="83" fill="#E6ECEF" rx="2"/><rect width="17" height="17" x="65" y="83" fill="#E6ECEF" rx="2"/><rect width="17" height="17" x="45" y="83" fill="#E6ECEF" rx="2"/><rect width="17" height="17" x="43" y="103" fill="#E6ECEF" rx="2"/><rect width="17" height="17" x="213" y="103" fill="#E6ECEF" rx="2"/><rect width="17" height="17" x="233" y="103" fill="#E6ECEF" rx="2"/><path fill="#E6ECEF" d="M255 103 268 103C269.104569 103 270 103.895431 270 105L270 111 270 111 253 111 253 105C253 103.895431 253.895431 103 255 103ZM253 112 270 112 270 118C270 119.104569 269.104569 120 268 120L255 120C253.895431 120 253 119.104569 253 118L253 112 253 112Z"/><rect width="17" height="17" x="273" y="103" fill="#E6ECEF" rx="2"/><rect width="19" height="17" x="63" y="103" fill="#E6ECEF" rx="2"/><rect width="25" height="17" x="185" y="103" fill="#E6ECEF" rx="2"/><rect width="97" height="17" x="85" y="103" fill="#E6ECEF" rx="2"/><rect width="17" height="17" x="23" y="103" fill="#E6ECEF" rx="2"/><rect width="17" height="17" x="3" y="103" fill="#E6ECEF" rx="2"/><rect width="17" height="17" x="105" y="83" fill="#E6ECEF" rx="2"/><rect width="17" height="17" x="145" y="83" fill="#E6ECEF" rx="2"/><rect width="17" height="17" x="125" y="83" fill="#E6ECEF" rx="2"/><rect width="17" height="17" x="165" y="83" fill="#E6ECEF" rx="2"/><rect width="17" height="17" x="205" y="83" fill="#E6ECEF" rx="2"/><rect width="17" height="17" x="185" y="83" fill="#E6ECEF" rx="2"/><rect width="17" height="17" x="225" y="83" fill="#E6ECEF" rx="2"/><rect width="45" height="17" x="245" y="83" fill="#E6ECEF" rx="2"/><rect width="33" height="17" x="257" y="63" fill="#E6ECEF" rx="2"/><rect width="17" height="17" x="93" y="3" fill="#E6ECEF" rx="2"/><rect width="17" height="17" x="133" y="3" fill="#E6ECEF" rx="2"/><rect width="17" height="17" x="173" y="3" fill="#E6ECEF" rx="2"/><rect width="17" height="17" x="213" y="3" fill="#E6ECEF" rx="2"/><rect width="17" height="17" x="253" y="3" fill="#E6ECEF" rx="2"/><rect width="17" height="17" x="273" y="3" fill="#E6ECEF" rx="2"/></g></g></svg>