<svg xmlns="http://www.w3.org/2000/svg" width="400" height="300" viewBox="0 0 400 300"><defs><radialGradient id="a" cx="50%" cy="0%" r="83.333%" fx="50%" fy="0%" gradientTransform="matrix(.6 .6 -.45 .8 .2 -.3)"><stop offset="0%" stop-color="#4CA7F8"/><stop offset="100%" stop-color="#0000F5"/></radialGradient><linearGradient id="b" x1="0%" x2="100%" y1="21.875%" y2="50%"><stop offset="0%" stop-color="#0AF"/><stop offset="99.966%" stop-color="#00F"/></linearGradient></defs><g fill="none" fill-rule="evenodd"><rect width="400" height="300" fill="url(#a)"/><rect width="400" height="300" fill="url(#b)" opacity=".75"/><g transform="translate(54 89)"><rect width="293" height="123" fill="#A6BDC9" rx="4"/><path fill="#131516" fill-opacity=".16" d="M58,104 C59.1045695,104 60,104.895431 60,106 L60,119 C60,120.104569 59.1045695,121 58,121 L45,121 C43.8954305,121 43,120.104569 43,119 L43,106 C43,104.895431 43.8954305,104 45,104 L58,104 Z M228,104 C229.104569,104 230,104.895431 230,106 L230,119 C230,120.104569 229.104569,121 228,121 L215,121 C213.895431,121 213,120.104569 213,119 L213,106 C213,104.895431 213.895431,104 215,104 L228,104 Z M248,104 C249.104569,104 250,104.895431 250,106 L250,119 C250,120.104569 249.104569,121 248,121 L235,121 C233.895431,121 233,120.104569 233,119 L233,106 C233,104.895431 233.895431,104 235,104 L248,104 Z M270,113 L270,119 C270,120.104569 269.104569,121 268,121 L255,121 C253.895431,121 253,120.104569 253,119 L253,113 L270,113 Z M288,104 C289.104569,104 290,104.895431 290,106 L290,119 C290,120.104569 289.104569,121 288,121 L275,121 C273.895431,121 273,120.104569 273,119 L273,106 C273,104.895431 273.895431,104 275,104 L288,104 Z M80,104 C81.1045695,104 82,104.895431 82,106 L82,119 C82,120.104569 81.1045695,121 80,121 L65,121 C63.8954305,121 63,120.104569 63,119 L63,106 C63,104.895431 63.8954305,104 65,104 L80,104 Z M208,104 C209.104569,104 210,104.895431 210,106 L210,119 C210,120.104569 209.104569,121 208,121 L187,121 C185.895431,121 185,120.104569 185,119 L185,106 C185,104.895431 185.895431,104 187,104 L208,104 Z M180,104 C181.104569,104 182,104.895431 182,106 L182,119 C182,120.104569 181.104569,121 180,121 L87,121 C85.8954305,121 85,120.104569 85,119 L85,106 C85,104.895431 85.8954305,104 87,104 L180,104 Z M38,104 C39.1045695,104 40,104.895431 40,106 L40,119 C40,120.104569 39.1045695,121 38,121 L25,121 C23.8954305,121 23,120.104569 23,119 L23,106 C23,104.895431 23.8954305,104 25,104 L38,104 Z M18,104 C19.1045695,104 20,104.895431 20,106 L20,119 C20,120.104569 19.1045695,121 18,121 L5,121 C3.8954305,121 3,120.104569 3,119 L3,106 C3,104.895431 3.8954305,104 5,104 L18,104 Z M268,104 C269.104569,104 270,104.895431 270,106 L270,112 L253,112 L253,106 C253,104.895431 253.895431,104 255,104 L268,104 Z M40,84 C41.1045695,84 42,84.8954305 42,86 L42,99 C42,100.104569 41.1045695,101 40,101 L5,101 C3.8954305,101 3,100.104569 3,99 L3,86 C3,84.8954305 3.8954305,84 5,84 L40,84 Z M100,84 C101.104569,84 102,84.8954305 102,86 L102,99 C102,100.104569 101.104569,101 100,101 L87,101 C85.8954305,101 85,100.104569 85,99 L85,86 C85,84.8954305 85.8954305,84 87,84 L100,84 Z M80,84 C81.1045695,84 82,84.8954305 82,86 L82,99 C82,100.104569 81.1045695,101 80,101 L67,101 C65.8954305,101 65,100.104569 65,99 L65,86 C65,84.8954305 65.8954305,84 67,84 L80,84 Z M60,84 C61.1045695,84 62,84.8954305 62,86 L62,99 C62,100.104569 61.1045695,101 60,101 L47,101 C45.8954305,101 45,100.104569 45,99 L45,86 C45,84.8954305 45.8954305,84 47,84 L60,84 Z M120,84 C121.104569,84 122,84.8954305 122,86 L122,99 C122,100.104569 121.104569,101 120,101 L107,101 C105.895431,101 105,100.104569 105,99 L105,86 C105,84.8954305 105.895431,84 107,84 L120,84 Z M160,84 C161.104569,84 162,84.8954305 162,86 L162,99 C162,100.104569 161.104569,101 160,101 L147,101 C145.895431,101 145,100.104569 145,99 L145,86 C145,84.8954305 145.895431,84 147,84 L160,84 Z M140,84 C141.104569,84 142,84.8954305 142,86 L142,99 C142,100.104569 141.104569,101 140,101 L127,101 C125.895431,101 125,100.104569 125,99 L125,86 C125,84.8954305 125.895431,84 127,84 L140,84 Z M180,84 C181.104569,84 182,84.8954305 182,86 L182,99 C182,100.104569 181.104569,101 180,101 L167,101 C165.895431,101 165,100.104569 165,99 L165,86 C165,84.8954305 165.895431,84 167,84 L180,84 Z M220,84 C221.104569,84 222,84.8954305 222,86 L222,99 C222,100.104569 221.104569,101 220,101 L207,101 C205.895431,101 205,100.104569 205,99 L205,86 C205,84.8954305 205.895431,84 207,84 L220,84 Z M200,84 C201.104569,84 202,84.8954305 202,86 L202,99 C202,100.104569 201.104569,101 200,101 L187,101 C185.895431,101 185,100.104569 185,99 L185,86 C185,84.8954305 185.895431,84 187,84 L200,84 Z M240,84 C241.104569,84 242,84.8954305 242,86 L242,99 C242,100.104569 241.104569,101 240,101 L227,101 C225.895431,101 225,100.104569 225,99 L225,86 C225,84.8954305 225.895431,84 227,84 L240,84 Z M288,84 C289.104569,84 290,84.8954305 290,86 L290,99 C290,100.104569 289.104569,101 288,101 L247,101 C245.895431,101 245,100.104569 245,99 L245,86 C245,84.8954305 245.895431,84 247,84 L288,84 Z M112,64 C113.104569,64 114,64.8954305 114,66 L114,79 C114,80.1045695 113.104569,81 112,81 L99,81 C97.8954305,81 97,80.1045695 97,79 L97,66 C97,64.8954305 97.8954305,64 99,64 L112,64 Z M152,64 C153.104569,64 154,64.8954305 154,66 L154,79 C154,80.1045695 153.104569,81 152,81 L139,81 C137.895431,81 137,80.1045695 137,79 L137,66 C137,64.8954305 137.895431,64 139,64 L152,64 Z M132,64 C133.104569,64 134,64.8954305 134,66 L134,79 C134,80.1045695 133.104569,81 132,81 L119,81 C117.895431,81 117,80.1045695 117,79 L117,66 C117,64.8954305 117.895431,64 119,64 L132,64 Z M172,64 C173.104569,64 174,64.8954305 174,66 L174,79 C174,80.1045695 173.104569,81 172,81 L159,81 C157.895431,81 157,80.1045695 157,79 L157,66 C157,64.8954305 157.895431,64 159,64 L172,64 Z M212,64 C213.104569,64 214,64.8954305 214,66 L214,79 C214,80.1045695 213.104569,81 212,81 L199,81 C197.895431,81 197,80.1045695 197,79 L197,66 C197,64.8954305 197.895431,64 199,64 L212,64 Z M192,64 C193.104569,64 194,64.8954305 194,66 L194,79 C194,80.1045695 193.104569,81 192,81 L179,81 C177.895431,81 177,80.1045695 177,79 L177,66 C177,64.8954305 177.895431,64 179,64 L192,64 Z M232,64 C233.104569,64 234,64.8954305 234,66 L234,79 C234,80.1045695 233.104569,81 232,81 L219,81 C217.895431,81 217,80.1045695 217,79 L217,66 C217,64.8954305 217.895431,64 219,64 L232,64 Z M252,64 C253.104569,64 254,64.8954305 254,66 L254,79 C254,80.1045695 253.104569,81 252,81 L239,81 C237.895431,81 237,80.1045695 237,79 L237,66 C237,64.8954305 237.895431,64 239,64 L252,64 Z M32,64 C33.1045695,64 34,64.8954305 34,66 L34,79 C34,80.1045695 33.1045695,81 32,81 L5,81 C3.8954305,81 3,80.1045695 3,79 L3,66 C3,64.8954305 3.8954305,64 5,64 L32,64 Z M92,64 C93.1045695,64 94,64.8954305 94,66 L94,79 C94,80.1045695 93.1045695,81 92,81 L79,81 C77.8954305,81 77,80.1045695 77,79 L77,66 C77,64.8954305 77.8954305,64 79,64 L92,64 Z M72,64 C73.1045695,64 74,64.8954305 74,66 L74,79 C74,80.1045695 73.1045695,81 72,81 L59,81 C57.8954305,81 57,80.1045695 57,79 L57,66 C57,64.8954305 57.8954305,64 59,64 L72,64 Z M52,64 C53.1045695,64 54,64.8954305 54,66 L54,79 C54,80.1045695 53.1045695,81 52,81 L39,81 C37.8954305,81 37,80.1045695 37,79 L37,66 C37,64.8954305 37.8954305,64 39,64 L52,64 Z M288,64 C289.104569,64 290,64.8954305 290,66 L290,79 C290,80.1045695 289.104569,81 288,81 L259,81 C257.895431,81 257,80.1045695 257,79 L257,66 C257,64.8954305 257.895431,64 259,64 L288,64 Z M128,44 C129.104569,44 130,44.8954305 130,46 L130,59 C130,60.1045695 129.104569,61 128,61 L115,61 C113.895431,61 113,60.1045695 113,59 L113,46 C113,44.8954305 113.895431,44 115,44 L128,44 Z M88,44 C89.1045695,44 90,44.8954305 90,46 L90,59 C90,60.1045695 89.1045695,61 88,61 L75,61 C73.8954305,61 73,60.1045695 73,59 L73,46 C73,44.8954305 73.8954305,44 75,44 L88,44 Z M228,44 C229.104569,44 230,44.8954305 230,46 L230,59 C230,60.1045695 229.104569,61 228,61 L215,61 C213.895431,61 213,60.1045695 213,59 L213,46 C213,44.8954305 213.895431,44 215,44 L228,44 Z M188,44 C189.104569,44 190,44.8954305 190,46 L190,59 C190,60.1045695 189.104569,61 188,61 L175,61 C173.895431,61 173,60.1045695 173,59 L173,46 C173,44.8954305 173.895431,44 175,44 L188,44 Z M28,44 C29.1045695,44 30,44.8954305 30,46 L30,59 C30,60.1045695 29.1045695,61 28,61 L5,61 C3.8954305,61 3,60.1045695 3,59 L3,46 C3,44.8954305 3.8954305,44 5,44 L28,44 Z M48,44 C49.1045695,44 50,44.8954305 50,46 L50,59 C50,60.1045695 49.1045695,61 48,61 L35,61 C33.8954305,61 33,60.1045695 33,59 L33,46 C33,44.8954305 33.8954305,44 35,44 L48,44 Z M108,44 C109.104569,44 110,44.8954305 110,46 L110,59 C110,60.1045695 109.104569,61 108,61 L95,61 C93.8954305,61 93,60.1045695 93,59 L93,46 C93,44.8954305 93.8954305,44 95,44 L108,44 Z M248,44 C249.104569,44 250,44.8954305 250,46 L250,59 C250,60.1045695 249.104569,61 248,61 L235,61 C233.895431,61 233,60.1045695 233,59 L233,46 C233,44.8954305 233.895431,44 235,44 L248,44 Z M208,44 C209.104569,44 210,44.8954305 210,46 L210,59 C210,60.1045695 209.104569,61 208,61 L195,61 C193.895431,61 193,60.1045695 193,59 L193,46 C193,44.8954305 193.895431,44 195,44 L208,44 Z M148,44 C149.104569,44 150,44.8954305 150,46 L150,59 C150,60.1045695 149.104569,61 148,61 L135,61 C133.895431,61 133,60.1045695 133,59 L133,46 C133,44.8954305 133.895431,44 135,44 L148,44 Z M68,44 C69.1045695,44 70,44.8954305 70,46 L70,59 C70,60.1045695 69.1045695,61 68,61 L55,61 C53.8954305,61 53,60.1045695 53,59 L53,46 C53,44.8954305 53.8954305,44 55,44 L68,44 Z M268,44 C269.104569,44 270,44.8954305 270,46 L270,59 C270,60.1045695 269.104569,61 268,61 L255,61 C253.895431,61 253,60.1045695 253,59 L253,46 C253,44.8954305 253.895431,44 255,44 L268,44 Z M288,44 C289.104569,44 290,44.8954305 290,46 L290,59 C290,60.1045695 289.104569,61 288,61 L275,61 C273.895431,61 273,60.1045695 273,59 L273,46 C273,44.8954305 273.895431,44 275,44 L288,44 Z M168,44 C169.104569,44 170,44.8954305 170,46 L170,59 C170,60.1045695 169.104569,61 168,61 L155,61 C153.895431,61 153,60.1045695 153,59 L153,46 C153,44.8954305 153.895431,44 155,44 L168,44 Z M198,24 C199.104569,24 200,24.8954305 200,26 L200,39 C200,40.1045695 199.104569,41 198,41 L185,41 C183.895431,41 183,40.1045695 183,39 L183,26 C183,24.8954305 183.895431,24 185,24 L198,24 Z M78,24 C79.1045695,24 80,24.8954305 80,26 L80,39 C80,40.1045695 79.1045695,41 78,41 L65,41 C63.8954305,41 63,40.1045695 63,39 L63,26 C63,24.8954305 63.8954305,24 65,24 L78,24 Z M238,24 C239.104569,24 240,24.8954305 240,26 L240,39 C240,40.1045695 239.104569,41 238,41 L225,41 C223.895431,41 223,40.1045695 223,39 L223,26 C223,24.8954305 223.895431,24 225,24 L238,24 Z M98,24 C99.1045695,24 100,24.8954305 100,26 L100,39 C100,40.1045695 99.1045695,41 98,41 L85,41 C83.8954305,41 83,40.1045695 83,39 L83,26 C83,24.8954305 83.8954305,24 85,24 L98,24 Z M58,24 C59.1045695,24 60,24.8954305 60,26 L60,39 C60,40.1045695 59.1045695,41 58,41 L45,41 C43.8954305,41 43,40.1045695 43,39 L43,26 C43,24.8954305 43.8954305,24 45,24 L58,24 Z M158,24 C159.104569,24 160,24.8954305 160,26 L160,39 C160,40.1045695 159.104569,41 158,41 L145,41 C143.895431,41 143,40.1045695 143,39 L143,26 C143,24.8954305 143.895431,24 145,24 L158,24 Z M258,24 C259.104569,24 260,24.8954305 260,26 L260,39 C260,40.1045695 259.104569,41 258,41 L245,41 C243.895431,41 243,40.1045695 243,39 L243,26 C243,24.8954305 243.895431,24 245,24 L258,24 Z M18,24 C19.1045695,24 20,24.8954305 20,26 L20,39 C20,40.1045695 19.1045695,41 18,41 L5,41 C3.8954305,41 3,40.1045695 3,39 L3,26 C3,24.8954305 3.8954305,24 5,24 L18,24 Z M288,24 C289.104569,24 290,24.8954305 290,26 L290,39 C290,40.1045695 289.104569,41 288,41 L265,41 C263.895431,41 263,40.1045695 263,39 L263,26 C263,24.8954305 263.895431,24 265,24 L288,24 Z M118,24 C119.104569,24 120,24.8954305 120,26 L120,39 C120,40.1045695 119.104569,41 118,41 L105,41 C103.895431,41 103,40.1045695 103,39 L103,26 C103,24.8954305 103.895431,24 105,24 L118,24 Z M218,24 C219.104569,24 220,24.8954305 220,26 L220,39 C220,40.1045695 219.104569,41 218,41 L205,41 C203.895431,41 203,40.1045695 203,39 L203,26 C203,24.8954305 203.895431,24 205,24 L218,24 Z M38,24 C39.1045695,24 40,24.8954305 40,26 L40,39 C40,40.1045695 39.1045695,41 38,41 L25,41 C23.8954305,41 23,40.1045695 23,39 L23,26 C23,24.8954305 23.8954305,24 25,24 L38,24 Z M178,24 C179.104569,24 180,24.8954305 180,26 L180,39 C180,40.1045695 179.104569,41 178,41 L165,41 C163.895431,41 163,40.1045695 163,39 L163,26 C163,24.8954305 163.895431,24 165,24 L178,24 Z M138,24 C139.104569,24 140,24.8954305 140,26 L140,39 C140,40.1045695 139.104569,41 138,41 L125,41 C123.895431,41 123,40.1045695 123,39 L123,26 C123,24.8954305 123.895431,24 125,24 L138,24 Z M28,4 C29.1045695,4 30,4.8954305 30,6 L30,19 C30,20.1045695 29.1045695,21 28,21 L5,21 C3.8954305,21 3,20.1045695 3,19 L3,6 C3,4.8954305 3.8954305,4 5,4 L28,4 Z M48,4 C49.1045695,4 50,4.8954305 50,6 L50,19 C50,20.1045695 49.1045695,21 48,21 L35,21 C33.8954305,21 33,20.1045695 33,19 L33,6 C33,4.8954305 33.8954305,4 35,4 L48,4 Z M88,4 C89.1045695,4 90,4.8954305 90,6 L90,19 C90,20.1045695 89.1045695,21 88,21 L75,21 C73.8954305,21 73,20.1045695 73,19 L73,6 C73,4.8954305 73.8954305,4 75,4 L88,4 Z M128,4 C129.104569,4 130,4.8954305 130,6 L130,19 C130,20.1045695 129.104569,21 128,21 L115,21 C113.895431,21 113,20.1045695 113,19 L113,6 C113,4.8954305 113.895431,4 115,4 L128,4 Z M168,4 C169.104569,4 170,4.8954305 170,6 L170,19 C170,20.1045695 169.104569,21 168,21 L155,21 C153.895431,21 153,20.1045695 153,19 L153,6 C153,4.8954305 153.895431,4 155,4 L168,4 Z M208,4 C209.104569,4 210,4.8954305 210,6 L210,19 C210,20.1045695 209.104569,21 208,21 L195,21 C193.895431,21 193,20.1045695 193,19 L193,6 C193,4.8954305 193.895431,4 195,4 L208,4 Z M248,4 C249.104569,4 250,4.8954305 250,6 L250,19 C250,20.1045695 249.104569,21 248,21 L235,21 C233.895431,21 233,20.1045695 233,19 L233,6 C233,4.8954305 233.895431,4 235,4 L248,4 Z M68,4 C69.1045695,4 70,4.8954305 70,6 L70,19 C70,20.1045695 69.1045695,21 68,21 L55,21 C53.8954305,21 53,20.1045695 53,19 L53,6 C53,4.8954305 53.8954305,4 55,4 L68,4 Z M108,4 C109.104569,4 110,4.8954305 110,6 L110,19 C110,20.1045695 109.104569,21 108,21 L95,21 C93.8954305,21 93,20.1045695 93,19 L93,6 C93,4.8954305 93.8954305,4 95,4 L108,4 Z M148,4 C149.104569,4 150,4.8954305 150,6 L150,19 C150,20.1045695 149.104569,21 148,21 L135,21 C133.895431,21 133,20.1045695 133,19 L133,6 C133,4.8954305 133.895431,4 135,4 L148,4 Z M188,4 C189.104569,4 190,4.8954305 190,6 L190,19 C190,20.1045695 189.104569,21 188,21 L175,21 C173.895431,21 173,20.1045695 173,19 L173,6 C173,4.8954305 173.895431,4 175,4 L188,4 Z M228,4 C229.104569,4 230,4.8954305 230,6 L230,19 C230,20.1045695 229.104569,21 228,21 L215,21 C213.895431,21 213,20.1045695 213,19 L213,6 C213,4.8954305 213.895431,4 215,4 L228,4 Z M268,4 C269.104569,4 270,4.8954305 270,6 L270,19 C270,20.1045695 269.104569,21 268,21 L255,21 C253.895431,21 253,20.1045695 253,19 L253,6 C253,4.8954305 253.895431,4 255,4 L268,4 Z M288,4 C289.104569,4 290,4.8954305 290,6 L290,19 C290,20.1045695 289.104569,21 288,21 L275,21 C273.895431,21 273,20.1045695 273,19 L273,6 C273,4.8954305 273.895431,4 275,4 L288,4 Z"/><g fill="#E6ECEF" transform="translate(3 3)"><rect width="27" height="17" rx="2"/><rect width="17" height="17" x="30" rx="2"/><rect width="17" height="17" y="20" rx="2"/><rect width="17" height="17" x="70" rx="2"/><rect width="17" height="17" x="40" y="20" rx="2"/><rect width="17" height="17" x="110" rx="2"/><rect width="17" height="17" x="150" rx="2"/><rect width="17" height="17" x="190" rx="2"/><rect width="17" height="17" x="230" rx="2"/><rect width="17" height="17" x="50" rx="2"/><rect width="17" height="17" x="20" y="20" rx="2"/><rect width="17" height="17" x="60" y="20" rx="2"/><rect width="17" height="17" x="100" y="20" rx="2"/><rect width="17" height="17" x="80" y="20" rx="2"/><rect width="17" height="17" x="120" y="20" rx="2"/><rect width="17" height="17" x="160" y="20" rx="2"/><rect width="17" height="17" x="140" y="20" rx="2"/><rect width="17" height="17" x="180" y="20" rx="2"/><rect width="17" height="17" x="220" y="20" rx="2"/><rect width="17" height="17" x="240" y="20" rx="2"/><rect width="27" height="17" x="260" y="20" rx="2"/><rect width="17" height="17" x="200" y="20" rx="2"/><rect width="27" height="17" y="40" rx="2"/><rect width="17" height="17" x="70" y="40" rx="2"/><rect width="17" height="17" x="50" y="40" rx="2"/><rect width="17" height="17" x="30" y="40" rx="2"/><rect width="17" height="17" x="90" y="40" rx="2"/><rect width="17" height="17" x="130" y="40" rx="2"/><rect width="17" height="17" x="110" y="40" rx="2"/><rect width="17" height="17" x="150" y="40" rx="2"/><rect width="17" height="17" x="190" y="40" rx="2"/><rect width="17" height="17" x="170" y="40" rx="2"/><rect width="17" height="17" x="210" y="40" rx="2"/><rect width="17" height="17" x="250" y="40" rx="2"/><rect width="17" height="17" x="270" y="40" rx="2"/><rect width="17" height="17" x="230" y="40" rx="2"/><rect width="31" height="17" y="60" rx="2"/><rect width="17" height="17" x="74" y="60" rx="2"/><rect width="17" height="17" x="54" y="60" rx="2"/><rect width="17" height="17" x="34" y="60" rx="2"/><rect width="17" height="17" x="94" y="60" rx="2"/><rect width="17" height="17" x="134" y="60" rx="2"/><rect width="17" height="17" x="114" y="60" rx="2"/><rect width="17" height="17" x="154" y="60" rx="2"/><rect width="17" height="17" x="194" y="60" rx="2"/><rect width="17" height="17" x="174" y="60" rx="2"/><rect width="17" height="17" x="214" y="60" rx="2"/><rect width="17" height="17" x="234" y="60" rx="2"/><rect width="39" height="17" y="80" rx="2"/><rect width="17" height="17" x="82" y="80" rx="2"/><rect width="17" height="17" x="62" y="80" rx="2"/><rect width="17" height="17" x="42" y="80" rx="2"/><rect width="17" height="17" x="40" y="100" rx="2"/><rect width="17" height="17" x="210" y="100" rx="2"/><rect width="17" height="17" x="230" y="100" rx="2"/><path d="M252 100 265 100C266.104569 100 267 100.895431 267 102L267 108 267 108 250 108 250 102C250 100.895431 250.895431 100 252 100ZM250 109 267 109 267 115C267 116.104569 266.104569 117 265 117L252 117C250.895431 117 250 116.104569 250 115L250 109 250 109Z"/><rect width="17" height="17" x="270" y="100" rx="2"/><rect width="19" height="17" x="60" y="100" rx="2"/><rect width="25" height="17" x="182" y="100" rx="2"/><rect width="97" height="17" x="82" y="100" rx="2"/><rect width="17" height="17" x="20" y="100" rx="2"/><rect width="17" height="17" y="100" rx="2"/><rect width="17" height="17" x="102" y="80" rx="2"/><rect width="17" height="17" x="142" y="80" rx="2"/><rect width="17" height="17" x="122" y="80" rx="2"/><rect width="17" height="17" x="162" y="80" rx="2"/><rect width="17" height="17" x="202" y="80" rx="2"/><rect width="17" height="17" x="182" y="80" rx="2"/><rect width="17" height="17" x="222" y="80" rx="2"/><rect width="45" height="17" x="242" y="80" rx="2"/><rect width="33" height="17" x="254" y="60" rx="2"/><rect width="17" height="17" x="90" rx="2"/><rect width="17" height="17" x="130" rx="2"/><rect width="17" height="17" x="170" rx="2"/><rect width="17" height="17" x="210" rx="2"/><rect width="17" height="17" x="250" rx="2"/><rect width="17" height="17" x="270" rx="2"/></g></g></g></svg>