<svg xmlns="http://www.w3.org/2000/svg" width="48" height="48" viewBox="0 0 48 48"><defs><linearGradient id="a" x1="40.009%" x2="100%" y1="15.278%" y2="90.651%"><stop offset="0%" stop-color="#00A3F5"/><stop offset="100%" stop-color="#476CFF"/></linearGradient></defs><path fill="url(#a)" fill-rule="evenodd" d="M19,4 C20.6568542,4 22,5.34314575 22,7 C22,8.65685425 20.6547871,9.84956481 19,10 C12.5887044,10.5828451 8.48008543,13.713613 6.67414301,19.392304 C6.33859395,20.4446731 6.91944796,21.5699287 7.97174439,21.9057054 C8.16755296,21.9681858 8.37182262,22.0001098 8.57735787,22.0003541 L14,22.000186 C17.3137085,21.9998973 20.0000833,24.6861055 20.000186,27.999814 C20.000186,27.999876 20.000186,27.999938 20,28 L20,38 C20,41.3137085 17.3137085,44 14,44 L6,44 C2.6862915,44 -1.13281025e-13,41.3137085 -1.13686838e-13,38 L-1.13686838e-13,22 L-1.13686838e-13,22 L0.0258172117,22.000905 C0.545377936,11.9719149 8.84171873,4 19,4 Z M45,4 C46.6568542,4 48,5.34314575 48,7 C48,8.65685425 46.6547871,9.84956481 45,10 C38.5887044,10.5828451 34.4800854,13.713613 32.674143,19.392304 C32.3385939,20.4446731 32.919448,21.5699287 33.9717444,21.9057054 C34.167553,21.9681858 34.3718226,22.0001098 34.5773579,22.0003541 L40,22.000186 C43.3137085,21.9998973 46.0000833,24.6861055 46.000186,27.999814 C46.000186,27.999876 46.000186,27.999938 46,28 L46,38 C46,41.3137085 43.3137085,44 40,44 L32,44 C28.6862915,44 26,41.3137085 26,38 L26,22 L26,22 L26.0258172,22.000905 C26.5453779,11.9719149 34.8417187,4 45,4 Z"/></svg>