<svg xmlns="http://www.w3.org/2000/svg" width="48" height="48" viewBox="0 0 48 48"><defs><linearGradient id="a" x1="40.009%" x2="100%" y1="15.278%" y2="90.651%"><stop offset="0%" stop-color="#00A3F5"/><stop offset="100%" stop-color="#7096FF"/></linearGradient></defs><path fill="url(#a)" fill-rule="evenodd" d="M29,44 C27.3431458,44 26,42.6568542 26,41 C26,39.4045107 27.2474128,38.2394208 28.8174614,38.0209748 L29,38 C35.4112956,37.4171549 39.5199146,34.286387 41.325857,28.607696 C41.6614061,27.5553269 41.080552,26.4300713 40.0282556,26.0942946 C39.832447,26.0318142 39.6281774,25.9998902 39.4226421,25.9996459 L34,25.999814 C30.7616031,26.0000962 28.1223487,23.4346072 28.0039594,20.2251241 L28,20 L28,20 L28,10 C28,6.6862915 30.6862915,4 34,4 L42,4 C45.3137085,4 48,6.6862915 48,10 L48,26 L47.9741828,25.999095 C47.4546221,36.0280851 39.1582813,44 29,44 Z M3,44 C1.34314575,44 -1.20792265e-13,42.6568542 -1.20792265e-13,41 C-1.20792265e-13,39.4045107 1.24741283,38.2394208 2.81746135,38.0209748 L3,38 C9.41129557,37.4171549 13.5199146,34.286387 15.325857,28.607696 C15.6614061,27.5553269 15.080552,26.4300713 14.0282556,26.0942946 C13.832447,26.0318142 13.6281774,25.9998902 13.4226421,25.9996459 L8,25.999814 C4.76160306,26.0000962 2.12234871,23.4346072 2.00395944,20.2251241 L2,20 L2,20 L2,10 C2,6.6862915 4.6862915,4 8,4 L16,4 C19.3137085,4 22,6.6862915 22,10 L22,26 L21.9741828,25.999095 C21.4546221,36.0280851 13.1582813,44 3,44 Z"/></svg>