<svg width="96" height="96" viewBox="0 0 96 96" fill="none" xmlns="http://www.w3.org/2000/svg">
<path fill-rule="evenodd" clip-rule="evenodd" d="M4.11145 24C15.0747 24 25.0971 30.1941 30 40C34.9029 30.1941 44.9253 24 55.8885 24H56.299C58.343 24 60 25.657 60 27.701V68C60 70.2091 58.2091 72 56 72H55C48.3726 72 43 66.6274 43 60V48L38.4049 58.5031C36.944 61.8423 33.6448 64 30 64C26.3552 64 23.056 61.8423 21.5951 58.5031L17 48V60C17 66.6274 11.6274 72 5 72H4C1.79086 72 0 70.2091 0 68V27.701C0 25.657 1.65701 24 3.70104 24H4.11145ZM88.2299 42.2761C89.3526 40.4501 90 38.3007 90 36C90 29.3726 84.6274 24 78 24H68C65.7909 24 64 25.7909 64 28V56V68C64 70.2091 65.7909 72 68 72H80C88.8366 72 96 64.8366 96 56C96 50.1732 92.8853 45.0738 88.2299 42.2761Z" fill="url(#paint0_linear_21_41)"/>
<defs>
<linearGradient id="paint0_linear_21_41" x1="48" y1="24" x2="48" y2="72" gradientUnits="userSpaceOnUse">
<stop stop-color="#0AD6FF"/>
<stop offset="1" stop-color="#0062F5"/>
</linearGradient>
</defs>
</svg>
