<svg width="96" height="96" viewBox="0 0 96 96" fill="none" xmlns="http://www.w3.org/2000/svg">
<path fill-rule="evenodd" clip-rule="evenodd" d="M3.36458 24C13.5599 24 22.8801 29.7602 27.4396 38.8792L28 40L28.5604 38.8792C33.1199 29.7602 42.4401 24 52.6354 24C54.4936 24 56 25.5064 56 27.3646V68.8C56 70.5673 54.5673 72 52.8 72C45.7308 72 40 66.2692 40 59.2V48L33.7889 60.4223C32.6925 62.6149 30.4515 64 28 64C25.5485 64 23.3075 62.6149 22.2111 60.4223L16 48V59.2C16 66.2692 10.2692 72 3.2 72C1.43269 72 0 70.5673 0 68.8V27.3646C0 25.5064 1.50638 24 3.36458 24ZM60 28C60 25.7909 61.7909 24 64 24H78C84.6274 24 90 29.3726 90 36C90 38.3007 89.3526 40.4501 88.2299 42.2761C92.8853 45.0738 96 50.1732 96 56C96 64.8366 88.8366 72 80 72H64C61.7909 72 60 70.2091 60 68V28Z" fill="url(#paint0_linear_21_41)"/>
<defs>
<linearGradient id="paint0_linear_21_41" x1="48" y1="24" x2="48" y2="72" gradientUnits="userSpaceOnUse">
<stop stop-color="#1FDAFF"/>
<stop offset="1" stop-color="#0080FF"/>
</linearGradient>
</defs>
</svg>
