<svg width="64" height="64" viewBox="0 0 64 64" fill="none" xmlns="http://www.w3.org/2000/svg">
    <path d="M22.4223 20.8446C19.712 15.424 14.1718 12 8.11146 12H0V52H8C11.3137 52 14 49.3137 14 46V36L16.8944 41.7889C17.572 43.144 18.957 44 20.4721 44H27.5279C29.043 44 30.428 43.144 31.1056 41.7889L34 36V46C34 49.3137 36.6863 52 40 52H48V12H39.8885C33.8282 12 28.288 15.424 25.5777 20.8446L24 24L22.4223 20.8446Z" fill="#101619" />
    <path opacity="0.5" d="M57.8321 27.9379C58.5793 26.4531 59 24.7757 59 23C59 16.9249 54.0752 12 48 12H46L46 52H51C58.1797 52 64 46.1797 64 39C64 34.3266 61.5339 30.2291 57.8321 27.9379Z" fill="#101619" />
</svg>