<svg xmlns="http://www.w3.org/2000/svg" width="80" height="48" viewBox="0 0 80 48"><defs><linearGradient id="a" x1="47.502%" x2="62.5%" y1="0%" y2="108.537%"><stop offset="0%" stop-color="#47E0FF" stop-opacity=".8"/><stop offset="100%" stop-color="#02F"/></linearGradient><linearGradient id="b" x1="44.853%" x2="75.756%" y1="0%" y2="108.537%"><stop offset="0%" stop-color="#47E0FF" stop-opacity=".8"/><stop offset="100%" stop-color="#02F"/></linearGradient></defs><g fill="none" fill-rule="evenodd"><path fill="url(#a)" d="M56,0 L62,0 C68.627417,0 74,5.372583 74,12 C74,14.3006526 73.3525643,16.4500885 72.2299513,18.2760494 C76.885203,21.0737158 80,26.173108 80,32 C80,40.836556 72.836556,48 64,48 L56,48 L56,0 Z"/><path fill="url(#b)" d="M56,0 L56,48 L52,48 C45.372583,48 40,42.627417 40,36 L40.0000373,27.9610852 C38.9869491,30.5259092 38.0644205,33.1360131 37.2324517,35.7913968 C36.4494342,38.2965293 34.1285592,40.001309 31.5039062,40 L25.5497035,40 C23.3405645,40 21.5497035,38.209139 21.5497035,36 C21.5497035,35.5700716 21.6190151,35.1429548 21.7549704,34.7350889 L28,16 L28.160111,15.5730374 C31.6728445,6.20574801 40.6277418,1.24958955e-14 50.6320112,0 L56,0 Z"/><path fill="url(#b)" d="M5.36798876,0 C15.3722582,1.24958955e-14 24.3271555,6.20574801 27.839889,15.5730374 L27.839889,15.5730374 L28,16 L34.2450296,34.7350889 C34.3809849,35.1429548 34.4502965,35.5700716 34.4502965,36 C34.4502965,38.209139 32.6594355,40 30.4502965,40 L30.4502965,40 L24.4960938,40 C21.8714408,40.001309 19.5505658,38.2965293 18.7675483,35.7913968 C17.9357953,33.136702 17.0135297,30.5272637 16.0007513,27.9630817 L16,36 C16,42.627417 10.627417,48 4,48 L4,48 L0,48 L0,0 Z"/></g></svg>