<svg xmlns="http://www.w3.org/2000/svg" width="32" height="32" viewBox="0 0 32 32"><path fill="#618A9E" fill-rule="evenodd" d="M20.7444592,1 C24.3105342,1 25.6036791,1.37130244 26.9073828,2.06853082 C28.2110865,2.76575919 29.2342408,3.78891348 29.9314692,5.09261719 C30.6286976,6.39632089 31,7.68946584 31,11.2555408 L31,20.7444592 C31,24.3105342 30.6286976,25.6036791 29.9314692,26.9073828 C29.2342408,28.2110865 28.2110865,29.2342408 26.9073828,29.9314692 C25.6036791,30.6286976 24.3105342,31 20.7444592,31 L11.2555408,31 C7.68946584,31 6.39632089,30.6286976 5.09261719,29.9314692 C3.78891348,29.2342408 2.76575919,28.2110865 2.06853082,26.9073828 C1.37130244,25.6036791 1,24.3105342 1,20.7444592 L1,11.2555408 C1,7.68946584 1.37130244,6.39632089 2.06853082,5.09261719 C2.76575919,3.78891348 3.78891348,2.76575919 5.09261719,2.06853082 C6.39632089,1.37130244 7.68946584,1 11.2555408,1 L20.7444592,1 Z M19.0140403,5.27613157 C18.061974,4.7160926 16.8361705,5.0338935 16.2761316,5.98595975 L16.2761316,5.98595975 L16,6.455 L15.7238684,5.98595975 L15.6394353,5.85429131 C15.047707,5.00561732 13.8926895,4.74276112 12.9859597,5.27613157 C12.0338935,5.83617054 11.7160926,7.06197401 12.2761316,8.01404025 L12.2761316,8.01404025 L13.679,10.399 L9.208,18 L7,18 L6.85073766,18.0054857 C5.81587779,18.0818349 5,18.9456382 5,20 C5,21.1045695 5.8954305,22 7,22 L6.859,21.994 L6.27613157,22.9859597 L6.2020714,23.1237299 C5.7477976,24.0532595 6.07922999,25.190498 6.98595975,25.7238684 C7.93802599,26.2839074 9.16382946,25.9661065 9.72386843,25.0140403 L9.72386843,25.0140403 L11.496,22 L20.503,22 L22.2761316,25.0140403 L22.3605647,25.1457087 C22.952293,25.9943827 24.1073105,26.2572389 25.0140403,25.7238684 C25.9661065,25.1638295 26.2839074,23.938026 25.7238684,22.9859597 L25.7238684,22.9859597 L25.14,21.994 C26.1323792,21.9219826 26.9178648,21.1387735 26.9939555,20.1566505 L27,20 C27,18.8954305 26.1045695,18 25,18 L25,18 L22.791,18 L18.32,10.399 L19.7238684,8.01404025 L19.7979286,7.87627008 C20.2522024,6.94674049 19.92077,5.80950201 19.0140403,5.27613157 Z M16,14.344 L18.15,18 L13.849,18 L16,14.344 Z"/></svg>