<svg xmlns="http://www.w3.org/2000/svg" width="32" height="32" viewBox="0 0 32 32"><defs><linearGradient id="a" x1="26.602%" x2="79.826%" y1="-27.499%" y2="119.243%"><stop offset="0%" stop-color="#00A3F5" stop-opacity=".4"/><stop offset="100%" stop-color="#00A3F5" stop-opacity=".4"/></linearGradient><linearGradient id="b" x1="36.624%" x2="66.537%" y1="-19.75%" y2="131.845%"><stop offset="0%" stop-color="#00B4F5"/><stop offset="100%" stop-color="#1F69FF"/></linearGradient><linearGradient id="c" x1="19.905%" x2="87.207%" y1="47.694%" y2="52.706%"><stop offset="0%" stop-color="#00B4F5"/><stop offset="100%" stop-color="#1F69FF"/></linearGradient></defs><g fill="none" fill-rule="evenodd"><path fill="url(#a)" d="M11.2555408,1 L20.7444592,1 C24.3105342,1 25.6036791,1.37130244 26.9073828,2.06853082 C28.2110865,2.76575919 29.2342408,3.78891348 29.9314692,5.09261719 C30.6286976,6.39632089 31,7.68946584 31,11.2555408 L31,20.7444592 C31,24.3105342 30.6286976,25.6036791 29.9314692,26.9073828 C29.2342408,28.2110865 28.2110865,29.2342408 26.9073828,29.9314692 C25.6036791,30.6286976 24.3105342,31 20.7444592,31 L11.2555408,31 C7.68946584,31 6.39632089,30.6286976 5.09261719,29.9314692 C3.78891348,29.2342408 2.76575919,28.2110865 2.06853082,26.9073828 C1.37130244,25.6036791 1,24.3105342 1,20.7444592 L1,11.2555408 C1,7.68946584 1.37130244,6.39632089 2.06853082,5.09261719 C2.76575919,3.78891348 3.78891348,2.76575919 5.09261719,2.06853082 C6.39632089,1.37130244 7.68946584,1 11.2555408,1 Z"/><path fill="url(#b)" d="M16.2761316,5.98595975 C16.8361705,5.0338935 18.061974,4.7160926 19.0140403,5.27613157 C19.92077,5.80950201 20.2522024,6.94674049 19.7979286,7.87627008 L19.7238684,8.01404025 L9.72386843,25.0140403 C9.16382946,25.9661065 7.93802599,26.2839074 6.98595975,25.7238684 C6.07922999,25.190498 5.7477976,24.0532595 6.2020714,23.1237299 L6.27613157,22.9859597 L16.2761316,5.98595975 Z"/><path fill="url(#c)" d="M25,18 C26.1045695,18 27,18.8954305 27,20 C27,21.0543618 26.1841222,21.9181651 25.1492623,21.9945143 L25,22 L7,22 C5.8954305,22 5,21.1045695 5,20 C5,18.9456382 5.81587779,18.0818349 6.85073766,18.0054857 L7,18 L25,18 Z"/><path fill="url(#b)" d="M12.9859597,5.27613157 C13.8926895,4.74276112 15.047707,5.00561732 15.6394353,5.85429131 L15.7238684,5.98595975 L25.7238684,22.9859597 C26.2839074,23.938026 25.9661065,25.1638295 25.0140403,25.7238684 C24.1073105,26.2572389 22.952293,25.9943827 22.3605647,25.1457087 L22.2761316,25.0140403 L12.2761316,8.01404025 C11.7160926,7.06197401 12.0338935,5.83617054 12.9859597,5.27613157 Z"/></g></svg>