<svg xmlns="http://www.w3.org/2000/svg" width="32" height="32" viewBox="0 0 32 32"><path fill="#618A9E" fill-rule="evenodd" d="M25,0 C27.209139,-4.05812251e-16 29,1.790861 29,4 L29,28 C29,30.209139 27.209139,32 25,32 L7,32 C4.790861,32 3,30.209139 3,28 L3,4 C3,1.790861 4.790861,4.05812251e-16 7,0 L25,0 Z M17.5,25 L8.5,25 C7.67157288,25 7,25.6715729 7,26.5 C7,27.3284271 7.67157288,28 8.5,28 L8.5,28 L17.5,28 C18.3284271,28 19,27.3284271 19,26.5 C19,25.6715729 18.3284271,25 17.5,25 L17.5,25 Z M23.5,19 L8.5,19 C7.67157288,19 7,19.6715729 7,20.5 C7,21.3284271 7.67157288,22 8.5,22 L8.5,22 L23.5,22 C24.3284271,22 25,21.3284271 25,20.5 C25,19.6715729 24.3284271,19 23.5,19 L23.5,19 Z M19,4 L8,4 C7.44771525,4 7,4.44771525 7,5 L7,5 L7,9 C7,9.55228475 7.44771525,10 8,10 L8,10 L9,10 C9.55228475,10 10,9.55228475 10,9 L10,9 L10,7 L12,7 L12,13 L10,13 C9.48716416,13 9.06449284,13.3860402 9.00672773,13.8833789 L9,14 L9,15 C9,15.5522847 9.44771525,16 10,16 L10,16 L17,16 C17.5522847,16 18,15.5522847 18,15 L18,15 L18,14 C18,13.4477153 17.5522847,13 17,13 L17,13 L15,13 L15,7 L17,7 L17,9 C17,9.51283584 17.3860402,9.93550716 17.8833789,9.99327227 L18,10 L19,10 C19.5522847,10 20,9.55228475 20,9 L20,9 L20,5 C20,4.44771525 19.5522847,4 19,4 L19,4 Z"/></svg>