<svg xmlns="http://www.w3.org/2000/svg" width="32" height="32" viewBox="0 0 32 32"><defs><linearGradient id="a" x1="34.553%" x2="69.69%" y1="-27.499%" y2="119.243%"><stop offset="0%" stop-color="#47C2FF" stop-opacity=".24"/><stop offset="100%" stop-color="#0AF" stop-opacity=".5"/></linearGradient><linearGradient id="b" x1="44.38%" x2="78.125%" y1="0%" y2="108.537%"><stop offset="0%" stop-color="#00A3F5"/><stop offset="100%" stop-color="#7096FF"/></linearGradient></defs><g fill="none" fill-rule="evenodd"><rect width="26" height="32" x="3" fill="url(#a)" rx="4"/><path fill="url(#b)" d="M10,16 C9.44771525,16 9,15.5522847 9,15 L9,14 C9,13.4477153 9.44771525,13 10,13 L12,13 L12,7 L10,7 L10,9 C10,9.55228475 9.55228475,10 9,10 L8,10 C7.44771525,10 7,9.55228475 7,9 L7,5 C7,4.44771525 7.44771525,4 8,4 L19,4 C19.5522847,4 20,4.44771525 20,5 L20,9 C20,9.55228475 19.5522847,10 19,10 L18,10 C17.4477153,10 17,9.55228475 17,9 L17,7 L15,7 L15,13 L17,13 C17.5522847,13 18,13.4477153 18,14 L18,15 C18,15.5522847 17.5522847,16 17,16 L10,16 Z M8.5,25 L17.5,25 C18.3284271,25 19,25.6715729 19,26.5 C19,27.3284271 18.3284271,28 17.5,28 L8.5,28 C7.67157288,28 7,27.3284271 7,26.5 C7,25.6715729 7.67157288,25 8.5,25 Z M8.5,19 L23.5,19 C24.3284271,19 25,19.6715729 25,20.5 C25,21.3284271 24.3284271,22 23.5,22 L8.5,22 C7.67157288,22 7,21.3284271 7,20.5 C7,19.6715729 7.67157288,19 8.5,19 Z"/></g></svg>