<svg xmlns="http://www.w3.org/2000/svg" width="32" height="32" viewBox="0 0 32 32"><defs><linearGradient id="a" x1="34.553%" x2="69.69%" y1="-27.499%" y2="119.243%"><stop offset="0%" stop-color="#00A3F5" stop-opacity=".4"/><stop offset="100%" stop-color="#00A3F5" stop-opacity=".4"/></linearGradient><linearGradient id="b" x1="19.905%" x2="87.207%" y1="-9.432%" y2="119.737%"><stop offset="0%" stop-color="#00B4F5"/><stop offset="100%" stop-color="#1F69FF"/></linearGradient><linearGradient id="c" x1="19.905%" x2="87.207%" y1="32.562%" y2="70.461%"><stop offset="0%" stop-color="#00B4F5"/><stop offset="100%" stop-color="#1F69FF"/></linearGradient></defs><g fill="none" fill-rule="evenodd"><rect width="26" height="32" x="3" fill="url(#a)" rx="4"/><path fill="url(#b)" d="M18.5,4 C19.3284271,4 20,4.67157288 20,5.5 L20,8.5 C20,9.32842712 19.3284271,10 18.5,10 C17.6715729,10 17,9.32842712 17,8.5 L17,7 L15,7 L15,13 L16.5,13 C17.3284271,13 18,13.6715729 18,14.5 C18,15.3284271 17.3284271,16 16.5,16 L10.5,16 C9.67157288,16 9,15.3284271 9,14.5 C9,13.6715729 9.67157288,13 10.5,13 L12,13 L12,7 L10,7 L10,8.5 C10,9.32842712 9.32842712,10 8.5,10 C7.67157288,10 7,9.32842712 7,8.5 L7,5.5 C7,4.67157288 7.67157288,4 8.5,4 L18.5,4 Z"/><path fill="url(#c)" d="M8.5,25 L17.5,25 C18.3284271,25 19,25.6715729 19,26.5 C19,27.3284271 18.3284271,28 17.5,28 L8.5,28 C7.67157288,28 7,27.3284271 7,26.5 C7,25.6715729 7.67157288,25 8.5,25 Z M8.5,19 L23.5,19 C24.3284271,19 25,19.6715729 25,20.5 C25,21.3284271 24.3284271,22 23.5,22 L8.5,22 C7.67157288,22 7,21.3284271 7,20.5 C7,19.6715729 7.67157288,19 8.5,19 Z"/></g></svg>