<svg xmlns="http://www.w3.org/2000/svg" width="32" height="32" viewBox="0 0 32 32"><g fill="none" fill-rule="evenodd"><path fill="#618A9E" d="M30,8 C31.1045695,8 32,8.8954305 32,10 L32,26 C32,28.209139 30.209139,30 28,30 L4,30 C1.790861,30 2.705415e-16,28.209139 0,26 L0,10 C-1.3527075e-16,8.8954305 0.8954305,8 2,8 L30,8 Z M17.8946761,12.0528543 C17.0954396,11.8348807 16.2708279,12.3060874 16.0528543,13.1053239 L16.0528543,13.1053239 L13.0528543,24.1053239 L13.021469,24.2465004 C12.8914518,24.9994745 13.3531013,25.7419941 14.1053239,25.9471457 C14.9045604,26.1651193 15.7291721,25.6939126 15.9471457,24.8946761 L15.9471457,24.8946761 L18.9471457,13.8946761 L18.978531,13.7534996 C19.1085482,13.0005255 18.6468987,12.2580059 17.8946761,12.0528543 Z M23.280312,14.7188173 C22.6281797,14.3205739 21.7678177,14.4762431 21.3,15.1 L21.3,15.1 L21.2188173,15.219688 C20.8205739,15.8718203 20.9762431,16.7321823 21.6,17.2 L21.6,17.2 L24,19 L21.6,20.8 L21.4885519,20.8921693 C20.9236413,21.4067082 20.8321823,22.2762431 21.3,22.9 C21.7970563,23.5627417 22.7372583,23.6970563 23.4,23.2 L23.4,23.2 L27.4,20.2 L27.514,20.10565 C28.198,19.4815 28.16,18.37 27.4,17.8 L27.4,17.8 L23.4,14.8 Z M10.7,15.1 C10.2029437,14.4372583 9.2627417,14.3029437 8.6,14.8 L8.6,14.8 L4.6,17.8 L4.486,17.89435 C3.802,18.5185 3.84,19.63 4.6,20.2 L4.6,20.2 L8.6,23.2 L8.71968796,23.2811827 C9.37182033,23.6794261 10.2321823,23.5237569 10.7,22.9 L10.7,22.9 L10.7811827,22.780312 C11.1794261,22.1281797 11.0237569,21.2678177 10.4,20.8 L10.4,20.8 L8,19 L10.4,17.2 L10.5114481,17.1078307 C11.0763587,16.5932918 11.1678177,15.7237569 10.7,15.1 Z"/><rect width="26" height="4" x="6" y="2" fill="#618A9E" rx="2"/><rect width="4" height="4" y="2" fill="#618A9E" rx="2"/></g></svg>