<svg xmlns="http://www.w3.org/2000/svg" width="32" height="32" viewBox="0 0 32 32"><defs><linearGradient id="a" x1="26.602%" x2="79.826%" y1="-9.335%" y2="103.014%"><stop offset="0%" stop-color="#00A3F5" stop-opacity=".4"/><stop offset="100%" stop-color="#00A3F5" stop-opacity=".4"/></linearGradient><linearGradient id="b" x1="19.905%" x2="87.207%" y1="48.91%" y2="51.279%"><stop offset="0%" stop-color="#00B4F5"/><stop offset="100%" stop-color="#1F69FF"/></linearGradient><linearGradient id="c" x1="45.767%" x2="55.233%" y1="-19.75%" y2="131.845%"><stop offset="0%" stop-color="#00B4F5"/><stop offset="100%" stop-color="#1F69FF"/></linearGradient><linearGradient id="d" x1="35.253%" x2="68.231%" y1="-19.75%" y2="131.845%"><stop offset="0%" stop-color="#00B4F5"/><stop offset="100%" stop-color="#1F69FF"/></linearGradient></defs><g fill="none" fill-rule="evenodd"><path fill="url(#a)" d="M2,2 L30,2 C31.1045695,2 32,2.8954305 32,4 L32,26 C32,28.209139 30.209139,30 28,30 L4,30 C1.790861,30 2.705415e-16,28.209139 0,26 L0,4 C-1.3527075e-16,2.8954305 0.8954305,2 2,2 Z"/><rect width="32" height="4" y="2" fill="url(#b)" rx="2"/><path fill="url(#c)" d="M16.0384132,11.1627107 C16.2246929,10.3554986 17.0300772,9.85213349 17.8372893,10.0384132 C18.5970183,10.2137353 19.0875957,10.9374683 18.9873793,11.6949847 L18.9615868,11.8372893 L15.9615868,24.8372893 C15.7753071,25.6445014 14.9699228,26.1478665 14.1627107,25.9615868 C13.4029817,25.7862647 12.9124043,25.0625317 13.0126207,24.3050153 L13.0384132,24.1627107 L16.0384132,11.1627107 Z"/><path fill="url(#d)" d="M8.51224309 13.371135C9.13569804 12.8256119 10.083342 12.8887881 10.628865 13.5122431 11.1402929 14.0967321 11.1167312 14.9661528 10.5980771 15.5220444L10.4877569 15.628865 7.777 18 10.4877569 20.371135C11.0722459 20.8825628 11.1643025 21.7474173 10.7240292 22.3672373L10.628865 22.4877569C10.1174372 23.0722459 9.25258274 23.1643025 8.63276266 22.7240292L8.51224309 22.628865 4.51224309 19.128865C3.86942823 18.566402 3.83161559 17.5921429 4.39880517 16.9812333L4.51224309 16.871135 8.51224309 13.371135ZM21.371135 13.5122431C21.8825628 12.9277541 22.7474173 12.8356975 23.3672373 13.2759708L23.4877569 13.371135 27.4877569 16.871135C28.1305718 17.433598 28.1683844 18.4078571 27.6011948 19.0187667L27.4877569 19.128865 23.4877569 22.628865C22.864302 23.1743881 21.916658 23.1112119 21.371135 22.4877569 20.8597071 21.9032679 20.8832688 21.0338472 21.4019229 20.4779556L21.5122431 20.371135 24.222 18 21.5122431 15.628865C20.9277541 15.1174372 20.8356975 14.2525827 21.2759708 13.6327627L21.371135 13.5122431Z"/></g></svg>