<svg xmlns="http://www.w3.org/2000/svg" width="32" height="32" viewBox="0 0 32 32"><defs><linearGradient id="a" x1="26.602%" x2="79.826%" y1="13.37%" y2="82.728%"><stop offset="0%" stop-color="#47C2FF" stop-opacity=".16"/><stop offset="100%" stop-color="#47C2FF" stop-opacity=".24"/></linearGradient><linearGradient id="b" x1="40.009%" x2="100%" y1="21.874%" y2="82.928%"><stop offset="0%" stop-color="#00A3F5"/><stop offset="100%" stop-color="#476CFF"/></linearGradient></defs><g fill="none" fill-rule="evenodd"><path fill="url(#a)" d="M2,8 L30,8 C31.1045695,8 32,8.8954305 32,10 L32,26 C32,28.209139 30.209139,30 28,30 L4,30 C1.790861,30 2.705415e-16,28.209139 0,26 L0,10 C-1.3527075e-16,8.8954305 0.8954305,8 2,8 Z"/><path fill="url(#b)" d="M8,2 L30,2 C31.1045695,2 32,2.8954305 32,4 C32,5.1045695 31.1045695,6 30,6 L8,6 C6.8954305,6 6,5.1045695 6,4 C6,2.8954305 6.8954305,2 8,2 Z M2,2 C3.1045695,2 4,2.8954305 4,4 C4,5.1045695 3.1045695,6 2,6 C0.8954305,6 1.3527075e-16,5.1045695 0,4 C-1.3527075e-16,2.8954305 0.8954305,2 2,2 Z M21.3,15.1 C21.7678177,14.4762431 22.6281797,14.3205739 23.280312,14.7188173 L23.4,14.8 L27.4,17.8 C28.16,18.37 28.198,19.4815 27.514,20.10565 L27.4,20.2 L23.4,23.2 C22.7372583,23.6970563 21.7970563,23.5627417 21.3,22.9 C20.8321823,22.2762431 20.9236413,21.4067082 21.4885519,20.8921693 L21.6,20.8 L24,19 L21.6,17.2 C20.9762431,16.7321823 20.8205739,15.8718203 21.2188173,15.219688 L21.3,15.1 Z M8.6,14.8 C9.2627417,14.3029437 10.2029437,14.4372583 10.7,15.1 C11.1678177,15.7237569 11.0763587,16.5932918 10.5114481,17.1078307 L10.4,17.2 L8,19 L10.4,20.8 C11.0237569,21.2678177 11.1794261,22.1281797 10.7811827,22.780312 L10.7,22.9 C10.2321823,23.5237569 9.37182033,23.6794261 8.71968796,23.2811827 L8.6,23.2 L4.6,20.2 C3.84,19.63 3.802,18.5185 4.486,17.89435 L4.6,17.8 L8.6,14.8 Z M16.0528543,13.1053239 C16.2708279,12.3060874 17.0954396,11.8348807 17.8946761,12.0528543 C18.6468987,12.2580059 19.1085482,13.0005255 18.978531,13.7534996 L18.9471457,13.8946761 L15.9471457,24.8946761 C15.7291721,25.6939126 14.9045604,26.1651193 14.1053239,25.9471457 C13.3531013,25.7419941 12.8914518,24.9994745 13.021469,24.2465004 L13.0528543,24.1053239 L16.0528543,13.1053239 Z"/></g></svg>