<svg xmlns="http://www.w3.org/2000/svg" width="32" height="32" viewBox="0 0 32 32"><defs><linearGradient id="a" x1="26.602%" x2="79.826%" y1="26.942%" y2="70.601%"><stop offset="0%" stop-color="#00A3F5" stop-opacity=".4"/><stop offset="100%" stop-color="#00A3F5" stop-opacity=".4"/></linearGradient><linearGradient id="b" x1="39.997%" x2="62.751%" y1="-27.499%" y2="119.243%"><stop offset="0%" stop-color="#00A3F5" stop-opacity=".4"/><stop offset="100%" stop-color="#00A3F5" stop-opacity=".4"/></linearGradient><linearGradient id="c" x1="45.185%" x2="55.953%" y1="-19.75%" y2="131.845%"><stop offset="0%" stop-color="#00B4F5"/><stop offset="100%" stop-color="#1F69FF"/></linearGradient><linearGradient id="d" x1="26.97%" x2="86.804%" y1="47.275%" y2="53.878%"><stop offset="0%" stop-color="#33C9FF" stop-opacity=".8"/><stop offset="100%" stop-color="#70BCFF" stop-opacity=".88"/></linearGradient></defs><g fill="none" fill-rule="evenodd"><path fill="url(#a)" d="M31,23 L31,27 C31,29.209139 29.209139,31 27,31 L9,31 L9,31 L9,19 L27,19 C29.209139,19 31,20.790861 31,23 Z"/><path fill="url(#b)" d="M23.8284271,4.82842712 L27.1715729,8.17157288 C28.73367,9.73367004 28.73367,12.26633 27.1715729,13.8284271 L13,28 L13,28 L13,10 L18.1715729,4.82842712 C19.73367,3.26632996 22.26633,3.26632996 23.8284271,4.82842712 Z"/><path fill="url(#c)" d="M9,1 C11.209139,1 13,2.790861 13,5 L13,27 C13,29.209139 11.209139,31 9,31 L5,31 C2.790861,31 1,29.209139 1,27 L1,5 C1,2.790861 2.790861,1 5,1 L9,1 Z M7,23 C5.8954305,23 5,23.8954305 5,25 C5,26.1045695 5.8954305,27 7,27 C8.1045695,27 9,26.1045695 9,25 C9,23.8954305 8.1045695,23 7,23 Z"/><rect width="12" height="2" x="1" y="17" fill="url(#d)"/></g></svg>