<svg xmlns="http://www.w3.org/2000/svg" width="32" height="32" viewBox="0 0 32 32"><defs><linearGradient id="a" x1="44.75%" x2="56.692%" y1="-27.499%" y2="119.243%"><stop offset="0%" stop-color="#47C2FF" stop-opacity=".24"/><stop offset="100%" stop-color="#0AF" stop-opacity=".5"/></linearGradient><linearGradient id="b" x1="30.339%" x2="75.062%" y1="-27.499%" y2="119.243%"><stop offset="0%" stop-color="#47C2FF" stop-opacity=".24"/><stop offset="100%" stop-color="#0AF" stop-opacity=".5"/></linearGradient><linearGradient id="c" x1="48.595%" x2="57.031%" y1="0%" y2="108.537%"><stop offset="0%" stop-color="#00A3F5"/><stop offset="100%" stop-color="#7096FF"/></linearGradient></defs><g fill="none" fill-rule="evenodd"><path fill="url(#a)" d="M23.5,1.5 L25.6731238,3.1902074 C26.9647721,4.19482273 27.2131057,6.04919239 26.231302,7.35826405 L20.8,14.6 C20.4686292,15.0418278 19.8418278,15.1313708 19.4,14.8 C19.1481942,14.6111456 19,14.3147573 19,14 L19,3.70087713 C19,2.1609931 20.2483227,0.912670445 21.7882067,0.912670445 C22.4082365,0.912670445 23.010578,1.11933848 23.5,1.5 Z"/><path fill="url(#b)" d="M30.5,11 L30.7032618,12.6260947 C30.8768661,14.0149284 30.0670317,15.3392612 28.7516574,15.8175791 L23.4816615,17.7339413 C22.9626279,17.9226808 22.3888644,17.6549245 22.200125,17.1358909 C22.0784821,16.8013731 22.1438246,16.4274105 22.3716971,16.1539635 L27.4193342,10.096799 C28.0380296,9.35436447 29.1414434,9.25405412 29.883878,9.87274955 C30.2247373,10.156799 30.4449659,10.5597268 30.5,11 Z"/><path fill="url(#c)" d="M17,4 L17,14 C17,16.209139 15.209139,18 13,18 L9,18 C6.790861,18 5,16.209139 5,14 L5,4 C5,1.790861 6.790861,4.05812251e-16 9,0 L13,0 C15.209139,-4.05812251e-16 17,1.790861 17,4 Z M13,20 C15.209139,20 17,21.790861 17,24 L17,28 C17,30.209139 15.209139,32 13,32 L9,32 C6.790861,32 5,30.209139 5,28 L5,24 C5,21.790861 6.790861,20 9,20 L13,20 Z M11,24 C9.8954305,24 9,24.8954305 9,26 C9,27.1045695 9.8954305,28 11,28 C12.1045695,28 13,27.1045695 13,26 C13,24.8954305 12.1045695,24 11,24 Z"/></g></svg>