<svg xmlns="http://www.w3.org/2000/svg" width="32" height="32" viewBox="0 0 32 32"><path fill="#618A9E" fill-rule="evenodd" d="M17 4 17 14C17 16.209139 15.209139 18 13 18L9 18C6.790861 18 5 16.209139 5 14L5 4C5 1.790861 6.790861 4.05812251e-16 9 0L13 0C15.209139-4.05812251e-16 17 1.790861 17 4ZM13 20C15.209139 20 17 21.790861 17 24L17 28C17 30.209139 15.209139 32 13 32L9 32C6.790861 32 5 30.209139 5 28L5 24C5 21.790861 6.790861 20 9 20L13 20ZM11 24C9.8954305 24 9 24.8954305 9 26 9 27.1045695 9.8954305 28 11 28 12.1045695 28 13 27.1045695 13 26 13 24.8954305 12.1045695 24 11 24ZM23.5 1.5 25.6731238 3.1902074C26.9647721 4.19482273 27.2131057 6.04919239 26.231302 7.35826405L20.8 14.6C20.4686292 15.0418278 19.8418278 15.1313708 19.4 14.8 19.1481942 14.6111456 19 14.3147573 19 14L19 3.70087713C19 2.1609931 20.2483227.912670445 21.7882067.912670445 22.4082365.912670445 23.010578 1.11933848 23.5 1.5ZM30.5 11 30.7032618 12.6260947C30.8768661 14.0149284 30.0670317 15.3392612 28.7516574 15.8175791L23.4816615 17.7339413C22.9626279 17.9226808 22.3888644 17.6549245 22.200125 17.1358909 22.0784821 16.8013731 22.1438246 16.4274105 22.3716971 16.1539635L27.4193342 10.096799C28.0380296 9.35436447 29.1414434 9.25405412 29.883878 9.87274955 30.2247373 10.156799 30.4449659 10.5597268 30.5 11Z"/></svg>