<svg xmlns="http://www.w3.org/2000/svg" width="32" height="32" viewBox="0 0 32 32"><defs><linearGradient id="a" x1="26.602%" x2="79.826%" y1="-17.51%" y2="110.318%"><stop offset="0%" stop-color="#47C2FF" stop-opacity=".24"/><stop offset="100%" stop-color="#0AF" stop-opacity=".5"/></linearGradient><linearGradient id="b" x1="40.009%" x2="100%" y1="0%" y2="108.537%"><stop offset="0%" stop-color="#00A3F5"/><stop offset="100%" stop-color="#7096FF"/></linearGradient><linearGradient id="c" x1="40.009%" x2="100%" y1="46.281%" y2="54.354%"><stop offset="0%" stop-color="#00A3F5"/><stop offset="100%" stop-color="#7096FF"/></linearGradient></defs><g fill="none" fill-rule="evenodd"><path fill="url(#a)" d="M17.5,21 L28.5,21 C29.3284271,21 30,21.6715729 30,22.5 C30,23.3284271 29.3284271,24 28.5,24 L17.5,24 C16.6715729,24 16,23.3284271 16,22.5 C16,21.6715729 16.6715729,21 17.5,21 Z M17.5,26 L24.5,26 C25.3284271,26 26,26.6715729 26,27.5 C26,28.3284271 25.3284271,29 24.5,29 L17.5,29 C16.6715729,29 16,28.3284271 16,27.5 C16,26.6715729 16.6715729,26 17.5,26 Z M5,1 L27,1 C29.209139,1 31,2.790861 31,5 L31,11 C31,13.209139 29.209139,15 27,15 L5,15 C2.790861,15 1,13.209139 1,11 L1,5 C1,2.790861 2.790861,1 5,1 Z"/><rect width="12" height="12" x="1" y="19" fill="url(#b)" rx="3"/><path fill="url(#c)" d="M6,5 L10,5 C10.5522847,5 11,5.44771525 11,6 L11,10 C11,10.5522847 10.5522847,11 10,11 L6,11 C5.44771525,11 5,10.5522847 5,10 L5,6 C5,5.44771525 5.44771525,5 6,5 Z M14,5 L18,5 C18.5522847,5 19,5.44771525 19,6 L19,10 C19,10.5522847 18.5522847,11 18,11 L14,11 C13.4477153,11 13,10.5522847 13,10 L13,6 C13,5.44771525 13.4477153,5 14,5 Z M22,5 L26,5 C26.5522847,5 27,5.44771525 27,6 L27,10 C27,10.5522847 26.5522847,11 26,11 L22,11 C21.4477153,11 21,10.5522847 21,10 L21,6 C21,5.44771525 21.4477153,5 22,5 Z"/></g></svg>