<svg xmlns="http://www.w3.org/2000/svg" width="32" height="32" viewBox="0 0 32 32"><defs><linearGradient id="a" x1="26.602%" x2="79.826%" y1="24.694%" y2="72.61%"><stop offset="0%" stop-color="#00A3F5" stop-opacity=".4"/><stop offset="100%" stop-color="#00A3F5" stop-opacity=".4"/></linearGradient><linearGradient id="b" x1="26.602%" x2="79.826%" y1="37.21%" y2="61.428%"><stop offset="0%" stop-color="#00A3F5" stop-opacity=".4"/><stop offset="100%" stop-color="#00A3F5" stop-opacity=".4"/></linearGradient><linearGradient id="c" x1="19.905%" x2="87.207%" y1="47.548%" y2="52.877%"><stop offset="0%" stop-color="#00B4F5"/><stop offset="100%" stop-color="#1F69FF"/></linearGradient><linearGradient id="d" x1="19.905%" x2="87.207%" y1="-1.245%" y2="110.131%"><stop offset="0%" stop-color="#00B4F5"/><stop offset="100%" stop-color="#1F69FF"/></linearGradient></defs><g fill="none" fill-rule="evenodd"><path fill="url(#a)" d="M19.5,21 L30.5,21 C31.3284271,21 32,21.6715729 32,22.5 C32,23.3284271 31.3284271,24 30.5,24 L19.5,24 C18.6715729,24 18,23.3284271 18,22.5 C18,21.6715729 18.6715729,21 19.5,21 Z M19.5,26 L26.5,26 C27.3284271,26 28,26.6715729 28,27.5 C28,28.3284271 27.3284271,29 26.5,29 L19.5,29 C18.6715729,29 18,28.3284271 18,27.5 C18,26.6715729 18.6715729,26 19.5,26 Z"/><rect width="32" height="13" y="1" fill="url(#b)" rx="4"/><rect width="16" height="3" x="8" y="6" fill="url(#c)" rx="1.5"/><rect width="14" height="12" y="19" fill="url(#d)" rx="4"/></g></svg>