<svg xmlns="http://www.w3.org/2000/svg" width="32" height="32" viewBox="0 0 32 32"><g fill="none" fill-rule="evenodd"><rect width="12" height="12" x="1" y="19" fill="#618A9E" rx="3"/><rect width="14" height="3" x="16" y="21" fill="#618A9E" rx="1.5"/><rect width="10" height="3" x="16" y="26" fill="#618A9E" rx="1.5"/><path fill="#618A9E" d="M27,1 C29.209139,1 31,2.790861 31,5 L31,11 C31,13.209139 29.209139,15 27,15 L5,15 C2.790861,15 1,13.209139 1,11 L1,5 C1,2.790861 2.790861,1 5,1 L27,1 Z M10,5 L6,5 C5.44771525,5 5,5.44771525 5,6 L5,6 L5,10 C5,10.5522847 5.44771525,11 6,11 L6,11 L10,11 C10.5522847,11 11,10.5522847 11,10 L11,10 L11,6 C11,5.44771525 10.5522847,5 10,5 L10,5 Z M18,5 L14,5 C13.4477153,5 13,5.44771525 13,6 L13,6 L13,10 C13,10.5522847 13.4477153,11 14,11 L14,11 L18,11 C18.5522847,11 19,10.5522847 19,10 L19,10 L19,6 C19,5.44771525 18.5522847,5 18,5 L18,5 Z M26,5 L22,5 C21.4477153,5 21,5.44771525 21,6 L21,6 L21,10 C21,10.5522847 21.4477153,11 22,11 L22,11 L26,11 C26.5522847,11 27,10.5522847 27,10 L27,10 L27,6 C27,5.44771525 26.5522847,5 26,5 L26,5 Z"/></g></svg>