<svg xmlns="http://www.w3.org/2000/svg" width="32" height="32" viewBox="0 0 32 32"><path fill="#618A9E" fill-rule="evenodd" d="M26 2C28.209139 2 30 3.790861 30 6L30 20C30 21.6568542 28.6568542 23 27 23L5 23C3.34314575 23 2 21.6568542 2 20L2 6C2 3.790861 3.790861 2 6 2L26 2ZM17.5 5 14.5 5C13.6715729 5 13 5.67157288 13 6.5 13 7.32842712 13.6715729 8 14.5 8L14.5 8 17.5 8C18.3284271 8 19 7.32842712 19 6.5 19 5.67157288 18.3284271 5 17.5 5L17.5 5ZM31.5 28 31.1055728 28.7888544C30.4280048 30.1439905 29.0429523 31 27.527864 31L4.47213595 31C2.95704772 31 1.57199525 30.1439905.894427191 28.7888544L.5 28C-.0119961203 26.9760078.403058743 25.7308432 1.42705098 25.2188471 1.71489122 25.0749269 2.0322868 25 2.35410197 25L11 25 11 25 11.4472136 25.8944272C11.7859976 26.5719952 12.4785239 27 13.236068 27L18.763932 27C19.5214761 27 20.2140024 26.5719952 20.5527864 25.8944272L21 25 21 25 29.645898 25C30.7907562 25 31.7188471 25.9280909 31.7188471 27.072949 31.7188471 27.3947642 31.6439201 27.7121598 31.5 28Z"/></svg>