<svg xmlns="http://www.w3.org/2000/svg" width="32" height="32" viewBox="0 0 32 32"><defs><linearGradient id="a" x1="26.602%" x2="79.826%" y1="2.156%" y2="92.747%"><stop offset="0%" stop-color="#00A3F5" stop-opacity=".4"/><stop offset="100%" stop-color="#00A3F5" stop-opacity=".4"/></linearGradient><linearGradient id="b" x1="19.905%" x2="87.207%" y1="6.144%" y2="101.46%"><stop offset="0%" stop-color="#00B4F5"/><stop offset="100%" stop-color="#1F69FF"/></linearGradient></defs><g fill="none" fill-rule="evenodd"><path fill="url(#a)" d="M6,2 L26,2 C28.209139,2 30,3.790861 30,6 L30,24 L30,24 L2,24 L2,6 C2,3.790861 3.790861,2 6,2 Z"/><path fill="url(#b)" d="M14.5,5 L17.5,5 C18.3284271,5 19,5.67157288 19,6.5 C19,7.32842712 18.3284271,8 17.5,8 L14.5,8 C13.6715729,8 13,7.32842712 13,6.5 C13,5.67157288 13.6715729,5 14.5,5 Z M31.5527864,26.8944272 L31.1055728,27.7888544 C30.4280048,29.1439905 29.0429523,30 27.527864,30 L4.47213595,30 C2.95704772,30 1.57199525,29.1439905 0.894427191,27.7888544 L0.447213595,26.8944272 C-0.0467649019,25.9064702 0.353683792,24.7051241 1.34164079,24.2111456 C1.61935166,24.0722902 1.92557779,24 2.23606798,24 L11,24 L11,24 L11.4472136,24.8944272 C11.7859976,25.5719952 12.4785239,26 13.236068,26 L18.763932,26 C19.5214761,26 20.2140024,25.5719952 20.5527864,24.8944272 L21,24 L21,24 L29.763932,24 C30.8685015,24 31.763932,24.8954305 31.763932,26 C31.763932,26.3104902 31.6916418,26.6167163 31.5527864,26.8944272 Z"/></g></svg>