<svg width="32" height="32" viewBox="0 0 32 32" fill="none" xmlns="http://www.w3.org/2000/svg">
<path fill-rule="evenodd" clip-rule="evenodd" d="M2 3C2 1.89543 2.89543 1 4 1H28C29.1046 1 30 1.89543 30 3V20C30 21.1046 29.1046 22 28 22H4C2.89543 22 2 21.1046 2 20V3Z" fill="#00B831"/>
<path fill-rule="evenodd" clip-rule="evenodd" d="M30 25C31.1046 25 32 25.8954 32 27V29C32 30.1046 31.1046 31 30 31H2C0.895431 31 0 30.1046 0 29V27C0 25.8954 0.895431 25 2 25H9.88197C10.5672 25 11.1936 25.3871 11.5 26V26C11.8064 26.6129 12.4328 27 13.118 27H18.882C19.5672 27 20.1936 26.6129 20.5 26V26C20.8064 25.3871 21.4328 25 22.118 25H30Z" fill="#00B831"/>
</svg>
