<svg xmlns="http://www.w3.org/2000/svg" width="32" height="32" viewBox="0 0 32 32"><defs><linearGradient id="a" x1="26.602%" x2="79.826%" y1="6.407%" y2="88.949%"><stop offset="0%" stop-color="#47C2FF" stop-opacity=".16"/><stop offset="100%" stop-color="#47C2FF" stop-opacity=".24"/></linearGradient><linearGradient id="b" x1="40.009%" x2="100%" y1="15.802%" y2="90.037%"><stop offset="0%" stop-color="#00A3F5"/><stop offset="100%" stop-color="#476CFF"/></linearGradient></defs><g fill="none" fill-rule="evenodd"><path fill="url(#a)" d="M6,2 L26,2 C28.209139,2 30,3.790861 30,6 L30,20 C30,21.6568542 28.6568542,23 27,23 L5,23 C3.34314575,23 2,21.6568542 2,20 L2,6 C2,3.790861 3.790861,2 6,2 Z"/><path fill="url(#b)" d="M14.5,5 L17.5,5 C18.3284271,5 19,5.67157288 19,6.5 C19,7.32842712 18.3284271,8 17.5,8 L14.5,8 C13.6715729,8 13,7.32842712 13,6.5 C13,5.67157288 13.6715729,5 14.5,5 Z M31.5,28 L31.1055728,28.7888544 C30.4280048,30.1439905 29.0429523,31 27.527864,31 L4.47213595,31 C2.95704772,31 1.57199525,30.1439905 0.894427191,28.7888544 L0.5,28 C-0.0119961203,26.9760078 0.403058743,25.7308432 1.42705098,25.2188471 C1.71489122,25.0749269 2.0322868,25 2.35410197,25 L11,25 L11,25 L11.4472136,25.8944272 C11.7859976,26.5719952 12.4785239,27 13.236068,27 L18.763932,27 C19.5214761,27 20.2140024,26.5719952 20.5527864,25.8944272 L21,25 L21,25 L29.645898,25 C30.7907562,25 31.7188471,25.9280909 31.7188471,27.072949 C31.7188471,27.3947642 31.6439201,27.7121598 31.5,28 Z"/></g></svg>