<svg xmlns="http://www.w3.org/2000/svg" width="32" height="32" viewBox="0 0 32 32"><defs><linearGradient id="a" x1="26.602%" x2="79.826%" y1="-3.361%" y2="97.676%"><stop offset="0%" stop-color="#47C2FF" stop-opacity=".24"/><stop offset="100%" stop-color="#0AF" stop-opacity=".5"/></linearGradient><linearGradient id="b" x1="41.914%" x2="90.467%" y1="0%" y2="108.537%"><stop offset="0%" stop-color="#00A3F5"/><stop offset="100%" stop-color="#7096FF"/></linearGradient></defs><g fill="none" fill-rule="evenodd"><path fill="url(#a)" d="M7,32 C5.34314575,32 4,30.6568542 4,29 L4,25 C4,23.8954305 4.8954305,23 6,23 L7.5,23 C9.43299662,23 11,24.5670034 11,26.5 L11,26.9991904 L14,27 C16.209139,27 18,28.790861 18,31 L18,32 L7,32 Z M28.5144958,8.90869745 L29.5,9.5 C31.0509927,10.4305956 32,12.1067232 32,13.9154759 L32,15.0845241 C32,16.8932768 31.0509927,18.5694044 29.5,19.5 L28.5144958,20.0913025 C28.0409155,20.3754507 27.4266552,20.2218856 27.1425071,19.7483054 C27.0492578,19.59289 27,19.4150536 27,19.2338096 L27,9.76619038 C27,9.21390563 27.4477153,8.76619038 28,8.76619038 C28.1812439,8.76619038 28.3590804,8.81544821 28.5144958,8.90869745 Z"/><path fill="url(#b)" d="M24.1094004,0.941450687 C24.6657977,1.31238224 25,1.9368449 25,2.60555128 L25,26.3944487 C25,27.4990182 24.1045695,28.3944487 23,28.3944487 C22.3312936,28.3944487 21.706831,28.0602465 21.3358994,27.5038491 L21,27 C18.5010214,23.2515321 14.2939952,21 9.78889745,21 L4,21 C1.790861,21 2.705415e-16,19.209139 0,17 L0,12 C-2.705415e-16,9.790861 1.790861,8 4,8 L9.78889745,8 C14.2939952,8 18.5010214,5.74846788 21,2 L21.3358994,1.49615088 C21.9486043,0.577093506 23.190343,0.328745769 24.1094004,0.941450687 Z M14.5,13 L5.5,13 C4.67157288,13 4,13.6715729 4,14.5 C4,15.3284271 4.67157288,16 5.5,16 L5.5,16 L14.5,16 C15.3284271,16 16,15.3284271 16,14.5 C16,13.6715729 15.3284271,13 14.5,13 L14.5,13 Z"/></g></svg>