<svg xmlns="http://www.w3.org/2000/svg" width="32" height="32" viewBox="0 0 32 32"><g fill="none" fill-rule="evenodd"><path fill="#618A9E" d="M6,23 L7.5,23 C9.43299662,23 11,24.5670034 11,26.5 L11,32 L11,32 L7,32 C5.34314575,32 4,30.6568542 4,29 L4,25 C4,23.8954305 4.8954305,23 6,23 Z"/><path fill="#618A9E" d="M9 27 14 27C16.209139 27 18 28.790861 18 31L18 32 18 32 9 32C8.44771525 32 8 31.5522847 8 31L8 28C8 27.4477153 8.44771525 27 9 27ZM25.2664756 1.05490105C25.7307464 1.43475903 26 2.00294939 26 2.60281565L26 26.3971844C26 27.5017539 25.1045695 28.3971844 24 28.3971844 23.4001337 28.3971844 22.8319434 28.1279308 22.4520854 27.6636599L21.5 26.5C18.6518073 23.0188756 14.3914897 21 9.8936648 21L4 21C1.790861 21 2.705415e-16 19.209139 0 17L0 12C7.10513292e-16 9.790861 1.790861 8 4 8L9.8936648 8C14.3914897 8 18.6518073 5.98112441 21.5 2.5L22.4520854 1.33634006C23.1515406.481450438 24.411586.355445898 25.2664756 1.05490105ZM14.5 13 5.5 13C4.67157288 13 4 13.6715729 4 14.5 4 15.3284271 4.67157288 16 5.5 16L5.5 16 14.5 16C15.3284271 16 16 15.3284271 16 14.5 16 13.6715729 15.3284271 13 14.5 13L14.5 13ZM29.6 8.2 30 8.5C31.2590292 9.44427191 32 10.9262135 32 12.5L32 14.5C32 16.0737865 31.2590292 17.5557281 30 18.5L29.6 18.8C29.1581722 19.1313708 28.5313708 19.0418278 28.2 18.6 28.0701779 18.4269038 28 18.2163702 28 18L28 9C28 8.44771525 28.4477153 8 29 8 29.2163702 8 29.4269038 8.07017787 29.6 8.2Z"/></g></svg>