<svg xmlns="http://www.w3.org/2000/svg" width="32" height="32" viewBox="0 0 32 32"><g fill="none" fill-rule="evenodd"><path fill="#618A9E" d="M6,23 L7.5,23 C9.43299662,23 11,24.5670034 11,26.5 L11,32 L11,32 L7,32 C5.34314575,32 4,30.6568542 4,29 L4,25 C4,23.8954305 4.8954305,23 6,23 Z"/><path fill="#618A9E" d="M9 27 14 27C16.209139 27 18 28.790861 18 31L18 32 18 32 9 32C8.44771525 32 8 31.5522847 8 31L8 28C8 27.4477153 8.44771525 27 9 27ZM24.1094004.941450687C24.6657977 1.31238224 25 1.9368449 25 2.60555128L25 26.3944487C25 27.4990182 24.1045695 28.3944487 23 28.3944487 22.3312936 28.3944487 21.706831 28.0602465 21.3358994 27.5038491L21 27C18.5010214 23.2515321 14.2939952 21 9.78889745 21L4 21C1.790861 21 2.705415e-16 19.209139 0 17L0 12C-2.705415e-16 9.790861 1.790861 8 4 8L9.78889745 8C14.2939952 8 18.5010214 5.74846788 21 2L21.3358994 1.49615088C21.9486043.577093506 23.190343.328745769 24.1094004.941450687ZM14.5 13 5.5 13C4.67157288 13 4 13.6715729 4 14.5 4 15.3284271 4.67157288 16 5.5 16L5.5 16 14.5 16C15.3284271 16 16 15.3284271 16 14.5 16 13.6715729 15.3284271 13 14.5 13L14.5 13ZM28.5144958 8.90869745 29.5 9.5C31.0509927 10.4305956 32 12.1067232 32 13.9154759L32 15.0845241C32 16.8932768 31.0509927 18.5694044 29.5 19.5L28.5144958 20.0913025C28.0409155 20.3754507 27.4266552 20.2218856 27.1425071 19.7483054 27.0492578 19.59289 27 19.4150536 27 19.2338096L27 9.76619038C27 9.21390563 27.4477153 8.76619038 28 8.76619038 28.1812439 8.76619038 28.3590804 8.81544821 28.5144958 8.90869745Z"/></g></svg>