<svg xmlns="http://www.w3.org/2000/svg" width="32" height="32" viewBox="0 0 32 32"><defs><linearGradient id="a" x1="30.063%" x2="75.414%" y1="-27.499%" y2="119.243%"><stop offset="0%" stop-color="#00A3F5" stop-opacity=".4"/><stop offset="100%" stop-color="#00A3F5" stop-opacity=".4"/></linearGradient><linearGradient id="b" x1="44.15%" x2="57.457%" y1="-27.499%" y2="119.243%"><stop offset="0%" stop-color="#00A3F5" stop-opacity=".4"/><stop offset="100%" stop-color="#00A3F5" stop-opacity=".4"/></linearGradient><linearGradient id="c" x1="19.905%" x2="87.207%" y1="-19.75%" y2="131.845%"><stop offset="0%" stop-color="#00B4F5"/><stop offset="100%" stop-color="#1F69FF"/></linearGradient><linearGradient id="d" x1="33.071%" x2="70.929%" y1="-19.75%" y2="131.845%"><stop offset="0%" stop-color="#00B4F5"/><stop offset="100%" stop-color="#1F69FF"/></linearGradient><linearGradient id="e" x1="46.761%" x2="55.176%" y1="-48.098%" y2="189.607%"><stop offset="0%" stop-color="#33C9FF" stop-opacity=".8"/><stop offset="100%" stop-color="#70BCFF" stop-opacity=".88"/></linearGradient></defs><g fill="none" fill-rule="evenodd"><path fill="url(#a)" d="M11.5,32 C9.56700338,32 8,30.4329966 8,28.5 L8,19 L15,19 L15,25.888 L16.8677218,26.3039382 C18.6978721,26.7106382 20,28.3338918 20,30.2086864 L20,32 L11.5,32 Z"/><path fill="url(#b)" d="M27,9 C29.7614237,9 32,11.2385763 32,14 C32,16.7614237 29.7614237,19 27,19 L27,19 Z"/><circle cx="3" cy="14" r="3" fill="url(#c)"/><path fill="url(#d)" d="M5.30411437,6.35447913 L9.5,7 C13.6112827,7.63250503 17.7883026,6.3742704 20.8661961,3.57618539 L23.6546544,1.04122326 C24.4719696,0.29820941 25.7368663,0.358442584 26.4798801,1.17575782 C26.8145564,1.54390175 27,2.02357132 27,2.52110341 L27,25.4788966 C27,26.5834661 26.1045695,27.4788966 25,27.4788966 C24.5024679,27.4788966 24.0227983,27.293453 23.6546544,26.9587767 L20.8661961,24.4238146 C17.7883026,21.6257296 13.6112827,20.367495 9.5,21 L5.30411437,21.6455209 C4.21238914,21.8134786 3.19121433,21.0646171 3.0232566,19.9728918 C3.0077748,19.8722601 3,19.7705931 3,19.6687775 L3,8.33122253 C3,7.22665303 3.8954305,6.33122253 5,6.33122253 C5.10181565,6.33122253 5.20348266,6.33899733 5.30411437,6.35447913 Z"/><rect width="3" height="8" x="10" y="10" fill="url(#e)" rx="1.5"/></g></svg>