<svg xmlns="http://www.w3.org/2000/svg" width="32" height="32" viewBox="0 0 32 32"><path fill="#618A9E" fill-rule="evenodd" d="M23,0 C25.209139,-4.05812251e-16 27,1.790861 27,4 L27,28 C27,30.209139 25.209139,32 23,32 L9,32 C6.790861,32 5,30.209139 5,28 L5,4 C5,1.790861 6.790861,4.05812251e-16 9,0 L23,0 Z M10.7180574,23 L9.2819426,23 C8.83618323,23 8.67454011,23.0464128 8.51157715,23.1335664 C8.34861419,23.2207199 8.2207199,23.3486142 8.13356635,23.5115771 C8.04641281,23.6745401 8,23.8361832 8,24.2819426 L8,24.2819426 L8,25.7180574 C8,26.1638168 8.04641281,26.3254599 8.13356635,26.4884229 C8.2207199,26.6513858 8.34861419,26.7792801 8.51157715,26.8664336 C8.67454011,26.9535872 8.83618323,27 9.2819426,27 L9.2819426,27 L10.7180574,27 C11.1638168,27 11.3254599,26.9535872 11.4884229,26.8664336 C11.6513858,26.7792801 11.7792801,26.6513858 11.8664336,26.4884229 C11.9535872,26.3254599 12,26.1638168 12,25.7180574 L12,25.7180574 L12,24.2819426 C12,23.8361832 11.9535872,23.6745401 11.8664336,23.5115771 C11.7792801,23.3486142 11.6513858,23.2207199 11.4884229,23.1335664 C11.3254599,23.0464128 11.1638168,23 10.7180574,23 L10.7180574,23 Z M16.7180574,23 L15.2819426,23 C14.8361832,23 14.6745401,23.0464128 14.5115771,23.1335664 C14.3486142,23.2207199 14.2207199,23.3486142 14.1335664,23.5115771 C14.0464128,23.6745401 14,23.8361832 14,24.2819426 L14,24.2819426 L14,25.7180574 C14,26.1638168 14.0464128,26.3254599 14.1335664,26.4884229 C14.2207199,26.6513858 14.3486142,26.7792801 14.5115771,26.8664336 C14.6745401,26.9535872 14.8361832,27 15.2819426,27 L15.2819426,27 L16.7180574,27 C17.1638168,27 17.3254599,26.9535872 17.4884229,26.8664336 C17.6513858,26.7792801 17.7792801,26.6513858 17.8664336,26.4884229 C17.9535872,26.3254599 18,26.1638168 18,25.7180574 L18,25.7180574 L18,24.2819426 C18,23.8361832 17.9535872,23.6745401 17.8664336,23.5115771 C17.7792801,23.3486142 17.6513858,23.2207199 17.4884229,23.1335664 C17.3254599,23.0464128 17.1638168,23 16.7180574,23 L16.7180574,23 Z M10.7180574,17 L9.2819426,17 C8.83618323,17 8.67454011,17.0464128 8.51157715,17.1335664 C8.34861419,17.2207199 8.2207199,17.3486142 8.13356635,17.5115771 C8.04641281,17.6745401 8,17.8361832 8,18.2819426 L8,18.2819426 L8,19.7180574 C8,20.1638168 8.04641281,20.3254599 8.13356635,20.4884229 C8.2207199,20.6513858 8.34861419,20.7792801 8.51157715,20.8664336 C8.67454011,20.9535872 8.83618323,21 9.2819426,21 L9.2819426,21 L10.7180574,21 C11.1638168,21 11.3254599,20.9535872 11.4884229,20.8664336 C11.6513858,20.7792801 11.7792801,20.6513858 11.8664336,20.4884229 C11.9535872,20.3254599 12,20.1638168 12,19.7180574 L12,19.7180574 L12,18.2819426 C12,17.8361832 11.9535872,17.6745401 11.8664336,17.5115771 C11.7792801,17.3486142 11.6513858,17.2207199 11.4884229,17.1335664 C11.3254599,17.0464128 11.1638168,17 10.7180574,17 L10.7180574,17 Z M16.7180574,17 L15.2819426,17 C14.8361832,17 14.6745401,17.0464128 14.5115771,17.1335664 C14.3486142,17.2207199 14.2207199,17.3486142 14.1335664,17.5115771 C14.0464128,17.6745401 14,17.8361832 14,18.2819426 L14,18.2819426 L14,19.7180574 C14,20.1638168 14.0464128,20.3254599 14.1335664,20.4884229 C14.2207199,20.6513858 14.3486142,20.7792801 14.5115771,20.8664336 C14.6745401,20.9535872 14.8361832,21 15.2819426,21 L15.2819426,21 L16.7180574,21 C17.1638168,21 17.3254599,20.9535872 17.4884229,20.8664336 C17.6513858,20.7792801 17.7792801,20.6513858 17.8664336,20.4884229 C17.9535872,20.3254599 18,20.1638168 18,19.7180574 L18,19.7180574 L18,18.2819426 C18,17.8361832 17.9535872,17.6745401 17.8664336,17.5115771 C17.7792801,17.3486142 17.6513858,17.2207199 17.4884229,17.1335664 C17.3254599,17.0464128 17.1638168,17 16.7180574,17 L16.7180574,17 Z M22.7180574,17 L21.2819426,17 C20.8361832,17 20.6745401,17.0464128 20.5115771,17.1335664 C20.3486142,17.2207199 20.2207199,17.3486142 20.1335664,17.5115771 C20.0464128,17.6745401 20,17.8361832 20,18.2819426 L20,18.2819426 L20,19.7180574 C20,20.1638168 20.0464128,20.3254599 20.1335664,20.4884229 C20.2207199,20.6513858 20.3486142,20.7792801 20.5115771,20.8664336 C20.6745401,20.9535872 20.8361832,21 21.2819426,21 L21.2819426,21 L22.7180574,21 C23.1638168,21 23.3254599,20.9535872 23.4884229,20.8664336 C23.6513858,20.7792801 23.7792801,20.6513858 23.8664336,20.4884229 C23.9535872,20.3254599 24,20.1638168 24,19.7180574 L24,19.7180574 L24,18.2819426 C24,17.8361832 23.9535872,17.6745401 23.8664336,17.5115771 C23.7792801,17.3486142 23.6513858,17.2207199 23.4884229,17.1335664 C23.3254599,17.0464128 23.1638168,17 22.7180574,17 L22.7180574,17 Z M10.7180574,11 L9.2819426,11 C8.83618323,11 8.67454011,11.0464128 8.51157715,11.1335664 C8.34861419,11.2207199 8.2207199,11.3486142 8.13356635,11.5115771 C8.04641281,11.6745401 8,11.8361832 8,12.2819426 L8,12.2819426 L8,13.7180574 C8,14.1638168 8.04641281,14.3254599 8.13356635,14.4884229 C8.2207199,14.6513858 8.34861419,14.7792801 8.51157715,14.8664336 C8.67454011,14.9535872 8.83618323,15 9.2819426,15 L9.2819426,15 L10.7180574,15 C11.1638168,15 11.3254599,14.9535872 11.4884229,14.8664336 C11.6513858,14.7792801 11.7792801,14.6513858 11.8664336,14.4884229 C11.9535872,14.3254599 12,14.1638168 12,13.7180574 L12,13.7180574 L12,12.2819426 C12,11.8361832 11.9535872,11.6745401 11.8664336,11.5115771 C11.7792801,11.3486142 11.6513858,11.2207199 11.4884229,11.1335664 C11.3254599,11.0464128 11.1638168,11 10.7180574,11 L10.7180574,11 Z M16.7180574,11 L15.2819426,11 C14.8361832,11 14.6745401,11.0464128 14.5115771,11.1335664 C14.3486142,11.2207199 14.2207199,11.3486142 14.1335664,11.5115771 C14.0464128,11.6745401 14,11.8361832 14,12.2819426 L14,12.2819426 L14,13.7180574 C14,14.1638168 14.0464128,14.3254599 14.1335664,14.4884229 C14.2207199,14.6513858 14.3486142,14.7792801 14.5115771,14.8664336 C14.6745401,14.9535872 14.8361832,15 15.2819426,15 L15.2819426,15 L16.7180574,15 C17.1638168,15 17.3254599,14.9535872 17.4884229,14.8664336 C17.6513858,14.7792801 17.7792801,14.6513858 17.8664336,14.4884229 C17.9535872,14.3254599 18,14.1638168 18,13.7180574 L18,13.7180574 L18,12.2819426 C18,11.8361832 17.9535872,11.6745401 17.8664336,11.5115771 C17.7792801,11.3486142 17.6513858,11.2207199 17.4884229,11.1335664 C17.3254599,11.0464128 17.1638168,11 16.7180574,11 L16.7180574,11 Z M22.7180574,11 L21.2819426,11 C20.8361832,11 20.6745401,11.0464128 20.5115771,11.1335664 C20.3486142,11.2207199 20.2207199,11.3486142 20.1335664,11.5115771 C20.0464128,11.6745401 20,11.8361832 20,12.2819426 L20,12.2819426 L20,13.7180574 C20,14.1638168 20.0464128,14.3254599 20.1335664,14.4884229 C20.2207199,14.6513858 20.3486142,14.7792801 20.5115771,14.8664336 C20.6745401,14.9535872 20.8361832,15 21.2819426,15 L21.2819426,15 L22.7180574,15 C23.1638168,15 23.3254599,14.9535872 23.4884229,14.8664336 C23.6513858,14.7792801 23.7792801,14.6513858 23.8664336,14.4884229 C23.9535872,14.3254599 24,14.1638168 24,13.7180574 L24,13.7180574 L24,12.2819426 C24,11.8361832 23.9535872,11.6745401 23.8664336,11.5115771 C23.7792801,11.3486142 23.6513858,11.2207199 23.4884229,11.1335664 C23.3254599,11.0464128 23.1638168,11 22.7180574,11 L22.7180574,11 Z M10.7180574,5 L9.2819426,5 C8.83618323,5 8.67454011,5.04641281 8.51157715,5.13356635 C8.34861419,5.2207199 8.2207199,5.34861419 8.13356635,5.51157715 C8.04641281,5.67454011 8,5.83618323 8,6.2819426 L8,6.2819426 L8,7.7180574 C8,8.16381677 8.04641281,8.32545989 8.13356635,8.48842285 C8.2207199,8.65138581 8.34861419,8.7792801 8.51157715,8.86643365 C8.67454011,8.95358719 8.83618323,9 9.2819426,9 L9.2819426,9 L10.7180574,9 C11.1638168,9 11.3254599,8.95358719 11.4884229,8.86643365 C11.6513858,8.7792801 11.7792801,8.65138581 11.8664336,8.48842285 C11.9535872,8.32545989 12,8.16381677 12,7.7180574 L12,7.7180574 L12,6.2819426 C12,5.83618323 11.9535872,5.67454011 11.8664336,5.51157715 C11.7792801,5.34861419 11.6513858,5.2207199 11.4884229,5.13356635 C11.3254599,5.04641281 11.1638168,5 10.7180574,5 L10.7180574,5 Z M16.7180574,5 L15.2819426,5 C14.8361832,5 14.6745401,5.04641281 14.5115771,5.13356635 C14.3486142,5.2207199 14.2207199,5.34861419 14.1335664,5.51157715 C14.0464128,5.67454011 14,5.83618323 14,6.2819426 L14,6.2819426 L14,7.7180574 C14,8.16381677 14.0464128,8.32545989 14.1335664,8.48842285 C14.2207199,8.65138581 14.3486142,8.7792801 14.5115771,8.86643365 C14.6745401,8.95358719 14.8361832,9 15.2819426,9 L15.2819426,9 L16.7180574,9 C17.1638168,9 17.3254599,8.95358719 17.4884229,8.86643365 C17.6513858,8.7792801 17.7792801,8.65138581 17.8664336,8.48842285 C17.9535872,8.32545989 18,8.16381677 18,7.7180574 L18,7.7180574 L18,6.2819426 C18,5.83618323 17.9535872,5.67454011 17.8664336,5.51157715 C17.7792801,5.34861419 17.6513858,5.2207199 17.4884229,5.13356635 C17.3254599,5.04641281 17.1638168,5 16.7180574,5 L16.7180574,5 Z M22.7180574,5 L21.2819426,5 C20.8361832,5 20.6745401,5.04641281 20.5115771,5.13356635 C20.3486142,5.2207199 20.2207199,5.34861419 20.1335664,5.51157715 C20.0464128,5.67454011 20,5.83618323 20,6.2819426 L20,6.2819426 L20,7.7180574 C20,8.16381677 20.0464128,8.32545989 20.1335664,8.48842285 C20.2207199,8.65138581 20.3486142,8.7792801 20.5115771,8.86643365 C20.6745401,8.95358719 20.8361832,9 21.2819426,9 L21.2819426,9 L22.7180574,9 C23.1638168,9 23.3254599,8.95358719 23.4884229,8.86643365 C23.6513858,8.7792801 23.7792801,8.65138581 23.8664336,8.48842285 C23.9535872,8.32545989 24,8.16381677 24,7.7180574 L24,7.7180574 L24,6.2819426 C24,5.83618323 23.9535872,5.67454011 23.8664336,5.51157715 C23.7792801,5.34861419 23.6513858,5.2207199 23.4884229,5.13356635 C23.3254599,5.04641281 23.1638168,5 22.7180574,5 L22.7180574,5 Z"/></svg>