<svg xmlns="http://www.w3.org/2000/svg" width="32" height="32" viewBox="0 0 32 32"><defs><linearGradient id="a" x1="38.941%" x2="64.098%" y1="-27.499%" y2="119.243%"><stop offset="0%" stop-color="#00A3F5" stop-opacity=".4"/><stop offset="100%" stop-color="#00A3F5" stop-opacity=".4"/></linearGradient><linearGradient id="b" x1="34.082%" x2="69.68%" y1="-19.75%" y2="131.845%"><stop offset="0%" stop-color="#00B4F5"/><stop offset="100%" stop-color="#1F69FF"/></linearGradient></defs><g fill="none" fill-rule="evenodd"><path fill="url(#a)" d="M27,4 L27,28 C27,30.209139 25.209139,32 23,32 L9,32 C6.790861,32 5,30.209139 5,28 L5,4 C5,1.790861 6.790861,4.05812251e-16 9,0 L23,0 C25.209139,-4.05812251e-16 27,1.790861 27,4 Z"/><path fill="url(#b)" d="M9.2819426,5 L10.7180574,5 C11.1638168,5 11.3254599,5.04641281 11.4884229,5.13356635 C11.6513858,5.2207199 11.7792801,5.34861419 11.8664336,5.51157715 C11.9535872,5.67454011 12,5.83618323 12,6.2819426 L12,7.7180574 C12,8.16381677 11.9535872,8.32545989 11.8664336,8.48842285 C11.7792801,8.65138581 11.6513858,8.7792801 11.4884229,8.86643365 C11.3254599,8.95358719 11.1638168,9 10.7180574,9 L9.2819426,9 C8.83618323,9 8.67454011,8.95358719 8.51157715,8.86643365 C8.34861419,8.7792801 8.2207199,8.65138581 8.13356635,8.48842285 C8.04641281,8.32545989 8,8.16381677 8,7.7180574 L8,6.2819426 C8,5.83618323 8.04641281,5.67454011 8.13356635,5.51157715 C8.2207199,5.34861419 8.34861419,5.2207199 8.51157715,5.13356635 C8.67454011,5.04641281 8.83618323,5 9.2819426,5 Z M9.2819426,11 L10.7180574,11 C11.1638168,11 11.3254599,11.0464128 11.4884229,11.1335664 C11.6513858,11.2207199 11.7792801,11.3486142 11.8664336,11.5115771 C11.9535872,11.6745401 12,11.8361832 12,12.2819426 L12,13.7180574 C12,14.1638168 11.9535872,14.3254599 11.8664336,14.4884229 C11.7792801,14.6513858 11.6513858,14.7792801 11.4884229,14.8664336 C11.3254599,14.9535872 11.1638168,15 10.7180574,15 L9.2819426,15 C8.83618323,15 8.67454011,14.9535872 8.51157715,14.8664336 C8.34861419,14.7792801 8.2207199,14.6513858 8.13356635,14.4884229 C8.04641281,14.3254599 8,14.1638168 8,13.7180574 L8,12.2819426 C8,11.8361832 8.04641281,11.6745401 8.13356635,11.5115771 C8.2207199,11.3486142 8.34861419,11.2207199 8.51157715,11.1335664 C8.67454011,11.0464128 8.83618323,11 9.2819426,11 Z M9.2819426,17 L10.7180574,17 C11.1638168,17 11.3254599,17.0464128 11.4884229,17.1335664 C11.6513858,17.2207199 11.7792801,17.3486142 11.8664336,17.5115771 C11.9535872,17.6745401 12,17.8361832 12,18.2819426 L12,19.7180574 C12,20.1638168 11.9535872,20.3254599 11.8664336,20.4884229 C11.7792801,20.6513858 11.6513858,20.7792801 11.4884229,20.8664336 C11.3254599,20.9535872 11.1638168,21 10.7180574,21 L9.2819426,21 C8.83618323,21 8.67454011,20.9535872 8.51157715,20.8664336 C8.34861419,20.7792801 8.2207199,20.6513858 8.13356635,20.4884229 C8.04641281,20.3254599 8,20.1638168 8,19.7180574 L8,18.2819426 C8,17.8361832 8.04641281,17.6745401 8.13356635,17.5115771 C8.2207199,17.3486142 8.34861419,17.2207199 8.51157715,17.1335664 C8.67454011,17.0464128 8.83618323,17 9.2819426,17 Z M15.2819426,17 L16.7180574,17 C17.1638168,17 17.3254599,17.0464128 17.4884229,17.1335664 C17.6513858,17.2207199 17.7792801,17.3486142 17.8664336,17.5115771 C17.9535872,17.6745401 18,17.8361832 18,18.2819426 L18,19.7180574 C18,20.1638168 17.9535872,20.3254599 17.8664336,20.4884229 C17.7792801,20.6513858 17.6513858,20.7792801 17.4884229,20.8664336 C17.3254599,20.9535872 17.1638168,21 16.7180574,21 L15.2819426,21 C14.8361832,21 14.6745401,20.9535872 14.5115771,20.8664336 C14.3486142,20.7792801 14.2207199,20.6513858 14.1335664,20.4884229 C14.0464128,20.3254599 14,20.1638168 14,19.7180574 L14,18.2819426 C14,17.8361832 14.0464128,17.6745401 14.1335664,17.5115771 C14.2207199,17.3486142 14.3486142,17.2207199 14.5115771,17.1335664 C14.6745401,17.0464128 14.8361832,17 15.2819426,17 Z M21.2819426,17 L22.7180574,17 C23.1638168,17 23.3254599,17.0464128 23.4884229,17.1335664 C23.6513858,17.2207199 23.7792801,17.3486142 23.8664336,17.5115771 C23.9535872,17.6745401 24,17.8361832 24,18.2819426 L24,19.7180574 C24,20.1638168 23.9535872,20.3254599 23.8664336,20.4884229 C23.7792801,20.6513858 23.6513858,20.7792801 23.4884229,20.8664336 C23.3254599,20.9535872 23.1638168,21 22.7180574,21 L21.2819426,21 C20.8361832,21 20.6745401,20.9535872 20.5115771,20.8664336 C20.3486142,20.7792801 20.2207199,20.6513858 20.1335664,20.4884229 C20.0464128,20.3254599 20,20.1638168 20,19.7180574 L20,18.2819426 C20,17.8361832 20.0464128,17.6745401 20.1335664,17.5115771 C20.2207199,17.3486142 20.3486142,17.2207199 20.5115771,17.1335664 C20.6745401,17.0464128 20.8361832,17 21.2819426,17 Z M15.2819426,11 L16.7180574,11 C17.1638168,11 17.3254599,11.0464128 17.4884229,11.1335664 C17.6513858,11.2207199 17.7792801,11.3486142 17.8664336,11.5115771 C17.9535872,11.6745401 18,11.8361832 18,12.2819426 L18,13.7180574 C18,14.1638168 17.9535872,14.3254599 17.8664336,14.4884229 C17.7792801,14.6513858 17.6513858,14.7792801 17.4884229,14.8664336 C17.3254599,14.9535872 17.1638168,15 16.7180574,15 L15.2819426,15 C14.8361832,15 14.6745401,14.9535872 14.5115771,14.8664336 C14.3486142,14.7792801 14.2207199,14.6513858 14.1335664,14.4884229 C14.0464128,14.3254599 14,14.1638168 14,13.7180574 L14,12.2819426 C14,11.8361832 14.0464128,11.6745401 14.1335664,11.5115771 C14.2207199,11.3486142 14.3486142,11.2207199 14.5115771,11.1335664 C14.6745401,11.0464128 14.8361832,11 15.2819426,11 Z M21.2819426,11 L22.7180574,11 C23.1638168,11 23.3254599,11.0464128 23.4884229,11.1335664 C23.6513858,11.2207199 23.7792801,11.3486142 23.8664336,11.5115771 C23.9535872,11.6745401 24,11.8361832 24,12.2819426 L24,13.7180574 C24,14.1638168 23.9535872,14.3254599 23.8664336,14.4884229 C23.7792801,14.6513858 23.6513858,14.7792801 23.4884229,14.8664336 C23.3254599,14.9535872 23.1638168,15 22.7180574,15 L21.2819426,15 C20.8361832,15 20.6745401,14.9535872 20.5115771,14.8664336 C20.3486142,14.7792801 20.2207199,14.6513858 20.1335664,14.4884229 C20.0464128,14.3254599 20,14.1638168 20,13.7180574 L20,12.2819426 C20,11.8361832 20.0464128,11.6745401 20.1335664,11.5115771 C20.2207199,11.3486142 20.3486142,11.2207199 20.5115771,11.1335664 C20.6745401,11.0464128 20.8361832,11 21.2819426,11 Z M15.2819426,5 L16.7180574,5 C17.1638168,5 17.3254599,5.04641281 17.4884229,5.13356635 C17.6513858,5.2207199 17.7792801,5.34861419 17.8664336,5.51157715 C17.9535872,5.67454011 18,5.83618323 18,6.2819426 L18,7.7180574 C18,8.16381677 17.9535872,8.32545989 17.8664336,8.48842285 C17.7792801,8.65138581 17.6513858,8.7792801 17.4884229,8.86643365 C17.3254599,8.95358719 17.1638168,9 16.7180574,9 L15.2819426,9 C14.8361832,9 14.6745401,8.95358719 14.5115771,8.86643365 C14.3486142,8.7792801 14.2207199,8.65138581 14.1335664,8.48842285 C14.0464128,8.32545989 14,8.16381677 14,7.7180574 L14,6.2819426 C14,5.83618323 14.0464128,5.67454011 14.1335664,5.51157715 C14.2207199,5.34861419 14.3486142,5.2207199 14.5115771,5.13356635 C14.6745401,5.04641281 14.8361832,5 15.2819426,5 Z M21.2819426,5 L22.7180574,5 C23.1638168,5 23.3254599,5.04641281 23.4884229,5.13356635 C23.6513858,5.2207199 23.7792801,5.34861419 23.8664336,5.51157715 C23.9535872,5.67454011 24,5.83618323 24,6.2819426 L24,7.7180574 C24,8.16381677 23.9535872,8.32545989 23.8664336,8.48842285 C23.7792801,8.65138581 23.6513858,8.7792801 23.4884229,8.86643365 C23.3254599,8.95358719 23.1638168,9 22.7180574,9 L21.2819426,9 C20.8361832,9 20.6745401,8.95358719 20.5115771,8.86643365 C20.3486142,8.7792801 20.2207199,8.65138581 20.1335664,8.48842285 C20.0464128,8.32545989 20,8.16381677 20,7.7180574 L20,6.2819426 C20,5.83618323 20.0464128,5.67454011 20.1335664,5.51157715 C20.2207199,5.34861419 20.3486142,5.2207199 20.5115771,5.13356635 C20.6745401,5.04641281 20.8361832,5 21.2819426,5 Z M9.2819426,23 L10.7180574,23 C11.1638168,23 11.3254599,23.0464128 11.4884229,23.1335664 C11.6513858,23.2207199 11.7792801,23.3486142 11.8664336,23.5115771 C11.9535872,23.6745401 12,23.8361832 12,24.2819426 L12,25.7180574 C12,26.1638168 11.9535872,26.3254599 11.8664336,26.4884229 C11.7792801,26.6513858 11.6513858,26.7792801 11.4884229,26.8664336 C11.3254599,26.9535872 11.1638168,27 10.7180574,27 L9.2819426,27 C8.83618323,27 8.67454011,26.9535872 8.51157715,26.8664336 C8.34861419,26.7792801 8.2207199,26.6513858 8.13356635,26.4884229 C8.04641281,26.3254599 8,26.1638168 8,25.7180574 L8,24.2819426 C8,23.8361832 8.04641281,23.6745401 8.13356635,23.5115771 C8.2207199,23.3486142 8.34861419,23.2207199 8.51157715,23.1335664 C8.67454011,23.0464128 8.83618323,23 9.2819426,23 Z M15.2819426,23 L16.7180574,23 C17.1638168,23 17.3254599,23.0464128 17.4884229,23.1335664 C17.6513858,23.2207199 17.7792801,23.3486142 17.8664336,23.5115771 C17.9535872,23.6745401 18,23.8361832 18,24.2819426 L18,25.7180574 C18,26.1638168 17.9535872,26.3254599 17.8664336,26.4884229 C17.7792801,26.6513858 17.6513858,26.7792801 17.4884229,26.8664336 C17.3254599,26.9535872 17.1638168,27 16.7180574,27 L15.2819426,27 C14.8361832,27 14.6745401,26.9535872 14.5115771,26.8664336 C14.3486142,26.7792801 14.2207199,26.6513858 14.1335664,26.4884229 C14.0464128,26.3254599 14,26.1638168 14,25.7180574 L14,24.2819426 C14,23.8361832 14.0464128,23.6745401 14.1335664,23.5115771 C14.2207199,23.3486142 14.3486142,23.2207199 14.5115771,23.1335664 C14.6745401,23.0464128 14.8361832,23 15.2819426,23 Z"/></g></svg>