<svg xmlns="http://www.w3.org/2000/svg" width="32" height="32" viewBox="0 0 32 32"><defs><linearGradient id="a" x1="26.602%" x2="79.826%" y1="-27.499%" y2="119.243%"><stop offset="0%" stop-color="#00A3F5" stop-opacity=".4"/><stop offset="100%" stop-color="#00A3F5" stop-opacity=".4"/></linearGradient><linearGradient id="b" x1="19.905%" x2="87.207%" y1="-19.75%" y2="131.845%"><stop offset="0%" stop-color="#00B4F5"/><stop offset="100%" stop-color="#1F69FF"/></linearGradient></defs><g fill="none" fill-rule="evenodd"><path fill="url(#a)" d="M27.5857864,17.5857864 L14.4142136,4.41421356 C13.633165,3.63316498 13.633165,2.36683502 14.4142136,1.58578644 C14.7892863,1.21071368 15.2979941,1 15.8284271,1 L21.6862915,1 C23.8080234,1 25.8428547,1.84285472 27.3431458,3.34314575 L28.6568542,4.65685425 C30.1571453,6.15714528 31,8.19197658 31,10.3137085 L31,16.1715729 C31,17.2761424 30.1045695,18.1715729 29,18.1715729 C28.469567,18.1715729 27.9608592,17.9608592 27.5857864,17.5857864 Z"/><path fill="url(#b)" d="M16,6 L26,16 L25.2800055,23.1999451 C25.112036,24.8796403 23.9076705,26.2730824 22.2699992,26.6825002 L5.68599434,30.8285014 C5.26040546,30.9348986 4.81019853,30.8101985 4.5,30.5 C4.22385763,30.2238576 4.22385763,29.7761424 4.5,29.5 L12.3533105,21.6464074 C12.8555053,21.8735517 13.4129858,22 14,22 C16.209139,22 18,20.209139 18,18 C18,15.790861 16.209139,14 14,14 C11.790861,14 10,15.790861 10,18 C10,18.5870142 10.1264483,19.1444947 10.3535926,19.6466895 L2.5,27.5 C2.22385763,27.7761424 1.77614237,27.7761424 1.5,27.5 C1.18980147,27.1898015 1.06510137,26.7395945 1.17149859,26.3140057 L5.31749981,9.73000077 C5.72691761,8.09232954 7.12035966,6.88796403 8.80005493,6.71999451 L16,6 Z"/></g></svg>