<svg xmlns="http://www.w3.org/2000/svg" width="32" height="32" viewBox="0 0 32 32"><defs><linearGradient id="a" x1="26.602%" x2="79.826%" y1="-27.499%" y2="119.243%"><stop offset="0%" stop-color="#47C2FF" stop-opacity=".24"/><stop offset="100%" stop-color="#0AF" stop-opacity=".5"/></linearGradient><linearGradient id="b" x1="40.009%" x2="100%" y1="0%" y2="108.537%"><stop offset="0%" stop-color="#00A3F5"/><stop offset="100%" stop-color="#7096FF"/></linearGradient></defs><g fill="none" fill-rule="evenodd"><path fill="url(#a)" d="M26.9805952,14.9805952 L17.0194048,5.0194048 C16.2383562,4.23835622 16.2383562,2.97202626 17.0194048,2.19097768 C17.350241,1.8601415 17.7865953,1.65576406 18.2525469,1.61340483 L23.1341943,1.1696187 C24.3164384,1.06214196 25.4853442,1.48534425 26.3247644,2.3247644 L29.6752356,5.6752356 C30.5146558,6.51465575 30.937858,7.68356159 30.8303813,8.86580571 L30.3865952,13.7474531 C30.2865921,14.8474864 29.3137705,15.6581711 28.2137373,15.558168 C27.7477857,15.5158088 27.3114314,15.3114314 26.9805952,14.9805952 Z"/><path fill="url(#b)" d="M14.6209235,8 C15.6817895,8 16.6992051,8.42142736 17.4493507,9.17157288 L22.8284271,14.5506493 C23.5785726,15.3007949 24,16.3182105 24,17.3790765 L24,22.9164457 C24,24.7335262 22.7752254,26.3223091 21.0179732,26.7847439 L5.68382496,30.8200461 C5.26038036,30.9314789 4.80961476,30.8096148 4.5,30.5 C4.22385763,30.2238576 4.22385763,29.7761424 4.5,29.5 L11.3533105,22.6464074 C11.8555053,22.8735517 12.4129858,23 13,23 C15.209139,23 17,21.209139 17,19 C17,16.790861 15.209139,15 13,15 C10.790861,15 9,16.790861 9,19 C9,19.5870142 9.12644829,20.1444947 9.35359261,20.6466895 L2.5,27.5 C2.22385763,27.7761424 1.77614237,27.7761424 1.5,27.5 C1.19038524,27.1903852 1.06852115,26.7396196 1.17995394,26.316175 L5.2152561,10.9820268 C5.6776909,9.22477457 7.26647381,8 9.08355425,8 L14.6209235,8 Z"/></g></svg>