<svg xmlns="http://www.w3.org/2000/svg" width="32" height="32" viewBox="0 0 32 32"><path fill="#618A9E" fill-rule="evenodd" d="M21,0 C23.209139,-4.05812251e-16 25,1.790861 25,4 L25,28 C25,30.209139 23.209139,32 21,32 L11,32 C8.790861,32 7,30.209139 7,28 L7,4 C7,1.790861 8.790861,4.05812251e-16 11,0 L21,0 Z M19.5,26 L12.5,26 C11.6715729,26 11,26.6715729 11,27.5 C11,28.3284271 11.6715729,29 12.5,29 L12.5,29 L19.5,29 C20.3284271,29 21,28.3284271 21,27.5 C21,26.6715729 20.3284271,26 19.5,26 L19.5,26 Z M17.5,3 L14.5,3 C13.6715729,3 13,3.67157288 13,4.5 C13,5.32842712 13.6715729,6 14.5,6 L14.5,6 L17.5,6 C18.3284271,6 19,5.32842712 19,4.5 C19,3.67157288 18.3284271,3 17.5,3 L17.5,3 Z"/></svg>