<svg xmlns="http://www.w3.org/2000/svg" width="32" height="32" viewBox="0 0 32 32"><defs><linearGradient id="a" x1="42.597%" x2="59.437%" y1="-27.499%" y2="119.243%"><stop offset="0%" stop-color="#00A3F5" stop-opacity=".4"/><stop offset="100%" stop-color="#00A3F5" stop-opacity=".4"/></linearGradient><linearGradient id="b" x1="45.548%" x2="55.504%" y1="-19.75%" y2="131.845%"><stop offset="0%" stop-color="#00B4F5"/><stop offset="100%" stop-color="#1F69FF"/></linearGradient></defs><g fill="none" fill-rule="evenodd"><path fill="url(#a)" d="M25,4 L25,28 C25,30.209139 23.209139,32 21,32 L11,32 C8.790861,32 7,30.209139 7,28 L7,4 C7,1.790861 8.790861,4.05812251e-16 11,0 L21,0 C23.209139,-4.05812251e-16 25,1.790861 25,4 Z"/><path fill="url(#b)" d="M14.5,3 L17.5,3 C18.3284271,3 19,3.67157288 19,4.5 C19,5.32842712 18.3284271,6 17.5,6 L14.5,6 C13.6715729,6 13,5.32842712 13,4.5 C13,3.67157288 13.6715729,3 14.5,3 Z M12.5,26 L19.5,26 C20.3284271,26 21,26.6715729 21,27.5 C21,28.3284271 20.3284271,29 19.5,29 L12.5,29 C11.6715729,29 11,28.3284271 11,27.5 C11,26.6715729 11.6715729,26 12.5,26 Z"/></g></svg>