<svg xmlns="http://www.w3.org/2000/svg" width="32" height="32" viewBox="0 0 32 32"><defs><linearGradient id="a" x1="26.602%" x2="79.826%" y1="-27.499%" y2="119.243%"><stop offset="0%" stop-color="#47C2FF" stop-opacity=".24"/><stop offset="100%" stop-color="#0AF" stop-opacity=".5"/></linearGradient><linearGradient id="b" x1="40.009%" x2="100%" y1="0%" y2="108.537%"><stop offset="0%" stop-color="#00A3F5"/><stop offset="100%" stop-color="#7096FF"/></linearGradient></defs><g fill="none" fill-rule="evenodd"><path fill="url(#a)" d="M1.17595808,25.944061 L2.542,23.96 L2.54732127,24.020534 C2.80226486,26.8249134 4.9695552,29.0630214 7.74050796,29.4261736 L8.04095931,29.4584228 L6.05593902,30.8240419 C5.88924065,30.9386471 5.69170375,31 5.4894102,31 L3.828,31 L3.41421356,31.4142136 C2.63316498,32.1952621 1.36683502,32.1952621 0.585786438,31.4142136 C-0.154154326,30.6742728 -0.193098576,29.4987886 0.468953686,28.7130012 L0.585786438,28.5857864 L1,28.17 L1,26.5105898 C1,26.3082962 1.06135295,26.1107594 1.17595808,25.944061 Z M31.4142136,0.585786438 C32.1541543,1.3257272 32.1930986,2.50121136 31.5310463,3.28699879 L31.4142136,3.41421356 L31,3.828 L31,5.4894102 C31,5.69170375 30.9386471,5.88924065 30.8240419,6.05593902 L29.4810738,8.00934716 L29.457,8.039 L29.4526787,7.97946603 C29.1977351,5.17508659 27.0304448,2.93697858 24.259492,2.57382635 L23.9590407,2.54157719 L25.944061,1.17595808 C26.1107594,1.06135295 26.3082962,1 26.5105898,1 L28.17,1 L28.5857864,0.585786438 C29.366835,-0.195262146 30.633165,-0.195262146 31.4142136,0.585786438 Z"/><path fill="url(#b)" d="M12.7071068,12.7071068 L14.2928932,14.2928932 C14.6834175,14.6834175 14.6834175,15.3165825 14.2928932,15.7071068 L11.999759,17.9992136 L13.999759,19.9992136 L16.2928932,17.7071068 C16.6834175,17.3165825 17.3165825,17.3165825 17.7071068,17.7071068 L19.2928932,19.2928932 C19.6834175,19.6834175 19.6834175,20.3165825 19.2928932,20.7071068 L16.999759,22.9992136 L17.5857864,23.5857864 C18.366835,24.366835 18.366835,25.633165 17.5857864,26.4142136 L15.9871466,28.0128534 C14.7280164,29.2719836 12.9746576,29.9067871 11.2012914,29.7455719 L7.97946603,29.4526787 C5.09496147,29.190451 2.80954896,26.9050385 2.54732127,24.020534 L2.25442805,20.7987086 C2.09321294,19.0253424 2.72801637,17.2719836 3.9871466,16.0128534 L5.58578644,14.4142136 C6.36683502,13.633165 7.63316498,13.633165 8.41421356,14.4142136 L8.999759,14.9992136 L11.2928932,12.7071068 C11.6834175,12.3165825 12.3165825,12.3165825 12.7071068,12.7071068 Z M20.7987086,2.25442805 L24.020534,2.54732127 C26.9050385,2.80954896 29.190451,5.09496147 29.4526787,7.97946603 L29.7455719,11.2012914 C29.9067871,12.9746576 29.2719836,14.7280164 28.0128534,15.9871466 L26.4142136,17.5857864 C25.633165,18.366835 24.366835,18.366835 23.5857864,17.5857864 L14.4142136,8.41421356 C13.633165,7.63316498 13.633165,6.36683502 14.4142136,5.58578644 L16.0128534,3.9871466 C17.2719836,2.72801637 19.0253424,2.09321294 20.7987086,2.25442805 Z"/></g></svg>