<svg xmlns="http://www.w3.org/2000/svg" width="32" height="32" viewBox="0 0 32 32"><g fill="none" fill-rule="evenodd"><line x1="10" x2="2" y1="22" y2="30" stroke="#618A9E" stroke-linecap="round" stroke-width="4"/><path fill="#618A9E" d="M8.41421356,14.4142136 L17.5857864,23.5857864 C18.366835,24.366835 18.366835,25.633165 17.5857864,26.4142136 L15.9871466,28.0128534 C14.7280164,29.2719836 12.9746576,29.9067871 11.2012914,29.7455719 L7.97946603,29.4526787 C5.09496147,29.190451 2.80954896,26.9050385 2.54732127,24.020534 L2.25442805,20.7987086 C2.09321294,19.0253424 2.72801637,17.2719836 3.9871466,16.0128534 L5.58578644,14.4142136 C6.36683502,13.633165 7.63316498,13.633165 8.41421356,14.4142136 Z"/><path fill="#618A9E" fill-rule="nonzero" d="M12.7071068 12.7071068 14.2928932 14.2928932C14.6834175 14.6834175 14.6834175 15.3165825 14.2928932 15.7071068L9.70710678 20.2928932C9.31658249 20.6834175 8.68341751 20.6834175 8.29289322 20.2928932L6.70710678 18.7071068C6.31658249 18.3165825 6.31658249 17.6834175 6.70710678 17.2928932L11.2928932 12.7071068C11.6834175 12.3165825 12.3165825 12.3165825 12.7071068 12.7071068ZM17.7071068 17.7071068 19.2928932 19.2928932C19.6834175 19.6834175 19.6834175 20.3165825 19.2928932 20.7071068L14.7071068 25.2928932C14.3165825 25.6834175 13.6834175 25.6834175 13.2928932 25.2928932L11.7071068 23.7071068C11.3165825 23.3165825 11.3165825 22.6834175 11.7071068 22.2928932L16.2928932 17.7071068C16.6834175 17.3165825 17.3165825 17.3165825 17.7071068 17.7071068Z"/><path fill="#618A9E" d="M1.17595808,25.944061 L2.51892617,23.9906528 C2.8318114,23.535547 3.45439113,23.4202545 3.90949692,23.7331397 C3.95982908,23.7677431 4.00688507,23.8068851 4.05007488,23.8500749 L8.14992512,27.9499251 C8.54044941,28.3404494 8.54044941,28.9736144 8.14992512,29.3641387 C8.10673531,29.4073285 8.05967932,29.4464705 8.00934716,29.4810738 L6.05593902,30.8240419 C5.88924065,30.9386471 5.69170375,31 5.4894102,31 L2,31 C1.44771525,31 1,30.5522847 1,30 L1,26.5105898 C1,26.3082962 1.06135295,26.1107594 1.17595808,25.944061 Z"/><line x1="30" x2="22" y1="2" y2="10" stroke="#618A9E" stroke-linecap="round" stroke-width="4" transform="rotate(180 26 6)"/><path fill="#618A9E" d="M19.4142136,3.41421356 L28.5857864,12.5857864 C29.366835,13.366835 29.366835,14.633165 28.5857864,15.4142136 L26.9871466,17.0128534 C25.7280164,18.2719836 23.9746576,18.9067871 22.2012914,18.7455719 L18.979466,18.4526787 C16.0949615,18.190451 13.809549,15.9050385 13.5473213,13.020534 L13.2544281,9.79870856 C13.0932129,8.02534239 13.7280164,6.27198363 14.9871466,5.0128534 L16.5857864,3.41421356 C17.366835,2.63316498 18.633165,2.63316498 19.4142136,3.41421356 Z" transform="rotate(180 21.5 10.5)"/><path fill="#618A9E" d="M23.1759581,3.94406098 L24.5189262,1.99065284 C24.8318114,1.53554705 25.4543911,1.42025451 25.9094969,1.73313974 C25.9598291,1.7677431 26.0068851,1.80688507 26.0500749,1.85007488 L30.1499251,5.94992512 C30.5404494,6.34044941 30.5404494,6.97361439 30.1499251,7.36413868 C30.1067353,7.40732849 30.0596793,7.44647047 30.0093472,7.48107383 L28.055939,8.82404192 C27.8892406,8.93864705 27.6917038,9 27.4894102,9 L24,9 C23.4477153,9 23,8.55228475 23,8 L23,4.5105898 C23,4.30829625 23.0613529,4.11075935 23.1759581,3.94406098 Z" transform="rotate(180 27 5)"/></g></svg>