<svg xmlns="http://www.w3.org/2000/svg" width="32" height="32" viewBox="0 0 32 32"><defs><linearGradient id="a" x1="26.602%" x2="79.826%" y1="-27.499%" y2="119.243%"><stop offset="0%" stop-color="#00A3F5" stop-opacity=".4"/><stop offset="100%" stop-color="#00A3F5" stop-opacity=".4"/></linearGradient><linearGradient id="b" x1="19.905%" x2="87.207%" y1="-19.75%" y2="131.845%"><stop offset="0%" stop-color="#00B4F5"/><stop offset="100%" stop-color="#1F69FF"/></linearGradient></defs><g fill="none" fill-rule="evenodd"><path fill="url(#a)" d="M1.17595808,25.944061 L2.542,23.96 L2.54732127,24.020534 C2.80226486,26.8249134 4.9695552,29.0630214 7.74050796,29.4261736 L8.04095931,29.4584228 L6.05593902,30.8240419 C5.88924065,30.9386471 5.69170375,31 5.4894102,31 L3.828,31 L3.41421356,31.4142136 C2.63316498,32.1952621 1.36683502,32.1952621 0.585786438,31.4142136 C-0.154154326,30.6742728 -0.193098576,29.4987886 0.468953686,28.7130012 L0.585786438,28.5857864 L1,28.17 L1,26.5105898 C1,26.3082962 1.06135295,26.1107594 1.17595808,25.944061 Z M31.4142136,0.585786438 C32.1541543,1.3257272 32.1930986,2.50121136 31.5310463,3.28699879 L31.4142136,3.41421356 L31,3.828 L31,5.4894102 C31,5.69170375 30.9386471,5.88924065 30.8240419,6.05593902 L29.4810738,8.00934716 L29.457,8.039 L29.4526787,7.97946603 C29.1977351,5.17508659 27.0304448,2.93697858 24.259492,2.57382635 L23.9590407,2.54157719 L25.944061,1.17595808 C26.1107594,1.06135295 26.3082962,1 26.5105898,1 L28.17,1 L28.5857864,0.585786438 C29.366835,-0.195262146 30.633165,-0.195262146 31.4142136,0.585786438 Z"/><path fill="url(#b)" d="M13.0606602 13.0606602 13.9393398 13.9393398C14.5251263 14.5251263 14.5251263 15.4748737 13.9393398 16.0606602L10.0606602 19.9393398C9.47487373 20.5251263 8.52512627 20.5251263 7.93933983 19.9393398L7.06066017 19.0606602C6.47487373 18.4748737 6.47487373 17.5251263 7.06066017 16.9393398L10.9393398 13.0606602C11.5251263 12.4748737 12.4748737 12.4748737 13.0606602 13.0606602ZM18.0606602 18.0606602 18.9393398 18.9393398C19.5251263 19.5251263 19.5251263 20.4748737 18.9393398 21.0606602L15.0606602 24.9393398C14.4748737 25.5251263 13.5251263 25.5251263 12.9393398 24.9393398L12.0606602 24.0606602C11.4748737 23.4748737 11.4748737 22.5251263 12.0606602 21.9393398L15.9393398 18.0606602C16.5251263 17.4748737 17.4748737 17.4748737 18.0606602 18.0606602Z"/><path fill="url(#b)" d="M8.41421356,14.4142136 L17.5857864,23.5857864 C18.366835,24.366835 18.366835,25.633165 17.5857864,26.4142136 L15.9871466,28.0128534 C14.7280164,29.2719836 12.9746576,29.9067871 11.2012914,29.7455719 L7.97946603,29.4526787 C5.09496147,29.190451 2.80954896,26.9050385 2.54732127,24.020534 L2.25442805,20.7987086 C2.09321294,19.0253424 2.72801637,17.2719836 3.9871466,16.0128534 L5.58578644,14.4142136 C6.36683502,13.633165 7.63316498,13.633165 8.41421356,14.4142136 Z"/><path fill="url(#b)" d="M19.4142136,3.41421356 L28.5857864,12.5857864 C29.366835,13.366835 29.366835,14.633165 28.5857864,15.4142136 L26.9871466,17.0128534 C25.7280164,18.2719836 23.9746576,18.9067871 22.2012914,18.7455719 L18.979466,18.4526787 C16.0949615,18.190451 13.809549,15.9050385 13.5473213,13.020534 L13.2544281,9.79870856 C13.0932129,8.02534239 13.7280164,6.27198363 14.9871466,5.0128534 L16.5857864,3.41421356 C17.366835,2.63316498 18.633165,2.63316498 19.4142136,3.41421356 Z" transform="rotate(180 21.5 10.5)"/></g></svg>