<svg xmlns="http://www.w3.org/2000/svg" width="32" height="32" viewBox="0 0 32 32"><defs><linearGradient id="a" x1="26.602%" x2="79.826%" y1="-27.499%" y2="119.243%"><stop offset="0%" stop-color="#47C2FF" stop-opacity=".16"/><stop offset="100%" stop-color="#47C2FF" stop-opacity=".24"/></linearGradient><linearGradient id="b" x1="40.009%" x2="100%" y1="0%" y2="108.537%"><stop offset="0%" stop-color="#00A3F5"/><stop offset="100%" stop-color="#476CFF"/></linearGradient></defs><g fill="none" fill-rule="evenodd"><path fill="url(#a)" d="M11.2555408,1 L20.7444592,1 C24.3105342,1 25.6036791,1.37130244 26.9073828,2.06853082 C28.2110865,2.76575919 29.2342408,3.78891348 29.9314692,5.09261719 C30.6286976,6.39632089 31,7.68946584 31,11.2555408 L31,20.7444592 C31,24.3105342 30.6286976,25.6036791 29.9314692,26.9073828 C29.2342408,28.2110865 28.2110865,29.2342408 26.9073828,29.9314692 C25.6036791,30.6286976 24.3105342,31 20.7444592,31 L11.2555408,31 C7.68946584,31 6.39632089,30.6286976 5.09261719,29.9314692 C3.78891348,29.2342408 2.76575919,28.2110865 2.06853082,26.9073828 C1.37130244,25.6036791 1,24.3105342 1,20.7444592 L1,11.2555408 C1,7.68946584 1.37130244,6.39632089 2.06853082,5.09261719 C2.76575919,3.78891348 3.78891348,2.76575919 5.09261719,2.06853082 C6.39632089,1.37130244 7.68946584,1 11.2555408,1 Z"/><path fill="url(#b)" d="M16,4 C17.7138653,4 19.1595254,5.27620301 19.3721042,6.97683363 L19.5,8 C19.7940924,10.3527389 21.6472611,12.2059076 24,12.5 L25.0231664,12.6278958 C26.723797,12.8404746 28,14.2861347 28,16 C28,17.7138653 26.723797,19.1595254 25.0231664,19.3721042 L24,19.5 C21.6472611,19.7940924 19.7940924,21.6472611 19.5,24 L19.3721042,25.0231664 C19.1595254,26.723797 17.7138653,28 16,28 C14.2861347,28 12.8404746,26.723797 12.6278958,25.0231664 L12.5,24 C12.2059076,21.6472611 10.3527389,19.7940924 8,19.5 L6.97683363,19.3721042 C5.27620301,19.1595254 4,17.7138653 4,16 C4,14.2861347 5.27620301,12.8404746 6.97683363,12.6278958 L8,12.5 C10.3527389,12.2059076 12.2059076,10.3527389 12.5,8 L12.6278958,6.97683363 C12.8404746,5.27620301 14.2861347,4 16,4 Z M16,13 C14.3431458,13 13,14.3431458 13,16 C13,17.6568542 14.3431458,19 16,19 C17.6568542,19 19,17.6568542 19,16 C19,14.3431458 17.6568542,13 16,13 Z"/></g></svg>