<svg xmlns="http://www.w3.org/2000/svg" width="32" height="32" viewBox="0 0 32 32"><path fill="#618A9E" fill-rule="evenodd" d="M20.7444592,1 C24.3105342,1 25.6036791,1.37130244 26.9073828,2.06853082 C28.2110865,2.76575919 29.2342408,3.78891348 29.9314692,5.09261719 C30.6286976,6.39632089 31,7.68946584 31,11.2555408 L31,20.7444592 C31,24.3105342 30.6286976,25.6036791 29.9314692,26.9073828 C29.2342408,28.2110865 28.2110865,29.2342408 26.9073828,29.9314692 C25.6036791,30.6286976 24.3105342,31 20.7444592,31 L11.2555408,31 C7.68946584,31 6.39632089,30.6286976 5.09261719,29.9314692 C3.78891348,29.2342408 2.76575919,28.2110865 2.06853082,26.9073828 C1.37130244,25.6036791 1,24.3105342 1,20.7444592 L1,11.2555408 C1,7.68946584 1.37130244,6.39632089 2.06853082,5.09261719 C2.76575919,3.78891348 3.78891348,2.76575919 5.09261719,2.06853082 C6.39632089,1.37130244 7.68946584,1 11.2555408,1 L20.7444592,1 Z M16,4 C14.2861347,4 12.8404746,5.27620301 12.6278958,6.97683363 L12.6278958,6.97683363 L12.5,8 C12.2059076,10.3527389 10.3527389,12.2059076 8,12.5 L8,12.5 L6.97683363,12.6278958 C5.27620301,12.8404746 4,14.2861347 4,16 C4,17.7138653 5.27620301,19.1595254 6.97683363,19.3721042 L6.97683363,19.3721042 L8,19.5 C10.3527389,19.7940924 12.2059076,21.6472611 12.5,24 L12.5,24 L12.6278958,25.0231664 C12.8404746,26.723797 14.2861347,28 16,28 C17.7138653,28 19.1595254,26.723797 19.3721042,25.0231664 L19.3721042,25.0231664 L19.5,24 C19.7940924,21.6472611 21.6472611,19.7940924 24,19.5 L24,19.5 L25.0231664,19.3721042 C26.723797,19.1595254 28,17.7138653 28,16 C28,14.2861347 26.723797,12.8404746 25.0231664,12.6278958 L25.0231664,12.6278958 L24,12.5 C21.6472611,12.2059076 19.7940924,10.3527389 19.5,8 L19.5,8 L19.3721042,6.97683363 C19.1595254,5.27620301 17.7138653,4 16,4 Z M16,19 C17.6568542,19 19,17.6568542 19,16 C19,14.3431458 17.6568542,13 16,13 C14.3431458,13 13,14.3431458 13,16 C13,17.6568542 14.3431458,19 16,19 Z"/></svg>