<svg xmlns="http://www.w3.org/2000/svg" width="32" height="32" viewBox="0 0 32 32"><defs><linearGradient id="a" x1="36.838%" x2="66.777%" y1="-27.499%" y2="119.243%"><stop offset="0%" stop-color="#47C2FF" stop-opacity=".16"/><stop offset="100%" stop-color="#47C2FF" stop-opacity=".24"/></linearGradient><linearGradient id="b" x1="45.211%" x2="73.964%" y1="0%" y2="108.537%"><stop offset="0%" stop-color="#00A3F5"/><stop offset="100%" stop-color="#476CFF"/></linearGradient></defs><g fill="none" fill-rule="evenodd"><path fill="url(#a)" d="M28,4 L28,28 C28,30.209139 26.209139,32 24,32 L8,32 C5.790861,32 4,30.209139 4,28 L4,4 C4,1.790861 5.790861,4.05812251e-16 8,0 L24,0 C26.209139,-4.05812251e-16 28,1.790861 28,4 Z"/><path fill="url(#b)" d="M16,11 C20.9705627,11 25,15.0294373 25,20 C25,24.9705627 20.9705627,29 16,29 C11.0294373,29 7,24.9705627 7,20 C7,15.0294373 11.0294373,11 16,11 Z M16,17 C14.3431458,17 13,18.3431458 13,20 C13,21.6568542 14.3431458,23 16,23 C17.6568542,23 19,21.6568542 19,20 C19,18.3431458 17.6568542,17 16,17 Z M16,3 C14.3431458,3 13,4.34314575 13,6 C13,7.65685425 14.3431458,9 16,9 C17.6568542,9 19,7.65685425 19,6 C19,4.34314575 17.6568542,3 16,3 Z"/></g></svg>