<svg xmlns="http://www.w3.org/2000/svg" width="32" height="32" viewBox="0 0 32 32"><g fill="none" fill-rule="evenodd"><path fill="#618A9E" d="M24,0 C26.209139,-4.05812251e-16 28,1.790861 28,4 L28,28 C28,30.209139 26.209139,32 24,32 L8,32 C5.790861,32 4,30.209139 4,28 L4,4 C4,1.790861 5.790861,4.05812251e-16 8,0 L24,0 Z M16,11 C11.0294373,11 7,15.0294373 7,20 C7,24.9705627 11.0294373,29 16,29 C20.9705627,29 25,24.9705627 25,20 C25,15.0294373 20.9705627,11 16,11 Z M16,3 C14.3431458,3 13,4.34314575 13,6 C13,7.65685425 14.3431458,9 16,9 C17.6568542,9 19,7.65685425 19,6 C19,4.34314575 17.6568542,3 16,3 Z"/><circle cx="16" cy="20" r="3" fill="#618A9E"/></g></svg>