<svg xmlns="http://www.w3.org/2000/svg" width="32" height="32" viewBox="0 0 32 32"><defs><linearGradient id="a" x1="26.602%" x2="79.826%" y1="-9.335%" y2="103.014%"><stop offset="0%" stop-color="#00A3F5" stop-opacity=".4"/><stop offset="100%" stop-color="#00A3F5" stop-opacity=".4"/></linearGradient><linearGradient id="b" x1="19.905%" x2="87.207%" y1="19%" y2="86.375%"><stop offset="0%" stop-color="#00B4F5"/><stop offset="100%" stop-color="#1F69FF"/></linearGradient><linearGradient id="c" x1="19.905%" x2="87.207%" y1="48.91%" y2="51.279%"><stop offset="0%" stop-color="#00B4F5"/><stop offset="100%" stop-color="#1F69FF"/></linearGradient></defs><g fill="none" fill-rule="evenodd"><path fill="url(#a)" d="M2,2 L30,2 C31.1045695,2 32,2.8954305 32,4 L32,26 C32,28.209139 30.209139,30 28,30 L4,30 C1.790861,30 2.705415e-16,28.209139 0,26 L0,4 C-1.3527075e-16,2.8954305 0.8954305,2 2,2 Z"/><path fill="url(#b)" d="M15.5,10 L18.5,10 C19.3284271,10 20,10.6715729 20,11.5 L20,15.5 C20,16.3284271 19.3284271,17 18.5,17 L15.5,17 C14.6715729,17 14,16.3284271 14,15.5 L14,11.5 C14,10.6715729 14.6715729,10 15.5,10 Z M5.5,10 L10.5,10 C11.3284271,10 12,10.6715729 12,11.5 L12,24.5 C12,25.3284271 11.3284271,26 10.5,26 L5.5,26 C4.67157288,26 4,25.3284271 4,24.5 L4,11.5 C4,10.6715729 4.67157288,10 5.5,10 Z M23.5,10 L26.5,10 C27.3284271,10 28,10.6715729 28,11.5 L28,15.5 C28,16.3284271 27.3284271,17 26.5,17 L23.5,17 C22.6715729,17 22,16.3284271 22,15.5 L22,11.5 C22,10.6715729 22.6715729,10 23.5,10 Z M15.5,19 L18.5,19 C19.3284271,19 20,19.6715729 20,20.5 L20,24.5 C20,25.3284271 19.3284271,26 18.5,26 L15.5,26 C14.6715729,26 14,25.3284271 14,24.5 L14,20.5 C14,19.6715729 14.6715729,19 15.5,19 Z M23.5,19 L26.5,19 C27.3284271,19 28,19.6715729 28,20.5 L28,24.5 C28,25.3284271 27.3284271,26 26.5,26 L23.5,26 C22.6715729,26 22,25.3284271 22,24.5 L22,20.5 C22,19.6715729 22.6715729,19 23.5,19 Z"/><rect width="32" height="4" y="2" fill="url(#c)" rx="2"/></g></svg>