<svg xmlns="http://www.w3.org/2000/svg" width="32" height="32" viewBox="0 0 32 32"><defs><linearGradient id="a" x1="26.602%" x2="79.826%" y1="-9.335%" y2="103.014%"><stop offset="0%" stop-color="#47C2FF" stop-opacity=".24"/><stop offset="100%" stop-color="#0AF" stop-opacity=".5"/></linearGradient><linearGradient id="b" x1="40.009%" x2="100%" y1="32.986%" y2="69.919%"><stop offset="0%" stop-color="#00A3F5"/><stop offset="100%" stop-color="#7096FF"/></linearGradient></defs><g fill="none" fill-rule="evenodd"><path fill="url(#a)" d="M8,2 L30,2 C31.1045695,2 32,2.8954305 32,4 C32,5.1045695 31.1045695,6 30,6 L8,6 C6.8954305,6 6,5.1045695 6,4 C6,2.8954305 6.8954305,2 8,2 Z M2,2 C3.1045695,2 4,2.8954305 4,4 C4,5.1045695 3.1045695,6 2,6 C0.8954305,6 1.3527075e-16,5.1045695 0,4 C-1.3527075e-16,2.8954305 0.8954305,2 2,2 Z M2,8 L30,8 C31.1045695,8 32,8.8954305 32,10 L32,26 C32,28.209139 30.209139,30 28,30 L4,30 C1.790861,30 2.705415e-16,28.209139 0,26 L0,10 C-1.3527075e-16,8.8954305 0.8954305,8 2,8 Z"/><path fill="url(#b)" d="M15.5,12 L18.5,12 C19.3284271,12 20,12.6715729 20,13.5 L20,16.5 C20,17.3284271 19.3284271,18 18.5,18 L15.5,18 C14.6715729,18 14,17.3284271 14,16.5 L14,13.5 C14,12.6715729 14.6715729,12 15.5,12 Z M5.5,12 L10.5,12 C11.3284271,12 12,12.6715729 12,13.5 L12,24.5 C12,25.3284271 11.3284271,26 10.5,26 L5.5,26 C4.67157288,26 4,25.3284271 4,24.5 L4,13.5 C4,12.6715729 4.67157288,12 5.5,12 Z M23.5,12 L26.5,12 C27.3284271,12 28,12.6715729 28,13.5 L28,16.5 C28,17.3284271 27.3284271,18 26.5,18 L23.5,18 C22.6715729,18 22,17.3284271 22,16.5 L22,13.5 C22,12.6715729 22.6715729,12 23.5,12 Z M15.5,20 L18.5,20 C19.3284271,20 20,20.6715729 20,21.5 L20,24.5 C20,25.3284271 19.3284271,26 18.5,26 L15.5,26 C14.6715729,26 14,25.3284271 14,24.5 L14,21.5 C14,20.6715729 14.6715729,20 15.5,20 Z M23.5,20 L26.5,20 C27.3284271,20 28,20.6715729 28,21.5 L28,24.5 C28,25.3284271 27.3284271,26 26.5,26 L23.5,26 C22.6715729,26 22,25.3284271 22,24.5 L22,21.5 C22,20.6715729 22.6715729,20 23.5,20 Z"/></g></svg>