<svg xmlns="http://www.w3.org/2000/svg" width="12" height="12" viewBox="0 0 12 12"><g fill="none" fill-rule="evenodd"><path fill="red" d="M4,0 L6,0 L6,0 L6,4 L4,4 C2.8954305,4 2,3.1045695 2,2 C2,0.8954305 2.8954305,2.02906125e-16 4,0 Z"/><path fill="#FF7070" d="M6,0 L8,0 C9.1045695,-2.02906125e-16 10,0.8954305 10,2 C10,3.1045695 9.1045695,4 8,4 L6,4 L6,4 L6,0 Z"/><circle cx="8" cy="6" r="2" fill="#4785FF"/><path fill="#7B00F5" d="M4,4 L6,4 L6,4 L6,8 L4,8 C2.8954305,8 2,7.1045695 2,6 C2,4.8954305 2.8954305,4 4,4 Z"/><path fill="#3C6" d="M4,8 L6,8 L6,8 L6,10 C6,11.1045695 5.1045695,12 4,12 C2.8954305,12 2,11.1045695 2,10 C2,8.8954305 2.8954305,8 4,8 Z"/></g></svg>