<svg xmlns="http://www.w3.org/2000/svg" width="12" height="12" viewBox="0 0 12 12"><g fill="none" fill-rule="evenodd"><path fill="#618A9E" fill-rule="nonzero" d="M10.9998738,8.71215092 C10.7263967,9.3545922 10.5959813,9.6414263 10.2434647,10.2092236 C9.75262867,11.0017915 9.06103205,11.9897756 8.20345225,11.9981626 C7.44151037,12.0057108 7.24549213,11.4723001 6.21165399,11.4781709 C5.17781584,11.4840418 4.9612473,12.0073882 4.19930543,11.9999208 C3.34172562,11.991453 2.68648723,11.099919 2.19486083,10.3065124 C0.822733139,8.08899966 0.678881043,5.48736409 1.5253953,4.10435408 C2.12688676,3.12056346 3.07615252,2.54605657 3.96930015,2.54605657 C4.87825571,2.54605657 5.44892172,3.07443516 6.20058844,3.07443516 C6.92933368,3.07443516 7.3735363,2.54521787 8.42476316,2.54521787 C9.21911128,2.54521787 10.0608832,3.00398469 10.6600034,3.79655258 C8.69586904,4.93969548 9.01518908,7.91622824 10.9998738,8.71215092 L10.9998738,8.71215092 Z"/><path fill="#618A9E" fill-rule="nonzero" d="M7.81509944,2.02368773 C8.19568401,1.49883356 8.48425912,0.757289592 8.37900588,0 C7.75794205,0.0457372922 7.03162499,0.470869172 6.60712682,1.02496522 C6.22236001,1.52807543 5.90450916,2.27411815 6.02788548,2.9991667 C6.70610669,3.02166045 7.40733026,2.58603149 7.81509944,2.02368773 L7.81509944,2.02368773 Z"/></g></svg>