<svg xmlns="http://www.w3.org/2000/svg" width="12" height="12" viewBox="0 0 12 12"><path fill="#618A9E" fill-rule="evenodd" d="M8.02234718,9.34477704 C7.70979464,10.3752748 7.25878956,11.2682285 6.71411943,11.9593359 C6.47962937,11.9857344 6.24148063,12 6,12 C5.75851937,12 5.52037063,11.9857344 5.28635058,11.9580001 C4.74121849,11.2682465 4.29024174,10.3753559 3.97781728,9.34514365 C4.62691887,9.44649421 5.3043318,9.5 6,9.5 C6.66563935,9.5 7.31456542,9.45101372 7.93796896,9.35800029 L7.93796896,9.35800029 Z M0.394971326,8.14809459 C1.12430154,8.55933584 1.96327819,8.89013712 2.878565,9.12179073 C3.10996127,10.0368202 3.44069137,10.8757257 3.85177286,11.6045005 C2.32969543,11.020524 1.10508968,9.83342199 0.471509742,8.33547077 Z M11.6036726,8.14901685 C10.9951753,9.73471637 9.73297934,10.9964992 8.14700607,11.6044438 C8.55933584,10.8756985 8.89013712,10.0367218 9.12179073,9.121435 C9.92812883,8.91752503 10.6753536,8.63647831 11.3405607,8.29118865 Z M6,3.5 C6.79843442,3.5 7.56566037,3.57588093 8.2844427,3.71556376 C8.42411907,4.43433963 8.5,5.20156558 8.5,6 C8.5,6.79843442 8.42411907,7.56566037 8.28443624,8.2844427 C7.56566037,8.42411907 6.79843442,8.5 6,8.5 C5.20156558,8.5 4.43433963,8.42411907 3.7155573,8.28443624 C3.57588093,7.56566037 3.5,6.79843442 3.5,6 C3.5,5.20156558 3.57588093,4.43433963 3.71556376,3.7155573 C4.43433963,3.57588093 5.20156558,3.5 6,3.5 Z M2.65485635,3.97781728 C2.55350579,4.62691887 2.5,5.3043318 2.5,6 C2.5,6.6956682 2.55350579,7.37308113 2.65522296,8.02234718 C1.62499721,7.70987714 0.732242888,7.25902765 0.0407699775,6.71455411 C0.0142655707,6.47962937 0,6.24148063 0,6 C0,5.75851937 0.0142655707,5.52037063 0.0419999403,5.28635058 C0.731321596,4.74158139 1.62388785,4.29070212 2.65485635,3.97781728 Z M9.34477704,3.97765282 C10.3752748,4.29020536 11.2682285,4.74121044 11.959431,5.28566207 C11.9857344,5.52037063 12,5.75851937 12,6 C12,6.24148063 11.9857344,6.47962937 11.9580001,6.71364942 C11.2682465,7.25878151 10.3753559,7.70975826 9.34514365,8.02218272 C9.44649421,7.37308113 9.5,6.6956682 9.5,6 C9.5,5.3043318 9.44649421,4.62691887 9.34477704,3.97765282 Z M3.85190541,0.394971326 C3.44066416,1.12430154 3.10986288,1.96327819 2.87820927,2.878565 C1.9631798,3.10996127 1.12427432,3.44069137 0.395499549,3.85177286 C0.979475978,2.32969543 2.16657801,1.10508968 3.66452923,0.471509742 Z M8.14901685,0.396327381 C9.73471637,1.00482468 10.9964992,2.26702066 11.6044438,3.85299393 C10.8756985,3.44066416 10.0367218,3.10986288 9.121435,2.87820927 C8.91752503,2.07187117 8.63647831,1.32464644 8.29118865,0.65943926 Z M6,0 C6.24148063,0 6.47962937,0.0142655707 6.71364942,0.0419999403 C7.25886605,0.731920905 7.70978759,1.62474075 8.02218272,2.65485635 C7.37308113,2.55350579 6.6956682,2.5 6,2.5 C5.3043318,2.5 4.62691887,2.55350579 3.97765282,2.65522296 C4.29017608,1.62482175 4.74112592,0.731938802 5.28550902,0.0407632822 C5.51968924,0.0143064169 5.7581739,0 6,0 Z"/></svg>