<svg xmlns="http://www.w3.org/2000/svg" width="16" height="16" viewBox="0 0 16 16"><path fill="#618A9E" d="M10.5614098,11.2477667 C10.7488236,11.134077 10.9795473,11.2144612 11.2094835,11.3287769 L11.6129933,11.5366006 C11.6982398,11.5755536 11.779127,11.604562 11.8528326,11.6133767 C12.0103231,11.6320078 12.2006033,11.610522 12.3971673,11.5767486 L12.9792052,11.4663955 C13.2227066,11.4257036 13.4302582,11.4126418 13.5390317,11.4931762 C13.6944224,11.6082253 13.7380484,11.7585986 13.7617898,11.9289704 L13.7939736,12.197611 C13.8006803,12.2442457 13.8090156,12.2916513 13.8204149,12.3395884 C13.9839264,12.7114237 14.2883475,13.0107921 14.6729639,13.1779873 C15.0414918,13.3793232 15.0593408,13.6387561 14.9186492,13.8681388 C14.5868953,14.1797828 14.1881899,14.4190135 13.7500691,14.5693087 C13.2647944,14.8114625 12.8228745,15.1255529 12.4407974,15.4998613 C12.0256892,15.9898957 11.3098555,16.1397151 10.7178504,15.8604629 C10.0264668,15.4202284 10.1205674,14.7303899 10.2365199,14.2752242 L10.3314735,13.916219 L10.3314735,13.916219 C10.4089161,13.348728 10.4530823,12.777554 10.4637656,12.2053645 L10.4327412,11.8127524 C10.4160591,11.5736229 10.4222931,11.3316567 10.5614098,11.2477667 Z M3.39873819,10.942257 C3.72421873,10.8891684 4.04864932,11.1996865 4.28593513,11.5432598 C4.73376607,12.2897609 5.22557499,13.0114532 5.75899703,13.7048664 C6.31674289,14.1616711 6.45674877,14.9315874 6.09287706,15.5409298 C5.72873413,16.1048118 5.10039576,16.0043882 4.56398406,15.8323238 L4.03239827,15.6446954 C3.95558638,15.6181867 3.88609434,15.5964342 3.82606264,15.583 L2.7241492,15.3220763 L2.7241492,15.3220763 L1.96803823,15.1308436 L1.96803823,15.1308436 L1.57798222,15.0234488 C1.52569361,15.0080407 1.48078927,14.9941084 1.44480506,14.9819972 C1.04897873,14.848775 0.978632939,14.6223972 1.00488137,14.4210613 C1.01238092,14.3635368 1.03710801,14.303968 1.06963464,14.2382432 L1.18118511,14.0184888 C1.23923164,13.8952657 1.2936141,13.7489399 1.31251297,13.5656341 C1.32133244,13.4800913 1.31948455,13.3757973 1.31280695,13.2616629 L1.26985927,12.7117093 C1.24977922,12.4026937 1.25424146,12.1157149 1.37445926,11.9900051 C1.61489488,11.7385857 2.42334653,11.8888363 2.63438391,11.7215572 C2.68714325,11.6797375 2.74095254,11.6134393 2.79707496,11.5366863 L2.97364487,11.2890857 C3.0976687,11.1218066 3.23599793,10.9688013 3.39873819,10.942257 Z M9.19439156,14.13258 C9.1080975,14.4884258 9.08854671,14.8560405 9.13664501,15.2183917 C8.5375783,15.1451003 7.93270552,15.1246465 7.32970308,15.1572897 C7.36542176,14.9223852 7.36045595,14.6834786 7.31500396,14.4501098 C7.46619492,14.4641332 7.61843582,14.4731482 7.78117608,14.4731482 C8.27479563,14.4749942 8.76090527,14.3578475 9.19439156,14.13258 Z M8.15810354,0 C9.43038686,0 10.4744549,0.932187918 10.5808325,2.11970335 L10.5897581,2.31987067 L10.5897581,4.41336363 C10.5897581,4.87752269 10.9762344,5.43234189 11.4271846,5.95176657 L11.7724548,6.33272901 L11.7724548,6.33272901 L12.2696576,6.85343485 L12.2696576,6.85343485 C12.9807748,7.67993466 13.4289161,8.68343752 13.5610804,9.74525982 C13.5843797,9.98165057 13.5892929,10.2193632 13.5757795,10.4564464 C13.4821904,10.4406362 13.3873413,10.4325928 13.2922965,10.4324063 C13.1079824,10.4387028 12.9244344,10.4569113 12.7429092,10.486866 L12.161203,10.5992031 C12.1122837,10.6071423 12.0673697,10.6133749 12.0302719,10.6167138 L11.89588,10.5445935 C11.6801403,10.423096 11.4499775,10.3265875 11.210271,10.2571138 C11.2205514,9.54192951 11.1225978,8.82907253 10.9194384,8.14058244 C10.5673003,7.29874514 10.1771686,6.4719835 9.75017437,5.66260543 L9.31093459,4.85910735 L9.24478854,4.84408228 C9.19235467,4.89328924 9.13471973,4.93703507 9.0728691,4.9746488 L8.97705456,5.02638645 C8.89002643,5.06667589 8.79957628,5.12368459 8.7039067,5.18799216 L8.39944219,5.39339111 C8.12967746,5.56710344 7.81605733,5.72755634 7.43049706,5.72755634 C7.01409196,5.72755634 6.75605939,5.51083474 6.56114905,5.29569979 L6.38375166,5.08917922 C6.32928092,5.02590565 6.27829597,4.97089386 6.22726902,4.93222935 C6.29342661,5.53035731 6.16976411,6.13160026 5.87553375,6.65913191 L5.73904822,6.88047998 C5.06820464,7.88574938 4.5718499,8.987738 4.26913614,10.143925 C4.0272471,10.008892 3.75248146,9.93671003 3.4722338,9.93457569 C3.39241717,9.93464464 3.31272861,9.94067308 3.23389805,9.95260577 C3.17965607,9.96245593 3.12602722,9.97516321 3.07325766,9.99066928 L3.21667068,9.68665804 L3.21667068,9.68665804 L3.58065451,9.01603512 C3.64265121,8.89990536 3.7029008,8.7824614 3.75778312,8.66500142 L3.90270805,8.31387157 C4.14453273,7.67395953 4.48380109,7.07150419 4.90959783,6.52588835 C5.01826633,6.38139726 5.11709167,6.26989873 5.20584417,6.17566338 L5.44165351,5.92901748 C5.54421925,5.81585992 5.62360434,5.70615344 5.67903365,5.54681141 L5.72644897,5.36895803 L5.72644897,2.31987067 C5.72644897,1.03864148 6.81513781,0 8.15810354,0 Z M6.76903662,2.5001715 C6.51600175,2.52020492 6.33856236,2.85075644 6.37321029,3.23840323 C6.38165476,3.40227133 6.43748055,3.55986146 6.53332458,3.69419748 L6.61259597,3.7903241 L6.74049267,3.71266269 L6.92967701,3.62204332 L6.92967701,3.62204332 C7.03397702,3.57733108 7.14313145,3.54373864 7.25515754,3.5218762 C7.28928077,3.40598598 7.30241866,3.28538915 7.29400522,3.16528122 C7.25410761,2.77763444 7.02207148,2.48013807 6.76903662,2.5001715 Z M8.48358407,2.41102275 C8.19485134,2.38798432 7.93026716,2.72254252 7.89246943,3.1592712 C7.88091029,3.28169876 7.88976974,3.40510057 7.91871786,3.52488121 C8.02675839,3.53854485 8.13351362,3.55982251 8.23811392,3.58850861 L8.4905399,3.6708748 L8.4905399,3.6708748 L8.57597854,3.70618371 L8.61062647,3.7172021 L8.74081869,3.77930571 C8.85518364,3.62035195 8.92230444,3.43482285 8.93505707,3.24240991 C8.97390475,2.80467957 8.7723168,2.43406119 8.48358407,2.41102275 Z"/></svg>