<svg xmlns="http://www.w3.org/2000/svg" width="24" height="24" viewBox="0 0 24 24"><defs><linearGradient id="a" x1="36.624%" x2="66.537%" y1="-19.75%" y2="131.845%"><stop offset="0%" stop-color="#00B4F5"/><stop offset="100%" stop-color="#1F69FF"/></linearGradient><linearGradient id="b" x1="19.905%" x2="87.207%" y1="47.694%" y2="52.706%"><stop offset="0%" stop-color="#00B4F5"/><stop offset="100%" stop-color="#1F69FF"/></linearGradient></defs><g fill="none" fill-rule="evenodd"><path fill="url(#a)" d="M12.2761316,1.98595975 C12.8361705,1.0338935 14.061974,0.716092602 15.0140403,1.27613157 C15.92077,1.80950201 16.2522024,2.94674049 15.7979286,3.87627008 L15.7238684,4.01404025 L5.72386843,21.0140403 C5.16382946,21.9661065 3.93802599,22.2839074 2.98595975,21.7238684 C2.07922999,21.190498 1.7477976,20.0532595 2.2020714,19.1237299 L2.27613157,18.9859597 L12.2761316,1.98595975 Z"/><path fill="url(#b)" d="M21,14 C22.1045695,14 23,14.8954305 23,16 C23,17.0543618 22.1841222,17.9181651 21.1492623,17.9945143 L21,18 L3,18 C1.8954305,18 1,17.1045695 1,16 C1,14.9456382 1.81587779,14.0818349 2.85073766,14.0054857 L3,14 L21,14 Z"/><path fill="url(#a)" d="M8.98595975,1.27613157 C9.8926895,0.742761124 11.047707,1.00561732 11.6394353,1.85429131 L11.7238684,1.98595975 L21.7238684,18.9859597 C22.2839074,19.938026 21.9661065,21.1638295 21.0140403,21.7238684 C20.1073105,22.2572389 18.952293,21.9943827 18.3605647,21.1457087 L18.2761316,21.0140403 L8.27613157,4.01404025 C7.7160926,3.06197401 8.0338935,1.83617054 8.98595975,1.27613157 Z"/></g></svg>