<svg xmlns="http://www.w3.org/2000/svg" width="24" height="24" viewBox="0 0 24 24"><defs><linearGradient id="a" x1="40.009%" x2="100%" y1="4.439%" y2="103.339%"><stop offset="0%" stop-color="#00A3F5"/><stop offset="100%" stop-color="#7096FF"/></linearGradient></defs><path fill="url(#a)" fill-rule="evenodd" d="M15.0140403,1.27613157 C15.92077,1.80950201 16.2522024,2.94674049 15.7979286,3.87627008 L15.7238684,4.01404025 L14.319,6.3996813 L18.79,13.9996813 L21,14 C22.1045695,14 23,14.8954305 23,16 C23,17.0543618 22.1841222,17.9181651 21.1492623,17.9945143 L21.14,17.9936813 L21.7238684,18.9859597 C22.2839074,19.938026 21.9661065,21.1638295 21.0140403,21.7238684 C20.1073105,22.2572389 18.952293,21.9943827 18.3605647,21.1457087 L18.2761316,21.0140403 L16.503,17.9996813 L7.496,17.9996813 L5.72386843,21.0140403 C5.16382946,21.9661065 3.93802599,22.2839074 2.98595975,21.7238684 C2.07922999,21.190498 1.7477976,20.0532595 2.2020714,19.1237299 L2.27613157,18.9859597 L2.859,17.9936813 C1.81587779,17.9181651 1,17.0543618 1,16 C1,14.9456382 1.81587779,14.0818349 2.85073766,14.0054857 L3,14 L5.209,13.9996813 L9.68,6.3996813 L8.27613157,4.01404025 C7.7160926,3.06197401 8.0338935,1.83617054 8.98595975,1.27613157 C9.8926895,0.742761124 11.047707,1.00561732 11.6394353,1.85429131 L11.7238684,1.98595975 L12,2.4556813 L12.2761316,1.98595975 C12.8361705,1.0338935 14.061974,0.716092602 15.0140403,1.27613157 Z M11.999,10.3436813 L9.849,13.9996813 L14.15,13.9996813 L11.999,10.3436813 Z"/></svg>