<svg xmlns="http://www.w3.org/2000/svg" width="24" height="24" viewBox="0 0 24 24"><path fill="#618A9E" fill-rule="evenodd" d="M19,0 C20.6568542,-3.04359188e-16 22,1.34314575 22,3 L22,21 C22,22.6568542 20.6568542,24 19,24 L5,24 C3.34314575,24 2,22.6568542 2,21 L2,3 C2,1.34314575 3.34314575,3.04359188e-16 5,0 L19,0 Z M13,18 L7,18 C6.44771525,18 6,18.4477153 6,19 C6,19.5522847 6.44771525,20 7,20 L7,20 L13,20 C13.5522847,20 14,19.5522847 14,19 C14,18.4477153 13.5522847,18 13,18 L13,18 Z M17,14 L7,14 C6.44771525,14 6,14.4477153 6,15 C6,15.5522847 6.44771525,16 7,16 L7,16 L17,16 C17.5522847,16 18,15.5522847 18,15 C18,14.4477153 17.5522847,14 17,14 L17,14 Z M17,4 L7,4 C6.44771525,4 6,4.44771525 6,5 L6,5 L6,10 C6,10.5522847 6.44771525,11 7,11 L7,11 L17,11 C17.5522847,11 18,10.5522847 18,10 L18,10 L18,5 C18,4.44771525 17.5522847,4 17,4 L17,4 Z"/></svg>