<svg xmlns="http://www.w3.org/2000/svg" width="24" height="24" viewBox="0 0 24 24"><defs><linearGradient id="a" x1="26.602%" x2="79.826%" y1="-7.804%" y2="101.646%"><stop offset="0%" stop-color="#00A3F5" stop-opacity=".4"/><stop offset="100%" stop-color="#00A3F5" stop-opacity=".4"/></linearGradient><linearGradient id="b" x1="19.905%" x2="87.207%" y1="48.91%" y2="51.279%"><stop offset="0%" stop-color="#00B4F5"/><stop offset="100%" stop-color="#1F69FF"/></linearGradient><linearGradient id="c" x1="19.905%" x2="87.207%" y1="22.754%" y2="81.971%"><stop offset="0%" stop-color="#00B4F5"/><stop offset="100%" stop-color="#1F69FF"/></linearGradient><linearGradient id="d" x1="19.905%" x2="87.207%" y1="43.722%" y2="57.366%"><stop offset="0%" stop-color="#00B4F5"/><stop offset="100%" stop-color="#1F69FF"/></linearGradient></defs><g fill="none" fill-rule="evenodd"><path fill="url(#a)" d="M3,4 L21,4 C22.1045695,4 23,4.8954305 23,6 L23,20 C23,21.6568542 21.6568542,23 20,23 L4,23 C2.34314575,23 1,21.6568542 1,20 L1,6 C1,4.8954305 1.8954305,4 3,4 Z"/><path fill="url(#b)" d="M1.5,4 L22.5,4 C23.3284271,4 24,4.67157288 24,5.5 C24,6.32842712 23.3284271,7 22.5,7 L1.5,7 C0.671572875,7 1.01453063e-16,6.32842712 0,5.5 C-1.01453063e-16,4.67157288 0.671572875,4 1.5,4 Z"/><path fill="url(#c)" d="M5,10 L7,10 C7.55228475,10 8,10.4477153 8,11 L8,13 C8,13.5522847 7.55228475,14 7,14 L5,14 C4.44771525,14 4,13.5522847 4,13 L4,11 C4,10.4477153 4.44771525,10 5,10 Z M11,10 L13,10 C13.5522847,10 14,10.4477153 14,11 L14,13 C14,13.5522847 13.5522847,14 13,14 L11,14 C10.4477153,14 10,13.5522847 10,13 L10,11 C10,10.4477153 10.4477153,10 11,10 Z M17,10 L19,10 C19.5522847,10 20,10.4477153 20,11 L20,13 C20,13.5522847 19.5522847,14 19,14 L17,14 C16.4477153,14 16,13.5522847 16,13 L16,11 C16,10.4477153 16.4477153,10 17,10 Z M5,16 L7,16 C7.55228475,16 8,16.4477153 8,17 L8,19 C8,19.5522847 7.55228475,20 7,20 L5,20 C4.44771525,20 4,19.5522847 4,19 L4,17 C4,16.4477153 4.44771525,16 5,16 Z M11,16 L13,16 C13.5522847,16 14,16.4477153 14,17 L14,19 C14,19.5522847 13.5522847,20 13,20 L11,20 C10.4477153,20 10,19.5522847 10,19 L10,17 C10,16.4477153 10.4477153,16 11,16 Z"/><path fill="url(#d)" d="M8.5,1 C9.32842712,1 10,1.67157288 10,2.5 L10,4 L10,4 L7,4 L7,2.5 C7,1.67157288 7.67157288,1 8.5,1 Z M15.5,1 C16.3284271,1 17,1.67157288 17,2.5 L17,4 L17,4 L14,4 L14,2.5 C14,1.67157288 14.6715729,1 15.5,1 Z"/></g></svg>