<svg xmlns="http://www.w3.org/2000/svg" width="24" height="24" viewBox="0 0 24 24"><g fill="none" fill-rule="evenodd"><path fill="#618A9E" d="M21,8 C22.1045695,8 23,8.8954305 23,10 L23,21 C23,22.6568542 21.6568542,24 20,24 L4,24 C2.34314575,24 1,22.6568542 1,21 L1,10 C1,8.8954305 1.8954305,8 3,8 L21,8 Z M7,17 L5,17 C4.44771525,17 4,17.4477153 4,18 L4,18 L4,20 C4,20.5522847 4.44771525,21 5,21 L5,21 L7,21 C7.55228475,21 8,20.5522847 8,20 L8,20 L8,18 C8,17.4477153 7.55228475,17 7,17 L7,17 Z M13,17 L11,17 C10.4477153,17 10,17.4477153 10,18 L10,18 L10,20 C10,20.5522847 10.4477153,21 11,21 L11,21 L13,21 C13.5522847,21 14,20.5522847 14,20 L14,20 L14,18 C14,17.4477153 13.5522847,17 13,17 L13,17 Z M7,11 L5,11 C4.44771525,11 4,11.4477153 4,12 L4,12 L4,14 C4,14.5522847 4.44771525,15 5,15 L5,15 L7,15 C7.55228475,15 8,14.5522847 8,14 L8,14 L8,12 C8,11.4477153 7.55228475,11 7,11 L7,11 Z M13,11 L11,11 C10.4477153,11 10,11.4477153 10,12 L10,12 L10,14 C10,14.5522847 10.4477153,15 11,15 L11,15 L13,15 C13.5522847,15 14,14.5522847 14,14 L14,14 L14,12 C14,11.4477153 13.5522847,11 13,11 L13,11 Z M19,11 L17,11 C16.4477153,11 16,11.4477153 16,12 L16,12 L16,14 C16,14.5522847 16.4477153,15 17,15 L17,15 L19,15 C19.5522847,15 20,14.5522847 20,14 L20,14 L20,12 C20,11.4477153 19.5522847,11 19,11 L19,11 Z"/><rect width="3" height="6" x="7" fill="#618A9E" rx="1.5"/><rect width="3" height="6" x="14" fill="#618A9E" rx="1.5"/><path fill="#618A9E" d="M1.5,3 L22.5,3 C23.3284271,3 24,3.67157288 24,4.5 L24,5 C24,5.55228475 23.5522847,6 23,6 L1,6 C0.44771525,6 6.76353751e-17,5.55228475 0,5 L0,4.5 C-1.01453063e-16,3.67157288 0.671572875,3 1.5,3 Z"/></g></svg>