<svg xmlns="http://www.w3.org/2000/svg" width="24" height="24" viewBox="0 0 24 24"><defs><linearGradient id="a" x1="26.602%" x2="79.826%" y1="-9.335%" y2="103.014%"><stop offset="0%" stop-color="#47C2FF" stop-opacity=".24"/><stop offset="100%" stop-color="#0AF" stop-opacity=".5"/></linearGradient><linearGradient id="b" x1="40.009%" x2="100%" y1="30.469%" y2="72.866%"><stop offset="0%" stop-color="#00A3F5"/><stop offset="100%" stop-color="#7096FF"/></linearGradient><linearGradient id="c" x1="40.009%" x2="100%" y1="45.5%" y2="55.268%"><stop offset="0%" stop-color="#00A3F5"/><stop offset="100%" stop-color="#7096FF"/></linearGradient></defs><g fill="none" fill-rule="evenodd"><path fill="url(#a)" d="M3,8 L21,8 C22.1045695,8 23,8.8954305 23,10 L23,21 C23,22.6568542 21.6568542,24 20,24 L4,24 C2.34314575,24 1,22.6568542 1,21 L1,10 C1,8.8954305 1.8954305,8 3,8 Z M1.5,3 L22.5,3 C23.3284271,3 24,3.67157288 24,4.5 L24,5 C24,5.55228475 23.5522847,6 23,6 L1,6 C0.44771525,6 6.76353751e-17,5.55228475 0,5 L0,4.5 C-1.01453063e-16,3.67157288 0.671572875,3 1.5,3 Z"/><path fill="url(#b)" d="M5,11 L7,11 C7.55228475,11 8,11.4477153 8,12 L8,14 C8,14.5522847 7.55228475,15 7,15 L5,15 C4.44771525,15 4,14.5522847 4,14 L4,12 C4,11.4477153 4.44771525,11 5,11 Z M11,11 L13,11 C13.5522847,11 14,11.4477153 14,12 L14,14 C14,14.5522847 13.5522847,15 13,15 L11,15 C10.4477153,15 10,14.5522847 10,14 L10,12 C10,11.4477153 10.4477153,11 11,11 Z M17,11 L19,11 C19.5522847,11 20,11.4477153 20,12 L20,14 C20,14.5522847 19.5522847,15 19,15 L17,15 C16.4477153,15 16,14.5522847 16,14 L16,12 C16,11.4477153 16.4477153,11 17,11 Z M5,17 L7,17 C7.55228475,17 8,17.4477153 8,18 L8,20 C8,20.5522847 7.55228475,21 7,21 L5,21 C4.44771525,21 4,20.5522847 4,20 L4,18 C4,17.4477153 4.44771525,17 5,17 Z M11,17 L13,17 C13.5522847,17 14,17.4477153 14,18 L14,20 C14,20.5522847 13.5522847,21 13,21 L11,21 C10.4477153,21 10,20.5522847 10,20 L10,18 C10,17.4477153 10.4477153,17 11,17 Z"/><path fill="url(#c)" d="M8.5,0 C9.32842712,-1.52179594e-16 10,0.671572875 10,1.5 L10,3 L10,3 L7,3 L7,1.5 C7,0.671572875 7.67157288,1.52179594e-16 8.5,0 Z M15.5,0 C16.3284271,-1.52179594e-16 17,0.671572875 17,1.5 L17,3 L17,3 L14,3 L14,1.5 C14,0.671572875 14.6715729,1.52179594e-16 15.5,0 Z"/></g></svg>