<svg xmlns="http://www.w3.org/2000/svg" width="24" height="24" viewBox="0 0 24 24"><path fill="#618A9E" fill-rule="evenodd" d="M20,1 C21.6568542,1 23,2.34314575 23,4 L23,20 C23,21.6568542 21.6568542,23 20,23 L4,23 C2.34314575,23 1,21.6568542 1,20 L1,4 C1,2.34314575 2.34314575,1 4,1 L20,1 Z M17.5,16 L13.5,16 C12.6715729,16 12,16.6715729 12,17.5 C12,18.3284271 12.6715729,19 13.5,19 L13.5,19 L17.5,19 C18.3284271,19 19,18.3284271 19,17.5 C19,16.6715729 18.3284271,16 17.5,16 L17.5,16 Z M7.44673776,5.33636956 C6.85757702,4.85584162 5.98851461,4.89016504 5.43933983,5.43933983 L5.43933983,5.43933983 L5.33636956,5.55326224 C4.85584162,6.14242298 4.89016504,7.01148539 5.43933983,7.56066017 L5.43933983,7.56066017 L9.379,11.5 L5.43933983,15.4393398 L5.33636956,15.5532622 C4.85584162,16.142423 4.89016504,17.0114854 5.43933983,17.5606602 C6.02512627,18.1464466 6.97487373,18.1464466 7.56066017,17.5606602 L7.56066017,17.5606602 L12.5606602,12.5606602 L12.6636304,12.4467378 C13.1441584,11.857577 13.109835,10.9885146 12.5606602,10.4393398 L12.5606602,10.4393398 L7.56066017,5.43933983 Z"/></svg>