<svg xmlns="http://www.w3.org/2000/svg" width="24" height="24" viewBox="0 0 24 24"><defs><linearGradient id="a" x1="26.602%" x2="79.826%" y1="-27.499%" y2="119.243%"><stop offset="0%" stop-color="#00A3F5" stop-opacity=".4"/><stop offset="100%" stop-color="#00A3F5" stop-opacity=".4"/></linearGradient><linearGradient id="b" x1="19.905%" x2="87.207%" y1="-19.75%" y2="131.845%"><stop offset="0%" stop-color="#00B4F5"/><stop offset="100%" stop-color="#1F69FF"/></linearGradient></defs><g fill="none" fill-rule="evenodd"><rect width="22" height="22" x="1" y="1" fill="url(#a)" rx="3"/><path fill="url(#b)" d="M17.5,16 C18.3284271,16 19,16.6715729 19,17.5 C19,18.3284271 18.3284271,19 17.5,19 L13.5,19 C12.6715729,19 12,18.3284271 12,17.5 C12,16.6715729 12.6715729,16 13.5,16 L17.5,16 Z M7.44673776,5.33636956 L7.56066017,5.43933983 L12.5606602,10.4393398 C13.109835,10.9885146 13.1441584,11.857577 12.6636304,12.4467378 L12.5606602,12.5606602 L7.56066017,17.5606602 C6.97487373,18.1464466 6.02512627,18.1464466 5.43933983,17.5606602 C4.89016504,17.0114854 4.85584162,16.142423 5.33636956,15.5532622 L5.43933983,15.4393398 L9.379,11.5 L5.43933983,7.56066017 C4.89016504,7.01148539 4.85584162,6.14242298 5.33636956,5.55326224 L5.43933983,5.43933983 C5.98851461,4.89016504 6.85757702,4.85584162 7.44673776,5.33636956 Z"/></g></svg>