<svg xmlns="http://www.w3.org/2000/svg" width="24" height="24" viewBox="0 0 24 24"><g fill="none" fill-rule="evenodd"><rect width="10" height="8" x="3" y="16" fill="#618A9E" rx="3"/><rect width="10" height="14" x="3" fill="#618A9E" rx="3"/><path fill="#618A9E" d="M18.1624764 1.25891171 20.3879589 2.8485421C21.2807372 3.48624089 21.493114 4.72412286 20.8639464 5.62293373L16.8192319 11.4010973C16.5025174 11.8535466 15.878987 11.9635813 15.4265377 11.6468668 15.159211 11.4597382 15 11.1539487 15 10.8276349L15 2.88637865C15 1.78180915 15.8954305.886378648 17 .886378648 17.416846.886378648 17.8232749 1.01662492 18.1624764 1.25891171ZM23.5 9 23.7680254 10.6081523C23.9071094 11.4426566 23.5060739 12.2744034 22.7665234 12.6852648L18.9564612 14.801966C18.4736774 15.0701792 17.8648741 14.8962354 17.596661 14.4134517 17.4076736 14.0732745 17.4331959 13.6543557 17.6620821 13.339637L21.2111456 8.45967478C21.6253259 7.89017687 22.4227546 7.76426707 22.9922525 8.17844737 23.2626824 8.37512363 23.4450273 8.67016387 23.5 9Z"/></g></svg>