<svg xmlns="http://www.w3.org/2000/svg" width="24" height="24" viewBox="0 0 24 24"><defs><linearGradient id="a" x1="44.904%" x2="56.495%" y1="-27.499%" y2="119.243%"><stop offset="0%" stop-color="#47C2FF" stop-opacity=".24"/><stop offset="100%" stop-color="#0AF" stop-opacity=".5"/></linearGradient><linearGradient id="b" x1="34.337%" x2="69.966%" y1="-27.499%" y2="119.243%"><stop offset="0%" stop-color="#47C2FF" stop-opacity=".24"/><stop offset="100%" stop-color="#0AF" stop-opacity=".5"/></linearGradient><linearGradient id="c" x1="48.265%" x2="58.681%" y1="0%" y2="108.537%"><stop offset="0%" stop-color="#00A3F5"/><stop offset="100%" stop-color="#7096FF"/></linearGradient></defs><g fill="none" fill-rule="evenodd"><path fill="url(#a)" d="M18.1624764,1.25891171 L20.3879589,2.8485421 C21.2807372,3.48624089 21.493114,4.72412286 20.8639464,5.62293373 L16.8192319,11.4010973 C16.5025174,11.8535466 15.878987,11.9635813 15.4265377,11.6468668 C15.159211,11.4597382 15,11.1539487 15,10.8276349 L15,2.88637865 C15,1.78180915 15.8954305,0.886378648 17,0.886378648 C17.416846,0.886378648 17.8232749,1.01662492 18.1624764,1.25891171 Z"/><path fill="url(#b)" d="M23.5,9 L23.7680254,10.6081523 C23.9071094,11.4426566 23.5060739,12.2744034 22.7665234,12.6852648 L18.9564612,14.801966 C18.4736774,15.0701792 17.8648741,14.8962354 17.596661,14.4134517 C17.4076736,14.0732745 17.4331959,13.6543557 17.6620821,13.339637 L21.2111456,8.45967478 C21.6253259,7.89017687 22.4227546,7.76426707 22.9922525,8.17844737 C23.2626824,8.37512363 23.4450273,8.67016387 23.5,9 Z"/><path fill="url(#c)" d="M6,16 L10,16 C11.6568542,16 13,17.3431458 13,19 L13,21 C13,22.6568542 11.6568542,24 10,24 L6,24 C4.34314575,24 3,22.6568542 3,21 L3,19 C3,17.3431458 4.34314575,16 6,16 Z M6,0 L10,0 C11.6568542,-3.04359188e-16 13,1.34314575 13,3 L13,11 C13,12.6568542 11.6568542,14 10,14 L6,14 C4.34314575,14 3,12.6568542 3,11 L3,3 C3,1.34314575 4.34314575,3.04359188e-16 6,0 Z"/></g></svg>