<svg xmlns="http://www.w3.org/2000/svg" width="24" height="24" viewBox="0 0 24 24"><defs><linearGradient id="a" x1="26.602%" x2="79.826%" y1="6.407%" y2="88.949%"><stop offset="0%" stop-color="#47C2FF" stop-opacity=".24"/><stop offset="100%" stop-color="#0AF" stop-opacity=".5"/></linearGradient><linearGradient id="b" x1="40.009%" x2="100%" y1="42.438%" y2="58.853%"><stop offset="0%" stop-color="#00A3F5"/><stop offset="100%" stop-color="#7096FF"/></linearGradient></defs><g fill="none" fill-rule="evenodd"><path fill="url(#a)" d="M3,3 L21,3 C22.6568542,3 24,4.34314575 24,6 L24,15 C24,15.5522847 23.5522847,16 23,16 L1,16 C0.44771525,16 6.76353751e-17,15.5522847 0,15 L0,6 C-2.02906125e-16,4.34314575 1.34314575,3 3,3 Z M8,18 L23,18 C23.5522847,18 24,18.4477153 24,19 L24,19.5 C24,20.3284271 23.3284271,21 22.5,21 L8,21 C7.44771525,21 7,20.5522847 7,20 L7,19 C7,18.4477153 7.44771525,18 8,18 Z M1,18 L4,18 C4.55228475,18 5,18.4477153 5,19 L5,20 C5,20.5522847 4.55228475,21 4,21 L1.5,21 C0.671572875,21 1.01453063e-16,20.3284271 0,19.5 L0,19 C-6.76353751e-17,18.4477153 0.44771525,18 1,18 Z"/><path fill="url(#b)" d="M4,6 L5,6 C5.55228475,6 6,6.44771525 6,7 L6,12 C6,12.5522847 5.55228475,13 5,13 L4,13 C3.44771525,13 3,12.5522847 3,12 L3,7 C3,6.44771525 3.44771525,6 4,6 Z M14,6 L15,6 C15.5522847,6 16,6.44771525 16,7 L16,12 C16,12.5522847 15.5522847,13 15,13 L14,13 C13.4477153,13 13,12.5522847 13,12 L13,7 C13,6.44771525 13.4477153,6 14,6 Z M19,6 L20,6 C20.5522847,6 21,6.44771525 21,7 L21,12 C21,12.5522847 20.5522847,13 20,13 L19,13 C18.4477153,13 18,12.5522847 18,12 L18,7 C18,6.44771525 18.4477153,6 19,6 Z M9,6 L10,6 C10.5522847,6 11,6.44771525 11,7 L11,12 C11,12.5522847 10.5522847,13 10,13 L9,13 C8.44771525,13 8,12.5522847 8,12 L8,7 C8,6.44771525 8.44771525,6 9,6 Z"/></g></svg>