<svg xmlns="http://www.w3.org/2000/svg" width="24" height="24" viewBox="0 0 24 24"><defs><linearGradient id="a" x1="26.602%" x2="79.826%" y1="15.556%" y2="80.775%"><stop offset="0%" stop-color="#00A3F5" stop-opacity=".4"/><stop offset="100%" stop-color="#00A3F5" stop-opacity=".4"/></linearGradient><linearGradient id="b" x1="19.905%" x2="87.207%" y1="48.91%" y2="51.279%"><stop offset="0%" stop-color="#00B4F5"/><stop offset="100%" stop-color="#1F69FF"/></linearGradient><linearGradient id="c" x1="19.905%" x2="87.207%" y1="39.451%" y2="62.378%"><stop offset="0%" stop-color="#00B4F5"/><stop offset="100%" stop-color="#1F69FF"/></linearGradient></defs><g fill="none" fill-rule="evenodd"><path fill="url(#a)" d="M3,4 L21,4 C22.6568542,4 24,5.34314575 24,7 L24,18 C24,19.1045695 23.1045695,20 22,20 L2,20 C0.8954305,20 1.3527075e-16,19.1045695 0,18 L0,7 C-2.02906125e-16,5.34314575 1.34314575,4 3,4 Z"/><path fill="url(#b)" d="M1.5,17 L22.5,17 C23.3284271,17 24,17.6715729 24,18.5 C24,19.3284271 23.3284271,20 22.5,20 L1.5,20 C0.671572875,20 1.01453063e-16,19.3284271 0,18.5 C-1.01453063e-16,17.6715729 0.671572875,17 1.5,17 Z"/><path fill="url(#c)" d="M4,7 L5,7 C5.55228475,7 6,7.44771525 6,8 L6,13 C6,13.5522847 5.55228475,14 5,14 L4,14 C3.44771525,14 3,13.5522847 3,13 L3,8 C3,7.44771525 3.44771525,7 4,7 Z M14,7 L15,7 C15.5522847,7 16,7.44771525 16,8 L16,13 C16,13.5522847 15.5522847,14 15,14 L14,14 C13.4477153,14 13,13.5522847 13,13 L13,8 C13,7.44771525 13.4477153,7 14,7 Z M19,7 L20,7 C20.5522847,7 21,7.44771525 21,8 L21,13 C21,13.5522847 20.5522847,14 20,14 L19,14 C18.4477153,14 18,13.5522847 18,13 L18,8 C18,7.44771525 18.4477153,7 19,7 Z M9,7 L10,7 C10.5522847,7 11,7.44771525 11,8 L11,13 C11,13.5522847 10.5522847,14 10,14 L9,14 C8.44771525,14 8,13.5522847 8,13 L8,8 C8,7.44771525 8.44771525,7 9,7 Z"/></g></svg>