<svg xmlns="http://www.w3.org/2000/svg" width="24" height="24" viewBox="0 0 24 24"><defs><linearGradient id="a" x1="26.602%" x2="79.826%" y1="27.262%" y2="70.316%"><stop offset="0%" stop-color="#47C2FF" stop-opacity=".16"/><stop offset="100%" stop-color="#47C2FF" stop-opacity=".24"/></linearGradient><linearGradient id="b" x1="40.009%" x2="100%" y1="49.219%" y2="50.915%"><stop offset="0%" stop-color="#47C2FF" stop-opacity=".72"/><stop offset="99.942%" stop-color="#70B8FF" stop-opacity=".24"/></linearGradient><linearGradient id="c" x1="40.009%" x2="100%" y1="42.438%" y2="58.853%"><stop offset="0%" stop-color="#00A3F5"/><stop offset="100%" stop-color="#476CFF"/></linearGradient></defs><g fill="none" fill-rule="evenodd"><path fill="url(#a)" d="M3,3 L21,3 C22.6568542,3 24,4.34314575 24,6 L24,15 C24,15.5522847 23.5522847,16 23,16 L1,16 C0.44771525,16 6.76353751e-17,15.5522847 0,15 L0,6 C-2.02906125e-16,4.34314575 1.34314575,3 3,3 Z"/><path fill="url(#b)" d="M7,18 L22,18 C22.5522847,18 23,18.4477153 23,19 L23,19.5 C23,20.3284271 22.3284271,21 21.5,21 L7,21 C6.44771525,21 6,20.5522847 6,20 L6,19 C6,18.4477153 6.44771525,18 7,18 Z M0,18 L3,18 C3.55228475,18 4,18.4477153 4,19 L4,20 C4,20.5522847 3.55228475,21 3,21 L0.5,21 C-0.328427125,21 -1,20.3284271 -1,19.5 L-1,19 C-1,18.4477153 -0.55228475,18 0,18 Z"/><path fill="url(#c)" d="M4,6 L5,6 C5.55228475,6 6,6.44771525 6,7 L6,12 C6,12.5522847 5.55228475,13 5,13 L4,13 C3.44771525,13 3,12.5522847 3,12 L3,7 C3,6.44771525 3.44771525,6 4,6 Z M14,6 L15,6 C15.5522847,6 16,6.44771525 16,7 L16,12 C16,12.5522847 15.5522847,13 15,13 L14,13 C13.4477153,13 13,12.5522847 13,12 L13,7 C13,6.44771525 13.4477153,6 14,6 Z M19,6 L20,6 C20.5522847,6 21,6.44771525 21,7 L21,12 C21,12.5522847 20.5522847,13 20,13 L19,13 C18.4477153,13 18,12.5522847 18,12 L18,7 C18,6.44771525 18.4477153,6 19,6 Z M9,6 L10,6 C10.5522847,6 11,6.44771525 11,7 L11,12 C11,12.5522847 10.5522847,13 10,13 L9,13 C8.44771525,13 8,12.5522847 8,12 L8,7 C8,6.44771525 8.44771525,6 9,6 Z"/></g></svg>