<svg xmlns="http://www.w3.org/2000/svg" width="24" height="24" viewBox="0 0 24 24"><defs><linearGradient id="a" x1="26.602%" x2="79.826%" y1="6.407%" y2="88.949%"><stop offset="0%" stop-color="#00A3F5" stop-opacity=".4"/><stop offset="100%" stop-color="#00A3F5" stop-opacity=".4"/></linearGradient><linearGradient id="b" x1="19.905%" x2="87.207%" y1="15.822%" y2="90.104%"><stop offset="0%" stop-color="#00B4F5"/><stop offset="100%" stop-color="#1F69FF"/></linearGradient></defs><g fill="none" fill-rule="evenodd"><path fill="url(#a)" d="M3,3 L21,3 C22.6568542,3 24,4.34314575 24,6 L24,18 C24,19.6568542 22.6568542,21 21,21 L3,21 C1.34314575,21 2.02906125e-16,19.6568542 0,18 L0,6 C-2.02906125e-16,4.34314575 1.34314575,3 3,3 Z"/><path fill="url(#b)" d="M8,9 L16,9 C16.5522847,9 17,9.44771525 17,10 L17,14 C17,14.5522847 16.5522847,15 16,15 L8,15 C7.44771525,15 7,14.5522847 7,14 L7,10 C7,9.44771525 7.44771525,9 8,9 Z M3.5,8 C4.32842712,8 5,7.32842712 5,6.5 C5,5.67157288 4.32842712,5 3.5,5 C2.67157288,5 2,5.67157288 2,6.5 C2,7.32842712 2.67157288,8 3.5,8 Z M20.5,8 C21.3284271,8 22,7.32842712 22,6.5 C22,5.67157288 21.3284271,5 20.5,5 C19.6715729,5 19,5.67157288 19,6.5 C19,7.32842712 19.6715729,8 20.5,8 Z M3.5,19 C4.32842712,19 5,18.3284271 5,17.5 C5,16.6715729 4.32842712,16 3.5,16 C2.67157288,16 2,16.6715729 2,17.5 C2,18.3284271 2.67157288,19 3.5,19 Z M20.5,19 C21.3284271,19 22,18.3284271 22,17.5 C22,16.6715729 21.3284271,16 20.5,16 C19.6715729,16 19,16.6715729 19,17.5 C19,18.3284271 19.6715729,19 20.5,19 Z"/></g></svg>