<svg xmlns="http://www.w3.org/2000/svg" width="24" height="24" viewBox="0 0 24 24"><defs><linearGradient id="a" x1="26.602%" x2="79.826%" y1="-27.499%" y2="119.243%"><stop offset="0%" stop-color="#47C2FF" stop-opacity=".24"/><stop offset="100%" stop-color="#0AF" stop-opacity=".5"/></linearGradient><linearGradient id="b" x1="40.009%" x2="100%" y1="0%" y2="108.537%"><stop offset="0%" stop-color="#00A3F5"/><stop offset="100%" stop-color="#7096FF"/></linearGradient></defs><g fill="none" fill-rule="evenodd"><path fill="url(#a)" d="M6,3 L18,3 C19.6568542,3 21,4.34314575 21,6 L21,18 C21,19.6568542 19.6568542,21 18,21 L6,21 C4.34314575,21 3,19.6568542 3,18 L3,6 C3,4.34314575 4.34314575,3 6,3 Z"/><path fill="url(#b)" d="M9,8 L15,8 C15.5522847,8 16,8.44771525 16,9 L16,15 C16,15.5522847 15.5522847,16 15,16 L9,16 C8.44771525,16 8,15.5522847 8,15 L8,9 C8,8.44771525 8.44771525,8 9,8 Z M8.5,0 C9.32842712,-1.52179594e-16 10,0.671572875 10,1.5 L10,3 L10,3 L7,3 L7,1.5 C7,0.671572875 7.67157288,1.52179594e-16 8.5,0 Z M15.5,0 C16.3284271,-1.52179594e-16 17,0.671572875 17,1.5 L17,3 L17,3 L14,3 L14,1.5 C14,0.671572875 14.6715729,1.52179594e-16 15.5,0 Z M7,21 L10,21 L10,22.5 C10,23.3284271 9.32842712,24 8.5,24 C7.67157288,24 7,23.3284271 7,22.5 L7,21 L7,21 Z M14,21 L17,21 L17,22.5 C17,23.3284271 16.3284271,24 15.5,24 C14.6715729,24 14,23.3284271 14,22.5 L14,21 L14,21 Z M21,14 L22.5,14 C23.3284271,14 24,14.6715729 24,15.5 C24,16.3284271 23.3284271,17 22.5,17 L21,17 L21,17 L21,14 Z M21,7 L22.5,7 C23.3284271,7 24,7.67157288 24,8.5 C24,9.32842712 23.3284271,10 22.5,10 L21,10 L21,10 L21,7 Z M1.5,14 L3,14 L3,14 L3,17 L1.5,17 C0.671572875,17 1.01453063e-16,16.3284271 0,15.5 C-1.01453063e-16,14.6715729 0.671572875,14 1.5,14 Z M1.5,7 L3,7 L3,7 L3,10 L1.5,10 C0.671572875,10 1.01453063e-16,9.32842712 0,8.5 C-1.01453063e-16,7.67157288 0.671572875,7 1.5,7 Z"/></g></svg>