<svg xmlns="http://www.w3.org/2000/svg" width="24" height="24" viewBox="0 0 24 24"><path fill="#618A9E" fill-rule="evenodd" d="M21,3 C22.6568542,3 24,4.34314575 24,6 L24,18 C24,19.6568542 22.6568542,21 21,21 L3,21 C1.34314575,21 2.02906125e-16,19.6568542 0,18 L0,6 C-2.02906125e-16,4.34314575 1.34314575,3 3,3 L21,3 Z M3.5,16 C2.67157288,16 2,16.6715729 2,17.5 C2,18.3284271 2.67157288,19 3.5,19 C4.32842712,19 5,18.3284271 5,17.5 C5,16.6715729 4.32842712,16 3.5,16 Z M20.5,16 C19.6715729,16 19,16.6715729 19,17.5 C19,18.3284271 19.6715729,19 20.5,19 C21.3284271,19 22,18.3284271 22,17.5 C22,16.6715729 21.3284271,16 20.5,16 Z M16,9 L8,9 C7.44771525,9 7,9.44771525 7,10 L7,10 L7,14 C7,14.5522847 7.44771525,15 8,15 L8,15 L16,15 C16.5522847,15 17,14.5522847 17,14 L17,14 L17,10 C17,9.44771525 16.5522847,9 16,9 L16,9 Z M3.5,5 C2.67157288,5 2,5.67157288 2,6.5 C2,7.32842712 2.67157288,8 3.5,8 C4.32842712,8 5,7.32842712 5,6.5 C5,5.67157288 4.32842712,5 3.5,5 Z M20.5,5 C19.6715729,5 19,5.67157288 19,6.5 C19,7.32842712 19.6715729,8 20.5,8 C21.3284271,8 22,7.32842712 22,6.5 C22,5.67157288 21.3284271,5 20.5,5 Z"/></svg>