<svg xmlns="http://www.w3.org/2000/svg" width="24" height="24" viewBox="0 0 24 24"><path fill="#618A9E" fill-rule="evenodd" d="M21,2 C22.6568542,2 24,3.34314575 24,5 L24,19 C24,20.6568542 22.6568542,22 21,22 L3,22 C1.34314575,22 2.02906125e-16,20.6568542 0,19 L0,5 C-2.02906125e-16,3.34314575 1.34314575,2 3,2 L21,2 Z M3.5,17 C2.67157288,17 2,17.6715729 2,18.5 C2,19.3284271 2.67157288,20 3.5,20 C4.32842712,20 5,19.3284271 5,18.5 C5,17.6715729 4.32842712,17 3.5,17 Z M20.5,17 C19.6715729,17 19,17.6715729 19,18.5 C19,19.3284271 19.6715729,20 20.5,20 C21.3284271,20 22,19.3284271 22,18.5 C22,17.6715729 21.3284271,17 20.5,17 Z M16,9 L8,9 C7.44771525,9 7,9.44771525 7,10 L7,10 L7,14 C7,14.5522847 7.44771525,15 8,15 L8,15 L16,15 C16.5522847,15 17,14.5522847 17,14 L17,14 L17,10 C17,9.44771525 16.5522847,9 16,9 L16,9 Z M3.5,4 C2.67157288,4 2,4.67157288 2,5.5 C2,6.32842712 2.67157288,7 3.5,7 C4.32842712,7 5,6.32842712 5,5.5 C5,4.67157288 4.32842712,4 3.5,4 Z M20.5,4 C19.6715729,4 19,4.67157288 19,5.5 C19,6.32842712 19.6715729,7 20.5,7 C21.3284271,7 22,6.32842712 22,5.5 C22,4.67157288 21.3284271,4 20.5,4 Z"/></svg>