<svg xmlns="http://www.w3.org/2000/svg" width="24" height="24" viewBox="0 0 24 24"><g fill="none" fill-rule="evenodd"><path fill="#618A9E" d="M18,3 C19.6568542,3 21,4.34314575 21,6 L21,18 C21,19.6568542 19.6568542,21 18,21 L6,21 C4.34314575,21 3,19.6568542 3,18 L3,6 C3,4.34314575 4.34314575,3 6,3 L18,3 Z M15,8 L9,8 C8.44771525,8 8,8.44771525 8,9 L8,9 L8,15 C8,15.5522847 8.44771525,16 9,16 L9,16 L15,16 C15.5522847,16 16,15.5522847 16,15 L16,15 L16,9 C16,8.44771525 15.5522847,8 15,8 L15,8 Z"/><rect width="3" height="5" x="7" fill="#618A9E" rx="1.5"/><rect width="3" height="5" x="14" fill="#618A9E" rx="1.5"/><rect width="3" height="5" x="7" y="19" fill="#618A9E" rx="1.5"/><rect width="3" height="5" x="14" y="19" fill="#618A9E" rx="1.5"/><rect width="5" height="3" x="19" y="14" fill="#618A9E" rx="1.5"/><rect width="5" height="3" x="19" y="7" fill="#618A9E" rx="1.5"/><rect width="5" height="3" y="14" fill="#618A9E" rx="1.5"/><rect width="5" height="3" y="7" fill="#618A9E" rx="1.5"/></g></svg>