<svg xmlns="http://www.w3.org/2000/svg" width="24" height="24" viewBox="0 0 24 24"><path fill="#618A9E" fill-rule="evenodd" d="M21 3C22.6568542 3 24 4.34314575 24 6L24 15C24 15.5522847 23.5522847 16 23 16L1 16C.44771525 16 6.76353751e-17 15.5522847 0 15L0 6C-2.02906125e-16 4.34314575 1.34314575 3 3 3L21 3ZM5 6 4 6C3.44771525 6 3 6.44771525 3 7L3 7 3 12C3 12.5522847 3.44771525 13 4 13L4 13 5 13C5.55228475 13 6 12.5522847 6 12L6 12 6 7C6 6.44771525 5.55228475 6 5 6L5 6ZM15 6 14 6C13.4477153 6 13 6.44771525 13 7L13 7 13 12C13 12.5522847 13.4477153 13 14 13L14 13 15 13C15.5522847 13 16 12.5522847 16 12L16 12 16 7C16 6.44771525 15.5522847 6 15 6L15 6ZM20 6 19 6C18.4477153 6 18 6.44771525 18 7L18 7 18 12C18 12.5522847 18.4477153 13 19 13L19 13 20 13C20.5522847 13 21 12.5522847 21 12L21 12 21 7C21 6.44771525 20.5522847 6 20 6L20 6ZM10 6 9 6C8.44771525 6 8 6.44771525 8 7L8 7 8 12C8 12.5522847 8.44771525 13 9 13L9 13 10 13C10.5522847 13 11 12.5522847 11 12L11 12 11 7C11 6.44771525 10.5522847 6 10 6L10 6ZM8 18 23 18C23.5522847 18 24 18.4477153 24 19L24 19.5C24 20.3284271 23.3284271 21 22.5 21L8 21C7.44771525 21 7 20.5522847 7 20L7 19C7 18.4477153 7.44771525 18 8 18ZM1 18 4 18C4.55228475 18 5 18.4477153 5 19L5 20C5 20.5522847 4.55228475 21 4 21L1.5 21C.671572875 21 1.01453063e-16 20.3284271 0 19.5L0 19C-6.76353751e-17 18.4477153.44771525 18 1 18Z"/></svg>