<svg xmlns="http://www.w3.org/2000/svg" width="24" height="24" viewBox="0 0 24 24"><defs><linearGradient id="a" x1="33.751%" x2="70.713%" y1="-27.499%" y2="119.243%"><stop offset="0%" stop-color="#47C2FF" stop-opacity=".16"/><stop offset="100%" stop-color="#47C2FF" stop-opacity=".24"/></linearGradient><linearGradient id="b" x1="43.404%" x2="83.008%" y1="0%" y2="108.537%"><stop offset="0%" stop-color="#00A3F5"/><stop offset="100%" stop-color="#476CFF"/></linearGradient></defs><g fill="none" fill-rule="evenodd"><rect width="20" height="24" x="2" fill="url(#a)" rx="3"/><path fill="url(#b)" d="M7,4 L17,4 C17.5522847,4 18,4.44771525 18,5 C18,5.55228475 17.5522847,6 17,6 L7,6 C6.44771525,6 6,5.55228475 6,5 C6,4.44771525 6.44771525,4 7,4 Z M15,18 L18,18 C18.5522847,18 19,18.4477153 19,19 C19,19.5522847 18.5522847,20 18,20 L15,20 C14.4477153,20 14,19.5522847 14,19 C14,18.4477153 14.4477153,18 15,18 Z M7,8 L13,8 C13.5522847,8 14,8.44771525 14,9 C14,9.55228475 13.5522847,10 13,10 L7,10 C6.44771525,10 6,9.55228475 6,9 C6,8.44771525 6.44771525,8 7,8 Z M6.29289322,14.2928932 C6.68341751,13.9023689 7.31658249,13.9023689 7.70710678,14.2928932 L7.70710678,14.2928932 L9,15.585 L10.2928932,14.2928932 C10.6834175,13.9023689 11.3165825,13.9023689 11.7071068,14.2928932 C12.0697365,14.6555229 12.0956386,15.2273683 11.7848131,15.619886 L11.7071068,15.7071068 L10.415,17 L11.7071068,18.2928932 L11.7848131,18.380114 C12.0956386,18.7726317 12.0697365,19.3444771 11.7071068,19.7071068 C11.3165825,20.0976311 10.6834175,20.0976311 10.2928932,19.7071068 L10.2928932,19.7071068 L9,18.415 L7.70710678,19.7071068 C7.31658249,20.0976311 6.68341751,20.0976311 6.29289322,19.7071068 C5.93026352,19.3444771 5.9043614,18.7726317 6.21518685,18.380114 L6.29289322,18.2928932 L7.585,17 L6.29289322,15.7071068 L6.21518685,15.619886 C5.9043614,15.2273683 5.93026352,14.6555229 6.29289322,14.2928932 Z"/></g></svg>