<svg xmlns="http://www.w3.org/2000/svg" width="24" height="24" viewBox="0 0 24 24"><path fill="#618A9E" fill-rule="evenodd" d="M19,0 C20.6568542,-3.04359188e-16 22,1.34314575 22,3 L22,21 C22,22.6568542 20.6568542,24 19,24 L5,24 C3.34314575,24 2,22.6568542 2,21 L2,3 C2,1.34314575 3.34314575,3.04359188e-16 5,0 L19,0 Z M18,18 L15,18 C14.4477153,18 14,18.4477153 14,19 C14,19.5522847 14.4477153,20 15,20 L15,20 L18,20 C18.5522847,20 19,19.5522847 19,19 C19,18.4477153 18.5522847,18 18,18 L18,18 Z M6.29289322,14.2928932 C5.93026352,14.6555229 5.9043614,15.2273683 6.21518685,15.619886 L6.29289322,15.7071068 L7.585,17 L6.29289322,18.2928932 L6.21518685,18.380114 C5.9043614,18.7726317 5.93026352,19.3444771 6.29289322,19.7071068 C6.68341751,20.0976311 7.31658249,20.0976311 7.70710678,19.7071068 L7.70710678,19.7071068 L9,18.415 L10.2928932,19.7071068 C10.6834175,20.0976311 11.3165825,20.0976311 11.7071068,19.7071068 C12.0697365,19.3444771 12.0956386,18.7726317 11.7848131,18.380114 L11.7071068,18.2928932 L10.415,17 L11.7071068,15.7071068 L11.7848131,15.619886 C12.0956386,15.2273683 12.0697365,14.6555229 11.7071068,14.2928932 C11.3165825,13.9023689 10.6834175,13.9023689 10.2928932,14.2928932 L10.2928932,14.2928932 L9,15.585 L7.70710678,14.2928932 C7.31658249,13.9023689 6.68341751,13.9023689 6.29289322,14.2928932 Z M13,8 L7,8 C6.44771525,8 6,8.44771525 6,9 C6,9.55228475 6.44771525,10 7,10 L7,10 L13,10 C13.5522847,10 14,9.55228475 14,9 C14,8.44771525 13.5522847,8 13,8 L13,8 Z M17,4 L7,4 C6.44771525,4 6,4.44771525 6,5 C6,5.55228475 6.44771525,6 7,6 L7,6 L17,6 C17.5522847,6 18,5.55228475 18,5 C18,4.44771525 17.5522847,4 17,4 L17,4 Z"/></svg>