<svg xmlns="http://www.w3.org/2000/svg" width="24" height="24" viewBox="0 0 24 24"><defs><linearGradient id="a" x1="26.602%" x2="79.826%" y1="36.545%" y2="62.021%"><stop offset="0%" stop-color="#00A3F5" stop-opacity=".4"/><stop offset="100%" stop-color="#00A3F5" stop-opacity=".4"/></linearGradient><linearGradient id="b" x1="26.602%" x2="79.826%" y1=".401%" y2="94.315%"><stop offset="0%" stop-color="#00A3F5" stop-opacity=".4"/><stop offset="100%" stop-color="#00A3F5" stop-opacity=".4"/></linearGradient><linearGradient id="c" x1="19.905%" x2="87.207%" y1="47.21%" y2="53.274%"><stop offset="0%" stop-color="#00B4F5"/><stop offset="100%" stop-color="#1F69FF"/></linearGradient><linearGradient id="d" x1="19.905%" x2="87.207%" y1="13.107%" y2="93.29%"><stop offset="0%" stop-color="#00B4F5"/><stop offset="100%" stop-color="#1F69FF"/></linearGradient></defs><g fill="none" fill-rule="evenodd"><rect width="24" height="10" y="1" fill="url(#a)" rx="3"/><path fill="url(#b)" d="M15.5,15 L22.5,15 C23.3284271,15 24,15.6715729 24,16.5 C24,17.3284271 23.3284271,18 22.5,18 L15.5,18 C14.6715729,18 14,17.3284271 14,16.5 C14,15.6715729 14.6715729,15 15.5,15 Z M15.5,20 L18.5,20 C19.3284271,20 20,20.6715729 20,21.5 C20,22.3284271 19.3284271,23 18.5,23 L15.5,23 C14.6715729,23 14,22.3284271 14,21.5 C14,20.6715729 14.6715729,20 15.5,20 Z"/><rect width="10" height="2" x="7" y="5" fill="url(#c)" rx="1"/><rect width="11" height="8" y="15" fill="url(#d)" rx="3"/></g></svg>