<svg xmlns="http://www.w3.org/2000/svg" width="24" height="24" viewBox="0 0 24 24"><defs><linearGradient id="a" x1="26.602%" x2="79.826%" y1="-27.499%" y2="119.243%"><stop offset="0%" stop-color="#47C2FF" stop-opacity=".24"/><stop offset="100%" stop-color="#0AF" stop-opacity=".5"/></linearGradient><linearGradient id="b" x1="40.009%" x2="100%" y1="48%" y2="52.341%"><stop offset="0%" stop-color="#00A3F5"/><stop offset="100%" stop-color="#7096FF"/></linearGradient><linearGradient id="c" x1="40.009%" x2="100%" y1="18%" y2="87.464%"><stop offset="0%" stop-color="#00A3F5"/><stop offset="100%" stop-color="#7096FF"/></linearGradient></defs><g fill="none" fill-rule="evenodd"><path fill="url(#a)" d="M4,1 L20,1 C21.6568542,1 23,2.34314575 23,4 L23,8 C23,9.65685425 21.6568542,11 20,11 L4,11 C2.34314575,11 1,9.65685425 1,8 L1,4 C1,2.34314575 2.34314575,1 4,1 Z M14.5,15 L21.5,15 C22.3284271,15 23,15.6715729 23,16.5 C23,17.3284271 22.3284271,18 21.5,18 L14.5,18 C13.6715729,18 13,17.3284271 13,16.5 C13,15.6715729 13.6715729,15 14.5,15 Z M14.5,20 L17.5,20 C18.3284271,20 19,20.6715729 19,21.5 C19,22.3284271 18.3284271,23 17.5,23 L14.5,23 C13.6715729,23 13,22.3284271 13,21.5 C13,20.6715729 13.6715729,20 14.5,20 Z"/><rect width="10" height="2" x="7" y="5" fill="url(#b)" rx="1"/><rect width="10" height="8" x="1" y="15" fill="url(#c)" rx="3"/></g></svg>