<svg xmlns="http://www.w3.org/2000/svg" width="24" height="24" viewBox="0 0 24 24"><g fill="none" fill-rule="evenodd"><path fill="#618A9E" d="M20,1 C21.6568542,1 23,2.34314575 23,4 L23,8 C23,9.65685425 21.6568542,11 20,11 L4,11 C2.34314575,11 1,9.65685425 1,8 L1,4 C1,2.34314575 2.34314575,1 4,1 L20,1 Z M16,5 L8,5 C7.44771525,5 7,5.44771525 7,6 C7,6.55228475 7.44771525,7 8,7 L8,7 L16,7 C16.5522847,7 17,6.55228475 17,6 C17,5.44771525 16.5522847,5 16,5 L16,5 Z"/><rect width="10" height="8" x="1" y="15" fill="#618A9E" rx="3"/><rect width="10" height="3" x="13" y="15" fill="#618A9E" rx="1.5"/><rect width="6" height="3" x="13" y="20" fill="#618A9E" rx="1.5"/></g></svg>