<svg xmlns="http://www.w3.org/2000/svg" width="24" height="24" viewBox="0 0 24 24"><defs><linearGradient id="a" x1="26.602%" x2="79.826%" y1="33.988%" y2="64.306%"><stop offset="0%" stop-color="#47C2FF" stop-opacity=".16"/><stop offset="100%" stop-color="#47C2FF" stop-opacity=".24"/></linearGradient><linearGradient id="b" x1="40.009%" x2="100%" y1="18%" y2="87.464%"><stop offset="0%" stop-color="#0BF" stop-opacity=".5"/><stop offset="100%" stop-color="#47A9FF" stop-opacity=".8"/></linearGradient><linearGradient id="c" x1="42.106%" x2="89.506%" y1="0%" y2="108.537%"><stop offset="0%" stop-color="#00A3F5"/><stop offset="100%" stop-color="#476CFF"/></linearGradient></defs><g fill="none" fill-rule="evenodd"><rect width="22" height="10" x="1" y="1" fill="url(#a)" rx="3"/><path fill="url(#b)" d="M13.5,15 L20.5,15 C21.3284271,15 22,15.6715729 22,16.5 C22,17.3284271 21.3284271,18 20.5,18 L13.5,18 C12.6715729,18 12,17.3284271 12,16.5 C12,15.6715729 12.6715729,15 13.5,15 Z M13.5,20 L16.5,20 C17.3284271,20 18,20.6715729 18,21.5 C18,22.3284271 17.3284271,23 16.5,23 L13.5,23 C12.6715729,23 12,22.3284271 12,21.5 C12,20.6715729 12.6715729,20 13.5,20 Z"/><path fill="url(#c)" d="M8,5 L16,5 C16.5522847,5 17,5.44771525 17,6 C17,6.55228475 16.5522847,7 16,7 L8,7 C7.44771525,7 7,6.55228475 7,6 C7,5.44771525 7.44771525,5 8,5 Z M4,15 L8,15 C9.65685425,15 11,16.3431458 11,18 L11,20 C11,21.6568542 9.65685425,23 8,23 L4,23 C2.34314575,23 1,21.6568542 1,20 L1,18 C1,16.3431458 2.34314575,15 4,15 Z"/></g></svg>