<svg xmlns="http://www.w3.org/2000/svg" width="24" height="24" viewBox="0 0 24 24"><defs><linearGradient id="a" x1="26.602%" x2="79.826%" y1="33.988%" y2="64.306%"><stop offset="0%" stop-color="#47C2FF" stop-opacity=".16"/><stop offset="100%" stop-color="#47C2FF" stop-opacity=".24"/></linearGradient><linearGradient id="b" x1="40.009%" x2="100%" y1="18%" y2="87.464%"><stop offset="0%" stop-color="#47C2FF" stop-opacity=".72"/><stop offset="99.942%" stop-color="#70B8FF" stop-opacity=".24"/></linearGradient><linearGradient id="c" x1="40.009%" x2="100%" y1="48%" y2="52.341%"><stop offset="0%" stop-color="#00A3F5"/><stop offset="100%" stop-color="#476CFF"/></linearGradient><linearGradient id="d" x1="40.009%" x2="100%" y1="18%" y2="87.464%"><stop offset="0%" stop-color="#00A3F5"/><stop offset="100%" stop-color="#476CFF"/></linearGradient></defs><g fill="none" fill-rule="evenodd"><rect width="22" height="10" x="1" y="1" fill="url(#a)" rx="3"/><path fill="url(#b)" d="M13.5,15 L20.5,15 C21.3284271,15 22,15.6715729 22,16.5 C22,17.3284271 21.3284271,18 20.5,18 L13.5,18 C12.6715729,18 12,17.3284271 12,16.5 C12,15.6715729 12.6715729,15 13.5,15 Z M13.5,20 L16.5,20 C17.3284271,20 18,20.6715729 18,21.5 C18,22.3284271 17.3284271,23 16.5,23 L13.5,23 C12.6715729,23 12,22.3284271 12,21.5 C12,20.6715729 12.6715729,20 13.5,20 Z"/><rect width="10" height="2" x="7" y="5" fill="url(#c)" rx="1"/><rect width="10" height="8" x="1" y="15" fill="url(#d)" rx="3"/></g></svg>