<svg xmlns="http://www.w3.org/2000/svg" width="24" height="24" viewBox="0 0 24 24"><defs><linearGradient id="a" x1="26.602%" x2="79.826%" y1="-.049%" y2="94.717%"><stop offset="0%" stop-color="#00A3F5" stop-opacity=".4"/><stop offset="100%" stop-color="#00A3F5" stop-opacity=".4"/></linearGradient><linearGradient id="b" x1="19.905%" x2="87.207%" y1="2.695%" y2="105.507%"><stop offset="0%" stop-color="#00B4F5"/><stop offset="100%" stop-color="#1F69FF"/></linearGradient></defs><g fill="none" fill-rule="evenodd"><path fill="url(#a)" d="M4,15.125 C6.35052537,16.9613479 9.64947463,16.9613479 12,15.125 C13.0774993,14.2832036 14.6333959,14.4742787 15.4751923,15.551778 C15.8152671,15.9870738 16,16.5235964 16,17.0759851 L16,18 C16,21.3137085 13.3137085,24 10,24 L6,24 C2.6862915,24 4.05812251e-16,21.3137085 0,18 L0,17.0759851 C-1.0556296e-15,15.7086425 1.10845022,14.6001923 2.47579287,14.6001923 C3.02818162,14.6001923 3.5647042,14.7849252 4,15.125 Z M16.5,5.0625 C17.9515542,6.26003219 20.0484458,6.26003219 21.5,5.0625 C22.1508527,4.52554653 23.1137598,4.61788009 23.6507133,5.26873278 C23.8765065,5.54242151 24,5.88616593 24,6.24097304 L24,6.5 C24,8.43299662 22.4329966,10 20.5,10 L17.5,10 C15.5670034,10 14,8.43299662 14,6.5 L14,6.24097304 C14,5.39721463 14.6840013,4.7132133 15.5277597,4.7132133 C15.8825669,4.7132133 16.2263113,4.8367068 16.5,5.0625 Z"/><path fill="url(#b)" d="M8,6 C5.790861,6 4,7.790861 4,10 C4,12.209139 5.790861,14 8,14 C10.209139,14 12,12.209139 12,10 C12,7.790861 10.209139,6 8,6 Z M19,0 C17.8954305,0 17,0.8954305 17,2 C17,3.1045695 17.8954305,4 19,4 C20.1045695,4 21,3.1045695 21,2 C21,0.8954305 20.1045695,0 19,0 Z"/></g></svg>