<svg xmlns="http://www.w3.org/2000/svg" width="24" height="24" viewBox="0 0 24 24"><defs><linearGradient id="a" x1="26.602%" x2="79.826%" y1="15.556%" y2="80.775%"><stop offset="0%" stop-color="#00A3F5" stop-opacity=".4"/><stop offset="100%" stop-color="#00A3F5" stop-opacity=".4"/></linearGradient><linearGradient id="b" x1="19.905%" x2="87.207%" y1="-19.75%" y2="131.845%"><stop offset="0%" stop-color="#00B4F5"/><stop offset="100%" stop-color="#1F69FF"/></linearGradient></defs><g fill="none" fill-rule="evenodd"><path fill="url(#a)" d="M6,11.5 L7.9690318,12.6486019 C10.4599319,14.1016269 13.5400681,14.1016269 16.0309682,12.6486019 L18,11.5 C19.9032959,10.3897441 22.3462622,11.03263 23.4565182,12.9359258 C23.8124504,13.5460954 24,14.2398264 24,14.946222 L24,16 C24,20.418278 20.418278,24 16,24 L8,24 C3.581722,24 5.41083001e-16,20.418278 0,16 L0,14.946222 C1.74244094e-16,12.7427694 1.78625125,10.9565182 3.98970384,10.9565182 C4.6960994,10.9565182 5.38983042,11.1440677 6,11.5 Z"/><path fill="url(#b)" d="M12,0 C9.23857625,0 7,2.23857625 7,5 C7,7.76142375 9.23857625,10 12,10 C14.7614237,10 17,7.76142375 17,5 C17,2.23857625 14.7614237,0 12,0 Z"/></g></svg>