<svg xmlns="http://www.w3.org/2000/svg" width="24" height="24" viewBox="0 0 24 24"><path fill="#618A9E" fill-rule="evenodd" d="M12 0C9.23857625 0 7 2.23857625 7 5 7 7.76142375 9.23857625 10 12 10 14.7614237 10 17 7.76142375 17 5 17 2.23857625 14.7614237 0 12 0ZM6 11.5 7.9690318 12.6486019C10.4599319 14.1016269 13.5400681 14.1016269 16.0309682 12.6486019L18 11.5C19.9032959 10.3897441 22.3462622 11.03263 23.4565182 12.9359258 23.8124504 13.5460954 24 14.2398264 24 14.946222L24 16C24 20.418278 20.418278 24 16 24L8 24C3.581722 24 5.41083001e-16 20.418278 0 16L0 14.946222C1.74244094e-16 12.7427694 1.78625125 10.9565182 3.98970384 10.9565182 4.6960994 10.9565182 5.38983042 11.1440677 6 11.5Z"/></svg>