<svg xmlns="http://www.w3.org/2000/svg" width="24" height="24" viewBox="0 0 24 24"><g fill="none" fill-rule="evenodd"><path fill="#618A9E" d="M8 0C5.790861 0 4 1.790861 4 4 4 6.209139 5.790861 8 8 8 10.209139 8 12 6.209139 12 4 12 1.790861 10.209139 0 8 0ZM4 9.125C6.35052537 10.9613479 9.64947463 10.9613479 12 9.125 13.0774993 8.28320365 14.6333959 8.47427866 15.4751923 9.551778 15.8152671 9.98707379 16 10.5235964 16 11.0759851L16 12C16 15.3137085 13.3137085 18 10 18L6 18C2.6862915 18 4.05812251e-16 15.3137085 0 12L0 11.0759851C-1.0556296e-15 9.70864248 1.10845022 8.60019226 2.47579287 8.60019226 3.02818162 8.60019226 3.5647042 8.78492516 4 9.125Z" transform="translate(0 6)"/><path fill="#618A9E" d="M5 0C3.8954305 0 3 .8954305 3 2 3 3.1045695 3.8954305 4 5 4 6.1045695 4 7 3.1045695 7 2 7 .8954305 6.1045695 0 5 0ZM2.5 5.0625C3.95155417 6.26003219 6.04844583 6.26003219 7.5 5.0625 8.15085269 4.52554653 9.11375983 4.61788009 9.6507133 5.26873278 9.8765065 5.54242151 10 5.88616593 10 6.24097304L10 6.5C10 8.43299662 8.43299662 10 6.5 10L3.5 10C1.56700338 10 2.36723813e-16 8.43299662 0 6.5L0 6.24097304C-7.00079212e-16 5.39721463.684001335 4.7132133 1.52775974 4.7132133 1.88256685 4.7132133 2.22631128 4.8367068 2.5 5.0625Z" transform="translate(14)"/></g></svg>