<svg xmlns="http://www.w3.org/2000/svg" width="24" height="24" viewBox="0 0 24 24"><defs><linearGradient id="a" x1="26.602%" x2="79.826%" y1="6.407%" y2="88.949%"><stop offset="0%" stop-color="#47C2FF" stop-opacity=".16"/><stop offset="100%" stop-color="#47C2FF" stop-opacity=".24"/></linearGradient><linearGradient id="b" x1="40.009%" x2="100%" y1="47.83%" y2="52.541%"><stop offset="0%" stop-color="#00A3F5"/><stop offset="100%" stop-color="#476CFF"/></linearGradient></defs><g fill="none" fill-rule="evenodd"><path fill="url(#a)" d="M5,1 L19,1 C20.6568542,1 22,2.34314575 22,4 L22,14 C22,15.1045695 21.1045695,16 20,16 L4,16 C2.8954305,16 2,15.1045695 2,14 L2,4 C2,2.34314575 3.34314575,1 5,1 Z"/><path fill="url(#b)" d="M24,20 L24,20.5 C24,21.8807119 22.8807119,23 21.5,23 L2.5,23 C1.11928813,23 1.69088438e-16,21.8807119 0,20.5 L0,20 C-1.3527075e-16,18.8954305 0.8954305,18 2,18 L8.38196601,18 C8.76073807,18 9.10700119,18.2140024 9.2763932,18.5527864 L9.5,19 C9.80643303,19.6128661 10.4328289,20 11.118034,20 L12.881966,20 C13.5671711,20 14.193567,19.6128661 14.5,19 L14.7236068,18.5527864 C14.8929988,18.2140024 15.2392619,18 15.618034,18 L22,18 C23.1045695,18 24,18.8954305 24,20 Z"/></g></svg>