<svg xmlns="http://www.w3.org/2000/svg" width="24" height="24" viewBox="0 0 24 24"><path fill="#618A9E" fill-rule="evenodd" d="M24 20 24 20.5C24 21.8807119 22.8807119 23 21.5 23L2.5 23C1.11928813 23 1.69088438e-16 21.8807119 0 20.5L0 20C-1.3527075e-16 18.8954305.8954305 18 2 18L8.38196601 18C8.76073807 18 9.10700119 18.2140024 9.2763932 18.5527864L9.5 19C9.80643303 19.6128661 10.4328289 20 11.118034 20L12.881966 20C13.5671711 20 14.193567 19.6128661 14.5 19L14.7236068 18.5527864C14.8929988 18.2140024 15.2392619 18 15.618034 18L22 18C23.1045695 18 24 18.8954305 24 20ZM5 1 19 1C20.6568542 1 22 2.34314575 22 4L22 14C22 15.1045695 21.1045695 16 20 16L4 16C2.8954305 16 2 15.1045695 2 14L2 4C2 2.34314575 3.34314575 1 5 1Z"/></svg>