<svg xmlns="http://www.w3.org/2000/svg" width="24" height="24" viewBox="0 0 24 24"><defs><linearGradient id="a" x1="26.602%" x2="79.826%" y1="3.725%" y2="91.345%"><stop offset="0%" stop-color="#00A3F5" stop-opacity=".4"/><stop offset="100%" stop-color="#00A3F5" stop-opacity=".4"/></linearGradient><linearGradient id="b" x1="19.905%" x2="87.207%" y1="46.973%" y2="53.552%"><stop offset="0%" stop-color="#00B4F5"/><stop offset="100%" stop-color="#1F69FF"/></linearGradient></defs><g fill="none" fill-rule="evenodd"><path fill="url(#a)" d="M4,2 L20,2 C21.6568542,2 23,3.34314575 23,5 L23,17 C23,18.1045695 22.1045695,19 21,19 L3,19 C1.8954305,19 1,18.1045695 1,17 L1,5 C1,3.34314575 2.34314575,2 4,2 Z"/><path fill="url(#b)" d="M24,19 L24,19.5 C24,20.8807119 22.8807119,22 21.5,22 L2.5,22 C1.11928813,22 1.69088438e-16,20.8807119 0,19.5 L0,19 C-1.3527075e-16,17.8954305 0.8954305,17 2,17 L8.38196601,17 C8.76073807,17 9.10700119,17.2140024 9.2763932,17.5527864 L9.5,18 C9.80643303,18.6128661 10.4328289,19 11.118034,19 L12.881966,19 C13.5671711,19 14.193567,18.6128661 14.5,18 L14.7236068,17.5527864 C14.8929988,17.2140024 15.2392619,17 15.618034,17 L22,17 C23.1045695,17 24,17.8954305 24,19 Z"/></g></svg>