<svg xmlns="http://www.w3.org/2000/svg" width="24" height="24" viewBox="0 0 24 24"><g fill="none" fill-rule="evenodd"><circle cx="19" cy="10" r="4" fill="#618A9E"/><path fill="#618A9E" d="M4 5 9.69883737 5C12.3980541 5 14.9311122 3.69644298 16.5 1.5L17.1862665.53922686C17.5072755.0898142731 18.1318256-.0142774082 18.5812382.306731582 18.8440343.494443098 19 .79751395 19 1.12046505L19 18.8795349C19 19.4318197 18.5522847 19.8795349 18 19.8795349 17.6770489 19.8795349 17.373978 19.7235693 17.1862665 19.4607731L16.5 18.5C14.9311122 16.303557 12.3980541 15 9.69883737 15L4 15C2.34314575 15 1 13.6568542 1 12L1 8C1 6.34314575 2.34314575 5 4 5ZM5 17 7 17C8.1045695 17 9 17.8954305 9 19L9 24 9 24 6 24C4.8954305 24 4 23.1045695 4 22L4 18C4 17.4477153 4.44771525 17 5 17Z"/><path fill="#618A9E" d="M6,20 L10,20 C11.6568542,20 13,21.3431458 13,23 L13,24 L13,24 L9,24 C7.34314575,24 6,22.6568542 6,21 L6,20 L6,20 Z"/></g></svg>