<svg xmlns="http://www.w3.org/2000/svg" width="24" height="24" viewBox="0 0 24 24"><defs><linearGradient id="a" x1="26.602%" x2="79.826%" y1="-19.556%" y2="112.146%"><stop offset="0%" stop-color="#47C2FF" stop-opacity=".24"/><stop offset="100%" stop-color="#0AF" stop-opacity=".5"/></linearGradient><linearGradient id="b" x1="44.38%" x2="78.125%" y1="0%" y2="108.537%"><stop offset="0%" stop-color="#00A3F5"/><stop offset="100%" stop-color="#7096FF"/></linearGradient></defs><g fill="none" fill-rule="evenodd"><path fill="url(#a)" d="M19,6 C21.209139,6 23,7.790861 23,10 C23,12.209139 21.209139,14 19,14 L19,14 Z M6,24 C4.8954305,24 4,23.1045695 4,22 L4,18 C4,17.4477153 4.44771525,17 5,17 L7,17 C8.1045695,17 9,17.8954305 9,19 L9,20 L10,20 C11.6568542,20 13,21.3431458 13,23 L13,24 L6,24 Z"/><path fill="url(#b)" d="M4,5 L9.69883737,5 C12.3980541,5 14.9311122,3.69644298 16.5,1.5 L17.1862665,0.53922686 C17.5072755,0.0898142731 18.1318256,-0.0142774082 18.5812382,0.306731582 C18.8440343,0.494443098 19,0.79751395 19,1.12046505 L19,18.8795349 C19,19.4318197 18.5522847,19.8795349 18,19.8795349 C17.6770489,19.8795349 17.373978,19.7235693 17.1862665,19.4607731 L16.5,18.5 C14.9311122,16.303557 12.3980541,15 9.69883737,15 L4,15 C2.34314575,15 1,13.6568542 1,12 L1,8 C1,6.34314575 2.34314575,5 4,5 Z"/></g></svg>