<svg xmlns="http://www.w3.org/2000/svg" width="24" height="24" viewBox="0 0 24 24"><defs><linearGradient id="a" x1="44.15%" x2="57.457%" y1="-27.499%" y2="119.243%"><stop offset="0%" stop-color="#00A3F5" stop-opacity=".4"/><stop offset="100%" stop-color="#00A3F5" stop-opacity=".4"/></linearGradient><linearGradient id="b" x1="31.512%" x2="73.566%" y1="-27.499%" y2="119.243%"><stop offset="0%" stop-color="#00A3F5" stop-opacity=".4"/><stop offset="100%" stop-color="#00A3F5" stop-opacity=".4"/></linearGradient><linearGradient id="c" x1="30.739%" x2="73.812%" y1="-19.75%" y2="131.845%"><stop offset="0%" stop-color="#00B4F5"/><stop offset="100%" stop-color="#1F69FF"/></linearGradient></defs><g fill="none" fill-rule="evenodd"><path fill="url(#a)" d="M20,7 C21.9329966,7 23.5,8.56700338 23.5,10.5 C23.5,12.4329966 21.9329966,14 20,14 L20,14 Z"/><path fill="url(#b)" d="M6,24 C4.8954305,24 4,23.1045695 4,22 L4,15 L8,15 L8,20 L9,20 C10.6568542,20 12,21.3431458 12,23 L12,24 L6,24 Z"/><path fill="url(#c)" d="M3,5 L10.6988374,5 C13.3980541,5 15.9311122,3.69644298 17.5,1.5 L18.1862665,0.53922686 C18.5072755,0.0898142731 19.1318256,-0.0142774082 19.5812382,0.306731582 C19.8440343,0.494443098 20,0.79751395 20,1.12046505 L20,19.8795349 C20,20.4318197 19.5522847,20.8795349 19,20.8795349 C18.6770489,20.8795349 18.373978,20.7235693 18.1862665,20.4607731 L17.5,19.5 C15.9311122,17.303557 13.3980541,16 10.6988374,16 L3,16 C1.34314575,16 2.02906125e-16,14.6568542 0,13 L0,8 C-2.02906125e-16,6.34314575 1.34314575,5 3,5 Z"/></g></svg>