<svg xmlns="http://www.w3.org/2000/svg" width="24" height="24" viewBox="0 0 24 24"><defs><linearGradient id="a" x1="40.009%" x2="100%" y1="5.125%" y2="102.537%"><stop offset="0%" stop-color="#47C2FF" stop-opacity=".72"/><stop offset="99.942%" stop-color="#70B8FF" stop-opacity=".24"/></linearGradient><linearGradient id="b" x1="44.38%" x2="78.125%" y1="0%" y2="108.537%"><stop offset="0%" stop-color="#00A3F5"/><stop offset="100%" stop-color="#476CFF"/></linearGradient></defs><g fill="none" fill-rule="evenodd"><path fill="url(#a)" d="M18,6 C20.209139,6 22,7.790861 22,10 C22,12.209139 20.209139,14 18,14 L18,14 Z M5,24 C3.8954305,24 3,23.1045695 3,22 L3,18 C3,17.4477153 3.44771525,17 4,17 L6,17 C7.1045695,17 8,17.8954305 8,19 L8,20 L9,20 C10.6568542,20 12,21.3431458 12,23 L12,24 L5,24 Z"/><path fill="url(#b)" d="M4,5 L9.69883737,5 C12.3980541,5 14.9311122,3.69644298 16.5,1.5 L17.1862665,0.53922686 C17.5072755,0.0898142731 18.1318256,-0.0142774082 18.5812382,0.306731582 C18.8440343,0.494443098 19,0.79751395 19,1.12046505 L19,18.8795349 C19,19.4318197 18.5522847,19.8795349 18,19.8795349 C17.6770489,19.8795349 17.373978,19.7235693 17.1862665,19.4607731 L16.5,18.5 C14.9311122,16.303557 12.3980541,15 9.69883737,15 L4,15 C2.34314575,15 1,13.6568542 1,12 L1,8 C1,6.34314575 2.34314575,5 4,5 Z"/></g></svg>