<svg xmlns="http://www.w3.org/2000/svg" width="24" height="24" viewBox="0 0 24 24"><defs><linearGradient id="a" x1="39.601%" x2="63.256%" y1="-27.499%" y2="119.243%"><stop offset="0%" stop-color="#47C2FF" stop-opacity=".16"/><stop offset="100%" stop-color="#47C2FF" stop-opacity=".24"/></linearGradient><linearGradient id="b" x1="46.097%" x2="69.531%" y1="0%" y2="108.537%"><stop offset="0%" stop-color="#00A3F5"/><stop offset="100%" stop-color="#476CFF"/></linearGradient></defs><g fill="none" fill-rule="evenodd"><path fill="url(#a)" d="M20,3 L20,21 C20,22.6568542 18.6568542,24 17,24 L7,24 C5.34314575,24 4,22.6568542 4,21 L4,3 C4,1.34314575 5.34314575,3.04359188e-16 7,0 L17,0 C18.6568542,-3.04359188e-16 20,1.34314575 20,3 Z"/><path fill="url(#b)" d="M8,4 L10,4 C10.5522847,4 11,4.44771525 11,5 L11,7 C11,7.55228475 10.5522847,8 10,8 L8,8 C7.44771525,8 7,7.55228475 7,7 L7,5 C7,4.44771525 7.44771525,4 8,4 Z M14,4 L16,4 C16.5522847,4 17,4.44771525 17,5 L17,7 C17,7.55228475 16.5522847,8 16,8 L14,8 C13.4477153,8 13,7.55228475 13,7 L13,5 C13,4.44771525 13.4477153,4 14,4 Z M8,10 L10,10 C10.5522847,10 11,10.4477153 11,11 L11,13 C11,13.5522847 10.5522847,14 10,14 L8,14 C7.44771525,14 7,13.5522847 7,13 L7,11 C7,10.4477153 7.44771525,10 8,10 Z M14,10 L16,10 C16.5522847,10 17,10.4477153 17,11 L17,13 C17,13.5522847 16.5522847,14 16,14 L14,14 C13.4477153,14 13,13.5522847 13,13 L13,11 C13,10.4477153 13.4477153,10 14,10 Z M8,16 L10,16 C10.5522847,16 11,16.4477153 11,17 L11,19 C11,19.5522847 10.5522847,20 10,20 L8,20 C7.44771525,20 7,19.5522847 7,19 L7,17 C7,16.4477153 7.44771525,16 8,16 Z"/></g></svg>