<svg xmlns="http://www.w3.org/2000/svg" width="24" height="24" viewBox="0 0 24 24"><path fill="#618A9E" fill-rule="evenodd" d="M17,0 C18.6568542,-3.04359188e-16 20,1.34314575 20,3 L20,21 C20,22.6568542 18.6568542,24 17,24 L7,24 C5.34314575,24 4,22.6568542 4,21 L4,3 C4,1.34314575 5.34314575,3.04359188e-16 7,0 L17,0 Z M10,16 L8,16 C7.44771525,16 7,16.4477153 7,17 L7,17 L7,19 C7,19.5522847 7.44771525,20 8,20 L8,20 L10,20 C10.5522847,20 11,19.5522847 11,19 L11,19 L11,17 C11,16.4477153 10.5522847,16 10,16 L10,16 Z M10,10 L8,10 C7.44771525,10 7,10.4477153 7,11 L7,11 L7,13 C7,13.5522847 7.44771525,14 8,14 L8,14 L10,14 C10.5522847,14 11,13.5522847 11,13 L11,13 L11,11 C11,10.4477153 10.5522847,10 10,10 L10,10 Z M16,10 L14,10 C13.4477153,10 13,10.4477153 13,11 L13,11 L13,13 C13,13.5522847 13.4477153,14 14,14 L14,14 L16,14 C16.5522847,14 17,13.5522847 17,13 L17,13 L17,11 C17,10.4477153 16.5522847,10 16,10 L16,10 Z M10,4 L8,4 C7.44771525,4 7,4.44771525 7,5 L7,5 L7,7 C7,7.55228475 7.44771525,8 8,8 L8,8 L10,8 C10.5522847,8 11,7.55228475 11,7 L11,7 L11,5 C11,4.44771525 10.5522847,4 10,4 L10,4 Z M16,4 L14,4 C13.4477153,4 13,4.44771525 13,5 L13,5 L13,7 C13,7.55228475 13.4477153,8 14,8 L14,8 L16,8 C16.5522847,8 17,7.55228475 17,7 L17,7 L17,5 C17,4.44771525 16.5522847,4 16,4 L16,4 Z"/></svg>