<svg xmlns="http://www.w3.org/2000/svg" width="24" height="24" viewBox="0 0 24 24"><defs><linearGradient id="a" x1="40.009%" x2="100%" y1="0%" y2="108.537%"><stop offset="0%" stop-color="#0BF" stop-opacity=".5"/><stop offset="100%" stop-color="#47A9FF" stop-opacity=".8"/></linearGradient><linearGradient id="b" x1="40.009%" x2="100%" y1="0%" y2="108.537%"><stop offset="0%" stop-color="#00A3F5"/><stop offset="100%" stop-color="#476CFF"/></linearGradient></defs><g fill="none" fill-rule="evenodd"><path fill="url(#a)" d="M23,5 L23,9.37867966 C23,10.2071068 22.3284271,10.8786797 21.5,10.8786797 C21.1021753,10.8786797 20.7206444,10.7206444 20.4393398,10.4393398 L13.5606602,3.56066017 C12.9748737,2.97487373 12.9748737,2.02512627 13.5606602,1.43933983 C13.8419647,1.15803526 14.2234956,1 14.6213203,1 L19,1 C21.209139,1 23,2.790861 23,5 Z"/><path fill="url(#b)" d="M13.4142136,6.41421356 L17.5857864,10.5857864 C18.4760545,11.4760545 18.8952109,12.7335237 18.7171573,13.979899 L18.181862,17.7269659 C18.0710824,18.5024233 17.5177957,19.1418248 16.7662957,19.3628542 L4.76318607,22.8931806 C4.23334313,23.0490167 3.6774904,22.7458243 3.52165424,22.2159814 C3.41838578,21.8648686 3.51517315,21.4853901 3.77399216,21.2266291 L8.43916733,16.5624987 L8.43916733,16.5624987 C8.89389161,16.8400668 9.4282686,17 10,17 C11.6568542,17 13,15.6568542 13,14 C13,12.3431458 11.6568542,11 10,11 C8.34314575,11 7,12.3431458 7,14 C7,14.5721481 7.16016642,15.1068873 7.43810838,15.5618268 L2.773046,20.2269298 C2.38252341,20.6174558 1.74935843,20.6174586 1.35883244,20.226936 C1.10006857,19.9681744 1.00331306,19.5887356 1.10657064,19.2376598 L4.63714579,7.23370433 C4.85817519,6.48220434 5.49757672,5.92891761 6.27303408,5.81813799 L10.020101,5.28284271 C11.2664763,5.10478909 12.5239455,5.52394547 13.4142136,6.41421356 Z"/></g></svg>