<svg xmlns="http://www.w3.org/2000/svg" width="24" height="24" viewBox="0 0 24 24"><defs><linearGradient id="a" x1="26.602%" x2="79.826%" y1="-27.499%" y2="119.243%"><stop offset="0%" stop-color="#00A3F5" stop-opacity=".4"/><stop offset="100%" stop-color="#00A3F5" stop-opacity=".4"/></linearGradient><linearGradient id="b" x1="19.905%" x2="87.207%" y1="-19.75%" y2="131.845%"><stop offset="0%" stop-color="#00B4F5"/><stop offset="100%" stop-color="#1F69FF"/></linearGradient></defs><g fill="none" fill-rule="evenodd"><path fill="url(#a)" d="M23,5 L23,11.3786797 C23,12.2071068 22.3284271,12.8786797 21.5,12.8786797 C21.1021753,12.8786797 20.7206444,12.7206444 20.4393398,12.4393398 L11.5606602,3.56066017 C10.9748737,2.97487373 10.9748737,2.02512627 11.5606602,1.43933983 C11.8419647,1.15803526 12.2234956,1 12.6213203,1 L19,1 C21.209139,1 23,2.790861 23,5 Z"/><path fill="url(#b)" d="M13,5 L19,11 L18.1625964,17.6992287 C18.0638585,18.489132 17.5060767,19.1452716 16.7423733,19.3698902 L4.76318607,22.8931806 C4.23334313,23.0490167 3.6774904,22.7458243 3.52165424,22.2159814 C3.41838578,21.8648686 3.51517315,21.4853901 3.77399216,21.2266291 L8.43916733,16.5624987 L8.43916733,16.5624987 C8.89389161,16.8400668 9.4282686,17 10,17 C11.6568542,17 13,15.6568542 13,14 C13,12.3431458 11.6568542,11 10,11 C8.34314575,11 7,12.3431458 7,14 C7,14.5721481 7.16016642,15.1068873 7.43810838,15.5618268 L2.773046,20.2269298 C2.38252341,20.6174558 1.74935843,20.6174586 1.35883244,20.226936 C1.10006857,19.9681744 1.00331306,19.5887356 1.10657064,19.2376598 L4.6301098,7.25762669 C4.85472844,6.49392329 5.51086802,5.9361415 6.30077133,5.83740358 L13,5 L13,5 Z"/></g></svg>