<svg xmlns="http://www.w3.org/2000/svg" width="24" height="24" viewBox="0 0 24 24"><path fill="#618A9E" fill-rule="evenodd" d="M12,0 C18.627417,0 24,5.372583 24,12 C24,18.627417 18.627417,24 12,24 C5.372583,24 0,18.627417 0,12 C0,5.372583 5.372583,0 12,0 Z M12,14 C10.8954305,14 10,14.8954305 10,16 L10,16 L10,19 L14,19 L14,16 C14,14.8954305 13.1045695,14 12,14 Z M8,6 L7,6 C6.44771525,6 6,6.44771525 6,7 L6,7 L6,11 C6,11.5522847 6.44771525,12 7,12 L7,12 L8,12 C8.55228475,12 9,11.5522847 9,11 L9,11 L9,7 C9,6.44771525 8.55228475,6 8,6 L8,6 Z M17,6 L16,6 C15.4477153,6 15,6.44771525 15,7 L15,7 L15,11 C15,11.5522847 15.4477153,12 16,12 L16,12 L17,12 C17.5522847,12 18,11.5522847 18,11 L18,11 L18,7 C18,6.44771525 17.5522847,6 17,6 L17,6 Z"/></svg>