<svg xmlns="http://www.w3.org/2000/svg" width="24" height="24" viewBox="0 0 24 24"><defs><linearGradient id="a" x1="26.602%" x2="79.826%" y1="-27.499%" y2="119.243%"><stop offset="0%" stop-color="#47C2FF" stop-opacity=".16"/><stop offset="100%" stop-color="#47C2FF" stop-opacity=".24"/></linearGradient><linearGradient id="b" x1="41.487%" x2="92.604%" y1="0%" y2="108.537%"><stop offset="0%" stop-color="#00A3F5"/><stop offset="100%" stop-color="#476CFF"/></linearGradient></defs><g fill="none" fill-rule="evenodd"><circle cx="12" cy="12" r="12" fill="url(#a)"/><path fill="url(#b)" d="M7,6 L8,6 C8.55228475,6 9,6.44771525 9,7 L9,11 C9,11.5522847 8.55228475,12 8,12 L7,12 C6.44771525,12 6,11.5522847 6,11 L6,7 C6,6.44771525 6.44771525,6 7,6 Z M16,6 L17,6 C17.5522847,6 18,6.44771525 18,7 L18,11 C18,11.5522847 17.5522847,12 17,12 L16,12 C15.4477153,12 15,11.5522847 15,11 L15,7 C15,6.44771525 15.4477153,6 16,6 Z M12,14 C13.1045695,14 14,14.8954305 14,16 L14,19 L14,19 L10,19 L10,16 C10,14.8954305 10.8954305,14 12,14 Z"/></g></svg>