<svg xmlns="http://www.w3.org/2000/svg" width="24" height="24" viewBox="0 0 24 24"><defs><linearGradient id="a" x1="26.602%" x2="79.826%" y1="9.009%" y2="86.624%"><stop offset="0%" stop-color="#00A3F5" stop-opacity=".4"/><stop offset="100%" stop-color="#00A3F5" stop-opacity=".4"/></linearGradient><linearGradient id="b" x1="26.602%" x2="79.826%" y1="35.766%" y2="62.718%"><stop offset="0%" stop-color="#00A3F5" stop-opacity=".4"/><stop offset="100%" stop-color="#00A3F5" stop-opacity=".4"/></linearGradient><linearGradient id="c" x1="36.624%" x2="66.536%" y1="-19.75%" y2="131.845%"><stop offset="0%" stop-color="#00B4F5"/><stop offset="100%" stop-color="#1F69FF"/></linearGradient></defs><g fill="none" fill-rule="evenodd"><rect width="22" height="16" x="1" fill="url(#a)" rx="3"/><path fill="url(#b)" d="M9,20 C9,18.8954305 9.8954305,18 11,18 L13,18 C14.1045695,18 15,18.8954305 15,20 L15,21 L17.5,21 C18.3284271,21 19,21.6715729 19,22.5 C19,23.3284271 18.3284271,24 17.5,24 L6.5,24 C5.67157288,24 5,23.3284271 5,22.5 C5,21.6715729 5.67157288,21 6.5,21 L9,21 L9,20 Z"/><rect width="10" height="15" x="13" y="9" fill="url(#c)" rx="2"/></g></svg>