<svg xmlns="http://www.w3.org/2000/svg" width="24" height="24" viewBox="0 0 24 24"><g fill="none" fill-rule="evenodd"><path fill="#618A9E" d="M13,18 L13,22 C13,22.7290322 13.1950335,23.4125119 13.5357707,24.0011092 L6.5,24 C5.67157288,24 5,23.3284271 5,22.5 C5,21.6715729 5.67157288,21 6.5,21 L9,21 L9,21 L9,20 C9,18.8954305 9.8954305,18 11,18 L13,18 Z M20,0 C21.6568542,-3.04359188e-16 23,1.34314575 23,3 L23.0011092,9.53577067 C22.4125119,9.1950335 21.7290322,9 21,9 L21,9 L17,9 C14.790861,9 13,10.790861 13,13 L13,13 L13,16 L4,16 C2.34314575,16 1,14.6568542 1,13 L1,3 C1,1.34314575 2.34314575,3.04359188e-16 4,0 L20,0 Z"/><rect width="8" height="13" x="15" y="11" fill="#618A9E" rx="2"/></g></svg>