<svg xmlns="http://www.w3.org/2000/svg" width="24" height="24" viewBox="0 0 24 24"><defs><linearGradient id="a" x1="26.602%" x2="79.826%" y1="-27.499%" y2="119.243%"><stop offset="0%" stop-color="#47C2FF" stop-opacity=".24"/><stop offset="100%" stop-color="#0AF" stop-opacity=".5"/></linearGradient><linearGradient id="b" x1="40.009%" x2="100%" y1="0%" y2="108.537%"><stop offset="0%" stop-color="#00A3F5"/><stop offset="100%" stop-color="#7096FF"/></linearGradient></defs><g fill="none" fill-rule="evenodd"><path fill="url(#a)" d="M8.6916556,1 L15.3083444,1 C17.9829006,1 18.9527593,1.27847683 19.9305371,1.80139811 C20.9083149,2.32431939 21.6756806,3.09168511 22.1986019,4.06946289 C22.7215232,5.04724067 23,6.01709938 23,8.6916556 L23,15.3083444 C23,17.9829006 22.7215232,18.9527593 22.1986019,19.9305371 C21.6756806,20.9083149 20.9083149,21.6756806 19.9305371,22.1986019 C18.9527593,22.7215232 17.9829006,23 15.3083444,23 L8.6916556,23 C6.01709938,23 5.04724067,22.7215232 4.06946289,22.1986019 C3.09168511,21.6756806 2.32431939,20.9083149 1.80139811,19.9305371 C1.27847683,18.9527593 1,17.9829006 1,15.3083444 L1,8.6916556 C1,6.01709938 1.27847683,5.04724067 1.80139811,4.06946289 C2.32431939,3.09168511 3.09168511,2.32431939 4.06946289,1.80139811 C5.04724067,1.27847683 6.01709938,1 8.6916556,1 Z"/><path fill="url(#b)" d="M14.3215535,5.60776773 L14.7385118,7.6925591 C14.8968563,8.4842816 15.5157184,9.10314368 16.3074409,9.26148818 L18.3922323,9.67844645 C19.3270807,9.86541613 20,10.6862458 20,11.6396078 L20,12.3603922 C20,13.3137542 19.3270807,14.1345839 18.3922323,14.3215535 L16.3074409,14.7385118 C15.5157184,14.8968563 14.8968563,15.5157184 14.7385118,16.3074409 L14.3215535,18.3922323 C14.1345839,19.3270807 13.3137542,20 12.3603922,20 L11.6396078,20 C10.6862458,20 9.86541613,19.3270807 9.67844645,18.3922323 L9.26148818,16.3074409 C9.10314368,15.5157184 8.4842816,14.8968563 7.6925591,14.7385118 L5.60776773,14.3215535 C4.67291934,14.1345839 4,13.3137542 4,12.3603922 L4,11.6396078 C4,10.6862458 4.67291934,9.86541613 5.60776773,9.67844645 L7.6925591,9.26148818 C8.4842816,9.10314368 9.10314368,8.4842816 9.26148818,7.6925591 L9.67844645,5.60776773 C9.86541613,4.67291934 10.6862458,4 11.6396078,4 L12.3603922,4 C13.3137542,4 14.1345839,4.67291934 14.3215535,5.60776773 Z"/></g></svg>