<svg xmlns="http://www.w3.org/2000/svg" width="24" height="24" viewBox="0 0 24 24"><path fill="#618A9E" fill-rule="evenodd" d="M15.3083444,1 C17.9829006,1 18.9527593,1.27847683 19.9305371,1.80139811 C20.9083149,2.32431939 21.6756806,3.09168511 22.1986019,4.06946289 C22.7215232,5.04724067 23,6.01709938 23,8.6916556 L23,15.3083444 C23,17.9829006 22.7215232,18.9527593 22.1986019,19.9305371 C21.6756806,20.9083149 20.9083149,21.6756806 19.9305371,22.1986019 C18.9527593,22.7215232 17.9829006,23 15.3083444,23 L8.6916556,23 C6.01709938,23 5.04724067,22.7215232 4.06946289,22.1986019 C3.09168511,21.6756806 2.32431939,20.9083149 1.80139811,19.9305371 C1.27847683,18.9527593 1,17.9829006 1,15.3083444 L1,8.6916556 C1,6.01709938 1.27847683,5.04724067 1.80139811,4.06946289 C2.32431939,3.09168511 3.09168511,2.32431939 4.06946289,1.80139811 C5.04724067,1.27847683 6.01709938,1 8.6916556,1 L15.3083444,1 Z M12.3603922,4 L11.6396078,4 C10.6862458,4 9.86541613,4.67291934 9.67844645,5.60776773 L9.67844645,5.60776773 L9.26148818,7.6925591 C9.10314368,8.4842816 8.4842816,9.10314368 7.6925591,9.26148818 L7.6925591,9.26148818 L5.60776773,9.67844645 C4.67291934,9.86541613 4,10.6862458 4,11.6396078 L4,11.6396078 L4,12.3603922 C4,13.3137542 4.67291934,14.1345839 5.60776773,14.3215535 L5.60776773,14.3215535 L7.6925591,14.7385118 C8.4842816,14.8968563 9.10314368,15.5157184 9.26148818,16.3074409 L9.26148818,16.3074409 L9.67844645,18.3922323 C9.86541613,19.3270807 10.6862458,20 11.6396078,20 L11.6396078,20 L12.3603922,20 C13.3137542,20 14.1345839,19.3270807 14.3215535,18.3922323 L14.3215535,18.3922323 L14.7385118,16.3074409 C14.8968563,15.5157184 15.5157184,14.8968563 16.3074409,14.7385118 L16.3074409,14.7385118 L18.3922323,14.3215535 C19.3270807,14.1345839 20,13.3137542 20,12.3603922 L20,12.3603922 L20,11.6396078 C20,10.6862458 19.3270807,9.86541613 18.3922323,9.67844645 L18.3922323,9.67844645 L16.3074409,9.26148818 C15.5157184,9.10314368 14.8968563,8.4842816 14.7385118,7.6925591 L14.7385118,7.6925591 L14.3215535,5.60776773 C14.1345839,4.67291934 13.3137542,4 12.3603922,4 L12.3603922,4 Z"/></svg>