<svg xmlns="http://www.w3.org/2000/svg" width="24" height="24" viewBox="0 0 24 24"><defs><linearGradient id="a" x1="36.838%" x2="66.777%" y1="-27.499%" y2="119.243%"><stop offset="0%" stop-color="#00A3F5" stop-opacity=".4"/><stop offset="100%" stop-color="#00A3F5" stop-opacity=".4"/></linearGradient><linearGradient id="b" x1="40.711%" x2="61.484%" y1="-19.75%" y2="131.845%"><stop offset="0%" stop-color="#00B4F5"/><stop offset="100%" stop-color="#1F69FF"/></linearGradient></defs><g fill="none" fill-rule="evenodd"><path fill="url(#a)" d="M21,3 L21,21 C21,22.6568542 19.6568542,24 18,24 L6,24 C4.34314575,24 3,22.6568542 3,21 L3,3 C3,1.34314575 4.34314575,3.04359188e-16 6,0 L18,0 C19.6568542,-3.04359188e-16 21,1.34314575 21,3 Z"/><path fill="url(#b)" d="M12,11 C9.23857625,11 7,13.2385763 7,16 C7,18.7614237 9.23857625,21 12,21 C14.7614237,21 17,18.7614237 17,16 C17,13.2385763 14.7614237,11 12,11 Z M12,3 C10.3431458,3 9,4.34314575 9,6 C9,7.65685425 10.3431458,9 12,9 C13.6568542,9 15,7.65685425 15,6 C15,4.34314575 13.6568542,3 12,3 Z"/></g></svg>