<svg xmlns="http://www.w3.org/2000/svg" width="24" height="24" viewBox="0 0 24 24"><defs><linearGradient id="a" x1="26.602%" x2="79.826%" y1="-27.499%" y2="119.243%"><stop offset="0%" stop-color="#47C2FF" stop-opacity=".24"/><stop offset="100%" stop-color="#0AF" stop-opacity=".5"/></linearGradient><linearGradient id="b" x1="40.009%" x2="100%" y1="30.469%" y2="72.866%"><stop offset="0%" stop-color="#00A3F5"/><stop offset="100%" stop-color="#7096FF"/></linearGradient></defs><g fill="none" fill-rule="evenodd"><path fill="url(#a)" d="M2,7 L22,7 C22.5522847,7 23,7.44771525 23,8 L23,20 C23,21.6568542 21.6568542,23 20,23 L4,23 C2.34314575,23 1,21.6568542 1,20 L1,8 C1,7.44771525 1.44771525,7 2,7 Z M3,1 L21,1 C22.1045695,1 23,1.8954305 23,3 L23,4 C23,4.55228475 22.5522847,5 22,5 L2,5 C1.44771525,5 1,4.55228475 1,4 L1,3 C1,1.8954305 1.8954305,1 3,1 Z"/><path fill="url(#b)" d="M5,10 L7,10 C7.55228475,10 8,10.4477153 8,11 L8,19 C8,19.5522847 7.55228475,20 7,20 L5,20 C4.44771525,20 4,19.5522847 4,19 L4,11 C4,10.4477153 4.44771525,10 5,10 Z M11,10 L13,10 C13.5522847,10 14,10.4477153 14,11 L14,13 C14,13.5522847 13.5522847,14 13,14 L11,14 C10.4477153,14 10,13.5522847 10,13 L10,11 C10,10.4477153 10.4477153,10 11,10 Z M17,10 L19,10 C19.5522847,10 20,10.4477153 20,11 L20,13 C20,13.5522847 19.5522847,14 19,14 L17,14 C16.4477153,14 16,13.5522847 16,13 L16,11 C16,10.4477153 16.4477153,10 17,10 Z M11,16 L13,16 C13.5522847,16 14,16.4477153 14,17 L14,19 C14,19.5522847 13.5522847,20 13,20 L11,20 C10.4477153,20 10,19.5522847 10,19 L10,17 C10,16.4477153 10.4477153,16 11,16 Z M17,16 L19,16 C19.5522847,16 20,16.4477153 20,17 L20,19 C20,19.5522847 19.5522847,20 19,20 L17,20 C16.4477153,20 16,19.5522847 16,19 L16,17 C16,16.4477153 16.4477153,16 17,16 Z"/></g></svg>