<svg xmlns="http://www.w3.org/2000/svg" width="24" height="24" viewBox="0 0 24 24"><path fill="#618A9E" fill-rule="evenodd" d="M22 7C22.5522847 7 23 7.44771525 23 8L23 20C23 21.6568542 21.6568542 23 20 23L4 23C2.34314575 23 1 21.6568542 1 20L1 8C1 7.44771525 1.44771525 7 2 7L22 7ZM7 10 5 10C4.44771525 10 4 10.4477153 4 11L4 11 4 19C4 19.5522847 4.44771525 20 5 20L5 20 7 20C7.55228475 20 8 19.5522847 8 19L8 19 8 11C8 10.4477153 7.55228475 10 7 10L7 10ZM13 16 11 16C10.4477153 16 10 16.4477153 10 17L10 17 10 19C10 19.5522847 10.4477153 20 11 20L11 20 13 20C13.5522847 20 14 19.5522847 14 19L14 19 14 17C14 16.4477153 13.5522847 16 13 16L13 16ZM19 16 17 16C16.4477153 16 16 16.4477153 16 17L16 17 16 19C16 19.5522847 16.4477153 20 17 20L17 20 19 20C19.5522847 20 20 19.5522847 20 19L20 19 20 17C20 16.4477153 19.5522847 16 19 16L19 16ZM13 10 11 10C10.4477153 10 10 10.4477153 10 11L10 11 10 13C10 13.5522847 10.4477153 14 11 14L11 14 13 14C13.5522847 14 14 13.5522847 14 13L14 13 14 11C14 10.4477153 13.5522847 10 13 10L13 10ZM19 10 17 10C16.4477153 10 16 10.4477153 16 11L16 11 16 13C16 13.5522847 16.4477153 14 17 14L17 14 19 14C19.5522847 14 20 13.5522847 20 13L20 13 20 11C20 10.4477153 19.5522847 10 19 10L19 10ZM3 1 21 1C22.1045695 1 23 1.8954305 23 3L23 4C23 4.55228475 22.5522847 5 22 5L2 5C1.44771525 5 1 4.55228475 1 4L1 3C1 1.8954305 1.8954305 1 3 1Z"/></svg>