<svg xmlns="http://www.w3.org/2000/svg" width="24" height="24" viewBox="0 0 24 24"><defs><linearGradient id="a" x1="26.602%" x2="79.826%" y1="-14.049%" y2="107.225%"><stop offset="0%" stop-color="#00A3F5" stop-opacity=".4"/><stop offset="100%" stop-color="#00A3F5" stop-opacity=".4"/></linearGradient><linearGradient id="b" x1="19.905%" x2="87.207%" y1="47.694%" y2="52.706%"><stop offset="0%" stop-color="#00B4F5"/><stop offset="100%" stop-color="#1F69FF"/></linearGradient><linearGradient id="c" x1="19.905%" x2="87.207%" y1="22.754%" y2="81.971%"><stop offset="0%" stop-color="#00B4F5"/><stop offset="100%" stop-color="#1F69FF"/></linearGradient></defs><g fill="none" fill-rule="evenodd"><path fill="url(#a)" d="M2,3 L22,3 C22.5522847,3 23,3.44771525 23,4 L23,20 C23,21.6568542 21.6568542,23 20,23 L4,23 C2.34314575,23 1,21.6568542 1,20 L1,4 C1,3.44771525 1.44771525,3 2,3 Z"/><rect width="22" height="4" x="1" y="1" fill="url(#b)" rx="2"/><path fill="url(#c)" d="M5,9 L7,9 C7.55228475,9 8,9.44771525 8,10 L8,18 C8,18.5522847 7.55228475,19 7,19 L5,19 C4.44771525,19 4,18.5522847 4,18 L4,10 C4,9.44771525 4.44771525,9 5,9 Z M11,9 L13,9 C13.5522847,9 14,9.44771525 14,10 L14,12 C14,12.5522847 13.5522847,13 13,13 L11,13 C10.4477153,13 10,12.5522847 10,12 L10,10 C10,9.44771525 10.4477153,9 11,9 Z M17,9 L19,9 C19.5522847,9 20,9.44771525 20,10 L20,12 C20,12.5522847 19.5522847,13 19,13 L17,13 C16.4477153,13 16,12.5522847 16,12 L16,10 C16,9.44771525 16.4477153,9 17,9 Z M11,15 L13,15 C13.5522847,15 14,15.4477153 14,16 L14,18 C14,18.5522847 13.5522847,19 13,19 L11,19 C10.4477153,19 10,18.5522847 10,18 L10,16 C10,15.4477153 10.4477153,15 11,15 Z M17,15 L19,15 C19.5522847,15 20,15.4477153 20,16 L20,18 C20,18.5522847 19.5522847,19 19,19 L17,19 C16.4477153,19 16,18.5522847 16,18 L16,16 C16,15.4477153 16.4477153,15 17,15 Z"/></g></svg>