<svg xmlns="http://www.w3.org/2000/svg" width="16" height="16" viewBox="0 0 16 16"><defs><linearGradient id="a" x1="40.009%" x2="100%" y1="0%" y2="108.537%"><stop offset="0%" stop-color="#00A3F5"/><stop offset="100%" stop-color="#476CFF"/></linearGradient></defs><path fill="url(#a)" fill-rule="evenodd" d="M13.5,12 C14.3284271,12 15,12.6715729 15,13.5 C15,14.3284271 14.3284271,15 13.5,15 L8.5,15 C7.67157288,15 7,14.3284271 7,13.5 C7,12.6715729 7.67157288,12 8.5,12 L13.5,12 Z M3.44673776,1.33636956 L3.56066017,1.43933983 L8.56066017,6.43933983 C9.10983496,6.98851461 9.14415838,7.85757702 8.66363044,8.44673776 L8.56066017,8.56066017 L3.56066017,13.5606602 C2.97487373,14.1464466 2.02512627,14.1464466 1.43933983,13.5606602 C0.890165043,13.0114854 0.855841619,12.142423 1.33636956,11.5532622 L1.43933983,11.4393398 L5.379,7.5 L1.43933983,3.56066017 C0.890165043,3.01148539 0.855841619,2.14242298 1.33636956,1.55326224 L1.43933983,1.43933983 C1.98851461,0.890165043 2.85757702,0.855841619 3.44673776,1.33636956 Z"/></svg>