<svg xmlns="http://www.w3.org/2000/svg" width="16" height="16" viewBox="0 0 16 16"><defs><linearGradient id="a" x1="40.009%" x2="100%" y1="11.719%" y2="94.817%"><stop offset="0%" stop-color="#00A3F5"/><stop offset="100%" stop-color="#7096FF"/></linearGradient></defs><path fill="url(#a)" fill-rule="evenodd" d="M13,1 C14.6568542,1 16,2.34314575 16,4 L16,12 C16,13.6568542 14.6568542,15 13,15 L3,15 C1.34314575,15 2.02906125e-16,13.6568542 0,12 L0,4 C-2.02906125e-16,2.34314575 1.34314575,1 3,1 L13,1 Z M3.5,10 C2.67157288,10 2,10.6715729 2,11.5 C2,12.3284271 2.67157288,13 3.5,13 C4.32842712,13 5,12.3284271 5,11.5 C5,10.6715729 4.32842712,10 3.5,10 Z M12.5,10 C11.6715729,10 11,10.6715729 11,11.5 C11,12.3284271 11.6715729,13 12.5,13 C13.3284271,13 14,12.3284271 14,11.5 C14,10.6715729 13.3284271,10 12.5,10 Z M3.5,3 C2.67157288,3 2,3.67157288 2,4.5 C2,5.32842712 2.67157288,6 3.5,6 C4.32842712,6 5,5.32842712 5,4.5 C5,3.67157288 4.32842712,3 3.5,3 Z M12.5,3 C11.6715729,3 11,3.67157288 11,4.5 C11,5.32842712 11.6715729,6 12.5,6 C13.3284271,6 14,5.32842712 14,4.5 C14,3.67157288 13.3284271,3 12.5,3 Z"/></svg>