<svg xmlns="http://www.w3.org/2000/svg" width="16" height="16" viewBox="0 0 16 16"><defs><linearGradient id="a" x1="40.009%" x2="100%" y1="11.719%" y2="94.817%"><stop offset="0%" stop-color="#00A3F5"/><stop offset="100%" stop-color="#7096FF"/></linearGradient></defs><path fill="url(#a)" fill-rule="evenodd" d="M14,1 C15.1045695,1 16,1.8954305 16,3 L16,8 C16,9.1045695 15.1045695,10 14,10 L2,10 C0.8954305,10 1.3527075e-16,9.1045695 0,8 L0,3 C-1.3527075e-16,1.8954305 0.8954305,1 2,1 L14,1 Z M5,4 L3,4 L3,7 L5,7 L5,4 Z M9,4 L7,4 L7,7 L9,7 L9,4 Z M13,4 L11,4 L11,7 L13,7 L13,4 Z M7.5,12 L14.5,12 C15.3284271,12 16,12.6715729 16,13.5 C16,14.3284271 15.3284271,15 14.5,15 L7.5,15 C6.67157288,15 6,14.3284271 6,13.5 C6,12.6715729 6.67157288,12 7.5,12 Z M1.5,12 L2.5,12 C3.32842712,12 4,12.6715729 4,13.5 C4,14.3284271 3.32842712,15 2.5,15 L1.5,15 C0.671572875,15 1.01453063e-16,14.3284271 0,13.5 C-1.01453063e-16,12.6715729 0.671572875,12 1.5,12 Z"/></svg>