<svg xmlns="http://www.w3.org/2000/svg" width="16" height="16" viewBox="0 0 16 16"><g fill="none" fill-rule="evenodd"><path fill="#618A9E" d="M12,2 C13.1045695,2 14,2.8954305 14,4 L14,12 C14,13.1045695 13.1045695,14 12,14 L4,14 C2.8954305,14 2,13.1045695 2,12 L2,4 C2,2.8954305 2.8954305,2 4,2 L12,2 Z M10,6 L6,6 L6,10 L10,10 L10,6 Z"/><rect width="3" height="5" x="4" fill="#618A9E" rx="1.5"/><rect width="3" height="5" x="9" fill="#618A9E" rx="1.5"/><rect width="3" height="4" x="4" y="12" fill="#618A9E" rx="1.5"/><rect width="3" height="4" x="9" y="12" fill="#618A9E" rx="1.5"/><rect width="5" height="3" x="11" y="9" fill="#618A9E" rx="1.5"/><rect width="5" height="3" x="11" y="4" fill="#618A9E" rx="1.5"/><rect width="5" height="3" y="9" fill="#618A9E" rx="1.5"/><rect width="5" height="3" y="4" fill="#618A9E" rx="1.5"/></g></svg>