<svg xmlns="http://www.w3.org/2000/svg" width="16" height="16" viewBox="0 0 16 16"><g fill="none" fill-rule="evenodd"><path fill="#618A9E" d="M14,1 C15.1045695,1 16,1.8954305 16,3 L16,8 C16,9.1045695 15.1045695,10 14,10 L2,10 C0.8954305,10 1.3527075e-16,9.1045695 0,8 L0,3 C-1.3527075e-16,1.8954305 0.8954305,1 2,1 L14,1 Z M5,4 L3,4 L3,7 L5,7 L5,4 Z M9,4 L7,4 L7,7 L9,7 L9,4 Z M13,4 L11,4 L11,7 L13,7 L13,4 Z"/><rect width="10" height="3" x="6" y="12" fill="#618A9E" rx="1.5"/><rect width="4" height="3" y="12" fill="#618A9E" rx="1.5"/></g></svg>