<svg xmlns="http://www.w3.org/2000/svg" width="16" height="16" viewBox="0 0 16 16"><defs><linearGradient id="a" x1="40.009%" x2="100%" y1="0%" y2="108.537%"><stop offset="0%" stop-color="#00A3F5"/><stop offset="100%" stop-color="#476CFF"/></linearGradient></defs><path fill="url(#a)" fill-rule="evenodd" d="M10.5,0 C11.3284271,-1.52179594e-16 12,0.671572875 12,1.5 L12,2 C13.1045695,2 14,2.8954305 14,4 L14.5,4 C15.3284271,4 16,4.67157288 16,5.5 C16,6.32842712 15.3284271,7 14.5,7 L14,7 L14,9 L14.5,9 C15.3284271,9 16,9.67157288 16,10.5 C16,11.3284271 15.3284271,12 14.5,12 L14,12 C14,13.1045695 13.1045695,14 12,14 L12,14.5 C12,15.3284271 11.3284271,16 10.5,16 C9.67157288,16 9,15.3284271 9,14.5 L9,14 L7,14 L7,14.5 C7,15.3284271 6.32842712,16 5.5,16 C4.67157288,16 4,15.3284271 4,14.5 L4,14 C2.8954305,14 2,13.1045695 2,12 L1.5,12 C0.671572875,12 1.01453063e-16,11.3284271 0,10.5 C-1.01453063e-16,9.67157288 0.671572875,9 1.5,9 L2,9 L2,7 L1.5,7 C0.671572875,7 1.01453063e-16,6.32842712 0,5.5 C-1.01453063e-16,4.67157288 0.671572875,4 1.5,4 L2,4 C2,2.8954305 2.8954305,2 4,2 L4,1.5 C4,0.671572875 4.67157288,1.52179594e-16 5.5,0 C6.32842712,-1.52179594e-16 7,0.671572875 7,1.5 L7,2 L9,2 L9,1.5 C9,0.671572875 9.67157288,1.52179594e-16 10.5,0 Z M10,6 L6,6 L6,10 L10,10 L10,6 Z"/></svg>