<svg xmlns="http://www.w3.org/2000/svg" width="16" height="16" viewBox="0 0 16 16"><path fill="#0A5CFF" fill-rule="evenodd" d="M16 4 16 4 16 4 12 4C9.790861 4 8 2.209139 8 0L8 0 8 0 12 0C14.209139-4.05812251e-16 16 1.790861 16 4ZM12 16 12 16 12 16 12 12C12 9.790861 13.790861 8 16 8L16 8 16 8 16 12C16 14.209139 14.209139 16 12 16ZM0 12 0 12 0 12 4 12C6.209139 12 8 13.790861 8 16L8 16 8 16 4 16C1.790861 16 2.705415e-16 14.209139 0 12ZM4 0 4 0 4 0 4 4C4 6.209139 2.209139 8 0 8L0 8 0 8 0 4C-2.705415e-16 1.790861 1.790861 4.05812251e-16 4 0Z"/></svg>