<svg xmlns="http://www.w3.org/2000/svg" width="16" height="16" viewBox="0 0 16 16"><g fill="none" fill-rule="evenodd"><rect width="4" height="4" x="6" y="6" fill="#0A5CFF" rx="2"/><path fill="#0A5CFF" d="M16,0 L16,5 L12,5 C9.23857625,5 7,2.76142375 7,0 L7,0 L7,0 L16,0 Z"/><path fill="#0A5CFF" d="M18,9 L18,14 L14,14 C11.2385763,14 9,11.7614237 9,9 L9,9 L9,9 L18,9 Z" transform="rotate(90 13.5 11.5)"/><path fill="#0A5CFF" d="M9,11 L9,16 L5,16 C2.23857625,16 3.38176876e-16,13.7614237 0,11 L0,11 L0,11 L9,11 Z" transform="rotate(-180 4.5 13.5)"/><path fill="#0A5CFF" d="M7,2 L7,7 L3,7 C0.238576251,7 -2,4.76142375 -2,2 L-2,2 L-2,2 L7,2 Z" transform="rotate(-90 2.5 4.5)"/></g></svg>