<svg xmlns="http://www.w3.org/2000/svg" width="16" height="16" viewBox="0 0 16 16"><defs><linearGradient id="a" x1="19.905%" x2="87.207%" y1="-19.75%" y2="131.845%"><stop offset="0%" stop-color="#00B4F5"/><stop offset="100%" stop-color="#1F69FF"/></linearGradient></defs><path fill="url(#a)" fill-rule="evenodd" d="M4,0 C5.1045695,-2.02906125e-16 6,0.8954305 6,2 L7,2 C7.55228475,2 8,2.44771525 8,3 C8,3.55228475 7.55228475,4 7,4 L6,4 C6,5.1045695 5.1045695,6 4,6 L2,6 C0.8954305,6 1.3527075e-16,5.1045695 0,4 L0,2 C-1.3527075e-16,0.8954305 0.8954305,2.02906125e-16 2,0 L4,0 Z M3,8 C3.55228475,8 4,8.44771525 4,9 L4,10 C5.1045695,10 6,10.8954305 6,12 L6,14 C6,15.1045695 5.1045695,16 4,16 L2,16 C0.8954305,16 1.3527075e-16,15.1045695 0,14 L0,12 C-1.3527075e-16,10.8954305 0.8954305,10 2,10 L2,9 C2,8.44771525 2.44771525,8 3,8 Z M9,14 C8.44771525,14 8,13.5522847 8,13 C8,12.4477153 8.44771525,12 9,12 L10,12 C10,10.8954305 10.8954305,10 12,10 L14,10 C15.1045695,10 16,10.8954305 16,12 L16,14 C16,15.1045695 15.1045695,16 14,16 L12,16 C10.8954305,16 10,15.1045695 10,14 L9,14 Z M14,0 C15.1045695,-2.02906125e-16 16,0.8954305 16,2 L16,4 C16,5.1045695 15.1045695,6 14,6 L14,7 C14,7.55228475 13.5522847,8 13,8 C12.4477153,8 12,7.55228475 12,7 L12,6 C10.8954305,6 10,5.1045695 10,4 L10,2 C10,0.8954305 10.8954305,2.02906125e-16 12,0 L14,0 Z"/></svg>