<svg xmlns="http://www.w3.org/2000/svg" width="16" height="16" viewBox="0 0 16 16"><path fill="#0A5CFF" fill-rule="evenodd" d="M9 13 15 13C15.5522847 13 16 13.4477153 16 14L16 15C16 15.5522847 15.5522847 16 15 16L9 16C8.44771525 16 8 15.5522847 8 15L8 14C8 13.4477153 8.44771525 13 9 13ZM2.70710678.707106781 8.29289322 6.29289322C8.68341751 6.68341751 8.68341751 7.31658249 8.29289322 7.70710678L2.70710678 13.2928932C2.31658249 13.6834175 1.68341751 13.6834175 1.29289322 13.2928932L.707106781 12.7071068C.316582489 12.3165825.316582489 11.6834175.707106781 11.2928932L5 7 5 7 .707106781 2.70710678C.316582489 2.31658249.316582489 1.68341751.707106781 1.29289322L1.29289322.707106781C1.68341751.316582489 2.31658249.316582489 2.70710678.707106781Z"/></svg>