<svg xmlns="http://www.w3.org/2000/svg" width="16" height="16" viewBox="0 0 16 16"><defs><linearGradient id="a" x1="40.009%" x2="100%" y1="0%" y2="108.537%"><stop offset="0%" stop-color="#00A3F5"/><stop offset="100%" stop-color="#7096FF"/></linearGradient></defs><path fill="url(#a)" fill-rule="evenodd" d="M15,7 L15,13 C15,14.1045695 14.1045695,15 13,15 L3,15 C1.8954305,15 1,14.1045695 1,13 L1,7 L6.01544425,9.86596814 C7.24517492,10.5686714 8.75482508,10.5686714 9.98455575,9.86596814 L15,7 Z M13,1 C14.1045695,1 15,1.8954305 15,3 L15,4 L8.99227788,7.43298407 C8.37741254,7.78433569 7.62258746,7.78433569 7.00772212,7.43298407 L1,4 L1,3 C1,1.8954305 1.8954305,1 3,1 L13,1 Z"/></svg>