<svg xmlns="http://www.w3.org/2000/svg" width="16" height="16" viewBox="0 0 16 16"><defs><linearGradient id="a" x1="19.905%" x2="87.207%" y1="-19.75%" y2="131.845%"><stop offset="0%" stop-color="#00B4F5"/><stop offset="100%" stop-color="#1F69FF"/></linearGradient></defs><path fill="url(#a)" fill-rule="evenodd" d="M4.5,1 C5.32842712,1 6,1.67157288 6,2.5 C6,3.27969612 5.40511192,3.92044868 4.64446001,3.99313342 L4.5,4 L4,4 L4,12 L12,12 L12,11.5 C12,10.7203039 12.5948881,10.0795513 13.35554,10.0068666 L13.5,10 C14.2796961,10 14.9204487,10.5948881 14.9931334,11.35554 L15,11.5 L15,13.5 C15,14.2796961 14.4051119,14.9204487 13.64446,14.9931334 L13.5,15 L2.5,15 C1.72030388,15 1.07955132,14.4051119 1.00686658,13.64446 L1,13.5 L1,2.5 C1,1.72030388 1.59488808,1.07955132 2.35553999,1.00686658 L2.5,1 L4.5,1 Z M13.5,1 C13.5732693,1 13.6453117,1.00525326 13.715771,1.01540368 C13.7529582,1.02088588 13.78992,1.02764698 13.8266347,1.03580091 C13.9070659,1.05352279 13.9851394,1.07786696 14.0602041,1.10810731 C14.0774421,1.11505308 14.0942894,1.12219067 14.111028,1.12965014 C14.1357226,1.1407086 14.1602476,1.15247454 14.1843923,1.16487619 C14.2068056,1.17627996 14.2286162,1.18816828 14.2501827,1.20063784 C14.2703252,1.21243952 14.28994,1.22440635 14.3092518,1.23680392 C14.3260503,1.24742018 14.3431968,1.25892303 14.3601522,1.2708177 C14.3847405,1.28822161 14.4083084,1.30581579 14.4313277,1.32407158 C14.4446661,1.3345543 14.4580971,1.34559602 14.4713775,1.35690656 C14.4952301,1.37726998 14.5182046,1.39807676 14.5405152,1.41956809 C14.5471234,1.42592897 14.5539159,1.43259558 14.5606602,1.43933983 L14.5804319,1.45948481 C14.6019232,1.48179537 14.62273,1.50476995 14.6428184,1.52837474 L14.5606602,1.43933983 C14.602113,1.48079269 14.6406325,1.52406813 14.6762186,1.56890819 C14.6941842,1.59169163 14.7117784,1.6152595 14.7286822,1.63934711 C14.741077,1.65680321 14.7525798,1.67394973 14.7636909,1.69127479 C14.7755937,1.71006004 14.7875605,1.72967478 14.799083,1.74957887 C14.8118317,1.77138383 14.82372,1.79319443 14.8350271,1.81522632 C14.9196869,1.98024342 14.9746927,2.1625568 14.9931334,2.35553999 L15,2.5 L15,6.5 C15,7.32842712 14.3284271,8 13.5,8 C12.7203039,8 12.0795513,7.40511192 12.0068666,6.64446001 L12,6.5 L12,6.12 L8.56066017,9.56066017 C7.97487373,10.1464466 7.02512627,10.1464466 6.43933983,9.56066017 C5.89016504,9.01148539 5.85584162,8.14242298 6.33636956,7.55326224 L6.43933983,7.43933983 L9.878,4 L9.5,4 C8.72030388,4 8.07955132,3.40511192 8.00686658,2.64446001 L8,2.5 C8,1.72030388 8.59488808,1.07955132 9.35553999,1.00686658 L9.5,1 L13.5,1 Z"/></svg>