<svg xmlns="http://www.w3.org/2000/svg" width="16" height="16" viewBox="0 0 16 16"><g fill="none" fill-rule="evenodd"><path fill="red" d="M5.16666667,3.10862447e-14 L7.83333333,3.10862447e-14 L7.83333333,3.10862447e-14 L7.83333333,5.33333333 L5.16666667,5.33333333 C3.69390733,5.33333333 2.5,4.139426 2.5,2.66666667 C2.5,1.19390733 3.69390733,3.13567862e-14 5.16666667,3.10862447e-14 Z"/><path fill="#FF7070" d="M7.83333333,3.10862447e-14 L10.5,3.10862447e-14 C11.9727593,3.08157032e-14 13.1666667,1.19390733 13.1666667,2.66666667 C13.1666667,4.139426 11.9727593,5.33333333 10.5,5.33333333 L7.83333333,5.33333333 L7.83333333,5.33333333 L7.83333333,3.10862447e-14 Z"/><circle cx="10.5" cy="8" r="2.667" fill="#4785FF"/><path fill="#7B00F5" d="M5.16666667,5.33333333 L7.83333333,5.33333333 L7.83333333,5.33333333 L7.83333333,10.6666667 L5.16666667,10.6666667 C3.69390733,10.6666667 2.5,9.47275933 2.5,8 C2.5,6.52724067 3.69390733,5.33333333 5.16666667,5.33333333 Z"/><path fill="#3C6" d="M5.16666667,10.6666667 L7.83333333,10.6666667 L7.83333333,10.6666667 L7.83333333,13.3333333 C7.83333333,14.8060927 6.639426,16 5.16666667,16 C3.69390733,16 2.5,14.8060927 2.5,13.3333333 C2.5,11.860574 3.69390733,10.6666667 5.16666667,10.6666667 Z"/></g></svg>