<svg xmlns="http://www.w3.org/2000/svg" width="16" height="16" viewBox="0 0 16 16"><g fill="#618A9E" transform="translate(1)"><path d="M13.333253,11.6162779 C12.9686145,12.4728719 12.7947262,12.8553199 12.3247009,13.6123879 C11.6702485,14.6691521 10.7481136,15.9864729 9.60466635,15.9976556 C8.58873715,16.0077201 8.32737777,15.296501 6.94891782,15.3043289 C5.57045787,15.3121568 5.28169791,16.0099566 4.26576871,16 C3.12232142,15.9887095 2.24866447,14.7999896 1.59315828,13.7421071 C-0.236357373,10.785404 -0.428161434,7.31653372 0.700531692,5.47250821 C1.50252559,4.16077872 2.76822162,3.39476448 3.95909299,3.39476448 C5.17104172,3.39476448 5.93193475,4.09927393 6.93416366,4.09927393 C7.90583039,4.09927393 8.49810446,3.39364621 9.89974952,3.39364621 C10.9588873,3.39364621 12.0812572,4.00533933 12.8800895,5.0621035 C10.2612264,6.58630409 10.6869893,10.5550406 13.333253,11.6162779 L13.333253,11.6162779 Z"/><path d="M8.93565871,2.36096902 C9.41138941,1.74863915 9.7721083,0.883504524 9.64054175,0 C8.86421197,0.0533601742 7.95631564,0.549347367 7.42569293,1.19579276 C6.94473441,1.78275467 6.54742086,2.65313784 6.70164125,3.49902782 C7.54941777,3.52527053 8.42594723,3.01703674 8.93565871,2.36096902 L8.93565871,2.36096902 Z"/></g></svg>