<svg xmlns="http://www.w3.org/2000/svg" width="16" height="16" viewBox="0 0 16 16"><defs><linearGradient id="a" x1="44.38%" x2="78.125%" y1="0%" y2="108.537%"><stop offset="0%" stop-color="#00A3F5"/><stop offset="100%" stop-color="#476CFF"/></linearGradient></defs><path fill="url(#a)" fill-rule="evenodd" d="M8,1 L8,1.5 C8,2.32842712 8.67157288,3 9.5,3 C10.3284271,3 11,2.32842712 11,1.5 L11,1 C11,0.44771525 11.4477153,1.01453063e-16 12,0 L12.5,0 C13.3284271,-1.52179594e-16 14,0.671572875 14,1.5 L14,5 C14,5.55228475 13.5522847,6 13,6 L3,6 C2.44771525,6 2,5.55228475 2,5 L2,2 C2,0.8954305 2.8954305,2.02906125e-16 4,0 L7,0 C7.55228475,-1.01453063e-16 8,0.44771525 8,1 Z M6,14 L6,12 L6,12 L2.75746437,11.1893661 C2.31229737,11.0780743 2,10.6780912 2,10.2192236 L2,9 C2,8.44771525 2.44771525,8 3,8 L13,8 C13.5522847,8 14,8.44771525 14,9 L14,10.2192236 C14,10.6780912 13.6877026,11.0780743 13.2425356,11.1893661 L10,12 L10,12 L10,14 C10,15.1045695 9.1045695,16 8,16 C6.8954305,16 6,15.1045695 6,14 Z"/></svg>