<svg xmlns="http://www.w3.org/2000/svg" width="16" height="16" viewBox="0 0 16 16"><defs><linearGradient id="a" x1="19.905%" x2="87.207%" y1="-19.75%" y2="131.845%"><stop offset="0%" stop-color="#00B4F5"/><stop offset="100%" stop-color="#1F69FF"/></linearGradient></defs><path fill="url(#a)" fill-rule="evenodd" d="M9.75735931,0 C10.5530088,-1.46158436e-16 11.3160705,0.316070521 11.8786797,0.878679656 L15.1213203,4.12132034 C15.6839295,4.68392948 16,5.44699122 16,6.24264069 L16,9.78427604 C16,11.1012906 15.1410324,12.2642977 13.8822575,12.6516131 L3.67583782,15.7920499 C3.26005199,15.919984 2.8076077,15.8076077 2.5,15.5 C2.22385763,15.2238576 2.22385763,14.7761424 2.5,14.5 L7.304534,9.69618537 C7.65966699,9.88990737 8.06697674,10 8.5,10 C9.88071187,10 11,8.88071187 11,7.5 C11,6.11928813 9.88071187,5 8.5,5 C7.11928813,5 6,6.11928813 6,7.5 C6,7.93342347 6.11029622,8.34108587 6.30435196,8.69645053 L1.79056942,13.2094306 C1.47587193,13.5241281 0.965646506,13.5241281 0.650949025,13.2094306 C0.589704631,13.1481862 0.538734356,13.0774687 0.5,13 C0.179855377,12.3597108 0.127176956,11.6184691 0.353553391,10.9393398 L3.31622777,2.0513167 C3.72456991,0.826290285 4.87098644,1.12538477e-15 6.16227766,0 L9.75735931,0 Z"/></svg>