<svg xmlns="http://www.w3.org/2000/svg" width="16" height="16" viewBox="0 0 16 16"><defs><linearGradient id="a" x1="40.009%" x2="100%" y1="0%" y2="108.537%"><stop offset="0%" stop-color="#00A3F5"/><stop offset="100%" stop-color="#7096FF"/></linearGradient></defs><path fill="url(#a)" fill-rule="evenodd" d="M10.3215535,1.60776773 L10.7385118,3.6925591 C10.8968563,4.4842816 11.5157184,5.10314368 12.3074409,5.26148818 L14.3922323,5.67844645 C15.3270807,5.86541613 16,6.68624577 16,7.63960781 L16,8.36039219 C16,9.31375423 15.3270807,10.1345839 14.3922323,10.3215535 L12.3074409,10.7385118 C11.5157184,10.8968563 10.8968563,11.5157184 10.7385118,12.3074409 L10.3215535,14.3922323 C10.1345839,15.3270807 9.31375423,16 8.36039219,16 L7.63960781,16 C6.68624577,16 5.86541613,15.3270807 5.67844645,14.3922323 L5.26148818,12.3074409 C5.10314368,11.5157184 4.4842816,10.8968563 3.6925591,10.7385118 L1.60776773,10.3215535 C0.672919336,10.1345839 5.60842387e-16,9.31375423 0,8.36039219 L0,7.63960781 C1.19480304e-15,6.68624577 0.672919336,5.86541613 1.60776773,5.67844645 L3.6925591,5.26148818 C4.4842816,5.10314368 5.10314368,4.4842816 5.26148818,3.6925591 L5.67844645,1.60776773 C5.86541613,0.672919336 6.68624577,1.06330819e-15 7.63960781,0 L8.36039219,0 C9.31375423,2.68959444e-16 10.1345839,0.672919336 10.3215535,1.60776773 Z"/></svg>