<svg xmlns="http://www.w3.org/2000/svg" width="16" height="16" viewBox="0 0 16 16"><g fill="none" fill-rule="evenodd"><rect width="3" height="3" x="2.5" y="2.5" stroke="#0A5CFF" stroke-width="3" rx="1.5"/><rect width="3" height="3" x="2.5" y="10.5" stroke="#0A5CFF" stroke-width="3" rx="1.5"/><path fill="#0A5CFF" d="M12.8682431,1.5194255 L15.1450635,5.50386106 C15.4190734,5.98337851 15.2524767,6.59423317 14.7729593,6.86824314 C14.6218616,6.95458468 14.4508473,7 14.2768203,7 L9.72317968,7 C9.17089493,7 8.72317968,6.55228475 8.72317968,6 C8.72317968,5.82597306 8.768595,5.65495876 8.85493654,5.50386106 L11.1317569,1.5194255 C11.4057668,1.03990805 12.0166215,0.873311325 12.4961389,1.14732129 C12.6511702,1.2359106 12.7796538,1.36439422 12.8682431,1.5194255 Z"/><rect width="3" height="3" x="10.5" y="10.5" stroke="#0A5CFF" stroke-width="3" rx="1.5"/></g></svg>