<svg xmlns="http://www.w3.org/2000/svg" width="16" height="16" viewBox="0 0 16 16"><path fill="#618A9E" fill-rule="evenodd" d="M9.99579992 2 9.99579992 11 9.99579992 11 11.9184153 8.44009679C12.5252288 7.63214325 13.6575165 7.43895886 14.4979 8 15.3353867 8.55910723 15.5837132 9.6787611 15.0611356 10.5395152L11.7459879 16 11.7459879 16 5.32129014 16C3.88586275 16 2.560489 15.2308557 1.84831757 13.9845558L1 12.5C.0147198649 10.7757598.613765388 8.57925951 2.33800562 7.59397938 2.45671276 7.52614673 2.57919205 7.46513962 2.70484683 7.41125523L5.99579992 6 5.99579992 6 5.99579992 2C5.99579992.8954305 6.89123042 6.99994624e-13 7.99579992 0 9.10036942-5.29566457e-14 9.99579992.8954305 9.99579992 2ZM2 0 4 0 4 0 4 4 2 4C.8954305 4 1.3527075e-16 3.1045695 0 2-1.3527075e-16.8954305.8954305 2.02906125e-16 2 0ZM12 0 14 0C15.1045695-2.02906125e-16 16 .8954305 16 2 16 3.1045695 15.1045695 4 14 4L12 4 12 4 12 0Z"/></svg>