<svg xmlns="http://www.w3.org/2000/svg" width="16" height="16" viewBox="0 0 16 16"><defs><linearGradient id="a" x1="40.009%" x2="100%" y1="0%" y2="108.537%"><stop offset="0%" stop-color="#00A3F5"/><stop offset="100%" stop-color="#7096FF"/></linearGradient></defs><path fill="url(#a)" fill-rule="evenodd" d="M7.99579992,0 C9.10036942,-5.29566457e-14 9.99579992,0.8954305 9.99579992,2 L9.99579992,11 L11.9184153,8.44009679 C12.5252288,7.63214325 13.6575165,7.43895886 14.4979,8 C15.3353867,8.55910723 15.5837132,9.6787611 15.0611356,10.5395152 L11.7459879,16 L5.32129014,16 C3.88586275,16 2.560489,15.2308557 1.84831757,13.9845558 L1,12.5 C0.0147198649,10.7757598 0.613765388,8.57925951 2.33800562,7.59397938 C2.45671276,7.52614673 2.57919205,7.46513962 2.70484683,7.41125523 L5.99579992,6 L5.99579992,2 C5.99579992,0.8954305 6.89123042,6.99994624e-13 7.99579992,0 Z M4,0 L4,4 L2,4 C0.8954305,4 1.3527075e-16,3.1045695 0,2 C-1.3527075e-16,0.8954305 0.8954305,2.02906125e-16 2,0 L4,0 Z M14,0 C15.1045695,-2.02906125e-16 16,0.8954305 16,2 C16,3.1045695 15.1045695,4 14,4 L12,4 L12,0 L14,0 Z"/></svg>