<svg xmlns="http://www.w3.org/2000/svg" width="16" height="16" viewBox="0 0 16 16"><path fill="#618A9E" fill-rule="evenodd" d="M10.6962066,12.4605477 C10.2796032,13.8337805 9.67859385,15.0237877 8.95317233,15.9449548 C8.64049758,15.9809198 8.322477,16 8,16 C7.67717994,16 7.35882578,15.9808792 7.0460083,15.9437083 C6.32087759,15.0227404 5.72017565,13.8331029 5.30360822,12.4601684 C6.16912209,12.5953175 7.07238948,12.6666667 8,12.6666667 C8.85691503,12.6666667 9.69305604,12.6057784 10.497851,12.4899535 L10.497851,12.4899535 Z M0.526195633,10.8638768 C1.4989227,11.4123997 2.61780738,11.8534603 3.83792619,12.161753 C4.14651278,13.3822394 4.58763828,14.5011664 5.13622404,15.4736831 C3.08786691,14.6869638 1.44395137,13.0825231 0.605958759,11.0596838 Z M15.4717989,10.8647422 C14.6606951,12.9789426 12.9780734,14.6613575 10.8637361,15.4721848 C11.4123373,14.5011908 11.8533986,13.382328 12.161753,12.1620738 C13.2511653,11.8866279 14.2596607,11.5055824 15.1554686,11.0368226 Z M8,4.66666667 C9.06439684,4.66666667 10.0871966,4.76780658 11.0460193,4.95457762 C11.2321934,5.91280337 11.3333333,6.93560316 11.3333333,8 C11.3333333,9.06439684 11.2321934,10.0871966 11.0454224,11.0460193 C10.0871966,11.2321934 9.06439684,11.3333333 8,11.3333333 C6.93560316,11.3333333 5.91280337,11.2321934 4.95398069,11.0454224 C4.76780658,10.0871966 4.66666667,9.06439684 4.66666667,8 C4.66666667,6.93560316 4.76780658,5.91280337 4.95457762,4.95398069 C5.91280337,4.76780658 6.93560316,4.66666667 8,4.66666667 Z M3.53983159,5.30360822 C3.40468253,6.16912209 3.33333333,7.07238948 3.33333333,8 C3.33333333,8.92761052 3.40468253,9.83087791 3.53945233,10.6962066 C2.16588459,10.2795016 0.975631915,9.67830069 0.0543712659,8.95264156 C0.0190802164,8.64049758 0,8.322477 0,8 C0,7.677523 0.0190802164,7.35950242 0.0561733019,7.04700561 C0.952384565,6.34006453 2.10560232,5.75113757 3.43496245,5.33595871 L3.43496245,5.33595871 Z M12.4605477,5.3037934 C13.8338403,5.72041493 15.0238913,6.32145852 15.9450149,7.04685979 C15.9809198,7.35950242 16,7.677523 16,8 C16,8.322477 15.9809198,8.64049758 15.9438267,8.95299439 C15.0237691,9.67860293 13.8336965,10.2796442 12.4601684,10.6963918 C12.5953175,9.83087791 12.6666667,8.92761052 12.6666667,8 C12.6666667,7.14308497 12.6057784,6.30694396 12.4899535,5.502149 L12.4899535,5.502149 Z M5.13612985,0.526193946 C4.58762443,1.49891659 4.14662727,2.61778525 3.83856397,3.83784605 C2.61798349,4.14642902 1.49897133,4.58756969 0.526386682,5.1361847 C1.3130362,3.08786691 2.91747689,1.44395137 4.94031619,0.605958759 Z M10.8637361,0.527815155 C12.9784088,1.33877113 14.6612289,3.02159118 15.4721848,5.13626392 C14.501197,4.58768691 13.3823501,4.1466889 12.162154,3.83856397 C11.8867107,2.74906559 11.5056525,1.74049145 11.036868,0.844618249 Z M8,0 C8.322477,0 8.64049758,0.0190802164 8.95299439,0.0561733019 C9.67830975,0.975650487 10.2795426,2.16596852 10.6963918,3.53983159 C9.83087791,3.40468253 8.92761052,3.33333333 8,3.33333333 C7.07238948,3.33333333 6.16912209,3.40468253 5.3037934,3.53945233 C5.72046847,2.1659832 6.32161299,0.975802813 7.04727829,0.0544362055 C7.35950242,0.0190802164 7.677523,0 8,0 Z"/></svg>