<svg xmlns="http://www.w3.org/2000/svg" width="16" height="16" viewBox="0 0 16 16"><defs><linearGradient id="a" x1="19.905%" x2="87.207%" y1="-3.403%" y2="112.662%"><stop offset="0%" stop-color="#00B4F5"/><stop offset="100%" stop-color="#1F69FF"/></linearGradient></defs><path fill="url(#a)" fill-rule="evenodd" d="M2,1 L14,1 C15.1045695,1 16,1.8954305 16,3 L16,5 L16,5 L0,5 L0,3 C-1.3527075e-16,1.8954305 0.8954305,1 2,1 Z M7,7 L16,7 L16,13 C16,14.1045695 15.1045695,15 14,15 L7,15 L7,15 L7,7 Z M0,7 L5,7 L5,15 L2,15 C0.8954305,15 1.3527075e-16,14.1045695 0,13 L0,7 L0,7 Z"/></svg>