<svg xmlns="http://www.w3.org/2000/svg" width="16" height="16" viewBox="0 0 16 16"><path fill="#E000E0" d="M3.13043478,3 L4.76811594,6.06060606 L6.42028986,3 L9.13043478,3 L6.07246377,7.89393939 L9.33333333,13 L6.36231884,13 L4.56521739,9.8030303 L2.82608696,13 L0,13 L3.24637681,7.96969697 L0.188405797,3 L3.13043478,3 Z M16,3 L16,12.8788089 L14.0771664,12.8788089 L13.952,11.0425 L13.9573846,11.2472732 C13.9592294,11.6360948 13.9084967,11.9052401 13.8051866,12.0547091 C13.5985663,12.3536473 13.3371284,12.5859303 13.0208729,12.7515582 C12.7046173,12.9171861 12.344086,13 11.9392789,13 C11.4164031,13 10.9588868,12.876789 10.5667299,12.630367 C10.1745731,12.3839451 9.87096774,12.0264312 9.65591398,11.5578255 C9.44086022,11.0892198 9.33333333,10.5277008 9.33333333,9.8732687 C9.33333333,9.19459834 9.44507696,8.6209603 9.6685642,8.15235457 C9.89205144,7.68374885 10.2040902,7.32421514 10.6046806,7.07375346 C11.0052709,6.82329178 11.467004,6.69806094 11.9898798,6.69806094 C12.5633565,6.69806094 13.0250896,6.86570868 13.3750791,7.20100416 C13.5349999,7.3542109 13.6689492,7.52639486 13.7769268,7.71755603 C13.7983156,7.7554224 13.8158684,7.80499959 13.8295852,7.86628761 L13.8493333,7.9925 L13.8494624,3 L16,3 Z M12.6982922,8.21295014 C12.3272191,8.21295014 12.0341556,8.34424054 11.8191018,8.60682133 C11.6040481,8.86940212 11.4965212,9.28347184 11.4965212,9.84903047 C11.4965212,10.4145891 11.6019397,10.8286588 11.8127767,11.0912396 C12.0236137,11.3538204 12.3145688,11.4851108 12.685642,11.4851108 C12.9302129,11.4851108 13.1389416,11.4224954 13.311828,11.2972645 C13.4847143,11.1720337 13.6175416,10.9841874 13.7103099,10.7337258 C13.8030782,10.4832641 13.8494624,10.1762465 13.8494624,9.81267313 C13.8494624,9.47333795 13.8051866,9.18449908 13.716635,8.94615651 C13.6280835,8.70781394 13.4973645,8.52602724 13.3244782,8.4007964 C13.1515918,8.27556556 12.9428632,8.21295014 12.6982922,8.21295014 Z"/></svg>