<svg xmlns="http://www.w3.org/2000/svg" width="80" height="48" viewBox="0 0 80 48"><defs><linearGradient id="a" x1="46.6%" x2="67.014%" y1="0%" y2="108.537%"><stop offset=".069%" stop-color="#CEF" stop-opacity=".947"/><stop offset="100%" stop-color="#05F"/></linearGradient><linearGradient id="b" x1="48.091%" x2="36.625%" y1="-19.209%" y2="89.033%"><stop offset=".069%" stop-color="#CEF" stop-opacity=".947"/><stop offset="100%" stop-color="#05F"/></linearGradient><linearGradient id="c" x1="59.634%" x2="29.242%" y1="-15.568%" y2="145.025%"><stop offset=".069%" stop-color="#CEF" stop-opacity=".947"/><stop offset="100%" stop-color="#05F"/></linearGradient></defs><g fill="none" fill-rule="evenodd"><path fill="url(#a)" d="M52,0 L62,0 C68.627417,0 74,5.372583 74,12 C74,14.3006526 73.3525643,16.4500885 72.2299513,18.2760494 C76.885203,21.0737158 80,26.173108 80,32 C80,40.836556 72.836556,48 64,48 L52,48 L52,0 Z"/><path fill="url(#b)" d="M52,0 L56,0 L56,0 L56,48 L52,48 C45.372583,48 40,42.627417 40,36 L40,12 C40,5.372583 45.372583,1.21743675e-15 52,0 Z"/><path fill="url(#c)" d="M28,16 L28.160111,15.5730374 C31.6728445,6.20574801 40.6277418,1.24958955e-14 50.6320112,0 C52.4213408,0 54.2106704,0 56,0 C47.5673014,10.842041 41.311452,22.7725066 37.2324517,35.7913968 C36.4500963,38.2955234 34.1308198,39.9999906 31.5073242,40 L28,40 L28,40 L25.5497035,40 C23.3405645,40 21.5497035,38.209139 21.5497035,36 C21.5497035,35.5700716 21.6190151,35.1429548 21.7549704,34.7350889 L28,16 L28,16 Z"/><path fill="url(#c)" d="M8,16 L8.16011097,15.5730374 C11.6728445,6.20574801 20.6277418,1.24958955e-14 30.6320112,0 C32.4213408,0 34.2106704,0 36,0 C27.5673014,10.842041 21.311452,22.7725066 17.2324517,35.7913968 C16.4500963,38.2955234 14.1308198,39.9999906 11.5073242,40 L8,40 L8,40 L5.54970355,40 C3.34056455,40 1.54970355,38.209139 1.54970355,36 C1.54970355,35.5700716 1.61901506,35.1429548 1.75497035,34.7350889 L8,16 L8,16 Z" transform="matrix(-1 0 0 1 36 0)"/><path fill="url(#b)" d="M12,0 L16,0 L16,0 L16,48 L12,48 C5.372583,48 8.11624501e-16,42.627417 0,36 L0,12 C-8.11624501e-16,5.372583 5.372583,1.21743675e-15 12,0 Z" transform="matrix(-1 0 0 1 16 0)"/></g></svg>