<svg xmlns="http://www.w3.org/2000/svg" width="24" height="24" viewBox="0 0 24 24"><g fill="none" fill-rule="evenodd"><circle cx="12" cy="12" r="12" fill="#C08"/><path fill="#E561B9" d="M13.373263,13.7652121 L13.7736144,13.6226032 L13.7736144,13.6226032 L14.0273166,14.2993941 C14.1087313,14.522425 14.1870253,14.7427604 14.2622939,14.9600122 L14.4791199,15.6021288 L14.4791199,15.6021288 L14.678368,16.223415 L14.678368,16.223415 L14.8606117,16.8215421 L14.8606117,16.8215421 L15.0264245,17.3941813 C15.0527226,17.4873678 15.07836,17.5793953 15.1033486,17.6702152 L15.2455904,18.2002561 L15.2455904,18.2002561 L15.3728352,18.6989872 L15.3728352,18.6989872 L15.5368373,19.3832838 L15.5368373,19.3832838 L15.6703219,19.9840339 L15.6703219,19.9840339 L15.7433133,20.334238 L15.7433133,20.334238 L15.8302366,20.7782782 L15.8302366,20.7782782 L15.9070263,21.2064095 L15.9070263,21.2064095 C14.7062933,21.7178669 13.3859369,22.0011952 12.0005952,22.0011952 C9.81038502,22.0011952 7.78259188,21.2931936 6.13346161,20.0943862 L5.86214978,19.8900777 L5.94057625,19.7385734 L5.94057625,19.7385734 L6.04953552,19.5448808 L6.04953552,19.5448808 L6.20374668,19.2910618 L6.20374668,19.2910618 L6.33283024,19.0919679 L6.33283024,19.0919679 L6.48373002,18.8714344 L6.48373002,18.8714344 L6.65712772,18.6315748 L6.65712772,18.6315748 L6.85370507,18.3745023 L6.85370507,18.3745023 L7.07414377,18.1023304 L7.07414377,18.1023304 L7.31912552,17.8171724 L7.31912552,17.8171724 L7.58933204,17.5211416 C7.73085512,17.3707602 7.88209312,17.217094 8.04342951,17.0613318 L8.37968043,16.7473649 C9.54615603,15.693841 11.1728108,14.5823822 13.373263,13.7652121 L13.373263,13.7652121 Z M21.8747078,13.5880348 C21.4289821,16.3706607 19.8318148,18.7737998 17.5882631,20.2908342 L17.4617284,19.6064131 L17.4617284,19.6064131 L17.3670672,19.1448702 L17.3670672,19.1448702 L17.2458946,18.5931545 L17.2458946,18.5931545 L17.0966511,17.9587144 L17.0966511,17.9587144 L16.9807907,17.4934746 L16.9807907,17.4934746 L16.8512993,16.9969857 L16.8512993,16.9969857 L16.7077151,16.4714548 L16.7077151,16.4714548 L16.549576,15.9190886 L16.549576,15.9190886 L16.2840663,15.0450513 L16.2840663,15.0450513 L16.0875187,14.4352527 L16.0875187,14.4352527 L15.8747992,13.8063433 C15.8011461,13.5937669 15.7247207,13.3783732 15.6454459,13.16053 C16.6900632,12.9933143 17.692395,12.9730759 18.5772344,13.0244097 L19.0477699,13.0590547 C19.1240998,13.0658608 19.1993456,13.0731451 19.273451,13.0808509 L19.7039447,13.1316914 C19.773262,13.1408568 19.8413257,13.1503305 19.9080793,13.1600557 L20.2924289,13.220973 L20.2924289,13.220973 L20.6426254,13.285209 L20.6426254,13.285209 L20.9559567,13.3500444 L20.9559567,13.3500444 L21.2297105,13.4127598 L21.2297105,13.4127598 L21.6476372,13.5209533 L21.6476372,13.5209533 L21.8747078,13.5880348 L21.8747078,13.5880348 Z M12.2830649,10.2718036 C12.5693788,10.8320988 12.8428235,11.4008531 13.0938567,11.9689587 C12.9615591,12.00622 12.8301298,12.0458083 12.6997787,12.0879382 C9.84659134,13.0101984 7.73184518,14.8129562 6.37332587,16.3054615 L6.07325365,16.6438363 L6.07325365,16.6438363 L5.8000783,16.9679444 L5.8000783,16.9679444 L5.55384838,17.2745336 L5.55384838,17.2745336 L5.33461247,17.5603522 L5.33461247,17.5603522 L5.14241915,17.8221482 L5.14241915,17.8221482 L4.97731698,18.0566696 L4.97731698,18.0566696 L4.72858038,18.430881 L4.72858038,18.430881 L4.57091257,18.6873007 L4.57091257,18.6873007 C2.97367707,16.9143644 2,14.5691612 2,12.0005952 C2,11.8983388 2.00202942,11.7965605 2.00509306,11.6950213 L2.59083736,11.6963093 L2.59083736,11.6963093 L3.04707511,11.6878459 L3.04707511,11.6878459 L3.61174397,11.6684913 L3.61174397,11.6684913 L4.27481109,11.6344533 L4.27481109,11.6344533 L5.02624365,11.5819397 L5.02624365,11.5819397 L5.5713361,11.5347936 L5.5713361,11.5347936 L6.14827035,11.4766269 C6.24691439,11.4659517 6.34676131,11.4547705 6.44774918,11.4430598 L7.06687231,11.3662556 L7.06687231,11.3662556 L7.71040551,11.2756217 C9.12902471,11.0634548 10.6985987,10.7459921 12.2830649,10.2718036 Z M19.7416862,5.6764482 C21.1345212,7.37819877 21.9779935,9.54570095 22,11.9061199 L21.4686212,11.8056955 L21.4686212,11.8056955 L21.2054363,11.7618669 L21.2054363,11.7618669 L20.7302643,11.6906053 L20.7302643,11.6906053 L20.1685447,11.6183969 L20.1685447,11.6183969 L19.7514975,11.5728851 L19.7514975,11.5728851 L19.3042562,11.5316823 L19.3042562,11.5316823 L18.8301297,11.4966803 L18.8301297,11.4966803 L18.3324265,11.469771 C18.247695,11.4660656 18.1621191,11.4627763 18.0757675,11.4599424 L17.548903,11.4487194 L17.548903,11.4487194 L17.0067335,11.450319 C16.366561,11.4604006 15.7018959,11.5005239 15.0363812,11.5842082 L14.8209311,11.0681163 L14.8209311,11.0681163 C14.6132425,10.5804167 14.390148,10.095932 14.1574478,9.6195796 C15.7421297,8.97259992 16.9554663,8.20830871 17.841285,7.52364181 L18.1782488,7.2544885 C18.2315328,7.21049299 18.2833871,7.16696806 18.3338248,7.12397208 L18.6195545,6.87281028 C18.6643773,6.83216346 18.7078095,6.79216229 18.749864,6.75286511 L18.985762,6.52599677 L18.985762,6.52599677 L19.1892181,6.31882515 L19.1892181,6.31882515 L19.4349372,6.05112598 L19.4349372,6.05112598 L19.6111682,5.84349929 L19.6111682,5.84349929 L19.7416862,5.6764482 L19.7416862,5.6764482 Z M7.74887504,2.9502168 L8.27098777,3.68458417 L8.27098777,3.68458417 L8.56132633,4.10449662 L8.56132633,4.10449662 L9.14315966,4.96778979 L9.14315966,4.96778979 L9.67689165,5.78573492 L9.67689165,5.78573492 L10.1054173,6.46191729 L10.1054173,6.46191729 L10.5498551,7.1836191 L10.5498551,7.1836191 L10.8513063,7.6863784 L10.8513063,7.6863784 L11.1543082,8.20387286 L11.1543082,8.20387286 L11.4566524,8.73390417 L11.4566524,8.73390417 C10.2371431,9.0577523 9.05553679,9.295959 7.96702664,9.47106286 L7.32553362,9.56873314 L7.32553362,9.56873314 L6.70903294,9.65234059 L6.70903294,9.65234059 L6.12017387,9.72296706 L6.12017387,9.72296706 L5.56160566,9.78169441 L5.56160566,9.78169441 L5.03597759,9.82960449 L5.03597759,9.82960449 L4.54593893,9.86777914 L4.54593893,9.86777914 L3.88340635,9.90915376 L3.88340635,9.90915376 L3.14931897,9.94034322 L3.14931897,9.94034322 L2.60527603,9.95206434 L2.60527603,9.95206434 L2.21124005,9.95235549 L2.21124005,9.95235549 C2.85973204,6.84908637 4.95105296,4.26987562 7.74887504,2.9502168 Z M12.0005952,2 C14.5416275,2 16.8638875,2.95313896 18.6299257,4.5199966 L18.515234,4.67341118 L18.515234,4.67341118 L18.4169044,4.79517464 L18.4169044,4.79517464 L18.2901698,4.94330676 L18.2901698,4.94330676 L18.1342183,5.11505593 C18.1057466,5.14549601 18.0760236,5.17680549 18.0450326,5.20892704 L17.8437336,5.41094255 L17.8437336,5.41094255 L17.611188,5.62969614 L17.611188,5.62969614 L17.3465842,5.86243619 C16.5038732,6.57888444 15.2174142,7.44700346 13.3885664,8.13247421 L13.0890364,7.59131179 C13.0389161,7.50222126 12.9887283,7.41371137 12.9385208,7.32582571 L12.637422,6.80635103 L12.637422,6.80635103 L12.1899061,6.0598043 L12.1899061,6.0598043 L11.7542307,5.35873052 L11.7542307,5.35873052 L11.3381381,4.71018859 L11.3381381,4.71018859 L10.8271915,3.93938282 L10.8271915,3.93938282 L10.2847782,3.15034301 L10.2847782,3.15034301 L9.76933447,2.4299226 L9.76933447,2.4299226 L9.65705555,2.27800598 L9.65705555,2.27800598 C10.4090918,2.096734 11.1937012,2 12.0005952,2 Z"/></g></svg>