<svg width="24" height="24" viewBox="0 0 24 24" fill="none" xmlns="http://www.w3.org/2000/svg">
    <path fill-rule="evenodd" clip-rule="evenodd" d="M12 24C18.6274 24 24 18.6274 24 12C24 5.37258 18.6274 0 12 0C5.37258 0 0 5.37258 0 12C0 18.6274 5.37258 24 12 24ZM13.7736 13.6226L13.3733 13.7652C11.1728 14.5824 9.54616 15.6938 8.37968 16.7474L8.04343 17.0613C7.88209 17.2171 7.73085 17.3708 7.58933 17.5211L7.31913 17.8172L7.07414 18.1023L6.8537 18.3745L6.65713 18.6316L6.48373 18.8714L6.33283 19.092L6.20375 19.2911L6.04954 19.5449L5.94058 19.7386L5.86215 19.8901L6.13346 20.0944C7.78259 21.2932 9.81038 22.0012 12.0006 22.0012C13.3859 22.0012 14.7063 21.7179 15.907 21.2064L15.8302 20.7783L15.7433 20.3342L15.6703 19.984L15.5368 19.3833L15.3728 18.699L15.2456 18.2003L15.1033 17.6702C15.0784 17.5794 15.0527 17.4874 15.0264 17.3942L14.8606 16.8215L14.6784 16.2234L14.4791 15.6021L14.2623 14.96C14.187 14.7428 14.1087 14.5224 14.0273 14.2994L13.7736 13.6226ZM17.5883 20.2908C19.8318 18.7738 21.429 16.3707 21.8747 13.588L21.6476 13.521L21.2297 13.4128L20.956 13.35L20.6426 13.2852L20.2924 13.221L19.9081 13.1601C19.8413 13.1503 19.7733 13.1409 19.7039 13.1317L19.2735 13.0809C19.1993 13.0731 19.1241 13.0659 19.0478 13.0591L18.5772 13.0244C17.6924 12.9731 16.6901 12.9933 15.6454 13.1605C15.7247 13.3784 15.8011 13.5938 15.8748 13.8063L16.0875 14.4353L16.2841 15.0451L16.5496 15.9191L16.7077 16.4715L16.8513 16.997L16.9808 17.4935L17.0967 17.9587L17.2459 18.5932L17.3671 19.1449L17.4617 19.6064L17.5883 20.2908ZM13.0939 11.969C12.8428 11.4009 12.5694 10.8321 12.2831 10.2718C10.6986 10.746 9.12902 11.0635 7.71041 11.2756L7.06687 11.3663L6.44775 11.4431C6.34676 11.4548 6.24691 11.466 6.14827 11.4766L5.57134 11.5348L5.02624 11.5819L4.27481 11.6345L3.61174 11.6685L3.04708 11.6878L2.59084 11.6963L2.00509 11.695C2.00203 11.7966 2 11.8983 2 12.0006C2 14.5692 2.97368 16.9144 4.57091 18.6873L4.72858 18.4309L4.97732 18.0567L5.14242 17.8221L5.33461 17.5604L5.55385 17.2745L5.80008 16.9679L6.07325 16.6438L6.37333 16.3055C7.73184 14.813 9.84659 13.0102 12.6998 12.0879C12.8301 12.0458 12.9616 12.0062 13.0939 11.969ZM22 11.9061C21.978 9.5457 21.1345 7.3782 19.7417 5.67645L19.6112 5.8435L19.4349 6.05113L19.1892 6.31883L18.9858 6.526L18.7499 6.75286C18.7078 6.79216 18.6644 6.83216 18.6196 6.87281L18.3338 7.12397C18.2834 7.16697 18.2315 7.21049 18.1782 7.25449L17.8413 7.52364C16.9555 8.20831 15.7421 8.9726 14.1574 9.61958C14.3901 10.0959 14.6132 10.5804 14.8209 11.0681L15.0364 11.5842C15.7019 11.5005 16.3666 11.4604 17.0067 11.4503L17.5489 11.4487L18.0758 11.4599C18.1621 11.4628 18.2477 11.4661 18.3324 11.4698L18.8301 11.4967L19.3043 11.5317L19.7515 11.5729L20.1685 11.6184L20.7303 11.6906L21.2054 11.7619L21.4686 11.8057L22 11.9061ZM8.27099 3.68458L7.74887 2.95022C4.95105 4.26988 2.85973 6.84909 2.21124 9.95236L2.60528 9.95206L3.14932 9.94034L3.88341 9.90915L4.54594 9.86778L5.03598 9.82961L5.56161 9.78169L6.12017 9.72297L6.70903 9.65234L7.32553 9.56873L7.96703 9.47106C9.05554 9.29596 10.2371 9.05775 11.4567 8.7339L11.1543 8.20387L10.8513 7.68638L10.5499 7.18362L10.1054 6.46192L9.67689 5.78574L9.14316 4.96779L8.56133 4.1045L8.27099 3.68458ZM18.6299 4.52C16.8639 2.95314 14.5416 2 12.0006 2C11.1937 2 10.4091 2.09673 9.65705 2.27801L9.76933 2.42992L10.2848 3.15034L10.8272 3.93938L11.3381 4.71019L11.7542 5.35873L12.1899 6.0598L12.6374 6.80635L12.9385 7.32583C12.9887 7.41371 13.0389 7.50222 13.089 7.59131L13.3886 8.13247C15.2174 7.447 16.5039 6.57888 17.3466 5.86244L17.6112 5.6297L17.8437 5.41094L18.045 5.20893C18.076 5.17681 18.1057 5.1455 18.1342 5.11506L18.2902 4.94331L18.4169 4.79517L18.5152 4.67341L18.6299 4.52Z" fill="hsl(136, 100%, 44%)" />
</svg>