<svg width="24" height="24" viewBox="0 0 24 24" fill="none" xmlns="http://www.w3.org/2000/svg">
    <path d="M15 23.6219C20.1757 22.2898 24 17.5915 24 12C24 5.37258 18.6274 0 12 0C5.37258 0 0 5.37258 0 12C0 17.5923 3.82537 22.2911 9.00214 23.6225C9.00295 22.8046 9.00307 21.8262 9.00004 21.2932C5.66205 22.0367 4.96748 19.6438 4.96748 19.6438C4.42183 18.2225 3.63514 17.8441 3.63514 17.8441C2.5456 17.0807 3.71757 17.0961 3.71757 17.0961C4.92181 17.1832 5.55563 18.3641 5.55563 18.3641C6.62609 20.2443 8.31627 19.815 9.00004 19.5C9.10907 18.7049 9.46698 18.0491 9.80982 17.7416C7.14515 17.431 4.34382 16.3755 4.34382 11.6606C4.34382 10.3174 4.81138 9.21913 5.57899 8.35904C5.4556 8.04778 6 5.00001 6 5.00001C6 5.00001 6.70417 4.77203 8.99654 6.36417C9.95369 6.09127 10.9802 6.00476 12.0007 6C13.0198 6.00476 14.0464 6.09127 15.005 6.36417C17.2959 4.77203 18 5.00001 18 5.00001C18 5.00001 18.5444 8.04778 18.421 8.35904C19.1901 9.21913 19.6545 10.3174 19.6545 11.6606C19.6545 16.3873 16.8488 17.4273 14.1755 17.732C14.6064 18.1118 15 18.8628 15 20.0105V23.6219Z" fill="hsl(136, 100%, 44%)" />
</svg>