<svg xmlns="http://www.w3.org/2000/svg" width="24" height="24" viewBox="0 0 24 24"><path fill="#5E00E0" fill-rule="evenodd" d="M11.999225,0 C5.373185,0 0,5.50854798 0,12.3045432 C0,17.7400576 3.43803,22.3516666 8.20693,23.9788482 C8.80695,24.0916949 9.02596,23.7118448 9.02596,23.3857728 C9.02596,23.0936901 9.015575,22.3199381 9.009755,21.2931578 C5.671765,22.0366937 4.96744,19.6438396 4.96744,19.6438396 C4.421785,18.2224755 3.635095,17.8440609 3.635095,17.8440609 C2.54556,17.0806595 3.71753,17.0961418 3.71753,17.0961418 C4.921765,17.1831555 5.55559,18.3640977 5.55559,18.3640977 C6.626045,20.2443178 8.36414,19.7013908 9.047915,19.386423 C9.15694,18.5912982 9.466935,18.0491299 9.80978,17.7415597 C7.145105,17.4310469 4.343775,16.3754859 4.343775,11.6606273 C4.343775,10.3174386 4.81134,9.21913207 5.578945,8.35904818 C5.455555,8.04778177 5.043755,6.79682056 5.69659,5.10286505 C5.69659,5.10286505 6.70413,4.77203556 8.996495,6.36417686 C9.95365,6.0912779 10.980195,5.95479253 12.000705,5.95003505 C13.01974,5.95479253 14.04636,6.0912779 15.004915,6.36417686 C17.29588,4.77203556 18.30158,5.10286505 18.30158,5.10286505 C18.956255,6.79682056 18.544385,8.04778177 18.420995,8.35904818 C19.190075,9.21913207 19.65447,10.3174438 19.65447,11.6606273 C19.65447,16.387272 16.848795,17.4273455 14.1755,17.7319679 C14.606375,18.1118179 14.99018,18.8627566 14.99018,20.0104681 C14.99018,21.6553262 14.975445,22.9823507 14.975445,23.3857677 C14.975445,23.7147824 15.191585,24.0975802 15.80059,23.9774077 C20.564835,22.3472065 24,17.7386222 24,12.3045432 C24,5.50854798 18.62674,0 11.999225,0 Z"/></svg>