<svg xmlns="http://www.w3.org/2000/svg" width="24" height="24" viewBox="0 0 24 24"><path fill="#0A99FF" d="M24,4.36754277 C23.116985,4.7691052 22.168055,5.04056308 21.171965,5.16258223 C22.188625,4.53773075 22.969365,3.54823689 23.33697,2.36921061 C22.38563,2.94782616 21.33185,3.36802036 20.21025,3.59447794 C19.31207,2.61315663 18.03238,2 16.616225,2 C13.8968,2 11.69219,4.26064335 11.69219,7.04891354 C11.69219,7.44467724 11.73574,7.82997147 11.819665,8.19954097 C7.727465,7.98899782 4.099315,5.97889903 1.670775,2.92418011 C1.246935,3.6699074 1.00415,4.53720267 1.00415,5.46252099 C1.00415,7.21417953 1.87344,8.75960166 3.194615,9.66505771 C2.38748,9.6388635 1.628255,9.41170351 0.964365,9.03352053 C0.96402,9.05461843 0.963945,9.07572145 0.963945,9.09699367 C0.963945,11.5433446 2.661205,13.5840418 4.913745,14.0478468 C4.500535,14.1631752 4.06554,14.2248949 3.616495,14.2248949 C3.299205,14.2248949 2.99075,14.1932454 2.690095,14.1343457 C3.31669,16.14023 5.1351,17.60003 7.28974,17.640821 C5.60456,18.9949624 3.48147,19.8021325 1.17458,19.8021325 C0.777135,19.8021274 0.38518,19.7782198 0,19.731625 C2.17907,21.1641696 4.767235,22 7.547865,22 C16.604735,22 21.557315,14.3064665 21.557315,7.63437885 C21.557315,7.4154837 21.55252,7.19773701 21.543085,6.98122082 C22.505055,6.26934245 23.33989,5.38006231 24,4.36754277 Z"/></svg>