<svg width="24" height="24" viewBox="0 0 24 24" fill="none" xmlns="http://www.w3.org/2000/svg">
    <path d="M24 4.36754C23.117 4.76911 22.1681 5.04056 21.172 5.16258C22.1886 4.53773 22.9694 3.54824 23.337 2.36921C22.3856 2.94783 21.3319 3.36802 20.2103 3.59448C19.3121 2.61316 18.0324 2 16.6162 2C13.8968 2 11.6922 4.26064 11.6922 7.04891C11.6922 7.44468 11.7357 7.82997 11.8197 8.19954C7.72747 7.989 4.09932 5.9789 1.67078 2.92418C1.24694 3.66991 1.00415 4.5372 1.00415 5.46252C1.00415 7.21418 1.87344 8.7596 3.19461 9.66506C2.38748 9.63886 1.62826 9.4117 0.964365 9.03352C0.96402 9.05462 0.963945 9.07572 0.963945 9.09699C0.963945 11.5433 2.6612 13.584 4.91374 14.0478C4.50053 14.1632 4.06554 14.2249 3.61649 14.2249C3.2992 14.2249 2.99075 14.1932 2.69009 14.1343C3.31669 16.1402 5.1351 17.6 7.28974 17.6408C5.60456 18.995 3.48147 19.8021 1.17458 19.8021C0.777135 19.8021 0.38518 19.7782 0 19.7316C2.17907 21.1642 4.76723 22 7.54786 22C16.6047 22 21.5573 14.3065 21.5573 7.63438C21.5573 7.41548 21.5525 7.19774 21.5431 6.98122C22.5051 6.26934 23.3399 5.38006 24 4.36754Z" fill="hsl(136, 100%, 44%)" />
</svg>