<svg xmlns="http://www.w3.org/2000/svg" width="12" height="12" viewBox="0 0 12 12"><path fill="#4785FF" d="M7.8299869,8.43582505 C7.9638619,8.35055778 8.1286744,8.41084587 8.2929244,8.49658267 L8.5811629,8.65245048 C8.6420569,8.68166523 8.6998369,8.70342153 8.7524869,8.71003256 C8.8649869,8.72400587 9.0009094,8.70789148 9.14132065,8.68256147 L9.5570869,8.59979663 C9.7310269,8.56927771 9.8792869,8.55948136 9.9569869,8.61988214 C10.0679869,8.70616897 10.0991502,8.81894898 10.1161093,8.94672777 L10.1390991,9.14820825 C10.14389,9.18318425 10.149844,9.21873847 10.1579869,9.25469131 C10.2747878,9.53356774 10.4922445,9.7580941 10.7669869,9.88349045 C11.0302369,10.0344924 11.0429869,10.229067 10.9424869,10.4011041 C10.7055057,10.6348371 10.4206991,10.8142601 10.1077369,10.9269815 C9.76109137,11.1085969 9.44541547,11.3441647 9.1724869,11.624896 C8.87596332,11.9924218 8.36462295,12.1047863 7.9417369,11.8953472 C7.4478619,11.5651713 7.51508065,11.0477924 7.59790878,10.7064182 L7.6657369,10.4371643 L7.6657369,10.4371643 C7.72105635,10.011546 7.75260546,9.58316548 7.7602369,9.15402335 L7.73807528,8.85956428 C7.72615878,8.68021719 7.7306119,8.49874252 7.8299869,8.43582505 Z M2.7134869,8.20669274 C2.9459869,8.16687631 3.1777369,8.39976488 3.3472369,8.65744482 C3.66713528,9.21732071 4.01844837,9.75858991 4.3994869,10.2786498 C4.79790063,10.6212533 4.89791081,11.1986905 4.6379869,11.6556974 C4.37786925,12.0786089 3.92902929,12.0032912 3.54585516,11.8742428 L3.16612831,11.7335216 C3.11125939,11.7136401 3.06161925,11.6973256 3.0187369,11.68725 L2.2316088,11.4915572 L2.2316088,11.4915572 L1.69149723,11.3481327 L1.69149723,11.3481327 L1.41286913,11.2675866 C1.37551789,11.2560305 1.34344145,11.2455813 1.3177369,11.2364979 C1.0349869,11.1365812 0.984736901,10.9667979 1.0034869,10.815796 C1.00884404,10.7726526 1.02650731,10.727976 1.049742,10.6786824 L1.12942568,10.5138666 C1.17088996,10.4214493 1.2097369,10.3117049 1.2232369,10.1742255 C1.2295369,10.1100685 1.2282169,10.031848 1.2234469,9.94624716 L1.19276815,9.53378197 C1.1784244,9.30202028 1.1816119,9.08678616 1.2674869,8.99250386 C1.4392369,8.80393924 2.0167369,8.91662726 2.1674869,8.79116793 C2.2051744,8.7598031 2.2436119,8.71007951 2.28370174,8.65251471 L2.40983065,8.46681425 C2.4984244,8.34135492 2.5972369,8.22660096 2.7134869,8.20669274 Z M6.8534869,10.599435 C6.7918446,10.8663194 6.77787892,11.1420304 6.8122369,11.4137937 C6.38430652,11.3588252 5.95222868,11.3434849 5.5214869,11.3679673 C5.54700176,11.1917889 5.54345455,11.012609 5.5109869,10.8375823 C5.6189869,10.8480999 5.7277369,10.8548612 5.8439869,10.8548612 C6.19659338,10.8562456 6.54383532,10.7683856 6.8534869,10.599435 Z M6.1132369,0 C7.02206506,0 7.76787255,0.699140939 7.84386107,1.58977751 L7.8502369,1.739903 L7.8502369,3.31002272 C7.8502369,3.65814202 8.12630791,4.07425641 8.44843444,4.46382493 L8.69507077,4.74954676 L8.69507077,4.74954676 L9.0502369,5.14007614 L9.0502369,5.14007614 C9.55820809,5.759951 9.87832822,6.51257814 9.9727369,7.30894486 C9.98938027,7.48623793 9.99288987,7.66452236 9.9832369,7.84233482 C9.91638354,7.83047716 9.84863011,7.82444456 9.7807369,7.82430473 C9.64907612,7.82902713 9.51796259,7.84268349 9.38829396,7.86514947 L8.97276468,7.94940235 C8.93782023,7.95535673 8.9057369,7.96003119 8.8792369,7.96253537 L8.7832369,7.90844512 C8.62912788,7.81732199 8.46471607,7.7449406 8.2934869,7.69283538 C8.30083052,7.15644713 8.23085942,6.62180439 8.0857369,6.10543683 C7.83419468,5.47405885 7.55551247,4.85398763 7.25049837,4.24695407 L6.9367369,3.64433051 L6.8894869,3.63306171 C6.85203189,3.66996693 6.81086162,3.7027763 6.76667995,3.7309866 L6.6982369,3.76978984 C6.63607023,3.80000692 6.57145912,3.84276344 6.50311962,3.89099412 L6.28563196,4.04504333 C6.09293135,4.17532758 5.86890357,4.29566726 5.5934869,4.29566726 C5.2960369,4.29566726 5.1117169,4.13312606 4.9724869,3.97177485 L4.8457669,3.81688441 C4.8068569,3.76942924 4.7704369,3.7281704 4.7339869,3.69917201 C4.78124515,4.14776798 4.69290951,4.5987002 4.48273239,4.99434893 L4.3852369,5.16035998 C3.90603425,5.91431203 3.55147395,6.7408035 3.3352369,7.60794374 C3.16244869,7.50666901 2.96617578,7.45253253 2.7659869,7.45093177 C2.70897161,7.45098348 2.65204781,7.45550481 2.5957369,7.46445433 C2.55699031,7.47184195 2.5186817,7.48137241 2.4809869,7.49300196 L2.5834309,7.26499353 L2.5834309,7.26499353 L2.8434349,6.76202634 C2.8877209,6.67492902 2.9307589,6.58684605 2.9699629,6.49875107 L3.0734869,6.23540368 C3.24622915,5.75546965 3.48857818,5.30362814 3.7927369,4.89441626 C3.8703619,4.78604795 3.94095565,4.70242405 4.00435409,4.63174753 L4.1727994,4.44676311 C4.24606503,4.36189494 4.30277206,4.27961508 4.34236678,4.16010856 L4.3762369,4.02671852 L4.3762369,1.739903 C4.3762369,0.778981108 5.15391829,0 6.1132369,0 Z M5.1209869,1.87512862 C4.9402369,1.89015369 4.8134869,2.13806733 4.8382369,2.42880242 C4.84426902,2.5517035 4.88414698,2.6698961 4.95261109,2.77064811 L5.0092369,2.84274307 L5.10059715,2.78449702 L5.2357369,2.71653249 L5.2357369,2.71653249 C5.31024137,2.68299831 5.38821348,2.65780398 5.4682369,2.64140715 C5.49261209,2.55448949 5.50199686,2.46404187 5.4959869,2.37396092 C5.4674869,2.08322583 5.3017369,1.86010355 5.1209869,1.87512862 Z M6.3457369,1.80826707 C6.1394869,1.79098824 5.9504869,2.04190689 5.9234869,2.3694534 C5.91522988,2.46127407 5.92155844,2.55382543 5.9422369,2.64366091 C6.01941332,2.65390864 6.09567162,2.66986688 6.17039059,2.69138146 L6.35070565,2.7531561 L6.35070565,2.7531561 L6.4117369,2.77963778 L6.4364869,2.78790157 L6.5294869,2.83447929 C6.61118104,2.71526397 6.65912734,2.57611714 6.6682369,2.43180743 C6.6959869,2.10350967 6.5519869,1.8255459 6.3457369,1.80826707 Z"/></svg>