<svg xmlns="http://www.w3.org/2000/svg" width="12" height="12" viewBox="0 0 12 12"><path fill="#4785FF" d="M11 8.7122609C10.7265195 9.35471029 10.5961025 9.641548 10.2435814 10.2093525 9.75273916 11.0019304 9.06113381 11.989927 8.20354318 11.998314 7.44159168 12.0058624 7.24557097 11.4724449 6.21171977 11.4783158 5.17786858 11.4841868 4.9612973 12.0075398 4.19934581 12.0000723 3.34175518 11.9916044 2.68650851 11.1000591 2.19487591 10.3066425.822730902 8.08910177.678876989 5.48743336 1.52540194 4.10440589 2.12690099 3.12060285 3.07617873 2.54608871 3.96933763 2.54608871 4.87830466 2.54608871 5.44897788 3.07447397 6.20065409 3.07447397 6.92940852 3.07447397 7.37361676 2.54525 8.42485689 2.54525 9.21921503 2.54525 10.0609975 3.0040226 10.6601254 3.7966005 8.69596618 4.93975784 9.01529025 7.91632817 11 8.7122609L11 8.7122609ZM7.5127935 1.68640644C7.8299473 1.24902797 8.07042656.63107466 7.98271553 4.61852778e-14 7.46516234.0381144102 6.85989812.392390977 6.50614965.854137683 6.18551064 1.27339619 5.92063494 1.89509846 6.02344853 2.49930558 6.58863287 2.51805038 7.17298585 2.15502624 7.5127935 1.68640644L7.5127935 1.68640644Z"/></svg>