<svg xmlns="http://www.w3.org/2000/svg" width="400" height="300" viewBox="0 0 400 300"><defs><linearGradient id="a" x1="50%" x2="50%" y1="100%" y2="0%"><stop offset="0%" stop-color="#492779"/><stop offset="100%" stop-color="#892793"/></linearGradient><linearGradient id="b" x1="50%" x2="50%" y1="0%" y2="100%"><stop offset="0%" stop-color="#FEFEFE"/><stop offset="100%" stop-color="#E0E0E0"/></linearGradient><linearGradient id="c" x1="50%" x2="50%" y1="100%" y2="0%"><stop offset="0%" stop-color="#492779"/><stop offset="100%" stop-color="#892793"/></linearGradient></defs><g fill="none" fill-rule="evenodd"><rect width="400" height="300" fill="url(#a)" fill-rule="nonzero"/><circle cx="200" cy="150" r="56" fill="url(#b)" fill-rule="nonzero"/><path fill="url(#c)" fill-rule="nonzero" d="M148,150.034 C148,173.059 162.885,192.506 183.555,199.401 C186.155,199.857 187.13,198.296 187.13,196.931 C187.13,195.694 187.065,191.597 187.065,187.239 C174,189.644 170.62,184.05 169.58,181.124 C168.995,179.628 166.46,175.01 164.25,173.774 C162.43,172.798 159.83,170.392 164.185,170.327 C168.28,170.262 171.205,174.099 172.18,175.66 C176.86,183.53 184.335,181.32 187.325,179.953 C187.78,176.571 189.145,174.293 190.64,172.993 C179.07,171.693 166.98,167.205 166.98,147.303 C166.98,141.643 168.995,136.96 172.31,133.318 C171.79,132.018 169.97,126.684 172.83,119.528 C172.83,119.528 177.185,118.163 187.13,124.862 C191.29,123.692 195.71,123.106 200.13,123.106 C204.55,123.106 208.97,123.692 213.13,124.862 C223.075,118.098 227.43,119.529 227.43,119.529 C230.29,126.683 228.47,132.016 227.95,133.317 C231.265,136.959 233.28,141.577 233.28,147.301 C233.28,167.269 221.125,171.691 209.555,172.993 C211.44,174.619 213.065,177.741 213.065,182.619 C213.065,189.579 213,195.172 213,196.929 C213,198.294 213.975,199.919 216.575,199.399 C237.115,192.507 252,172.995 252,150.035 C252,121.284 228.73,98 200,98 C171.27,98 148,121.285 148,150.034 Z"/></g></svg>