<svg xmlns="http://www.w3.org/2000/svg" width="400" height="300" viewBox="0 0 400 300"><defs><linearGradient id="a" x1="50%" x2="50%" y1="100%" y2="0%"><stop offset="0%" stop-color="#492779"/><stop offset="100%" stop-color="#892793"/></linearGradient><linearGradient id="b" x1="50%" x2="50%" y1="0%" y2="100%"><stop offset="0%" stop-color="#FEFEFE"/><stop offset="100%" stop-color="#E0E0E0"/></linearGradient><linearGradient id="c" x1="50%" x2="50%" y1="100%" y2="0%"><stop offset="0%" stop-color="#492779"/><stop offset="100%" stop-color="#892793"/></linearGradient></defs><g fill="none" fill-rule="evenodd"><rect width="400" height="300" fill="url(#a)" fill-rule="nonzero"/><g fill-rule="nonzero" transform="translate(148 98)"><circle cx="52" cy="52" r="52" fill="url(#b)"/><path fill="url(#c)" d="M3.71428571,52.0315714 C3.71428571,73.4119286 17.5360714,91.4698571 36.7296429,97.8723571 C39.1439286,98.2957857 40.0492857,96.8462857 40.0492857,95.5787857 C40.0492857,94.4301429 39.9889286,90.6257857 39.9889286,86.5790714 C27.8571429,88.8122857 24.7185714,83.6178571 23.7528571,80.9008571 C23.2096429,79.5117143 20.8557143,75.2235714 18.8035714,74.0758571 C17.1135714,73.1695714 14.6992857,70.9354286 18.7432143,70.8750714 C22.5457143,70.8147143 25.2617857,74.3776429 26.1671429,75.8271429 C30.5128571,83.135 37.4539286,81.0828571 40.2303571,79.8135 C40.6528571,76.6730714 41.9203571,74.5577857 43.3085714,73.3506429 C32.565,72.1435 21.3385714,67.9760714 21.3385714,49.4956429 C21.3385714,44.2399286 23.2096429,39.8914286 26.2878571,36.5095714 C25.805,35.3024286 24.115,30.3494286 26.7707143,23.7045714 C26.7707143,23.7045714 30.8146429,22.4370714 40.0492857,28.6575714 C43.9121429,27.5711429 48.0164286,27.027 52.1207143,27.027 C56.225,27.027 60.3292857,27.5711429 64.1921429,28.6575714 C73.4267857,22.3767143 77.4707143,23.7055 77.4707143,23.7055 C80.1264286,30.3485 78.4364286,35.3005714 77.9535714,36.5086429 C81.0317857,39.8905 82.9028571,44.1786429 82.9028571,49.4937857 C82.9028571,68.0355 71.6160714,72.1416429 60.8725,73.3506429 C62.6228571,74.8605 64.1317857,77.7595 64.1317857,82.2890714 C64.1317857,88.7519286 64.0714286,93.9454286 64.0714286,95.5769286 C64.0714286,96.8444286 64.9767857,98.3533571 67.3910714,97.8705 C86.4639286,91.4707857 100.285714,73.3525 100.285714,52.0325 C100.285714,25.3351429 78.6778571,3.71428571 52,3.71428571 C25.3221429,3.71428571 3.71428571,25.3360714 3.71428571,52.0315714 Z"/></g></g></svg>