<svg xmlns="http://www.w3.org/2000/svg" width="400" height="300" viewBox="0 0 400 300"><defs><linearGradient id="b" x1="50%" x2="50%" y1="0%" y2="100%"><stop offset="0%" stop-color="#050000"/><stop offset="100%" stop-color="#020000"/></linearGradient><linearGradient id="c" x1="50%" x2="50%" y1="0%" y2="100%"><stop offset="0%" stop-color="#262626"/><stop offset="100%" stop-color="#262626"/></linearGradient><radialGradient id="a" cx="50%" cy="1.982%" r="106.332%" fx="50%" fy="1.982%"><stop offset="0%" stop-color="#D5E6ED"/><stop offset="100%" stop-color="#757574"/></radialGradient></defs><g fill="none" fill-rule="evenodd"><rect width="400" height="300" fill="#262626"/><g transform="translate(152 102)"><path fill="url(#a)" d="M25.638852,-2.84950859e-15 L70.361148,1.03584031e-15 C79.2763354,-6.01853049e-16 82.5091978,0.928256111 85.768457,2.67132704 C89.0277163,4.41439796 91.585602,6.97228371 93.328673,10.231543 C95.0717439,13.4908022 96,16.7236646 96,25.638852 L96,70.361148 C96,79.2763354 95.0717439,82.5091978 93.328673,85.768457 C91.585602,89.0277163 89.0277163,91.585602 85.768457,93.328673 C82.5091978,95.0717439 79.2763354,96 70.361148,96 L25.638852,96 C16.7236646,96 13.4908022,95.0717439 10.231543,93.328673 C6.97228371,91.585602 4.41439796,89.0277163 2.67132704,85.768457 C0.928256111,82.5091978 1.45502887e-15,79.2763354 -2.50422848e-15,70.361148 L6.90560205e-16,25.638852 C-4.01235366e-16,16.7236646 0.928256111,13.4908022 2.67132704,10.231543 C4.41439796,6.97228371 6.97228371,4.41439796 10.231543,2.67132704 C13.4908022,0.928256111 16.7236646,1.65564655e-15 25.638852,-2.84950859e-15 Z"/><path fill="url(#b)" d="M26.0749668,3 L69.9250332,3 C77.9487019,3 80.858278,3.8354305 83.7916113,5.40419433 C86.7249447,6.97295817 89.0270418,9.27505533 90.5958057,12.2083887 C92.1645695,15.141722 93,18.0512981 93,26.0749668 L93,69.9250332 C93,77.9487019 92.1645695,80.858278 90.5958057,83.7916113 C89.0270418,86.7249447 86.7249447,89.0270418 83.7916113,90.5958057 C80.858278,92.1645695 77.9487019,93 69.9250332,93 L26.0749668,93 C18.0512981,93 15.141722,92.1645695 12.2083887,90.5958057 C9.27505533,89.0270418 6.97295817,86.7249447 5.40419433,83.7916113 C3.8354305,80.858278 3,77.9487019 3,69.9250332 L3,26.0749668 C3,18.0512981 3.8354305,15.141722 5.40419433,12.2083887 C6.97295817,9.27505533 9.27505533,6.97295817 12.2083887,5.40419433 C15.141722,3.8354305 18.0512981,3 26.0749668,3 Z"/><path fill="url(#c)" d="M24.3833112,9 L71.6166888,9 C76.9658012,9 78.9055187,9.55695367 80.8610742,10.6027962 C82.8166298,11.6486388 84.3513612,13.1833702 85.3972038,15.1389258 C86.4430463,17.0944813 87,19.0341988 87,24.3833112 L87,71.6166888 C87,76.9658012 86.4430463,78.9055187 85.3972038,80.8610742 C84.3513612,82.8166298 82.8166298,84.3513612 80.8610742,85.3972038 C78.9055187,86.4430463 76.9658012,87 71.6166888,87 L24.3833112,87 C19.0341988,87 17.0944813,86.4430463 15.1389258,85.3972038 C13.1833702,84.3513612 11.6486388,82.8166298 10.6027962,80.8610742 C9.55695367,78.9055187 9,76.9658012 9,71.6166888 L9,24.3833112 C9,19.0341988 9.55695367,17.0944813 10.6027962,15.1389258 C11.6486388,13.1833702 13.1833702,11.6486388 15.1389258,10.6027962 C17.0944813,9.55695367 19.0341988,9 24.3833112,9 Z"/><path fill="#FFF" d="M19,19 L30,25 L30,28 L19,34 L19,31 L27.25,26.5 L19,22 L19,19 Z M34,36 L48,36 L48,39 L34,39 L34,36 Z"/></g></g></svg>