<svg xmlns="http://www.w3.org/2000/svg" width="12" height="12" viewBox="0 0 12 12"><g fill="none" fill-rule="evenodd"><polygon fill="#E000E0" fill-rule="nonzero" points="7 10 4.772 10 3.424 7.442 2.12 10 0 10 2.435 5.976 .141 2 2.348 2 3.576 4.448 4.815 2 6.848 2 4.554 5.915"/><path fill="#E000E0" fill-rule="nonzero" d="M12,2 L12,9.90304709 L10.5578748,9.90304709 L10.498,8.965 L10.4398482,9.09523546 C10.4135357,9.14642659 10.384883,9.19593721 10.3538899,9.24376731 C10.1989247,9.48291782 10.0028463,9.66874423 9.76565465,9.80124654 C9.528463,9.93374885 9.25806452,10 8.9544592,10 C8.56230234,10 8.21916509,9.90143121 7.92504744,9.70429363 C7.63092979,9.50715605 7.40322581,9.22114497 7.24193548,8.84626039 C7.08064516,8.47137581 7,8.02216066 7,7.49861496 C7,6.95567867 7.08380772,6.49676824 7.25142315,6.12188366 C7.41903858,5.74699908 7.65306768,5.45937211 7.95351044,5.25900277 C8.25395319,5.05863343 8.600253,4.95844875 8.99240987,4.95844875 C9.42251739,4.95844875 9.7688172,5.09256694 10.0313093,5.36080332 C10.1438059,5.47576177 10.2391666,5.60407598 10.3173915,5.74574594 L10.387,5.887 L10.3870968,2 L12,2 Z M9.52371917,6.17036011 C9.24541429,6.17036011 9.0256167,6.27539243 8.86432638,6.48545706 C8.70303605,6.6955217 8.62239089,7.02677747 8.62239089,7.47922438 C8.62239089,7.93167128 8.70145478,8.26292705 8.85958254,8.47299169 C9.01771031,8.68305633 9.23592663,8.78808864 9.5142315,8.78808864 C9.69765971,8.78808864 9.8542062,8.73799631 9.98387097,8.63781163 C10.1135357,8.53762696 10.2131562,8.38734995 10.2827324,8.18698061 C10.3523087,7.98661127 10.3870968,7.74099723 10.3870968,7.4501385 C10.3870968,7.17867036 10.3538899,6.94759926 10.2874763,6.75692521 C10.2210626,6.56625115 10.1230234,6.42082179 9.99335863,6.32063712 C9.86369386,6.22045245 9.70714738,6.17036011 9.52371917,6.17036011 Z"/></g></svg>