<svg xmlns="http://www.w3.org/2000/svg" width="400" height="300" viewBox="0 0 400 300"><path fill="#4B5458" d="M174.333333,102 C174.333333,116.274437 185.824691,127.846154 200,127.846154 C214.033555,127.846154 225.436571,116.504714 225.663228,102.427413 L225.666667,102 L244,102 C244,126.470463 224.300529,146.307692 200,146.307692 C175.942476,146.307692 156.39445,126.865224 156.005895,102.732709 L156,102 L174.333333,102 Z M200,153.692308 C224.057524,153.692308 243.60555,173.134776 243.994105,197.267291 L244,198 L225.666667,198 C225.666667,183.725563 214.175309,172.153846 200,172.153846 C185.966445,172.153846 174.563429,183.495286 174.336772,197.572587 L174.333333,198 L156,198 L156.005895,197.267291 C156.39445,173.134776 175.942476,153.692308 200,153.692308 Z"/></svg>