<svg xmlns="http://www.w3.org/2000/svg" width="400" height="300" viewBox="0 0 400 300"><g fill="none" fill-rule="evenodd"><rect width="400" height="300" fill="#3521CD"/><g transform="translate(150 100)"><path fill="#000" fill-rule="nonzero" d="M50,0 C77.6142375,0 100,22.3857625 100,50 C100,77.6142375 77.6142375,100 50,100 C22.3857625,100 0,77.6142375 0,50 C0,22.3857625 22.3857625,0 50,0 Z"/><path fill="#FFF" d="M48.4998437,74.9532813 L48.4998437,67.4346875 C53.6457813,67.8825 58.7257812,66.029375 62.374375,62.3734375 C68.1867188,56.560625 69.1714063,47.4870313 64.74125,40.5629688 L40.561875,64.7401562 L35.1714062,70.1301562 C34.161875,69.384375 33.209375,68.5640625 32.3221875,67.67625 C22.5592187,57.9142188 22.5592187,42.08625 32.3221875,32.3235938 C37.375,27.2598438 44.359375,24.6096875 51.4998437,25.0465625 L51.4998437,32.5653125 C46.3540625,32.1175 41.2740625,33.970625 37.6254687,37.6264063 C31.813125,43.4392188 30.8284375,52.5128125 35.2585938,59.4370313 L59.4378125,35.2601563 L64.8285938,29.8701563 C65.838125,30.6159375 66.790625,31.43625 67.6778125,32.3240625 C77.4407813,42.0860938 77.4407813,57.9140625 67.6778125,67.6767187 C62.6248438,72.7404687 55.6404688,75.3904687 48.4998437,74.9532813 Z"/></g></g></svg>