<svg xmlns="http://www.w3.org/2000/svg" width="400" height="300" viewBox="0 0 400 300"><g fill="none" fill-rule="evenodd"><path fill="#000" fill-rule="nonzero" d="M200,98 C228.718807,98 252,121.281193 252,150 C252,178.718807 228.718807,202 200,202 C171.281193,202 148,178.718807 148,150 C148,121.281193 171.281193,98 200,98 Z"/><path fill="#FFF" d="M198.439838,175.951413 L198.439838,168.132075 C203.791613,168.5978 209.074813,166.67055 212.86935,162.868375 C218.914188,156.82305 219.938263,147.386513 215.3309,140.185488 L190.18435,165.329763 L184.578262,170.935363 C183.52835,170.15975 182.53775,169.306625 181.615075,168.3833 C171.461588,158.230788 171.461588,141.7697 181.615075,131.616538 C186.87,126.350238 194.13375,123.594075 201.559838,124.048425 L201.559838,131.867925 C196.208225,131.4022 190.925025,133.32945 187.130488,137.131463 C181.08565,143.176788 180.061575,152.613325 184.668937,159.814513 L209.815325,134.670563 L215.421738,129.064963 C216.47165,129.840575 217.46225,130.6937 218.384925,131.617025 C228.538413,141.769538 228.538413,158.230625 218.384925,168.383788 C213.129838,173.650088 205.866088,176.406088 198.439838,175.951413 Z"/></g></svg>