<svg xmlns="http://www.w3.org/2000/svg" width="400" height="300" viewBox="0 0 400 300"><g fill="none" fill-rule="evenodd"><rect width="96" height="96" x="152" y="102" fill="#A730D8"/><rect width="8" height="60" x="172" y="102" fill="#FFF" opacity=".5"/><rect width="60" height="8" x="188" y="170" fill="#FFF" opacity=".5"/><circle cx="176" cy="174" r="8" fill="#FFF"/><path fill="#FFF" d="M226 139C227.104569 139 228 139.895431 228 141L228 157C228 158.104569 227.104569 159 226 159L210 159C208.895431 159 208 158.104569 208 157L208 141C208 139.895431 208.895431 139 210 139L226 139ZM226 152 210 152 210 157 226 157 226 152ZM213 102 218 102 218 106C218 106.552285 217.552285 107 217 107L214 107C213.447715 107 213 106.552285 213 106L213 102 213 102Z"/><rect width="5" height="5" x="218" y="107" fill="#FFF" rx="1"/><rect width="5" height="5" x="218" y="117" fill="#FFF" rx="1"/><rect width="5" height="5" x="218" y="127" fill="#FFF" rx="1"/><rect width="5" height="5" x="213" y="112" fill="#FFF" rx="1"/><rect width="5" height="5" x="213" y="122" fill="#FFF" rx="1"/><rect width="5" height="5" x="213" y="132" fill="#FFF" rx="1"/></g></svg>