<svg xmlns="http://www.w3.org/2000/svg" width="400" height="300" viewBox="0 0 400 300"><g fill="none" fill-rule="evenodd"><rect width="400" height="300" fill="#921CC5"/><g transform="translate(150 100)"><rect width="100" height="100" fill="#A730D8"/><rect width="8" height="64" x="20" fill="#FFF" opacity=".5"/><rect width="64" height="8" x="36" y="72" fill="#FFF" opacity=".5"/><circle cx="24" cy="76" r="9" fill="#FFF"/><path fill="#FFF" d="M79 39 79 55C79 56.1045695 78.1045695 57 77 57L61 57C59.8954305 57 59 56.1045695 59 55L59 39C59 37.8954305 59.8954305 37 61 37L77 37C78.1045695 37 79 37.8954305 79 39ZM77 50 61 50 61 55 77 55 77 50ZM64 0 69 0 69 4C69 4.55228475 68.5522847 5 68 5L65 5C64.4477153 5 64 4.55228475 64 4L64 0 64 0Z"/><rect width="5" height="5" x="69" y="5" fill="#FFF" rx="1"/><rect width="5" height="5" x="69" y="15" fill="#FFF" rx="1"/><rect width="5" height="5" x="69" y="25" fill="#FFF" rx="1"/><rect width="5" height="5" x="64" y="10" fill="#FFF" rx="1"/><rect width="5" height="5" x="64" y="20" fill="#FFF" rx="1"/><rect width="5" height="5" x="64" y="30" fill="#FFF" rx="1"/></g></g></svg>