<svg xmlns="http://www.w3.org/2000/svg" width="400" height="300" viewBox="0 0 400 300"><g fill="none" fill-rule="evenodd"><rect width="400" height="300" fill="#81949F" fill-opacity=".2"/><g transform="translate(150 100)"><circle cx="50" cy="50" r="50" fill="#0A0A0B"/><polygon fill="#FFF" fill-rule="nonzero" points="8.13 28 13.985 28 19.382 9.693 19.604 9.693 25.015 28 30.87 28 39 0 32.438 0 27.734 19.496 27.485 19.496 22.309 0 16.691 0 11.502 19.455 11.266 19.455 6.562 0 0 0" transform="translate(53 52)"/><path fill="#FFF" d="M47,22 L47,29 L95.3895424,29.0002037 C95.9937648,30.3039969 96.5434646,31.6382063 97.0357148,32.9999049 L47,33 L47,40 L40,40 L39.999794,98.999777 C38.6458226,98.7249294 37.311719,98.3953697 35.9998912,98.0135062 L36,40 L29,40 L29,22 L47,22 Z M44,25 L32,25 L32,37 L44,37 L44,25 Z"/><rect width="12" height="12" x="32" y="25" fill="#FFF" opacity=".25"/></g></g></svg>