<svg xmlns="http://www.w3.org/2000/svg" width="400" height="300" viewBox="0 0 400 300"><g fill="none" fill-rule="evenodd"><rect width="400" height="300" fill="#81949F" fill-opacity=".2"/><g transform="translate(148 98)"><circle cx="52" cy="52" r="52" fill="#0A0A0B"/><polygon fill="#FFF" fill-rule="nonzero" points="8.13 28 13.985 28 19.382 9.693 19.604 9.693 25.015 28 30.87 28 39 0 32.438 0 27.734 19.496 27.485 19.496 22.309 0 16.691 0 11.502 19.455 11.266 19.455 6.562 0 0 0" transform="translate(55 54)"/><path fill="#FFF" d="M49,24 L49,31 L99.5855351,31.0006264 C100.162664,32.3065131 100.687614,33.6406209 101.157742,35.0003067 L49,35 L49,42 L42,42 L42.0007789,103.039519 C40.6477932,102.775987 39.3135603,102.459995 38.0002834,102.093747 L38,42 L31,42 L31,24 L49,24 Z M46,27 L34,27 L34,39 L46,39 L46,27 Z"/><rect width="12" height="12" x="34" y="27" fill="#FFF" opacity=".25"/></g></g></svg>