<svg xmlns="http://www.w3.org/2000/svg" width="400" height="300" viewBox="0 0 400 300"><defs><linearGradient id="a" x1="50%" x2="50%" y1="0%" y2="93.594%"><stop offset="0%" stop-color="#D9E3E8"/><stop offset="100%" stop-color="#869298"/></linearGradient><linearGradient id="b" x1="-86.145%" x2="-44.128%" y1="44.289%" y2="96.169%"><stop offset="0%" stop-color="#FAFDFF"/><stop offset="100%" stop-color="#77C0FF"/></linearGradient></defs><g fill="none" fill-rule="evenodd" transform="translate(80 80)"><g transform="translate(19)"><path fill="#95A8B2" d="M195,0 C198.865993,-7.10171439e-16 202,3.13400675 202,7 L202,133 C202,134.104569 201.104569,135 200,135 L199,135 C200.104569,135 201,134.104569 201,133 L201,133 L201,7 C201,3.6862915 198.313708,1 195,1 L195,1 L7,1 C3.6862915,1 1,3.6862915 1,7 L1,7 L1,133 C1,134.104569 1.8954305,135 3,135 L3,135 L2,135 C0.8954305,135 1.3527075e-16,134.104569 0,133 L0,7 C4.14730794e-16,3.13400675 3.13400675,7.10171439e-16 7,0 L195,0 Z"/><path fill="#0A0A0B" d="M195,1 C198.313708,1 201,3.6862915 201,7 L201,133 C201,134.104569 200.104569,135 199,135 L3,135 C1.8954305,135 1,134.104569 1,133 L1,7 C1,3.6862915 3.6862915,1 7,1 L195,1 Z M196,7 L6,7 C5.44771525,7 5,7.44771525 5,8 L5,8 L5,124 C5,124.552285 5.44771525,125 6,125 L6,125 L196,125 C196.552285,125 197,124.552285 197,124 L197,124 L197,8 C197,7.44771525 196.552285,7 196,7 L196,7 Z"/><path fill="#131516" d="M1,129 L201,129 L201,133 C201,134.104569 200.104569,135 199,135 L3,135 C1.8954305,135 1,134.104569 1,133 L1,129 L1,129 Z"/></g><g transform="translate(0 134)"><rect width="42" height="6" x="99" fill="#95A8B2"/><path fill="url(#a)" d="M239,0 C239.552285,-1.01453063e-16 240,0.44771525 240,1 L240,2 C240,3.22573213 239.307474,4.34626312 238.211146,4.89442719 L237.689165,5.15541753 C236.578321,5.71083927 235.353417,6 234.111456,6 L5.88854382,6 C4.64658306,6 3.42167853,5.71083927 2.31083506,5.15541753 L1.78885438,4.89442719 C0.692526237,4.34626312 1.50108893e-16,3.22573213 0,2 L0,1 C-6.76353751e-17,0.44771525 0.44771525,1.01453063e-16 1,0 L104,0 L104,1 C104,2.0543618 104.815878,2.91816512 105.850738,2.99451426 L106,3 L134,3 C135.104569,3 136,2.1045695 136,1 L136,1 L136,0 L239,0 Z"/></g><path fill="url(#b)" d="M111.341997,60 C113.808803,60 116.020405,61.509223 116.923119,63.797467 L117,64 L117.040028,63.8932594 C117.918211,61.551437 120.156935,60 122.658003,60 L125.4975,60 C127.154354,60 128.4975,61.3431458 128.4975,63 C128.4975,63.5751631 128.33564,64.1125221 128.054987,64.5690123 C129.2188,65.2684289 129.9975,66.543277 129.9975,68 C129.9975,70.209139 128.206639,72 125.9975,72 L123,72 C121.343146,72 120,70.6568542 120,69 L120,66.9902713 C119.746737,67.6314773 119.516105,68.2840033 119.308113,68.9478492 C119.112524,69.5738809 118.532705,70 117.876831,70 L116.123169,70 C115.467295,70 114.887476,69.5738809 114.691887,68.9478492 C114.483949,68.2841755 114.253382,67.6318159 114.000188,66.9907704 L114,69 C114,70.6313642 112.697864,71.9585982 111.076244,71.99905 L111,72 L110,72 L110,60 L111.341997,60 Z"/></g></svg>