<svg xmlns="http://www.w3.org/2000/svg" width="400" height="300" viewBox="0 0 400 300"><defs><linearGradient id="a" x1="40.009%" x2="100%" y1="21.875%" y2="82.927%"><stop offset=".069%" stop-color="#CEF"/><stop offset="100%" stop-color="#05F"/></linearGradient><linearGradient id="c" x1="-15.012%" x2="59.87%" y1="56.303%" y2="95.633%"><stop offset="0%" stop-color="#869298"/><stop offset="43.315%" stop-color="#B8C6CD"/><stop offset="100%" stop-color="#869298"/></linearGradient><linearGradient id="d" x1="-2.829%" x2="91.611%" y1="50%" y2="54.873%"><stop offset="0%" stop-color="#6C787F"/><stop offset="49.447%" stop-color="#9AA7AD"/><stop offset="100%" stop-color="#6C787F"/></linearGradient><linearGradient id="e" x1="58.046%" x2="50%" y1="88.224%" y2="2.343%"><stop offset="0%" stop-color="#7F929C"/><stop offset="100%" stop-color="#9CA9B0"/></linearGradient><linearGradient id="f" x1="40.524%" x2="54.481%" y1="20.952%" y2="87.055%"><stop offset="0%" stop-color="#717E84"/><stop offset="100%" stop-color="#8B979D"/></linearGradient><linearGradient id="h" x1="-2.829%" x2="91.611%" y1="50%" y2="68.673%"><stop offset="0%" stop-color="#79868C"/><stop offset="100%" stop-color="#9CA5A9"/></linearGradient><linearGradient id="i" x1="7.296%" x2="91.611%" y1="10.494%" y2="89.506%"><stop offset="0%" stop-color="#ADB6BB"/><stop offset="100%" stop-color="#717E84"/></linearGradient><radialGradient id="b" cx="0%" cy="0%" r="142.4%" fx="0%" fy="0%" gradientTransform="matrix(.70225 .35112 -.26334 .93633 0 0)"><stop offset="0%" stop-color="#0AF"/><stop offset="99.966%" stop-color="#002BFF"/></radialGradient><radialGradient id="g" cx="-2.829%" cy="50%" r="160.541%" fx="-2.829%" fy="50%" gradientTransform="matrix(.58826 .31145 -.1928 .95026 .085 .034)"><stop offset="0%" stop-color="#869298"/><stop offset="43.315%" stop-color="#B8C6CD"/><stop offset="100%" stop-color="#7E8B92"/></radialGradient></defs><g fill="none" fill-rule="evenodd"><rect width="400" height="300" fill="url(#a)"/><rect width="400" height="300" fill="url(#b)" opacity=".5"/><path fill="url(#c)" d="M199.250666,47.9403363 C202.521642,47.1795142 205.438087,47.1994021 208,48 C210.598152,48.8119226 216.821028,50.4509378 226.668627,52.9170454 C226.885747,52.9721283 227.078291,53.0981995 227.213745,53.2766113 L261,97 L261,97 L259,103.384256 L239.12546,142.756295 L282,185 C296.164783,183.390958 303.83145,185.390958 305,191 C304.378133,199.706136 300.56584,212.472815 293.563119,229.300038 C292.559225,231.715224 291.090496,233.90948 289.241058,235.758942 L273.222864,251.777136 C271.794129,253.205871 269.877684,254.04106 267.858497,254.114933 L189.050059,256.998169 C189.016691,256.999389 188.983299,256.999774 188.949912,256.999323 L115.607653,256.008212 C115.203134,256.002745 114.799612,255.966602 114.40056,255.900093 L109,255 C105.26469,254.377448 102.109049,251.883991 100.639541,248.393911 L95,235 L95,235 C103.131022,199.532445 116.797689,164.865778 136,131 C154.880563,96.6055423 175.817222,68.9961773 198.809977,48.1719049 L198.808874,48.1706784 C198.934354,48.0578697 199.086339,47.9786464 199.250677,47.9403847 Z"/><path fill="url(#d)" d="M293.563119,229.300038 C292.559225,231.715224 291.090496,233.90948 289.241058,235.758942 L273.222864,251.777136 C271.794129,253.205871 269.877684,254.04106 267.858497,254.114933 L189.050059,256.998169 C189.016691,256.999389 188.983299,256.999774 188.949912,256.999323 L115.607653,256.008212 C115.203134,256.002745 114.799612,255.966602 114.40056,255.900093 L109,255 C105.26469,254.377448 102.109049,251.883991 100.639541,248.393911 L95,235 L95.009,234.961496 L200.876261,211.955722 L304.965433,191.448569 C304.247291,200.142379 300.44652,212.759535 293.563119,229.300038 Z"/><path fill="url(#e)" d="M197.634487,50.7662582 C197.652713,50.7849387 197.670201,50.8043256 197.686951,50.8243408 L202,56 C194.383287,61.8340727 184.716621,71.8340727 173,86 C161.283379,100.165927 149.996878,115.499261 139.140496,132 C121.046832,158.666667 115.666667,177.333333 123,188 C130.152283,198.40332 153.792588,200.879707 193.920917,195.429159 C195.015462,195.280679 196.022794,196.04806 196.170791,197.14267 C196.208962,197.424993 196.186378,197.712212 196.104477,197.985077 L188.348953,223.836823 C188.134287,224.551386 187.539809,225.08715 186.80672,225.225946 C135.858146,234.865948 106.840538,239.450609 99.7538972,238.979927 C85,238 103.275603,193.328879 131,140 C149.294537,104.809797 171.034811,75.0595629 196.22082,50.7492987 C196.615683,50.3631617 197.2488,50.3709561 197.634487,50.7662582 Z M161.550964,105.947948 C161.643626,106.016101 161.723834,106.09973 161.78806,106.195155 L161.787511,106.195525 C164.342672,109.987927 167.746835,114.256085 172,119 C176.00183,123.463579 180.216142,127.746996 184.642937,131.850251 C186.143719,133.242916 187.817258,134.436806 189.621582,135.404419 L213.397634,148.14159 C214.306261,148.628354 214.696103,149.725976 214.298073,150.676826 L197.440277,190.948227 C197.166829,191.601742 196.568034,192.061793 195.8661,192.157419 C163.167281,196.65843 141.545247,196.272624 131,191 C119.278137,185.139069 116.68063,172.300688 134.217497,143.440917 C138.39513,136.565941 147.040207,124.139267 160.152729,106.160894 L160.152893,106.161015 C160.480123,105.716112 161.106061,105.620718 161.550964,105.947948 Z M204,58 C207.67334,63.5100098 213.876697,71.5500368 222.610071,82.1200812 C224.168695,84.0137214 226.01139,85.6538734 228.070251,86.9866333 L241.236462,95.5059463 C241.669363,95.7860585 241.818311,96.349401 241.580428,96.8068692 L216.855347,144.355103 C216.368857,145.286715 215.24451,145.683445 214.281893,145.26161 C206.460414,141.839309 199.033116,137.752105 192,133 C184.550056,127.966254 175.033404,118.155541 163.450047,103.567862 L163.449049,103.568657 C163.17988,103.230396 163.158538,102.757472 163.396146,102.396342 C172.079872,89.2140174 185.614746,74.4154053 204,58 Z"/><path fill="url(#f)" d="M244.887948,96.4921459 C246.709089,97.4598111 248.74644,98.2957625 251,99 C253.351213,99.7347542 256.00104,100.345901 258.949481,100.83344 L258.949467,100.833526 C259.494306,100.923911 259.862713,101.438862 259.772328,101.9837 C259.769147,102.002873 259.765408,102.02195 259.761116,102.040905 C255.31135,121.578825 254.72465,137.8986 258,151 C264.363664,167.545527 279.231535,178.624064 302.603613,184.235611 C304.524727,184.696863 305.779408,186.544146 305.5,188.5 L305.092403,191.353181 C305.036262,191.746169 304.752977,192.068737 304.370529,192.175157 L193.622613,222.991969 C192.558473,223.288077 191.455774,222.665465 191.159665,221.601325 C191.052876,221.217551 191.063123,220.81063 191.189094,220.432718 L201.745359,188.763923 C201.915093,188.254721 202.097611,187.749871 202.292741,187.249852 L217.077842,149.36303 C217.692234,147.78865 218.384503,146.245782 219.152087,144.740137 L243.528687,96.9244995 C243.776462,96.4309103 244.378216,96.2339589 244.870843,96.4836337 C244.876522,96.486512 244.882173,96.4894446 244.887948,96.4921459 Z"/><rect width="42" height="26" x="165" y="228" fill="url(#g)" rx="13"/><rect width="36" height="22" x="167" y="230" fill="url(#h)" rx="11"/><rect width="24" height="8" x="171" y="237" fill="#A1ABB0" rx="4"/><rect width="22" height="6" x="172" y="238" fill="#7E8B92" rx="3"/><rect width="17" height="2" x="174" y="240" fill="#4B5458" rx="1"/><path fill="url(#i)" d="M206.472712,44.0302965 L222.824584,50.8435767 C226.229029,52.2620955 229.260748,54.446152 231.68436,57.226178 L260.194347,89.9288095 C261.340861,91.2439285 261.858147,92.9929686 261.611407,94.7201488 L261.275757,97.0697021 C261.119426,98.1631528 260.106294,98.9228613 259.01284,98.7665549 C259.002911,98.7651356 258.992992,98.7636415 258.983024,98.7624615 C255.044965,98.1439628 250.277454,96.5554077 244.680492,93.9967964 C238.851865,91.3322811 233.307047,88.156702 228.046038,84.4700592 C226.725374,83.5417232 225.551371,82.4203706 224.566284,81.1414795 L199.537054,48.6961809 C199.229935,48.2980634 199.266188,47.7338123 199.621729,47.3782707 L202.105823,44.8941771 C203.251969,43.7480308 204.9765,43.4068751 206.472712,44.0302965 Z"/><path fill="#0A0A0B" d="M175.847271,108.979727 L179.554346,109.153289 C182.320159,109.283001 184.749609,111.030794 185.752088,113.611799 C186.923284,116.629008 187.548062,119.482657 187.626422,122.172746 C187.675276,123.849858 187.599809,125.531398 187.400022,127.217365 C186.946051,131.026263 183.511545,133.760765 179.697825,133.349261 L178.11373,133.178235 C174.576441,132.796333 171.716413,130.124262 171.095305,126.621051 L169.290228,116.439944 C168.677286,112.982795 170.982972,109.683335 174.440121,109.070394 C174.904358,108.988086 175.37631,108.957677 175.847271,108.979727 Z" transform="rotate(46 177.771 121.315)"/></g></svg>