<svg xmlns="http://www.w3.org/2000/svg" width="400" height="300" viewBox="0 0 400 300"><defs><radialGradient id="a" cx="0%" cy="0%" r="93.131%" fx="0%" fy="0%" gradientTransform="scale(1 .63636) rotate(57.529)"><stop offset="0%" stop-color="#1C1F21"/><stop offset="100%" stop-color="#131516"/></radialGradient><radialGradient id="b" cx="16.771%" cy="5.294%" r="55.702%" fx="16.771%" fy="5.294%"><stop offset="0%" stop-color="#95A8B2"/><stop offset="99.966%" stop-color="#F9FAFB"/></radialGradient><radialGradient id="c" cx="100%" cy="100%" r="70.711%" fx="100%" fy="100%"><stop offset="0%" stop-color="#A6BDC9"/><stop offset="100%" stop-color="#F9FAFB"/></radialGradient><radialGradient id="d" cx="0%" cy="0%" r="75.93%" fx="0%" fy="0%" gradientTransform="matrix(.6585 .6585 -.75258 .5762 0 0)"><stop offset="0%" stop-color="#1C1F21"/><stop offset="100%" stop-color="#131516"/></radialGradient><radialGradient id="e" cx="65.53%" cy="50%" r="52.356%" fx="65.53%" fy="50%"><stop offset="0%" stop-color="#1C1F21"/><stop offset="100%" stop-color="#0A0A0B"/></radialGradient></defs><g fill="none" fill-rule="evenodd"><g transform="translate(212 40)"><path fill="url(#a)" d="M7.6916556,-3.10752092e-16 L132.308344,3.10752092e-16 C134.982901,-1.80555915e-16 135.952759,0.278476833 136.930537,0.801398111 C137.908315,1.32431939 138.675681,2.09168511 139.198602,3.06946289 C139.721523,4.04724067 140,5.01709938 140,7.6916556 L140,212.308344 C140,214.982901 139.721523,215.952759 139.198602,216.930537 C138.675681,217.908315 137.908315,218.675681 136.930537,219.198602 C135.952759,219.721523 134.982901,220 132.308344,220 L7.6916556,220 C5.01709938,220 4.04724067,219.721523 3.06946289,219.198602 C2.09168511,218.675681 1.32431939,217.908315 0.801398111,216.930537 C0.278476833,215.952759 1.2037061e-16,214.982901 -2.07168062e-16,212.308344 L2.07168062e-16,7.6916556 C-1.2037061e-16,5.01709938 0.278476833,4.04724067 0.801398111,3.06946289 C1.32431939,2.09168511 2.09168511,1.32431939 3.06946289,0.801398111 C4.04724067,0.278476833 5.01709938,1.80555915e-16 7.6916556,-3.10752092e-16 Z"/><circle cx="70" cy="141" r="64" fill="#0A0A0B"/><path fill="#1B2022" d="M70,77 C75.853494,77 81.5234487,77.7858256 86.9101226,79.2577355 C81.773569,81.6598204 76.0432923,83 70,83 C63.9567077,83 58.226431,81.6598204 53.0901598,79.2604508 C58.47686,77.7857828 64.1466653,77 70,77 Z"/><circle cx="70" cy="141" r="51" fill="#1B2022"/><circle cx="70" cy="141" r="50" fill="#0A0A0B"/><circle cx="70" cy="141" r="42" fill="url(#b)"/><circle cx="70" cy="141" r="14" fill="#95A8B2"/><circle cx="70" cy="141" r="13" fill="url(#c)"/><circle cx="99" cy="92" r="2" fill="#222B2F"/><circle cx="127" cy="141" r="2" fill="#222B2F"/><circle cx="13" cy="141" r="2" fill="#222B2F"/><circle cx="41" cy="92" r="2" fill="#222B2F"/><circle cx="99" cy="190" r="2" fill="#222B2F"/><circle cx="41" cy="190" r="2" fill="#222B2F"/><rect width="14" height="16" x="63" y="200" fill="url(#d)" rx="1"/><circle cx="70" cy="209" r="5" fill="#1B2022"/><circle cx="70" cy="209" r="4" fill="#131516"/><circle cx="70" cy="43" r="38" fill="url(#e)"/><circle cx="70" cy="43" r="12" fill="#0A0A0B"/><circle cx="46" cy="19" r="2" fill="#0A0A0B"/><circle cx="60" cy="33" r="1" fill="#0A0A0B"/><circle cx="80" cy="33" r="1" fill="#0A0A0B"/><circle cx="60" cy="53" r="1" fill="#0A0A0B"/><circle cx="80" cy="53" r="1" fill="#0A0A0B"/><circle cx="94" cy="19" r="2" fill="#0A0A0B"/><circle cx="46" cy="67" r="2" fill="#0A0A0B"/><circle cx="94" cy="67" r="2" fill="#0A0A0B"/></g><g transform="translate(48 40)"><path fill="url(#a)" d="M7.6916556,-3.10752092e-16 L132.308344,3.10752092e-16 C134.982901,-1.80555915e-16 135.952759,0.278476833 136.930537,0.801398111 C137.908315,1.32431939 138.675681,2.09168511 139.198602,3.06946289 C139.721523,4.04724067 140,5.01709938 140,7.6916556 L140,212.308344 C140,214.982901 139.721523,215.952759 139.198602,216.930537 C138.675681,217.908315 137.908315,218.675681 136.930537,219.198602 C135.952759,219.721523 134.982901,220 132.308344,220 L7.6916556,220 C5.01709938,220 4.04724067,219.721523 3.06946289,219.198602 C2.09168511,218.675681 1.32431939,217.908315 0.801398111,216.930537 C0.278476833,215.952759 1.2037061e-16,214.982901 -2.07168062e-16,212.308344 L2.07168062e-16,7.6916556 C-1.2037061e-16,5.01709938 0.278476833,4.04724067 0.801398111,3.06946289 C1.32431939,2.09168511 2.09168511,1.32431939 3.06946289,0.801398111 C4.04724067,0.278476833 5.01709938,1.80555915e-16 7.6916556,-3.10752092e-16 Z"/><circle cx="70" cy="141" r="64" fill="#0A0A0B"/><path fill="#1B2022" d="M70,77 C75.853494,77 81.5234487,77.7858256 86.9101226,79.2577355 C81.773569,81.6598204 76.0432923,83 70,83 C63.9567077,83 58.226431,81.6598204 53.0901598,79.2604508 C58.47686,77.7857828 64.1466653,77 70,77 Z"/><circle cx="70" cy="141" r="51" fill="#1B2022"/><circle cx="70" cy="141" r="50" fill="#0A0A0B"/><circle cx="70" cy="141" r="42" fill="url(#b)"/><circle cx="70" cy="141" r="14" fill="#95A8B2"/><circle cx="70" cy="141" r="13" fill="url(#c)"/><circle cx="99" cy="92" r="2" fill="#222B2F"/><circle cx="127" cy="141" r="2" fill="#222B2F"/><circle cx="13" cy="141" r="2" fill="#222B2F"/><circle cx="41" cy="92" r="2" fill="#222B2F"/><circle cx="99" cy="190" r="2" fill="#222B2F"/><circle cx="41" cy="190" r="2" fill="#222B2F"/><rect width="14" height="16" x="63" y="200" fill="url(#d)" rx="1"/><circle cx="70" cy="209" r="5" fill="#1B2022"/><circle cx="70" cy="209" r="4" fill="#131516"/><circle cx="70" cy="43" r="38" fill="url(#e)"/><circle cx="70" cy="43" r="12" fill="#0A0A0B"/><circle cx="46" cy="19" r="2" fill="#0A0A0B"/><circle cx="60" cy="33" r="1" fill="#0A0A0B"/><circle cx="80" cy="33" r="1" fill="#0A0A0B"/><circle cx="60" cy="53" r="1" fill="#0A0A0B"/><circle cx="80" cy="53" r="1" fill="#0A0A0B"/><circle cx="94" cy="19" r="2" fill="#0A0A0B"/><circle cx="46" cy="67" r="2" fill="#0A0A0B"/><circle cx="94" cy="67" r="2" fill="#0A0A0B"/></g></g></svg>