<svg xmlns="http://www.w3.org/2000/svg" width="400" height="300" viewBox="0 0 400 300"><g fill="none" transform="translate(168 102)"><path fill="#00BFFF" d="M32,48 C32,39.1635961 39.1633715,32 48,32 L48,32 C56.8364039,32 64,39.1635961 64,48 L64,48 C64,56.8366285 56.8364039,64 48,64 L48,64 C39.1633715,64 32,56.8366285 32,48 L32,48 Z"/><path fill="#2ED164" d="M0,80 C0,71.1635961 7.16343367,64 16,64 L32,64 L32,80 C32,88.8366285 24.8366269,96 16,96 L16,96 C7.16343367,96 0,88.8366285 0,80 L0,80 Z"/><path fill="#FF7847" d="M32,0 L32,32 L48,32 C56.8366285,32 64,24.8366053 64,16.0000382 L64,16.0000382 C64,7.163471 56.8366285,0 48,0 L32,0 Z"/><path fill="#F40" d="M16,32 L32,32 L32,0 L16,0 C7.16343367,0 0,7.16345726 0,16.0000438 C0,24.8366078 7.16343367,32 16,32 Z"/><path fill="#8000FF" d="M0,48 C0,56.8366285 7.16343367,64 16,64 L32,64 L32,32 L16,32 C7.16343367,32 0,39.1635961 0,48 L0,48 Z"/></g></svg>