<svg xmlns="http://www.w3.org/2000/svg" width="400" height="300" viewBox="0 0 400 300"><g fill="none" fill-rule="evenodd"><rect width="400" height="300" fill="#81949F" fill-opacity=".48"/><g fill-rule="nonzero" transform="translate(167 100)"><path fill="#58B9F8" d="M32.9999965,49.9998983 C32.9999965,40.7953119 40.3872242,33.3332336 49.4999965,33.3332336 L49.4999965,33.3332336 C58.6125408,33.3332336 65.9999965,40.7953119 65.9999965,49.9998983 L65.9999965,49.9998983 C65.9999965,59.2047185 58.6125408,66.666563 49.4999965,66.666563 L49.4999965,66.666563 C40.3872242,66.666563 32.9999965,59.2047185 32.9999965,49.9998983 L32.9999965,49.9998983 Z"/><path fill="#5FCC89" d="M0,83.3332277 C0,74.1286413 7.3872902,66.666563 16.5,66.666563 L33,66.666563 L33,83.3332277 C33,92.5380479 25.6127688,99.9998924 16.5,99.9998924 L16.5,99.9998924 C7.3872902,99.9998924 0,92.5380479 0,83.3332277 L0,83.3332277 Z"/><path fill="#EE7A69" d="M32.9999965,1.16931151e-05 L32.9999965,33.3332336 L49.4999965,33.3332336 C58.6127723,33.3332336 65.9999965,25.8713891 65.9999965,16.6666624 L65.9999965,16.6666624 C65.9999965,7.46193569 58.6127723,1.16931151e-05 49.4999965,1.16931151e-05 L32.9999965,1.16931151e-05 Z"/><path fill="#E05A32" d="M0,16.6666624 C0,25.8713891 7.3872902,33.3332336 16.5,33.3332336 L33,33.3332336 L33,0 L16.5,0 C7.3872902,0 0,7.46191231 0,16.6666624 L0,16.6666624 Z"/><path fill="#985DF6" d="M0,49.9998983 C0,59.2047185 7.3872902,66.666563 16.5,66.666563 L33,66.666563 L33,33.3332336 L16.5,33.3332336 C7.3872902,33.3332336 0,40.7953119 0,49.9998983 L0,49.9998983 Z"/></g></g></svg>