<svg xmlns="http://www.w3.org/2000/svg" width="400" height="300" viewBox="0 0 400 300"><g fill="none" fill-rule="evenodd"><rect width="400" height="300" fill="#F80"/><g fill-rule="nonzero" transform="translate(150 100)"><path fill="#2E0402" d="M18.1623932,0 L81.841709,0 C91.884444,0 100.004103,8.11965812 100.004103,18.1623932 L100.004103,81.8376068 C100.004103,91.8803419 91.884444,100 81.841709,100 L18.1623932,100 C8.11965812,100 0,91.8803419 0,81.8376068 L0,18.1623932 C0,8.11965812 8.11965812,0 18.1623932,0 Z"/><path fill="#F19F39" d="M28.508357 37.6495726 12.6109211 37.6495726 9.36305789 47.6923077C9.27758781 48.0769231 8.93570746 48.3333333 8.55109208 48.2905983L.516904046 48.2905983C.0468185755 48.2905983-.0813865527 48.034188.0468185755 47.5213675L13.8075023 7.90598291C13.9357075 7.47863248 14.0639126 7.00854701 14.2348528 6.4957265 14.4057929 5.5982906 14.491263 4.65811966 14.491263 3.71794872 14.448528 3.5042735 14.6194681 3.29059829 14.8331434 3.24786325L14.9613485 3.24786325 25.9015194 3.24786325C26.2433998 3.24786325 26.4143399 3.37606838 26.457075 3.58974359L42.0553656 47.6068376C42.1835707 48.0769231 42.0553656 48.2905983 41.6280152 48.2905983L32.6963912 48.2905983C32.3972459 48.3333333 32.0981006 48.1196581 32.0126305 47.8205128L28.508357 37.6495726 28.508357 37.6495726ZM15.0895536 28.974359 25.9442545 28.974359C25.6878442 28.0769231 25.3459639 27.008547 24.9613485 25.8974359 24.5767331 24.7435897 24.1921177 23.5042735 23.8075023 22.2222222 23.3801519 20.8974359 22.9955365 19.6153846 22.5681861 18.2905983 22.1408357 16.965812 21.7562203 15.7264957 21.4143399 14.4871795 21.0724596 13.2905983 20.7733143 12.1794872 20.474169 11.1538462L20.3886989 11.1538462C20.0040835 12.991453 19.5339981 14.8290598 18.9357075 16.6666667 18.2946818 18.7179487 17.6536562 20.8547009 16.9698955 22.991453 16.3716049 25.1709402 15.7305793 27.1794872 15.0895536 28.974359L15.0895536 28.974359ZM51.5852801 10.7264957C50.1750237 10.7692308 48.8075023 10.2136752 47.7818613 9.23076923 46.7989553 8.16239316 46.2861348 6.75213675 46.3288699 5.2991453 46.2861348 3.84615385 46.8416904 2.47863248 47.8673314 1.4957265 48.8929724.512820513 50.2604938 0 51.6707502 0 53.3374169 0 54.6194681.512820513 55.5596391 1.4957265 56.49981 2.52136752 57.0126305 3.88888889 56.9698955 5.2991453 57.0126305 6.75213675 56.49981 8.16239316 55.474169 9.23076923 54.491263 10.2564103 53.0382716 10.8119658 51.5852801 10.7264957ZM46.7989553 47.8205128 46.7989553 14.9145299C46.7989553 14.4871795 46.9698955 14.3162393 47.3545109 14.3162393L55.8160493 14.3162393C56.2006647 14.3162393 56.3716049 14.5299145 56.3716049 14.9145299L56.3716049 47.8205128C56.3716049 48.2905983 56.2006647 48.5042735 55.8160493 48.5042735L47.439981 48.5042735C47.0126305 48.5042735 46.7989553 48.2478632 46.7989553 47.8205128L46.7989553 47.8205128Z" transform="translate(20.064 23.18)"/></g></g></svg>