<svg xmlns="http://www.w3.org/2000/svg" width="400" height="300" viewBox="0 0 400 300"><g fill="none" fill-rule="evenodd"><rect width="400" height="300" fill="#FF9A00"/><path fill="#300" fill-rule="nonzero" d="M233.583333,98 C243.754577,98 252,106.245423 252,116.416667 L252,183.583333 C252,193.754577 243.754577,202 233.583333,202 L166.416667,202 C156.245423,202 148,193.754577 148,183.583333 L148,116.416667 C148,106.245423 156.245423,98 166.416667,98 L233.583333,98 Z M184.65285,125.268895 C184.518342,125.24973 184.382659,125.294992 184.286595,125.391072 C184.190532,125.487153 184.145294,125.622844 184.164483,125.757349 C184.161363,126.705887 184.067919,127.651973 183.885417,128.582795 C183.745909,129.117762 183.606331,129.594507 183.466682,130.013029 L183.466682,130.013029 L169.513457,170.198676 C169.37354,170.710299 169.536329,170.96611 170.001824,170.96611 L170.001824,170.96611 L178.164485,170.96611 C178.558108,170.984912 178.909553,170.721347 179.001741,170.33821 L179.001741,170.33821 L182.280731,160.152229 L198.396792,160.152229 L201.984345,170.568932 C202.091563,170.832105 202.362468,170.998231 202.652472,170.966097 L202.652472,170.966097 L211.722217,170.966097 C212.140811,170.966449 212.280389,170.733878 212.140951,170.268382 L212.140951,170.268382 L196.303758,125.617807 C196.256646,125.385199 196.07059,125.268895 195.74559,125.268895 L195.74559,125.268895 Z M225.884049,136.292016 L217.302653,136.292016 C216.929835,136.292016 216.744481,136.501394 216.744481,136.919916 L216.744481,136.919916 L216.744481,170.268382 L216.749706,170.389473 C216.784412,170.773889 216.992002,170.966097 217.372476,170.966097 L217.372476,170.966097 L225.884049,170.966097 C226.256164,170.966449 226.442221,170.733878 226.442221,170.268382 L226.442221,170.268382 L226.442221,136.919916 C226.441869,136.501316 226.255811,136.292016 225.884049,136.292016 L225.884049,136.292016 Z M190.303967,133.292114 L190.748621,134.906007 L191.245748,136.675732 C191.594587,137.908346 191.978268,139.187402 192.39679,140.512899 L192.39679,140.512899 L193.900769,145.275529 L195.146247,149.190585 L195.430992,150.101887 L195.815426,151.361676 L184.792284,151.361676 L185.036891,150.656616 C185.363783,149.706315 185.693671,148.715132 186.026553,147.683066 L186.026553,147.683066 L186.528124,146.104305 L187.28387,143.661152 L188.769105,138.873395 C189.352399,137.039195 189.841386,135.176329 190.234144,133.292114 L190.234144,133.292114 L190.303967,133.292114 Z M221.697975,121.780644 C220.258784,121.743576 218.86455,122.283669 217.825903,123.280593 C216.775746,124.289274 216.204856,125.697454 216.256127,127.152665 C216.19587,128.620405 216.723211,130.051611 217.721379,131.129365 C218.723707,132.163767 220.119341,132.722021 221.558546,132.664231 L221.558546,132.664231 L221.821509,132.670234 C223.221093,132.667812 224.568348,132.116791 225.570042,131.129365 C226.587728,130.061496 227.128941,128.626623 227.069995,127.152665 C227.126401,125.723271 226.611862,124.330155 225.63987,123.280593 C224.68645,122.280627 223.372485,121.780644 221.697975,121.780644 Z"/></g></svg>