<svg xmlns="http://www.w3.org/2000/svg" width="400" height="300" viewBox="0 0 400 300"><g fill="none" fill-rule="evenodd"><rect width="400" height="300" fill="#1B2022"/><circle cx="200" cy="150" r="52" fill="#7D7D7D"/><path fill="#FFF" d="M161.332685,142.302347 C162.131678,136.798243 168.282756,119.645481 185.556597,116.39338 C195.751529,114.47203 208.322053,119.750781 217.147646,128.692152 C212.747326,131.709744 209.805462,134.316309 207.58315,137.483966 C209.239699,143.62852 214.136526,146.130293 217.584063,147.171088 C213.764273,144.864146 211.353034,142.68743 209.85995,138.044042 C218.030664,128.342169 226.776816,125.204524 227.515719,125.129746 C234.347138,130.573823 239.169107,140.50105 238.995457,150.95376 C238.791762,163.057702 232.203758,175.531975 224.648203,180.565534 C223.611396,181.061005 221.225619,179.754671 220.898179,178.338967 C222.445752,174.751125 226.102076,166.014759 226.55326,159.490208 C226.980001,153.225602 222.82768,149.547721 219.345006,154.076144 C214.503177,162.17206 212.389842,172.229513 210.276506,183.082568 C206.719993,184.097928 200.682474,184.353294 198.073142,182.962516 C197.74061,176.247204 199.308043,164.779133 194.848651,160.755847 C192.938502,159.029837 191.053305,159.830018 189.773592,161.421223 C186.549101,165.409409 186.613264,175.751732 187.238608,182.456871 C183.63168,184.683438 177.520322,184.21798 173.65572,182.837376 C172.107638,172.299204 168.466591,159.455108 165.490098,149.6225 C164.661569,153.575586 164.259781,158.273913 164.388618,162.311952 C162.399537,160.695821 160.136995,152.194473 161.332685,142.302347 Z"/></g></svg>