<svg xmlns="http://www.w3.org/2000/svg" width="400" height="300" viewBox="0 0 400 300"><g fill="none" fill-rule="evenodd"><rect width="400" height="300" fill="#4E64F6" fill-rule="nonzero"/><path fill="#1C2023" fill-rule="nonzero" d="M156,132.75 C161.949296,132.5 167.650704,135.25 170.625352,140.75 L170.625352,140.75 L203.594366,198 L200.123944,200 L164.180282,179.25 C161.701408,177.75 159.71831,175.75 158.230986,173.25 C156.743662,170.75 156,168 156,165.25 L156,165.25 Z M240.777465,121.25 L244,123.25 L244,165.25 C244,168 243.256338,170.75 241.769014,173.25 C240.35997,175.618421 238.505965,177.538089 236.41777,178.796435 L236.067606,179 L208.304225,195.25 C205.146141,190.35 204.606837,184.0094 207.619553,178.58118 L207.808451,178.25 L240.777465,121.25 Z M200.123944,100 C202.850704,100 205.577465,100.75 207.808451,102 C207.932394,102 214.935211,106.0625 221.907042,110.125 L222.743071,110.61224 C229.423035,114.506 235.819718,118.25 235.819718,118.25 C233.146424,123.397059 228.090513,126.862072 221.819936,126.995976 L221.442254,127 L156,127 L156,123 L192.191549,102.25 C194.422535,100.75 197.149296,100 200.123944,100 Z"/><path fill="#FFF" fill-rule="nonzero" d="M200,161 C206.07507,161 211,156.07507 211,150 C211,143.92493 206.07507,139 200,139 C193.92493,139 189,143.92493 189,150 C189,156.07507 193.92493,161 200,161 Z"/></g></svg>