<svg xmlns="http://www.w3.org/2000/svg" width="400" height="300" viewBox="0 0 400 300"><g fill="none" fill-rule="evenodd"><rect width="400" height="300" fill="#4E64F6" fill-rule="nonzero"/><g fill-rule="nonzero" transform="translate(154 98)"><path fill="#1C2023" d="M0,34.06 C6.18726761,33.8 12.1167324,36.66 15.2103662,42.38 L15.2103662,42.38 L49.4981408,101.92 L45.8889014,104 L8.50749296,82.42 C5.92946479,80.86 3.86704225,78.78 2.32022535,76.18 C0.773408451,73.58 0,70.72 0,67.86 L0,67.86 Z M88.1685634,22.1 L91.52,24.18 L91.52,67.86 C91.52,70.72 90.7465915,73.58 89.1997746,76.18 C87.7343692,78.6431579 85.806204,80.6396122 83.6344812,81.9482928 L83.2703099,82.16 L54.3963944,99.06 C51.1106722,93.9619608 50.5506622,87.3644983 53.6880979,81.7176505 L53.8807887,81.38 L88.1685634,22.1 Z M45.8889014,0 C48.7247324,0 51.5605634,0.78 53.8807887,2.08 C53.9963313,2.08 59.8599049,5.47465132 66.2959748,9.22111196 L66.9636051,9.60980706 C67.4097705,9.86960742 67.85781,10.130582 68.306026,10.3917328 L68.97827,10.7834662 L68.97827,10.7834662 L69.8465504,11.2895874 L70.1746434,11.4808754 L70.1746434,11.4808754 L70.8283108,11.8620492 C77.0193461,15.4726404 82.6201918,18.7503921 82.9927961,18.9684637 L83.012507,18.98 L83.012507,18.98 C80.2301823,24.3369811 74.9661957,27.9419936 68.4379663,28.0761247 L68.0599437,28.08 L0,28.08 L0,23.92 L37.6392113,2.34 C39.9594366,0.78 42.7952676,0 45.8889014,0 Z"/><path fill="#FFF" d="M45.76,63.44 C52.0780726,63.44 57.2,58.3180726 57.2,52 C57.2,45.6819274 52.0780726,40.56 45.76,40.56 C39.4419274,40.56 34.32,45.6819274 34.32,52 C34.32,58.3180726 39.4419274,63.44 45.76,63.44 Z"/></g></g></svg>