<svg xmlns="http://www.w3.org/2000/svg" width="400" height="300" viewBox="0 0 400 300"><g fill="none" fill-rule="evenodd"><rect width="400" height="300" fill="#31A8FF"/><path fill="#001E36" fill-rule="nonzero" d="M233.583333,98 C243.754577,98 252,106.245423 252,116.416667 L252,183.583333 C252,193.754577 243.754577,202 233.583333,202 L166.416667,202 C156.245423,202 148,193.754577 148,183.583333 L148,116.416667 C148,106.245423 156.245423,98 166.416667,98 L233.583333,98 Z M222.396885,135.839919 C219.326724,135.840661 216.768613,136.352284 214.722552,137.374786 C212.859181,138.235517 211.284321,139.616504 210.187576,141.351486 C209.225714,142.927033 208.718653,144.738041 208.722536,146.583986 C208.701152,148.120289 209.048029,149.639371 209.73414,151.014121 C210.526461,152.474115 211.649385,153.72848 213.01313,154.676928 C214.919812,155.997807 216.996872,157.05392 219.187493,157.816376 C221.327149,158.607082 222.745779,159.281519 223.443385,159.839687 C224.141052,160.398563 224.489885,160.979939 224.489885,161.583815 C224.498053,162.362762 224.046946,163.073532 223.338631,163.397748 C222.570848,163.816348 221.373187,164.025648 219.745648,164.025648 C218.028047,164.002918 216.318918,163.78049 214.652712,163.362847 C212.76231,162.937134 210.949857,162.219229 209.280678,161.235007 C209.172548,161.144637 209.019734,161.130729 208.897066,161.200094 C208.77251,161.285972 208.705402,161.433489 208.722506,161.58381 L208.722506,169.118571 C208.709158,169.468748 208.899495,169.795062 209.210873,169.955828 C210.624303,170.602177 212.112392,171.070861 213.641112,171.351161 C215.58137,171.742247 217.557212,171.929321 219.536391,171.909329 C222.65189,171.908979 225.268112,171.443838 227.385055,170.513905 C229.339079,169.714672 231.02222,168.370663 232.234033,166.641937 C233.365877,164.93892 233.95008,162.930606 233.908333,160.8862 C233.936965,159.337934 233.589846,157.805803 232.896712,156.42106 C232.072396,154.958698 230.897662,153.724053 229.478076,152.828076 C227.394233,151.503474 225.156868,150.437512 222.815364,149.653719 C221.765337,149.236705 220.740372,148.759159 219.745631,148.223485 C219.186058,147.940281 218.688129,147.549035 218.280591,147.072339 C218.021915,146.756532 217.874788,146.36413 217.862069,145.956103 C217.862378,145.535523 217.983403,145.12387 218.210768,144.770044 C218.546967,144.327711 219.028972,144.018755 219.571283,143.897982 C220.423315,143.665848 221.304809,143.560054 222.187572,143.583984 C223.819505,143.590003 225.445724,143.777208 227.036338,144.142157 C228.479903,144.440724 229.876334,144.933592 231.187494,145.6073 C231.376606,145.701333 231.598852,145.701323 231.787955,145.607274 C231.927331,145.514998 232.007054,145.355512 231.997216,145.188648 L231.997216,145.188648 L231.997216,138.142215 C231.998047,137.965419 231.974552,137.789349 231.927393,137.618956 C231.855858,137.432442 231.70088,137.290353 231.508871,137.235239 C230.314783,136.727335 229.056224,136.386912 227.768919,136.223636 C225.991216,135.953774 224.194896,135.825465 222.396885,135.839919 Z M185.305597,125.129332 C184.003202,125.129332 182.689308,125.141391 181.363915,125.164245 C180.038397,125.187836 178.78255,125.21111 177.596372,125.234068 C176.409712,125.257694 175.305079,125.280933 174.282473,125.303787 C173.258805,125.327803 172.580101,125.338701 171.836791,125.338701 C171.557703,125.338701 171.418057,125.502172 171.418057,125.827068 L171.418057,125.827068 L171.418057,170.407924 C171.418057,170.780747 171.580557,170.966097 171.906402,170.96611 L171.906402,170.96611 L180.212691,170.96611 C180.385631,170.990813 180.560109,170.93266 180.683647,170.809141 C180.807184,170.685622 180.865364,170.511153 180.840687,170.33821 L180.840687,170.33821 L180.840687,156.41875 C181.677872,156.419068 182.305726,156.430706 182.724248,156.453664 C183.14249,156.476937 183.863442,156.488573 184.887106,156.488573 C188.468016,156.488573 191.724152,156.117765 194.654439,155.024383 C197.463863,154.023201 199.89883,152.184809 201.631149,149.756991 C203.35206,147.339153 204.212609,144.269419 204.212609,140.547791 C204.219002,138.632902 203.888321,136.731822 203.235613,134.931596 C202.545729,133.08178 201.462737,131.403655 200.06136,130.013007 C198.408138,128.408631 196.417952,127.193109 194.235692,126.454933 C191.816464,125.571199 188.839766,125.129332 185.305597,125.129332 Z M185.584686,133.571207 C187.323709,133.516283 189.055931,133.812887 190.677613,134.443255 C191.919619,134.937441 192.979263,135.802194 193.712424,136.919903 C194.409861,138.075849 194.76103,139.407617 194.724258,140.757165 C194.724113,142.664504 194.270608,144.15286 193.363743,145.222231 C192.422893,146.314823 191.187841,147.11398 189.805669,147.524531 C188.194112,148.046596 186.511257,148.315235 184.817257,148.320851 L184.817257,148.320851 L182.514957,148.320851 C182.002632,148.321236 181.444532,148.297997 180.840656,148.251127 L180.840656,148.251127 L180.840656,133.710645 C181.165518,133.664905 181.75853,133.630027 182.619693,133.606012 C183.48001,133.582808 184.468341,133.571207 185.584686,133.571207 Z"/></g></svg>