<svg xmlns="http://www.w3.org/2000/svg" xmlns:xlink="http://www.w3.org/1999/xlink" width="400" height="300" viewBox="0 0 400 300"><defs><linearGradient id="a" x1="50%" x2="50%" y1="0%" y2="100%"><stop offset="0%" stop-color="#56B5EB"/><stop offset="100%" stop-color="#3062D9"/></linearGradient><linearGradient id="b" x1="50%" x2="50%" y1="0%" y2="100%"><stop offset="0%" stop-color="#56B5EB"/><stop offset="100%" stop-color="#3062D9"/></linearGradient><linearGradient id="d" x1="30.216%" x2="69.784%" y1="0%" y2="100%"><stop offset="0%" stop-color="#50A7E8"/><stop offset="100%" stop-color="#366FDC"/></linearGradient><linearGradient id="e" x1="30.216%" x2="69.784%" y1="0%" y2="100%"><stop offset="0%" stop-color="#4FA7E8"/><stop offset="100%" stop-color="#3772DD"/></linearGradient><linearGradient id="f" x1="0%" x2="100%" y1="50%" y2="50%"><stop offset="0%" stop-color="#3F83E1"/><stop offset="100%" stop-color="#3B7ADE"/></linearGradient><linearGradient id="k" x1="26.608%" x2="97.138%" y1="49.522%" y2="50.906%"><stop offset="0%" stop-color="#FFF"/><stop offset="100%" stop-color="#E7ECEE"/></linearGradient><linearGradient id="n" x1="40.922%" x2="68.293%" y1="22.729%" y2="101.734%"><stop offset="0%" stop-color="#FFF"/><stop offset="100%" stop-color="#E7ECEE"/></linearGradient><path id="g" d="M42.2324103,2.80421426 L62.0189,14.2951388 C64.8696243,15.9506855 65.8463546,19.617332 64.2004881,22.484823 L32.9093875,77.0013665 C31.263521,79.8688575 27.618314,80.8513324 24.7675897,79.1957857 L4.98110003,67.7048612 C2.13037572,66.0493145 1.15364544,62.382668 2.79951189,59.515177 L34.0906125,4.99863354 C35.736479,2.13114253 39.381686,1.14866756 42.2324103,2.80421426 Z"/><path id="i" d="M41.7185185,34 C44.0831154,34 46,36.0147186 46,38.5 C46,40.9121849 44.1942152,42.8810801 41.9259602,42.9948108 L41.7185185,43 L-17.7185185,43 C-20.0831154,43 -22,40.9852814 -22,38.5 C-22,36.0878151 -20.1942152,34.1189199 -17.9259602,34.0051892 L-17.7185185,34 L41.7185185,34 Z"/><path id="l" d="M5.13268491,-2.41480944 C6.99021612,-3.51410343 9.36198916,-3.01914178 10.6322369,-1.31142425 L10.7555301,-1.13662411 L10.9247775,-0.861260768 L40.4395232,51.5395532 C41.6002229,53.6002726 40.901445,56.212019 38.8673151,57.4158247 C37.0097839,58.5151187 34.6380108,58.0201571 33.3537897,56.2906452 L33.229052,56.1135922 L33.0752225,55.862276 L3.56047681,3.4614621 C2.39977711,1.40074269 3.09855503,-1.21100369 5.13268491,-2.41480944 Z"/><filter id="j" width="138.2%" height="388.9%" x="-19.1%" y="-122.2%" filterUnits="objectBoundingBox"><feOffset dy="2" in="SourceAlpha" result="shadowOffsetOuter1"/><feGaussianBlur in="shadowOffsetOuter1" result="shadowBlurOuter1" stdDeviation="4"/><feColorMatrix in="shadowBlurOuter1" values="0 0 0 0 0.1824 0 0 0 0 0.2592 0 0 0 0 0.2976 0 0 0 0.24 0"/></filter><filter id="m" width="168.4%" height="142.6%" x="-34.2%" y="-18%" filterUnits="objectBoundingBox"><feOffset dy="2" in="SourceAlpha" result="shadowOffsetOuter1"/><feGaussianBlur in="shadowOffsetOuter1" result="shadowBlurOuter1" stdDeviation="4"/><feColorMatrix in="shadowBlurOuter1" result="shadowMatrixOuter1" values="0 0 0 0 0.1824 0 0 0 0 0.2592 0 0 0 0 0.2976 0 0 0 0.24 0"/><feOffset dy="2" in="SourceAlpha" result="shadowOffsetOuter2"/><feGaussianBlur in="shadowOffsetOuter2" result="shadowBlurOuter2" stdDeviation="2"/><feColorMatrix in="shadowBlurOuter2" result="shadowMatrixOuter2" values="0 0 0 0 0.0736 0 0 0 0 0.0821333333 0 0 0 0 0.0864 0 0 0 0.08 0"/><feMerge><feMergeNode in="shadowMatrixOuter1"/><feMergeNode in="shadowMatrixOuter2"/></feMerge></filter><radialGradient id="c" cx="0%" cy="50%" r="100%" fx="0%" fy="50%"><stop offset="0%" stop-color="#89C4FF" stop-opacity=".75"/><stop offset="100%" stop-color="#B5DAEF"/></radialGradient></defs><g fill="none" fill-rule="evenodd"><rect width="400" height="300" fill="url(#a)"/><path fill="url(#b)" d="M180.202737,102 L219.797263,102 C229.603969,102 233.160118,103.021082 236.745303,104.93846 C240.330488,106.855838 243.144162,109.669512 245.06154,113.254697 C246.978918,116.839882 248,120.396031 248,130.202737 L248,169.797263 C248,179.603969 246.978918,183.160118 245.06154,186.745303 C243.144162,190.330488 240.330488,193.144162 236.745303,195.06154 C233.160118,196.978918 229.603969,198 219.797263,198 L180.202737,198 C170.396031,198 166.839882,196.978918 163.254697,195.06154 C159.669512,193.144162 156.855838,190.330488 154.93846,186.745303 C153.021082,183.160118 152,179.603969 152,169.797263 L152,130.202737 C152,120.396031 153.021082,116.839882 154.93846,113.254697 C156.855838,109.669512 159.669512,106.855838 163.254697,104.93846 C166.839882,103.021082 170.396031,102 180.202737,102 Z"/><path stroke="#FFF" d="M220.391978,107.500963 C227.921721,107.532416 230.730029,108.333855 233.555812,109.845101 C236.400722,111.366576 238.633424,113.599278 240.154899,116.444188 C241.696986,119.32764 242.5,122.192897 242.5,130.074967 L242.5,130.074967 L242.5,169.925033 C242.5,177.807103 241.696986,180.67236 240.154899,183.555812 C238.633424,186.400722 236.400722,188.633424 233.555812,190.154899 C230.67236,191.696986 227.807103,192.5 219.925033,192.5 L219.925033,192.5 L180.074967,192.5 C172.192897,192.5 169.32764,191.696986 166.444188,190.154899 C163.599278,188.633424 161.366576,186.400722 159.845101,183.555812 C158.303014,180.67236 157.5,177.807103 157.5,169.925033 L157.500963,129.608022 C157.532416,122.078279 158.333855,119.269971 159.845101,116.444188 C161.366576,113.599278 163.599278,111.366576 166.444188,109.845101 C169.32764,108.303014 172.192897,107.5 180.074967,107.5 Z"/><circle cx="200" cy="150" r="30.75" stroke="url(#c)" stroke-width=".5"/><circle cx="200" cy="150" r="38.75" stroke="url(#c)" stroke-width=".5"/><g stroke="#FFF" stroke-width=".75" transform="translate(167 119)"><path fill="url(#d)" d="M25.8354527,1.46590157 C26.7434556,0.929210523 27.7830349,0.811368847 28.7297863,1.05470065 C29.6765376,1.29803244 30.5304611,1.90253772 31.070963,2.81714015 L31.070963,2.81714015 L60.5998143,55.1763302 C61.129615,56.1157742 61.235037,57.1808199 60.9758894,58.1482027 C60.7167418,59.1155855 60.0930247,59.9853055 59.1645473,60.5340984 C58.2565444,61.0707895 57.2169651,61.1886312 56.2702137,60.9452994 C55.3234624,60.7019676 54.4695389,60.0974623 53.929037,59.1828599 L53.929037,59.1828599 L24.4001857,6.82366984 C23.870385,5.88422575 23.764963,4.81918014 24.0241106,3.85179732 C24.2832582,2.8844145 24.9069753,2.01469447 25.8354527,1.46590157 Z"/><path fill="url(#e)" d="M7.83545272,1.46590157 C8.74345557,0.929210523 9.7830349,0.811368847 10.7297863,1.05470065 C11.6765376,1.29803244 12.5304611,1.90253772 13.070963,2.81714015 L13.070963,2.81714015 L42.5998143,55.1763302 C43.129615,56.1157742 43.235037,57.1808199 42.9758894,58.1482027 C42.7167418,59.1155855 42.0930247,59.9853055 41.1645473,60.5340984 C40.2565444,61.0707895 39.2169651,61.1886312 38.2702137,60.9452994 C37.3234624,60.7019676 36.4695389,60.0974623 35.929037,59.1828599 L35.929037,59.1828599 L6.40018573,6.82366984 C5.87038501,5.88422575 5.76496304,4.81918014 6.02411061,3.85179732 C6.28325818,2.8844145 6.90697529,2.01469447 7.83545272,1.46590157 Z" transform="matrix(-1 0 0 1 49 0)"/><path fill="url(#f)" d="M62.5,38.625 C63.5700517,38.625 64.5388017,39.0587241 65.2400388,39.7599612 C65.9412759,40.4611983 66.375,41.4299483 66.375,42.5 C66.375,43.5700517 65.9412759,44.5388017 65.2400388,45.2400388 C64.5388017,45.9412759 63.5700517,46.375 62.5,46.375 L62.5,46.375 L3.5,46.375 C2.4299483,46.375 1.4611983,45.9412759 0.759961223,45.2400388 C0.0587241486,44.5388017 -0.375,43.5700517 -0.375,42.5 C-0.375,41.4299483 0.0587241486,40.4611983 0.759961223,39.7599612 C1.4611983,39.0587241 2.4299483,38.625 3.5,38.625 L3.5,38.625 Z"/></g><path fill="#151515" d="M230.23241,125.804214 L250.0189,137.295139 C252.869624,138.950685 253.846355,142.617332 252.200488,145.484823 L220.909387,200.001366 C219.263521,202.868857 215.618314,203.851332 212.76759,202.195786 L192.9811,190.704861 C190.130376,189.049315 189.153645,185.382668 190.799512,182.515177 L222.090613,127.998634 C223.736479,125.131143 227.381686,124.148668 230.23241,125.804214 Z"/><g transform="translate(188 123)"><mask id="h" fill="#fff"><use xlink:href="#g"/></mask><path stroke="#363636" stroke-width=".5" d="M37.6446301,1.96389867 C39.1800934,1.55005269 40.8725227,1.72536445 42.3579605,2.58802649 L42.3579605,2.58802649 L62.1444502,14.078951 C63.6292801,14.94126 64.6262192,16.327234 65.0374914,17.8711502 C65.4486674,19.4147054 65.2743945,21.1160297 64.4173107,22.6092736 L64.4173107,22.6092736 L33.1262101,77.1258171 C32.2687781,78.6196677 30.8904694,79.6223534 29.3553699,80.0361013 C27.8199066,80.4499473 26.1274773,80.2746355 24.6420395,79.4119735 L24.6420395,79.4119735 L4.85554985,67.921049 C3.3707199,67.05874 2.37378078,65.672766 1.96250861,64.1288498 C1.5513326,62.5852946 1.72560547,60.8839703 2.58268928,59.3907264 L2.58268928,59.3907264 L33.8737899,4.87418292 C34.7312219,3.38033228 36.1095306,2.37764659 37.6446301,1.96389867 Z"/><g fill-rule="nonzero" mask="url(#h)"><use xlink:href="#i" fill="#000" filter="url(#j)"/><use xlink:href="#i" fill="url(#k)"/></g><g fill-rule="nonzero" mask="url(#h)"><use xlink:href="#l" fill="#000" filter="url(#m)"/><use xlink:href="#l" fill="url(#n)"/></g></g><path stroke="#151515" d="M225.839809,125.688057 C227.189009,125.324414 228.676099,125.478594 229.98131,126.23659 L229.98131,126.23659 L249.7678,137.727514 C251.074226,138.486216 251.950939,139.705913 252.312764,141.064205 C252.674781,142.423219 252.521475,143.921173 251.766843,145.235922 L251.766843,145.235922 L220.475742,199.752465 C219.721807,201.066 218.510119,201.948104 217.160191,202.311943 C215.810991,202.675586 214.323901,202.521406 213.01869,201.76341 L213.01869,201.76341 L193.2322,190.272486 C191.925774,189.513784 191.049061,188.294087 190.687236,186.935795 C190.325219,185.576781 190.478525,184.078827 191.233157,182.764078 L191.233157,182.764078 L222.524258,128.247535 C223.278193,126.934 224.489881,126.051896 225.839809,125.688057 Z"/></g></svg>