<svg xmlns="http://www.w3.org/2000/svg" xmlns:xlink="http://www.w3.org/1999/xlink" width="400" height="300" viewBox="0 0 400 300"><defs><linearGradient id="a" x1="50%" x2="50%" y1="0%" y2="100%"><stop offset="0%" stop-color="#56B5EB"/><stop offset="100%" stop-color="#3062D9"/></linearGradient><linearGradient id="c" x1="30.216%" x2="69.784%" y1="0%" y2="100%"><stop offset="0%" stop-color="#50A7E8"/><stop offset="100%" stop-color="#366FDC"/></linearGradient><linearGradient id="d" x1="30.216%" x2="69.784%" y1="0%" y2="100%"><stop offset="0%" stop-color="#4FA7E8"/><stop offset="100%" stop-color="#3772DD"/></linearGradient><linearGradient id="e" x1="0%" x2="100%" y1="50%" y2="50%"><stop offset="0%" stop-color="#3F83E1"/><stop offset="100%" stop-color="#3B7ADE"/></linearGradient><linearGradient id="j" x1="26.608%" x2="97.138%" y1="49.522%" y2="50.906%"><stop offset="0%" stop-color="#FFF"/><stop offset="100%" stop-color="#E7ECEE"/></linearGradient><linearGradient id="m" x1="40.922%" x2="68.293%" y1="22.729%" y2="101.734%"><stop offset="0%" stop-color="#FFF"/><stop offset="100%" stop-color="#E7ECEE"/></linearGradient><path id="f" d="M42.2324103,2.80421426 L62.0189,14.2951388 C64.8696243,15.9506855 65.8463546,19.617332 64.2004881,22.484823 L32.9093875,77.0013665 C31.263521,79.8688575 27.618314,80.8513324 24.7675897,79.1957857 L4.98110003,67.7048612 C2.13037572,66.0493145 1.15364544,62.382668 2.79951189,59.515177 L34.0906125,4.99863354 C35.736479,2.13114253 39.381686,1.14866756 42.2324103,2.80421426 Z"/><path id="h" d="M41.7185185,34 C44.0831154,34 46,36.0147186 46,38.5 C46,40.9121849 44.1942152,42.8810801 41.9259602,42.9948108 L41.7185185,43 L-17.7185185,43 C-20.0831154,43 -22,40.9852814 -22,38.5 C-22,36.0878151 -20.1942152,34.1189199 -17.9259602,34.0051892 L-17.7185185,34 L41.7185185,34 Z"/><path id="k" d="M5.13268491,-2.41480944 C6.99021612,-3.51410343 9.36198916,-3.01914178 10.6322369,-1.31142425 L10.7555301,-1.13662411 L10.9247775,-0.861260768 L40.4395232,51.5395532 C41.6002229,53.6002726 40.901445,56.212019 38.8673151,57.4158247 C37.0097839,58.5151187 34.6380108,58.0201571 33.3537897,56.2906452 L33.229052,56.1135922 L33.0752225,55.862276 L3.56047681,3.4614621 C2.39977711,1.40074269 3.09855503,-1.21100369 5.13268491,-2.41480944 Z"/><filter id="i" width="138.2%" height="388.9%" x="-19.1%" y="-122.2%" filterUnits="objectBoundingBox"><feOffset dy="2" in="SourceAlpha" result="shadowOffsetOuter1"/><feGaussianBlur in="shadowOffsetOuter1" result="shadowBlurOuter1" stdDeviation="4"/><feColorMatrix in="shadowBlurOuter1" values="0 0 0 0 0.1824 0 0 0 0 0.2592 0 0 0 0 0.2976 0 0 0 0.24 0"/></filter><filter id="l" width="168.4%" height="142.6%" x="-34.2%" y="-18%" filterUnits="objectBoundingBox"><feOffset dy="2" in="SourceAlpha" result="shadowOffsetOuter1"/><feGaussianBlur in="shadowOffsetOuter1" result="shadowBlurOuter1" stdDeviation="4"/><feColorMatrix in="shadowBlurOuter1" result="shadowMatrixOuter1" values="0 0 0 0 0.1824 0 0 0 0 0.2592 0 0 0 0 0.2976 0 0 0 0.24 0"/><feOffset dy="2" in="SourceAlpha" result="shadowOffsetOuter2"/><feGaussianBlur in="shadowOffsetOuter2" result="shadowBlurOuter2" stdDeviation="2"/><feColorMatrix in="shadowBlurOuter2" result="shadowMatrixOuter2" values="0 0 0 0 0.0736 0 0 0 0 0.0821333333 0 0 0 0 0.0864 0 0 0 0.08 0"/><feMerge><feMergeNode in="shadowMatrixOuter1"/><feMergeNode in="shadowMatrixOuter2"/></feMerge></filter><radialGradient id="b" cx="0%" cy="50%" r="100%" fx="0%" fy="50%"><stop offset="0%" stop-color="#89C4FF" stop-opacity=".75"/><stop offset="100%" stop-color="#B5DAEF"/></radialGradient></defs><g fill="none" fill-rule="evenodd"><g transform="translate(152 102)"><path fill="url(#a)" d="M28.2027372,2.48791222e-15 L67.7972628,1.13942434e-15 C77.6039689,-6.62038354e-16 81.1601176,1.02108172 84.7453027,2.93845974 C88.3304879,4.85583776 91.1441622,7.66951208 93.0615403,11.2546973 C94.9789183,14.8398824 96,18.3960311 96,28.2027372 L96,67.7972628 C96,77.6039689 94.9789183,81.1601176 93.0615403,84.7453027 C91.1441622,88.3304879 88.3304879,91.1441622 84.7453027,93.0615403 C81.1601176,94.9789183 77.6039689,96 67.7972628,96 L28.2027372,96 C18.3960311,96 14.8398824,94.9789183 11.2546973,93.0615403 C7.66951208,91.1441622 4.85583776,88.3304879 2.93845974,84.7453027 C1.02108172,81.1601176 -1.6662281e-15,77.6039689 2.86772033e-15,67.7972628 L7.59616226e-16,28.2027372 C-4.41358902e-16,18.3960311 1.02108172,14.8398824 2.93845974,11.2546973 C4.85583776,7.66951208 7.66951208,4.85583776 11.2546973,2.93845974 C14.8398824,1.02108172 18.3960311,-1.44554865e-15 28.2027372,2.48791222e-15 Z" opacity=".5"/><path stroke="#FFF" d="M28.0749668,5.5 L67.9250332,5.5 C75.8071032,5.5 78.6723595,6.30301373 81.5558119,7.84510093 C84.4007222,9.3665756 86.6334244,11.5992778 88.1548991,14.4441881 C89.6969863,17.3276405 90.5,20.1928968 90.5,28.0749668 L90.5,28.0749668 L90.5,67.9250332 C90.5,75.8071032 89.6969863,78.6723595 88.1548991,81.5558119 C86.6334244,84.4007222 84.4007222,86.6334244 81.5558119,88.1548991 C78.6723595,89.6969863 75.8071032,90.5 67.9250332,90.5 L67.9250332,90.5 L28.0749668,90.5 C20.1928968,90.5 17.3276405,89.6969863 14.4441881,88.1548991 C11.5992778,86.6334244 9.3665756,84.4007222 7.84510093,81.5558119 C6.30301373,78.6723595 5.5,75.8071032 5.5,67.9250332 L5.5,67.9250332 L5.5,28.0749668 C5.5,20.1928968 6.30301373,17.3276405 7.84510093,14.4441881 C9.3665756,11.5992778 11.5992778,9.3665756 14.4441881,7.84510093 C17.3276405,6.30301373 20.1928968,5.5 28.0749668,5.5 L28.0749668,5.5 Z" opacity=".5"/><circle cx="48" cy="48" r="30.75" stroke="url(#b)" stroke-width=".5" opacity=".5"/><circle cx="48" cy="48" r="38.75" stroke="url(#b)" stroke-width=".5" opacity=".5"/><g stroke="#FFF" stroke-opacity=".5" stroke-width=".75" transform="translate(15 17)"><path fill="url(#c)" d="M25.8354527,1.46590157 C26.7434556,0.929210523 27.7830349,0.811368847 28.7297863,1.05470065 C29.6765376,1.29803244 30.5304611,1.90253772 31.070963,2.81714015 L31.070963,2.81714015 L60.5998143,55.1763302 C61.129615,56.1157742 61.235037,57.1808199 60.9758894,58.1482027 C60.7167418,59.1155855 60.0930247,59.9853055 59.1645473,60.5340984 C58.2565444,61.0707895 57.2169651,61.1886312 56.2702137,60.9452994 C55.3234624,60.7019676 54.4695389,60.0974623 53.929037,59.1828599 L53.929037,59.1828599 L24.4001857,6.82366984 C23.870385,5.88422575 23.764963,4.81918014 24.0241106,3.85179732 C24.2832582,2.8844145 24.9069753,2.01469447 25.8354527,1.46590157 Z"/><path fill="url(#d)" d="M7.83545272,1.46590157 C8.74345557,0.929210523 9.7830349,0.811368847 10.7297863,1.05470065 C11.6765376,1.29803244 12.5304611,1.90253772 13.070963,2.81714015 L13.070963,2.81714015 L42.5998143,55.1763302 C43.129615,56.1157742 43.235037,57.1808199 42.9758894,58.1482027 C42.7167418,59.1155855 42.0930247,59.9853055 41.1645473,60.5340984 C40.2565444,61.0707895 39.2169651,61.1886312 38.2702137,60.9452994 C37.3234624,60.7019676 36.4695389,60.0974623 35.929037,59.1828599 L35.929037,59.1828599 L6.40018573,6.82366984 C5.87038501,5.88422575 5.76496304,4.81918014 6.02411061,3.85179732 C6.28325818,2.8844145 6.90697529,2.01469447 7.83545272,1.46590157 Z" transform="matrix(-1 0 0 1 49 0)"/><path fill="url(#e)" d="M62.5,38.625 C63.5700517,38.625 64.5388017,39.0587241 65.2400388,39.7599612 C65.9412759,40.4611983 66.375,41.4299483 66.375,42.5 C66.375,43.5700517 65.9412759,44.5388017 65.2400388,45.2400388 C64.5388017,45.9412759 63.5700517,46.375 62.5,46.375 L62.5,46.375 L3.5,46.375 C2.4299483,46.375 1.4611983,45.9412759 0.759961223,45.2400388 C0.0587241486,44.5388017 -0.375,43.5700517 -0.375,42.5 C-0.375,41.4299483 0.0587241486,40.4611983 0.759961223,39.7599612 C1.4611983,39.0587241 2.4299483,38.625 3.5,38.625 L3.5,38.625 Z"/></g></g><g transform="translate(188 123)"><path fill="#151515" d="M42.2324103,2.80421426 L62.0189,14.2951388 C64.8696243,15.9506855 65.8463546,19.617332 64.2004881,22.484823 L32.9093875,77.0013665 C31.263521,79.8688575 27.618314,80.8513324 24.7675897,79.1957857 L4.98110003,67.7048612 C2.13037572,66.0493145 1.15364544,62.382668 2.79951189,59.515177 L34.0906125,4.99863354 C35.736479,2.13114253 39.381686,1.14866756 42.2324103,2.80421426 Z"/><mask id="g" fill="#fff"><use xlink:href="#f"/></mask><path stroke="#363636" stroke-width=".5" d="M37.6446301,1.96389867 C39.1800934,1.55005269 40.8725227,1.72536445 42.3579605,2.58802649 L42.3579605,2.58802649 L62.1444502,14.078951 C63.6292801,14.94126 64.6262192,16.327234 65.0374914,17.8711502 C65.4486674,19.4147054 65.2743945,21.1160297 64.4173107,22.6092736 L64.4173107,22.6092736 L33.1262101,77.1258171 C32.2687781,78.6196677 30.8904694,79.6223534 29.3553699,80.0361013 C27.8199066,80.4499473 26.1274773,80.2746355 24.6420395,79.4119735 L24.6420395,79.4119735 L4.85554985,67.921049 C3.3707199,67.05874 2.37378078,65.672766 1.96250861,64.1288498 C1.5513326,62.5852946 1.72560547,60.8839703 2.58268928,59.3907264 L2.58268928,59.3907264 L33.8737899,4.87418292 C34.7312219,3.38033228 36.1095306,2.37764659 37.6446301,1.96389867 Z"/><g fill-rule="nonzero" mask="url(#g)"><use xlink:href="#h" fill="#000" filter="url(#i)"/><use xlink:href="#h" fill="url(#j)"/></g><g fill-rule="nonzero" mask="url(#g)"><use xlink:href="#k" fill="#000" filter="url(#l)"/><use xlink:href="#k" fill="url(#m)"/></g><path stroke="#151515" d="M37.8398089,2.68805694 C39.1890092,2.32441355 40.6760991,2.47859383 41.9813099,3.2365898 L41.9813099,3.2365898 L61.7677996,14.7275143 C63.0742262,15.4862163 63.9509389,16.7059132 64.3127639,18.0642049 C64.6747813,19.4232186 64.521475,20.9211731 63.7668429,22.2359218 L63.7668429,22.2359218 L32.4757423,76.7524652 C31.7218067,78.0660005 30.5101189,78.9481036 29.1601911,79.3119431 C27.8109908,79.6755865 26.3239009,79.5214062 25.0186901,78.7634102 L25.0186901,78.7634102 L5.23220039,67.2724857 C3.92577382,66.5137837 3.04906112,65.2940868 2.68723607,63.9357951 C2.32521866,62.5767814 2.47852505,61.0788269 3.2331571,59.7640782 L3.2331571,59.7640782 L34.5242577,5.24753479 C35.2781933,3.93399955 36.4898811,3.05189645 37.8398089,2.68805694 Z"/></g></g></svg>