<svg xmlns="http://www.w3.org/2000/svg" xmlns:xlink="http://www.w3.org/1999/xlink" width="400" height="300" viewBox="0 0 400 300"><defs><linearGradient id="c" x1="50%" x2="50%" y1="0%" y2="100%"><stop offset="0%" stop-color="#F9FAFB"/><stop offset="100%" stop-color="#E4EDF1"/></linearGradient><linearGradient id="f" x1="50%" x2="50%" y1="0%" y2="100%"><stop offset="0%" stop-color="#ECF1F3"/><stop offset="100%" stop-color="#C0D0D8"/></linearGradient><linearGradient id="g" x1="0%" x2="100%" y1="50%" y2="50%"><stop offset="0%" stop-color="#ECF1F3"/><stop offset="100%" stop-color="#D9E3E8"/></linearGradient><linearGradient id="i" x1="21.875%" x2="78.125%" y1="0%" y2="100%"><stop offset="0%" stop-color="#FFB647"/><stop offset="100%" stop-color="#F58300"/></linearGradient><linearGradient id="j" x1="11.719%" x2="88.281%" y1="0%" y2="100%"><stop offset="0%" stop-color="#973500"/><stop offset="100%" stop-color="#FDA200"/></linearGradient><linearGradient id="k" x1="11.719%" x2="88.281%" y1="0%" y2="100%"><stop offset="0%" stop-color="#993600"/><stop offset="100%" stop-color="#FDA200"/></linearGradient><linearGradient id="l" x1="92.604%" x2="7.396%" y1="0%" y2="100%"><stop offset="0%" stop-color="#FDCF27"/><stop offset="100%" stop-color="#FDCC11"/></linearGradient><linearGradient id="m" x1="7.396%" x2="92.604%" y1="0%" y2="100%"><stop offset="0%" stop-color="#FDD12D"/><stop offset="100%" stop-color="#FDCA0F"/></linearGradient><linearGradient id="n" x1="50%" x2="50%" y1="0%" y2="100%"><stop offset="0%" stop-color="#FFFCF0"/><stop offset="100%" stop-color="#FEDD67"/></linearGradient><linearGradient id="o" x1="50%" x2="50%" y1="100%" y2="0%"><stop offset="0%" stop-color="#FD9F00"/><stop offset="100%" stop-color="#FDCA13"/></linearGradient><linearGradient id="q" x1="50%" x2="50%" y1="0%" y2="100%"><stop offset="0%" stop-color="#BCD1DC" stop-opacity=".4"/><stop offset="100%" stop-color="#8DABB9" stop-opacity=".16"/></linearGradient><filter id="b" width="176.7%" height="153.8%" x="-38.4%" y="-19.2%" filterUnits="objectBoundingBox"><feOffset dy="8" in="SourceAlpha" result="shadowOffsetOuter1"/><feGaussianBlur in="shadowOffsetOuter1" result="shadowBlurOuter1" stdDeviation="8"/><feColorMatrix in="shadowBlurOuter1" values="0 0 0 0 0.0736 0 0 0 0 0.0821333333 0 0 0 0 0.0864 0 0 0 0.24 0"/></filter><filter id="e" width="280.7%" height="153.8%" x="-90.3%" y="-19.2%" filterUnits="objectBoundingBox"><feOffset dy="8" in="SourceAlpha" result="shadowOffsetOuter1"/><feGaussianBlur in="shadowOffsetOuter1" result="shadowBlurOuter1" stdDeviation="8"/><feColorMatrix in="shadowBlurOuter1" values="0 0 0 0 0.0736 0 0 0 0 0.0821333333 0 0 0 0 0.0864 0 0 0 0.24 0"/></filter><filter id="h" width="192.9%" height="205.4%" x="-46.4%" y="-52.7%" filterUnits="objectBoundingBox"><feOffset dy="8" in="SourceAlpha" result="shadowOffsetOuter1"/><feGaussianBlur in="shadowOffsetOuter1" result="shadowBlurOuter1" stdDeviation="6"/><feColorMatrix in="shadowBlurOuter1" result="shadowMatrixOuter1" values="0 0 0 0 0.0736 0 0 0 0 0.0821333333 0 0 0 0 0.0864 0 0 0 0.32 0"/><feMerge><feMergeNode in="shadowMatrixOuter1"/><feMergeNode in="SourceGraphic"/></feMerge></filter><path id="a" d="M248.794408,110.277852 L249.003745,110.675749 L249.20631,111.07503 L249.402069,111.477294 L249.590992,111.884143 L249.773046,112.297177 L249.9482,112.717999 C249.976816,112.788874 250.005142,112.86014 250.033179,112.93183 L250.197923,113.367334 C250.251676,113.514378 250.304265,113.663387 250.355686,113.814627 L250.506438,114.275311 L250.650146,114.750987 C250.673509,114.831604 250.696576,114.912913 250.719349,114.994947 L250.852432,115.496111 C250.895607,115.666243 250.937596,115.839541 250.978392,116.01627 L251.097197,116.557025 L251.208815,117.119975 L251.313214,117.706723 L251.410363,118.31887 C251.425949,118.4231 251.441231,118.528455 251.456209,118.634968 L251.542423,119.288214 L251.621307,119.970861 L251.692829,120.68451 L251.756958,121.430763 C251.767028,121.557944 251.776789,121.686551 251.786239,121.816616 L251.839218,122.614775 L251.884724,123.44954 L251.922724,124.322511 L251.953188,125.235291 L251.976083,126.18948 L251.991378,127.186678 L251.999041,128.228488 L251.999041,171.771512 L251.991378,172.813322 L251.976083,173.81052 L251.953188,174.764709 L251.922724,175.677489 L251.884724,176.55046 L251.839218,177.385225 L251.786239,178.183384 L251.72582,178.946539 L251.65799,179.67629 C251.64607,179.79522 251.633842,179.912825 251.621307,180.029139 L251.542423,180.711786 L251.456209,181.365032 C251.441231,181.471545 251.425949,181.5769 251.410363,181.68113 L251.313214,182.293277 L251.208815,182.880025 L251.097197,183.442975 L250.978392,183.98373 C250.937596,184.160459 250.895607,184.333757 250.852432,184.503889 L250.719349,185.005053 C250.696576,185.087087 250.673509,185.168396 250.650146,185.249013 L250.506438,185.724689 L250.355686,186.185373 C250.329976,186.260993 250.303973,186.336055 250.277679,186.410593 L250.116422,186.851792 C250.061507,186.996937 250.005431,187.140251 249.9482,187.282001 L249.773046,187.702823 L249.590992,188.115857 L249.402069,188.522706 L249.20631,188.92497 L249.003745,189.324251 L248.794408,189.722148 C246.702722,193.63326 243.63326,196.702722 239.722148,198.794408 L239.324251,199.003745 L238.92497,199.20631 L238.522706,199.402069 L238.115857,199.590992 L237.702823,199.773046 L237.282001,199.9482 C237.211126,199.976816 237.13986,200.005142 237.06817,200.033179 L236.632666,200.197923 C236.485622,200.251676 236.336613,200.304265 236.185373,200.355686 L235.724689,200.506438 L235.249013,200.650146 C235.168396,200.673509 235.087087,200.696576 235.005053,200.719349 L234.503889,200.852432 C234.333757,200.895607 234.160459,200.937596 233.98373,200.978392 L233.442975,201.097197 L232.880025,201.208815 L232.293277,201.313214 L231.68113,201.410363 C231.5769,201.425949 231.471545,201.441231 231.365032,201.456209 L230.711786,201.542423 L230.029139,201.621307 L229.31549,201.692829 L228.569237,201.756958 C228.442056,201.767028 228.313449,201.776789 228.183384,201.786239 L227.385225,201.839218 L226.55046,201.884724 L225.677489,201.922724 L224.764709,201.953188 L223.81052,201.976083 L222.813322,201.991378 L221.771512,202 L179,202 L179,98 L221.771512,98 L222.831196,98.0088247 L223.844719,98.0245917 L224.813768,98.0482271 C224.971664,98.0528201 225.127777,98.0577396 225.282142,98.0629848 L226.187642,98.0983597 C226.335158,98.1049051 226.480995,98.1117749 226.625191,98.1189683 L227.470938,98.1660073 L228.278958,98.2207803 L229.050938,98.2832541 L229.788565,98.3533949 C229.908734,98.3657221 230.027541,98.3783674 230.145023,98.39133 L230.834282,98.4729087 C230.946601,98.487138 231.057663,98.5016833 231.167506,98.5165439 L231.812193,98.6094849 C232.022394,98.6417227 232.227994,98.6752159 232.429274,98.7099591 L233.020436,98.8179327 C233.116897,98.8365514 233.212348,98.8554812 233.306825,98.8747214 L233.86227,98.9938815 L234.396014,99.1204573 C234.570498,99.1638815 234.741647,99.208536 234.909741,99.2544153 L235.40514,99.395722 L235.883898,99.5443439 C235.962397,99.5697219 236.040274,99.5954034 236.117563,99.6213875 L236.57452,99.7809193 L237.019052,99.9476824 C237.092199,99.976077 237.164898,100.004772 237.237186,100.033765 L237.666243,100.211313 C237.737022,100.2415 237.807459,100.271986 237.877589,100.302769 L238.501421,100.587816 L238.910916,100.786706 L239.317262,100.992642 L239.722148,101.205592 C243.63326,103.297278 246.702722,106.36674 248.794408,110.277852 Z"/><path id="d" d="M177.999263,98.0019684 L178.999263,201.998032 L176.957192,201.988584 L175.960255,201.971359 L175.006803,201.946389 C174.851426,201.941584 174.697792,201.936458 174.545868,201.93101 L173.65455,201.894485 L172.802593,201.850297 L171.988349,201.798478 L171.210167,201.739063 L170.466399,201.672083 L169.755394,201.597571 C169.52367,201.571482 169.297132,201.544143 169.075505,201.51556 L168.42508,201.426083 L167.802472,201.329172 L167.20603,201.224861 L166.634106,201.113183 L166.085049,200.994169 L165.557211,200.867852 L165.048943,200.734267 L164.558594,200.593444 C164.397948,200.545301 164.240014,200.495957 164.084516,200.445417 L163.62506,200.29022 L163.178575,200.127884 C163.10515,200.100234 163.032197,200.072289 162.959681,200.044049 L162.529562,199.871066 L162.108291,199.691028 L161.69422,199.503965 L161.285698,199.309912 L160.881077,199.1089 L160.277852,198.794408 C156.36674,196.702722 153.297278,193.63326 151.205592,189.722148 L150.992642,189.317262 L150.786706,188.910916 L150.587816,188.501421 L150.396008,188.087093 C150.364631,188.017541 150.333551,187.947718 150.302769,187.877589 L150.121643,187.452846 C150.06246,187.30985 150.004472,187.165346 149.947682,187.019052 L149.780919,186.57452 L149.621388,186.117563 L149.469121,185.646494 C149.44435,185.566713 149.419884,185.486273 149.395722,185.40514 L149.254415,184.909741 C149.208536,184.741647 149.163881,184.570498 149.120457,184.396014 L148.993881,183.86227 L148.874721,183.306825 C148.855481,183.212348 148.836551,183.116897 148.817933,183.020436 L148.709959,182.429274 C148.675216,182.227994 148.641723,182.022394 148.609485,181.812193 L148.516544,181.167506 C148.501683,181.057663 148.487138,180.946601 148.472909,180.834282 L148.39133,180.145023 L148.317368,179.42394 L148.251057,178.669348 C148.240644,178.540696 148.230552,178.410578 148.22078,178.278958 L148.166007,177.470938 L148.118968,176.625191 L148.079697,175.74003 C148.073801,175.589125 148.06823,175.436507 148.062985,175.282142 L148.035428,174.334698 L148.015723,173.343622 L148.003902,172.30723 C148.002591,172.130627 148.00161,171.952066 148.000959,171.771512 L148.000959,128.228488 L148.008622,127.186678 L148.023917,126.18948 L148.046812,125.235291 L148.077276,124.322511 L148.115276,123.44954 L148.160782,122.614775 L148.213761,121.816616 L148.27418,121.053461 L148.34201,120.32371 C148.35393,120.20478 148.366158,120.087175 148.378693,119.970861 L148.457577,119.288214 L148.543791,118.634968 C148.558769,118.528455 148.574051,118.4231 148.589637,118.31887 L148.686786,117.706723 L148.791185,117.119975 L148.902803,116.557025 L149.021608,116.01627 C149.062404,115.839541 149.104393,115.666243 149.147568,115.496111 L149.280651,114.994947 C149.303424,114.912913 149.326491,114.831604 149.349854,114.750987 L149.493562,114.275311 L149.644314,113.814627 C149.670024,113.739007 149.696027,113.663945 149.722321,113.589407 L149.883578,113.148208 C149.938493,113.003063 149.994569,112.859749 150.0518,112.717999 L150.226954,112.297177 L150.409008,111.884143 L150.597931,111.477294 L150.79369,111.07503 L150.996255,110.675749 L151.205592,110.277852 C153.297278,106.36674 156.36674,103.297278 160.277852,101.205592 L160.679714,100.994205 L161.083003,100.789727 L161.489368,100.59219 L161.900459,100.401628 C161.969459,100.37045 162.038725,100.339565 162.108291,100.308972 L162.529562,100.128934 L162.959681,99.9559512 L163.400299,99.7900581 C163.474701,99.7630019 163.54961,99.7362424 163.62506,99.7097803 L164.084516,99.5545826 C164.240014,99.5040434 164.397948,99.4546994 164.558594,99.406556 L165.048943,99.2657335 L165.557211,99.1321477 L166.085049,99.0058314 L166.634106,98.8868175 L167.20603,98.7751386 L167.802472,98.6708276 L168.42508,98.5739172 L169.075505,98.4844402 C169.186318,98.4701486 169.29836,98.4561681 169.411663,98.4424994 L170.106904,98.364234 C170.225394,98.3518151 170.345214,98.3397094 170.466399,98.3279175 L171.210167,98.2609374 L171.988349,98.2015217 L172.802593,98.1497034 L173.65455,98.1055151 L174.545868,98.0689896 L175.478196,98.0401597 C175.637093,98.0359979 175.797768,98.032158 175.960255,98.0286409 L176.957192,98.0114159 L178.999263,98.0019684 L177.999263,98.0019684 Z"/><radialGradient id="p" cx="50%" cy="0%" r="100%" fx="50%" fy="0%" gradientTransform="matrix(0 1 -.88095 0 .5 -.5)"><stop offset="0%" stop-color="#FFF"/><stop offset="100%" stop-color="#FFF" stop-opacity=".2"/></radialGradient></defs><g fill="none" fill-rule="evenodd"><use xlink:href="#a" fill="#000" filter="url(#b)"/><use xlink:href="#a" fill="url(#c)"/><g opacity=".5"><use xlink:href="#d" fill="#000" filter="url(#e)"/><use xlink:href="#d" fill="#FDFDFD"/></g><rect width="2" height="104" x="178" y="98" fill="url(#f)"/><rect width="74" height="2" x="178" y="131" fill="url(#g)"/><g filter="url(#h)" transform="translate(158 113)"><polygon fill="url(#i)" points="18 2 18 26 0 26"/><polygon fill="url(#j)" points="42 74 18 26 0 26"/><polygon fill="url(#k)" points="84 74 60 26 42 26" transform="matrix(-1 0 0 1 126 0)"/><polygon fill="url(#i)" points="66 2 66 26 84 26"/><path fill="url(#l)" d="M18,2 C26,0.666666667 34,0 42,0 C42,4.68056401 34,13.3472307 18,26 L18,2 Z"/><path fill="url(#m)" d="M66,2 C59.3333333,0.666666667 51.3333333,0 42,0 C42,4.68056401 50,13.3472307 66,26 L66,2 Z"/><polygon fill="url(#n)" points="18 26 42 0 66 26"/><polygon fill="url(#o)" points="18 74 42 26 66 74" transform="matrix(1 0 0 -1 0 100)"/><path fill="url(#p)" d="M65,24.917 L66,2 L66,25 L84,26 L66,26 L42,74 L18,26 L0,26 L18,25 L18,2 L19,24.917 L42,9.09494702e-13 L65,24.917 Z M65,26 L19,26 L42,73.042 L65,26 Z M42,0.042 L19,25 L65,25 L42,0.042 Z"/></g><path stroke="url(#q)" d="M221.764395,98.5009316 C231.920015,98.5369432 235.690563,99.6164907 239.486349,101.646499 C243.309037,103.690895 246.309105,106.690963 248.353501,110.513651 C250.418509,114.374881 251.5,118.209996 251.5,128.766622 L251.5,128.766622 L251.5,171.233378 C251.5,181.790004 250.418509,185.625119 248.353501,189.486349 C246.309105,193.309037 243.309037,196.309105 239.486349,198.353501 C235.625119,200.418509 231.790004,201.5 221.233378,201.5 L221.233378,201.5 L178.766622,201.5 C168.209996,201.5 164.374881,200.418509 160.513651,198.353501 C156.690963,196.309105 153.690895,193.309037 151.646499,189.486349 C149.617078,185.691661 148.537536,181.922312 148.500959,171.771501 L148.500959,171.771501 L148.500932,128.235605 C148.536943,118.079985 149.616491,114.309437 151.646499,110.513651 C153.690895,106.690963 156.690963,103.690895 160.513651,101.646499 C164.308339,99.6170777 168.077688,98.5375364 178.228499,98.5009593 L178.228499,98.5009593 Z"/></g></svg>