<svg xmlns="http://www.w3.org/2000/svg" width="400" height="300" viewBox="0 0 400 300"><defs><linearGradient id="a" x1="50%" x2="50%" y1="0%" y2="100%"><stop offset="0%" stop-color="#4D4D4D"/><stop offset="100%" stop-color="#404040"/></linearGradient><linearGradient id="b" x1="55.117%" x2="63.68%" y1="59.146%" y2="39.038%"><stop offset="0%" stop-color="#FF9700"/><stop offset="53%" stop-color="#F48E00"/><stop offset="100%" stop-color="#D06F00"/></linearGradient></defs><g fill="none" fill-rule="evenodd"><rect width="400" height="300" fill="#262626"/><g transform="translate(152 102)"><rect width="96" height="96" fill="url(#a)" rx="6"/><g transform="translate(21 12)"><path fill="url(#b)" d="M53.9925,36.2124928 C53.9925,35.3686809 53.385,34.8821032 52.6395,35.1238522 L1.353,51.8183935 C0.606,52.0616824 1.49880108e-15,52.9439893 1.49880108e-15,53.7862614 L1.49880108e-15,70.8488156 C1.49880108e-15,71.6926275 0.606,72.180745 1.353,71.9374561 L52.6395,55.2444546 C53.385,55.0011658 53.9925,54.1188588 53.9925,53.2750469 L53.9925,36.2124928 L53.9925,36.2124928 Z"/><path fill="#FF9800" d="M1.0658141e-14,35.6689424 C1.0658141e-14,36.5127543 0.606,37.3950613 1.353,37.6383501 L52.647,54.3344312 C53.394,54.57772 54,54.0896026 54,53.2473305 L54,36.1832365 C54,35.3409644 53.394,34.4586575 52.647,34.2153686 L1.353,17.5192875 C0.606,17.2759987 1.0658141e-14,17.7625764 1.0658141e-14,18.6063883 L1.0658141e-14,35.6689424 Z"/><path fill="#FF9800" d="M53.9925,1.15118442 C53.9925,0.307372514 53.385,-0.180744954 52.6395,0.0625438787 L1.353,16.7555454 C0.606,16.9988342 1.49880108e-15,17.8811412 1.49880108e-15,18.7249531 L1.49880108e-15,35.7875072 C1.49880108e-15,36.6313191 0.606,37.1178968 1.353,36.8761478 L52.6395,20.1816065 C53.385,19.9383176 53.9925,19.0560107 53.9925,18.2137386 L53.9925,1.15118442 Z"/></g></g></g></svg>