<svg xmlns="http://www.w3.org/2000/svg" width="400" height="300" viewBox="0 0 400 300"><defs><linearGradient id="a" x1="100%" x2="0%" y1=".449%" y2="99.551%"><stop offset="0%" stop-color="#3273B4"/><stop offset="100%" stop-color="#2D69A9"/></linearGradient><linearGradient id="b" x1="0%" x2="100%" y1=".449%" y2="89.395%"><stop offset="0%" stop-color="#3F8FD0"/><stop offset="100%" stop-color="#3274C4"/></linearGradient><linearGradient id="c" x1="50%" x2="50%" y1="0%" y2="100%"><stop offset="0%" stop-color="#58B1EE"/><stop offset="100%" stop-color="#4B9BE9"/></linearGradient></defs><g fill="none" fill-rule="evenodd"><rect width="400" height="300" fill="#81949F" fill-opacity=".08"/><path fill="url(#a)" d="M149.230704,164.051982 L219.303798,100.110284 C220.935657,98.6212129 223.46567,98.7369652 224.954741,100.368824 C225.627198,101.105762 226,102.06739 226,103.065025 L226,126 L160.662206,175.964196 C159.121981,177.142015 156.958816,177.045581 155.529507,175.735381 L149.224008,169.95534 C147.595532,168.462571 147.48552,165.932301 148.978289,164.303825 C149.058643,164.216167 149.142864,164.132136 149.230704,164.051982 Z"/><path fill="url(#b)" d="M160.662206,124.035804 L226,174 L226,196.934975 C226,199.144114 224.209139,200.934975 222,200.934975 C221.002365,200.934975 220.040737,200.562173 219.303798,199.889716 L149.230704,135.948018 C147.598846,134.458947 147.483094,131.928933 148.972165,130.297075 C149.052319,130.209235 149.13635,130.125013 149.224008,130.04466 L155.529507,124.264619 C156.958816,122.954419 159.121981,122.857985 160.662206,124.035804 Z"/><path fill="url(#c)" d="M226.6279,98.7513998 L248.608494,109.362721 C250.682176,110.363809 252,112.463352 252,114.766031 L252,185.233969 C252,187.536648 250.682176,189.636191 248.608494,190.637279 L226.711473,201.208254 C224.692611,202.182878 222.320035,201.943857 220.546066,200.637181 L221.149287,200.787322 C221.458946,200.864736 221.77693,200.903882 222.096118,200.903882 C224.184796,200.903882 225.890362,199.263587 225.99492,197.200893 L226,197 L226,102.98145 C226,101.993283 225.634226,101.04009 224.973177,100.305591 C223.835038,99.0409918 222.073344,98.6713581 220.573538,99.2432919 C222.337103,98.0046125 224.65361,97.7982944 226.6279,98.7513998 Z"/></g></svg>