<svg xmlns="http://www.w3.org/2000/svg" xmlns:xlink="http://www.w3.org/1999/xlink" width="400" height="300" viewBox="0 0 400 300"><defs><linearGradient id="a" x1="99.965%" x2=".035%" y1="0%" y2="100%"><stop offset="0%" stop-color="#3579B7"/><stop offset="100%" stop-color="#2D6AAA"/></linearGradient><linearGradient id="d" x1="0%" x2="96.842%" y1="0%" y2="100%"><stop offset="0%" stop-color="#3F8FD0"/><stop offset="100%" stop-color="#3273C3"/></linearGradient><linearGradient id="g" x1="50%" x2="50%" y1="0%" y2="100%"><stop offset="0%" stop-color="#58B1EE"/><stop offset="100%" stop-color="#4B9BE9"/></linearGradient><filter id="c" width="117.9%" height="117.9%" x="-9%" y="-11.5%" filterUnits="objectBoundingBox"><feOffset dy="-2" in="SourceAlpha" result="shadowOffsetOuter1"/><feGaussianBlur in="shadowOffsetOuter1" result="shadowBlurOuter1" stdDeviation="2"/><feColorMatrix in="shadowBlurOuter1" values="0 0 0 0 0.0736 0 0 0 0 0.0821333333 0 0 0 0 0.0864 0 0 0 0.08 0"/></filter><filter id="f" width="143.8%" height="113.4%" x="-28.1%" y="-6.7%" filterUnits="objectBoundingBox"><feOffset dx="-2" in="SourceAlpha" result="shadowOffsetOuter1"/><feGaussianBlur in="shadowOffsetOuter1" result="shadowBlurOuter1" stdDeviation="2"/><feComposite in="shadowBlurOuter1" in2="SourceAlpha" operator="out" result="shadowBlurOuter1"/><feColorMatrix in="shadowBlurOuter1" values="0 0 0 0 0.0736 0 0 0 0 0.0821333333 0 0 0 0 0.0864 0 0 0 0.08 0"/></filter><path id="b" d="M161.723398,123.825529 L227,173.968598 L227,196.98568 C227,199.202728 225.210816,201 223.003746,201 C222.007045,201 220.736248,200.674864 220,200 L150.302603,135.780388 C148.672273,134.285986 148.556629,131.746916 150.044306,130.109215 C150.124385,130.02106 150.208337,129.936537 150.295913,129.855896 L156.595506,124.055163 C158.023477,122.740272 160.184616,122.643493 161.723398,123.825529 Z"/><path id="e" d="M226.994063,98.598774 L248.65744,109.245883 C250.701195,110.250347 252,112.35697 252,114.667416 L252,185.37301 C252,187.683455 250.701195,189.790078 248.65744,190.794542 L227.07643,201.401169 C225.086703,202.379079 223,202.988489 220,200 C220.942522,200.610494 221.942522,200.943827 223,201 C224.586217,201.084259 226.267169,199.449943 226.370218,197.380293 L226.375225,197.178722 L226.375225,102.84309 C226.375225,101.85159 226.014729,100.895182 225.36322,100.158206 C224.241506,98.8893426 221.505237,99.2645719 220,100 C221.76519,98.5955777 224,97 226.994063,98.598774 Z"/></defs><g fill="none" fill-rule="evenodd"><rect width="400" height="300" fill="#81949F" fill-opacity=".08"/><path fill="url(#a)" d="M150.302601,164.219616 L220,100 C221.63033,98.5055986 224.468044,98.6707916 225.95572,100.308492 C226.627547,101.048068 227,102.013138 227,103.014345 L227,126.03142 L161.723396,176.174472 C160.184614,177.356507 158.023475,177.259728 156.595504,175.944838 L150.29591,170.144106 C148.668959,168.645993 148.559051,166.106666 150.050422,164.47236 C150.1307,164.384389 150.214843,164.300057 150.302601,164.219616 Z"/><use xlink:href="#b" fill="#000" filter="url(#c)"/><use xlink:href="#b" fill="url(#d)"/><use xlink:href="#e" fill="#000" filter="url(#f)"/><use xlink:href="#e" fill="url(#g)" fill-opacity=".99"/></g></svg>