<svg xmlns="http://www.w3.org/2000/svg" width="400" height="300" viewBox="0 0 400 300"><defs><linearGradient id="a" x1="50%" x2="50%" y1="0%" y2="100%"><stop offset="0%" stop-color="#56B5EB"/><stop offset="100%" stop-color="#3062D9"/></linearGradient><linearGradient id="b" x1="50%" x2="50%" y1="0%" y2="100%"><stop offset="0%" stop-color="#56B5EB"/><stop offset="100%" stop-color="#3062D9"/></linearGradient><linearGradient id="d" x1="30.216%" x2="69.784%" y1="0%" y2="100%"><stop offset="0%" stop-color="#50A7E8"/><stop offset="100%" stop-color="#366FDC"/></linearGradient><linearGradient id="e" x1="30.216%" x2="69.784%" y1="0%" y2="100%"><stop offset="0%" stop-color="#4FA7E8"/><stop offset="100%" stop-color="#3772DD"/></linearGradient><linearGradient id="f" x1="0%" x2="100%" y1="50%" y2="50%"><stop offset="0%" stop-color="#3F83E1"/><stop offset="100%" stop-color="#3B7ADE"/></linearGradient><radialGradient id="c" cx="0%" cy="50%" r="100%" fx="0%" fy="50%"><stop offset="0%" stop-color="#89C4FF" stop-opacity=".75"/><stop offset="100%" stop-color="#B5DAEF"/></radialGradient></defs><g fill="none" fill-rule="evenodd"><rect width="400" height="300" fill="url(#a)"/><path fill="url(#b)" d="M180.202737,102 L219.797263,102 C229.603969,102 233.160118,103.021082 236.745303,104.93846 C240.330488,106.855838 243.144162,109.669512 245.06154,113.254697 C246.978918,116.839882 248,120.396031 248,130.202737 L248,169.797263 C248,179.603969 246.978918,183.160118 245.06154,186.745303 C243.144162,190.330488 240.330488,193.144162 236.745303,195.06154 C233.160118,196.978918 229.603969,198 219.797263,198 L180.202737,198 C170.396031,198 166.839882,196.978918 163.254697,195.06154 C159.669512,193.144162 156.855838,190.330488 154.93846,186.745303 C153.021082,183.160118 152,179.603969 152,169.797263 L152,130.202737 C152,120.396031 153.021082,116.839882 154.93846,113.254697 C156.855838,109.669512 159.669512,106.855838 163.254697,104.93846 C166.839882,103.021082 170.396031,102 180.202737,102 Z"/><path stroke="#FFF" d="M220.391978,107.500963 C227.921721,107.532416 230.730029,108.333855 233.555812,109.845101 C236.400722,111.366576 238.633424,113.599278 240.154899,116.444188 C241.696986,119.32764 242.5,122.192897 242.5,130.074967 L242.5,130.074967 L242.5,169.925033 C242.5,177.807103 241.696986,180.67236 240.154899,183.555812 C238.633424,186.400722 236.400722,188.633424 233.555812,190.154899 C230.67236,191.696986 227.807103,192.5 219.925033,192.5 L219.925033,192.5 L180.074967,192.5 C172.192897,192.5 169.32764,191.696986 166.444188,190.154899 C163.599278,188.633424 161.366576,186.400722 159.845101,183.555812 C158.303014,180.67236 157.5,177.807103 157.5,169.925033 L157.500963,129.608022 C157.532416,122.078279 158.333855,119.269971 159.845101,116.444188 C161.366576,113.599278 163.599278,111.366576 166.444188,109.845101 C169.32764,108.303014 172.192897,107.5 180.074967,107.5 Z"/><circle cx="200" cy="150" r="30.75" stroke="url(#c)" stroke-width=".5"/><circle cx="200" cy="150" r="38.75" stroke="url(#c)" stroke-width=".5"/><g stroke="#FFF" stroke-width=".75" transform="translate(167 119)"><path fill="url(#d)" d="M25.8354527,1.46590157 C26.7434556,0.929210523 27.7830349,0.811368847 28.7297863,1.05470065 C29.6765376,1.29803244 30.5304611,1.90253772 31.070963,2.81714015 L31.070963,2.81714015 L60.5998143,55.1763302 C61.129615,56.1157742 61.235037,57.1808199 60.9758894,58.1482027 C60.7167418,59.1155855 60.0930247,59.9853055 59.1645473,60.5340984 C58.2565444,61.0707895 57.2169651,61.1886312 56.2702137,60.9452994 C55.3234624,60.7019676 54.4695389,60.0974623 53.929037,59.1828599 L53.929037,59.1828599 L24.4001857,6.82366984 C23.870385,5.88422575 23.764963,4.81918014 24.0241106,3.85179732 C24.2832582,2.8844145 24.9069753,2.01469447 25.8354527,1.46590157 Z"/><path fill="url(#e)" d="M7.83545272,1.46590157 C8.74345557,0.929210523 9.7830349,0.811368847 10.7297863,1.05470065 C11.6765376,1.29803244 12.5304611,1.90253772 13.070963,2.81714015 L13.070963,2.81714015 L42.5998143,55.1763302 C43.129615,56.1157742 43.235037,57.1808199 42.9758894,58.1482027 C42.7167418,59.1155855 42.0930247,59.9853055 41.1645473,60.5340984 C40.2565444,61.0707895 39.2169651,61.1886312 38.2702137,60.9452994 C37.3234624,60.7019676 36.4695389,60.0974623 35.929037,59.1828599 L35.929037,59.1828599 L6.40018573,6.82366984 C5.87038501,5.88422575 5.76496304,4.81918014 6.02411061,3.85179732 C6.28325818,2.8844145 6.90697529,2.01469447 7.83545272,1.46590157 Z" transform="matrix(-1 0 0 1 49 0)"/><path fill="url(#f)" d="M62.5,38.625 C63.5700517,38.625 64.5388017,39.0587241 65.2400388,39.7599612 C65.9412759,40.4611983 66.375,41.4299483 66.375,42.5 C66.375,43.5700517 65.9412759,44.5388017 65.2400388,45.2400388 C64.5388017,45.9412759 63.5700517,46.375 62.5,46.375 L62.5,46.375 L3.5,46.375 C2.4299483,46.375 1.4611983,45.9412759 0.759961223,45.2400388 C0.0587241486,44.5388017 -0.375,43.5700517 -0.375,42.5 C-0.375,41.4299483 0.0587241486,40.4611983 0.759961223,39.7599612 C1.4611983,39.0587241 2.4299483,38.625 3.5,38.625 L3.5,38.625 Z"/></g></g></svg>