<?xml version="1.0" encoding="UTF-8"?>
<svg width="16px" height="16px" viewBox="0 0 16 16" version="1.1" xmlns="http://www.w3.org/2000/svg" xmlns:xlink="http://www.w3.org/1999/xlink">
    <!-- Generator: Sketch 57.1 (83088) - https://sketch.com -->
    <title>apple-icon</title>
    <desc>Created with Sketch.</desc>
    <g id="apple-icon" stroke="none" stroke-width="1" fill="none" fill-rule="evenodd">
        <rect fill="#EBF8FF" x="0" y="0" width="16" height="16"></rect>
        <path d="M4.46717851,4 C4.99416999,4 5.47173163,4.31035446 5.68576314,4.79192536 L6.66731484,7.00041668 L7.64886654,4.79192536 C7.86289805,4.31035446 8.34045969,4 8.86745117,4 L10.9995833,4 C12.1043062,4 12.9998611,4.89555487 12.9998611,6.00027779 C12.9998611,6.38377314 12.8919398,6.74206222 12.7048116,7.0464313 C13.4807947,7.51277379 14,8.36279054 14,9.3340741 C14,10.807038 12.8059265,12.0011112 11.3329626,12.0011112 L9.33435189,12.0011112 C8.96611092,12.0011112 8.66759263,11.7025929 8.66759263,11.3343519 L8.66742594,8.50062502 L8.17681678,9.60487069 C8.06980102,9.84565613 7.8310202,10.0008334 7.56752446,10.0008334 L5.76710522,10.0008334 C5.50360948,10.0008334 5.26482866,9.84565613 5.1578129,9.60487069 L4.66703705,8.50062502 L4.66703705,11.3343519 C4.66703705,11.7025929 4.36851876,12.0011112 4.00027779,12.0011112 L2.66675926,12.0011112 C2.29851829,12.0011112 2,11.7025929 2,11.3343519 L2,4.66675926 C2,4.29851829 2.29851829,4 2.66675926,4 L4.46717851,4 Z" id="Path" fill="#0080FF"></path>
    </g>
</svg>