<?xml version="1.0" encoding="UTF-8"?>
<svg width="16px" height="16px" viewBox="0 0 16 16" version="1.1" xmlns="http://www.w3.org/2000/svg" xmlns:xlink="http://www.w3.org/1999/xlink">
    <!-- Generator: Sketch 57.1 (83088) - https://sketch.com -->
    <title>favicon</title>
    <desc>Created with Sketch.</desc>
    <g id="favicon" stroke="none" stroke-width="1" fill="none" fill-rule="evenodd">
        <path d="M3.28911451,3 C3.99167223,3 4.62833266,3.41374848 4.91366837,4.05575384 L6.22222222,7 L7.53077607,4.05575384 C7.81611179,3.41374848 8.45277222,3 9.15532994,3 L11.997778,3 C13.4705373,3 14.6644447,4.19390733 14.6644447,5.66666667 C14.6644447,6.1779228 14.5205696,6.65557522 14.2711,7.06134431 C15.3056004,7.68304794 15.997778,8.81624622 15.997778,10.1111111 C15.997778,12.0747902 14.4059011,13.6666667 12.442222,13.6666667 L9.77777778,13.6666667 C9.286858,13.6666667 8.88888889,13.2686976 8.88888889,12.7777778 L8.88866667,9 L8.23461196,10.4721231 C8.09194411,10.7931258 7.77361389,11 7.42233503,11 L5.02210941,11 C4.67083055,11 4.35250034,10.7931258 4.20983248,10.4721231 L3.55555556,9 L3.55555556,12.7777778 C3.55555556,13.2686976 3.15758644,13.6666667 2.66666667,13.6666667 L0.888888889,13.6666667 C0.397969111,13.6666667 -3.90798505e-14,13.2686976 -3.90798505e-14,12.7777778 L-3.90798505e-14,3.88888889 C-3.90798505e-14,3.39796911 0.397969111,3 0.888888889,3 L3.28911451,3 Z" id="Path" fill="#0080FF"></path>
    </g>
</svg>