<?xml version="1.0" encoding="UTF-8"?>
<svg width="80px" height="48px" viewBox="0 0 80 48" version="1.1" xmlns="http://www.w3.org/2000/svg" xmlns:xlink="http://www.w3.org/1999/xlink">
    <!-- Generator: Sketch 57.1 (83088) - https://sketch.com -->
    <title>mb_logo</title>
    <desc>Created with Sketch.</desc>
    <defs>
        <linearGradient x1="99.8483474%" y1="49.5777168%" x2="50%" y2="49.5777168%" id="linearGradient-1">
            <stop stop-color="#0055FF" offset="0.0607052365%"></stop>
            <stop stop-color="#0080FF" offset="100%"></stop>
        </linearGradient>
        <path d="M40,40 L40,8 C40,3.581722 43.581722,0 48,0 L62,0 C68.627417,0 74,5.372583 74,12 C74,14.3006526 73.3525643,16.4500885 72.2299513,18.2760494 C76.885203,21.0737158 80,26.173108 80,32 C80,40.836556 72.836556,48 64,48 L48,48 C43.581722,48 40,44.418278 40,40 Z" id="path-2"></path>
        <filter x="-40.0%" y="-33.3%" width="180.0%" height="166.7%" filterUnits="objectBoundingBox" id="filter-3">
            <feGaussianBlur stdDeviation="4" in="SourceAlpha" result="shadowBlurInner1"></feGaussianBlur>
            <feOffset dx="24" dy="-8" in="shadowBlurInner1" result="shadowOffsetInner1"></feOffset>
            <feComposite in="shadowOffsetInner1" in2="SourceAlpha" operator="arithmetic" k2="-1" k3="1" result="shadowInnerInner1"></feComposite>
            <feColorMatrix values="0 0 0 0 0   0 0 0 0 0   0 0 0 0 0  0 0 0 0.1 0" type="matrix" in="shadowInnerInner1"></feColorMatrix>
        </filter>
        <linearGradient x1="56.5269058%" y1="99.4069174%" x2="44.453234%" y2="0.0643404593%" id="linearGradient-4">
            <stop stop-color="#00FFFF" offset="0%"></stop>
            <stop stop-color="#0080FF" offset="100%"></stop>
        </linearGradient>
        <path d="M44,0 L52,0 C54.209139,0 56,1.790861 56,4 L56,44 C56,46.209139 54.209139,48 52,48 L44,48 C41.790861,48 40,46.209139 40,44 L40,4 C40,1.790861 41.790861,0 44,0 Z" id="path-5"></path>
        <filter x="-62.5%" y="-20.8%" width="225.0%" height="141.7%" filterUnits="objectBoundingBox" id="filter-6">
            <feGaussianBlur stdDeviation="6" in="SourceAlpha" result="shadowBlurInner1"></feGaussianBlur>
            <feOffset dx="8" dy="-8" in="shadowBlurInner1" result="shadowOffsetInner1"></feOffset>
            <feComposite in="shadowOffsetInner1" in2="SourceAlpha" operator="arithmetic" k2="-1" k3="1" result="shadowInnerInner1"></feComposite>
            <feColorMatrix values="0 0 0 0 0   0 0 0 0 0.0533333333   0 0 0 0 0.08  0 0 0 0.2 0" type="matrix" in="shadowInnerInner1"></feColorMatrix>
        </filter>
        <linearGradient x1="39.2213626%" y1="99.7758558%" x2="60.8271743%" y2="5.55111512e-15%" id="linearGradient-7">
            <stop stop-color="#0052F5" offset="0%"></stop>
            <stop stop-color="#0095FF" stop-opacity="0" offset="100%"></stop>
        </linearGradient>
        <linearGradient x1="7.40820624%" y1="104.067152%" x2="100.892893%" y2="-4.59589408%" id="linearGradient-8">
            <stop stop-color="#00D4FF" offset="0%"></stop>
            <stop stop-color="#0080FF" offset="100%"></stop>
        </linearGradient>
        <linearGradient x1="33.0130292%" y1="0.0643404593%" x2="69.988649%" y2="99.4069174%" id="linearGradient-9">
            <stop stop-color="#00D4FF" offset="0%"></stop>
            <stop stop-color="#0080FF" offset="99.9683277%"></stop>
            <stop stop-color="#0026FF" offset="100%"></stop>
        </linearGradient>
        <linearGradient x1="71.9985319%" y1="0%" x2="28.1000849%" y2="99.7758558%" id="linearGradient-10">
            <stop stop-color="#0052F5" offset="0%"></stop>
            <stop stop-color="#00CDFF" stop-opacity="0" offset="100%"></stop>
        </linearGradient>
    </defs>
    <g id="Page-1" stroke="none" stroke-width="1" fill="none" fill-rule="evenodd">
        <g id="Landing-Page" transform="translate(-357.000000, -48.000000)">
            <g id="mb_logo" transform="translate(357.000000, 48.000000)">
                <g id="Path">
                    <use fill="url(#linearGradient-1)" fill-rule="evenodd" xlink:href="#path-2"></use>
                    <use fill="black" fill-opacity="1" filter="url(#filter-3)" xlink:href="#path-2"></use>
                </g>
                <g id="Rectangle">
                    <use fill="url(#linearGradient-4)" fill-rule="evenodd" xlink:href="#path-5"></use>
                    <use fill="black" fill-opacity="1" filter="url(#filter-6)" xlink:href="#path-5"></use>
                </g>
                <path d="M40,29 L40,4 C40,1.790861 41.790861,0 44,0 L50.4949276,0 C52.1517819,0 53.4949276,1.34314575 53.4949276,3 C53.4949276,3.49333054 53.3732675,3.97904799 53.1407227,4.41413181 L40,29 Z" id="Rectangle" fill="url(#linearGradient-7)"></path>
                <path d="M28,18 L33.8884923,4.75089227 C35.172503,1.86186817 38.037475,0 41.1989847,0 L48.922476,0 C50.0270455,0 50.922476,0.8954305 50.922476,2 C50.922476,2.27983669 50.8637516,2.55655894 50.7500991,2.81227693 L37.0557538,33.6245539 C36.4137485,35.0690659 34.9812625,36 33.4005076,36 L22.5994924,36 C21.0187375,36 19.5862515,35.0690659 18.9442462,33.6245539 L16,27 L28,18 Z" id="Path" fill="url(#linearGradient-8)"></path>
                <path d="M4,0 L14.8010153,0 C17.962525,0 20.827497,1.86186817 22.1115077,4.75089227 L28,18 L21.8276231,31.887848 C21.3790149,32.8972164 20.1970914,33.3518024 19.1877231,32.9031942 C18.735258,32.7020986 18.3734725,32.3403131 18.1723769,31.887848 L16,27 L16,44 C16,46.209139 14.209139,48 12,48 L4,48 C1.790861,48 0,46.209139 0,44 L0,4 C0,1.790861 1.790861,0 4,0 Z" id="Path" fill="url(#linearGradient-9)"></path>
                <path d="M18,31.5 L28,18 L21.8276231,31.887848 C21.3790149,32.8972164 20.1970914,33.3518024 19.1877231,32.9031942 C18.735258,32.7020986 18.3734725,32.3403131 18.1723769,31.887848 L18,31.5 Z" id="Rectangle" fill="url(#linearGradient-10)"></path>
            </g>
        </g>
    </g>
</svg>