<svg xmlns="http://www.w3.org/2000/svg" width="400" height="300" viewBox="0 0 400 300"><g fill="none" fill-rule="evenodd"><rect width="400" height="300" fill="#81949F" fill-opacity=".24"/><path fill="#FCB400" fill-rule="nonzero" d="M193.972202,107.110404 L154.753385,123.338654 C152.572415,124.241248 152.595009,127.339082 154.789655,128.208973 L194.17258,143.826575 C197.633117,145.198898 201.486679,145.198898 204.946621,143.826575 L244.330141,128.208973 C246.524192,127.339082 246.547381,124.241248 244.365816,123.338654 L205.147594,107.110404 C201.569328,105.629865 197.549873,105.629865 193.972202,107.110404"/><path fill="#18BFFF" fill-rule="nonzero" d="M203.053672,152.355014 L203.053672,191.369885 C203.053672,193.225612 204.924859,194.496259 206.649776,193.812476 L250.534371,176.778551 C251.536261,176.381363 252.193288,175.413364 252.193288,174.33596 L252.193288,135.321088 C252.193288,133.465361 250.322101,132.194714 248.597184,132.878497 L204.712589,149.912422 C203.711293,150.309611 203.053672,151.27761 203.053672,152.355014"/><path fill="#F82B60" fill-rule="nonzero" d="M192.806322,154.368071 L179.782338,160.656495 L178.459962,161.295684 L150.96713,174.468911 C149.224376,175.309667 147,174.039614 147,172.103617 L147,135.484959 C147,134.784527 147.359135,134.179825 147.840756,133.724366 C148.041728,133.522799 148.269458,133.356907 148.506106,133.225502 C149.163132,132.831286 150.100212,132.726043 150.896968,133.041178 L192.587512,149.55959 C194.706644,150.400346 194.873131,153.369748 192.806322,154.368071"/><path fill="#000" fill-opacity=".25" fill-rule="nonzero" d="M192.806322,154.368071 L179.782338,160.656495 L147.840756,133.724366 C148.041728,133.522799 148.269458,133.356907 148.506106,133.225502 C149.163132,132.831286 150.100212,132.726043 150.896968,133.041178 L192.587512,149.55959 C194.706644,150.400346 194.873131,153.369748 192.806322,154.368071"/></g></svg>