<svg xmlns="http://www.w3.org/2000/svg" width="400" height="300" viewBox="0 0 400 300"><defs><linearGradient id="a" x1="50%" x2="100%" y1="44.564%" y2="66.82%"><stop offset="0%" stop-color="#0AF"/><stop offset="99.977%" stop-color="#006DA3"/></linearGradient><linearGradient id="b" x1="100%" x2="0%" y1="41.713%" y2="41.713%"><stop offset="0%" stop-color="#FF0002"/><stop offset="100%" stop-color="#7A0001"/></linearGradient><linearGradient id="c" x1="50%" x2="50%" y1="100%" y2="0%"><stop offset="0%" stop-color="#FFB600"/><stop offset="100%" stop-color="#A37500"/></linearGradient></defs><g fill="none" fill-rule="evenodd"><polygon fill="url(#a)" points="200 149 400 68 400 300 0 300 0 252 200 156"/><polygon fill="url(#b)" points="0 69 0 252 200 156 200 149"/><polygon fill="url(#c)" points="0 0 400 0 400 69 200 149 0 69"/><g fill-rule="nonzero" transform="translate(152 110)"><path fill="#FCB400" d="M42.7020019,1.00945823 L7.04853193,15.7624132 C5.06583165,16.5829527 5.08637216,19.3991655 7.08150486,20.1899753 L42.8841638,34.3877958 C46.0301059,35.6353619 49.5333449,35.6353619 52.6787464,34.3877958 L88.4819459,20.1899753 C90.4765381,19.3991655 90.4976191,16.5829527 88.5143783,15.7624132 L52.8614489,1.00945823 C49.6084799,-0.336486075 45.9544303,-0.336486075 42.7020019,1.00945823"/><path fill="#18BFFF" d="M50.9578837,41.8764002 L50.9578837,77.344465 C50.9578837,79.03149 52.6589627,80.1866237 54.2270689,79.5650028 L94.1221553,64.0796163 C95.032965,63.7185357 95.6302615,62.8385368 95.6302615,61.8590785 L95.6302615,26.3910138 C95.6302615,24.7039888 93.9291825,23.5488551 92.3610763,24.1704759 L52.4659899,39.6558624 C51.5557208,40.016943 50.9578837,40.896942 50.9578837,41.8764002"/><path fill="#F82B60" d="M41.6421113,43.9709733 L29.8021257,49.6877231 L28.5999651,50.2688034 L3.60648208,62.2444645 C2.02215969,63.0087879 0,61.8541947 0,60.0941968 L0,26.8045078 C0,26.1677518 0.326486088,25.6180227 0.76432339,25.2039692 C0.94702587,25.0207262 1.15405264,24.8699156 1.36918752,24.7504562 C1.96648408,24.3920783 2.81837493,24.2964027 3.54269837,24.5828889 L41.4431926,39.5996273 C43.3696767,40.3639507 43.5210279,43.0634068 41.6421113,43.9709733"/><path fill="#000" fill-opacity=".25" d="M41.6421113,43.9709733 L29.8021257,49.6877231 L0.76432339,25.2039692 C0.94702587,25.0207262 1.15405264,24.8699156 1.36918752,24.7504562 C1.96648408,24.3920783 2.81837493,24.2964027 3.54269837,24.5828889 L41.4431926,39.5996273 C43.3696767,40.3639507 43.5210279,43.0634068 41.6421113,43.9709733"/></g><path stroke="#FFF" stroke-width="5" d="M243.449253,131.84268 C244.99297,131.234269 246.598561,131.466865 247.848915,132.255622 C249.138523,133.069142 250.046741,134.476013 250.125003,136.161503 L250.125003,136.161503 L250.130262,171.859079 C250.130262,172.800043 249.860737,173.696092 249.382096,174.458523 C248.881064,175.256618 248.150661,175.90812 247.260109,176.311706 L247.260109,176.311706 L207.138891,191.892799 C205.595175,192.50121 203.989584,192.268613 202.73923,191.479856 C201.449623,190.666337 200.541404,189.259466 200.463142,187.573976 L200.463142,187.573976 L200.457884,151.8764 C200.457884,150.935534 200.727476,150.039533 201.20614,149.277114 C201.707264,148.47892 202.437774,147.827388 203.327944,147.423841 L203.327944,147.423841 Z M152.129205,132.579372 C153.328893,131.880283 155.019354,131.687449 156.463586,132.258676 L156.463586,132.258676 L194.365145,147.275837 C195.310944,147.651078 196.041616,148.260518 196.559152,148.986469 C197.11689,149.768812 197.42503,150.693144 197.467564,151.627856 C197.510441,152.570106 197.283809,153.518983 196.792142,154.34438 C196.337139,155.108226 195.656844,155.774172 194.729211,156.222243 L194.729211,156.222243 L181.680237,162.523357 L156.692753,174.496134 C155.11794,175.25587 153.31586,175.090291 151.913348,174.254082 C150.475808,173.396987 149.5,171.880085 149.5,170.094197 L149.5,170.094197 L149.5,136.804508 C149.5,135.477884 150.103663,134.287594 151.027637,133.405347 C151.362953,133.075393 151.738141,132.799556 152.129205,132.579372 Z M193.746055,108.699444 C197.483874,107.152632 201.668128,107.101908 205.435798,108.547329 L205.435798,108.547329 L241.470147,123.452325 C242.41065,123.841446 243.124442,124.456302 243.625057,125.179794 C244.16816,125.96469 244.459006,126.885899 244.487575,127.816471 C244.516278,128.75139 244.279619,129.691777 243.788471,130.506576 C243.311584,131.297716 242.597549,131.976573 241.63784,132.414213 L241.63784,132.414213 L205.600471,146.711677 C201.995023,148.141712 197.993876,148.19222 194.359908,146.863144 L194.359908,146.863144 L158.160306,132.514065 C157.214045,132.138996 156.491164,131.534795 155.979855,130.818776 C155.425178,130.042026 155.120717,129.1252 155.078402,128.195085 C155.035895,127.260757 155.258605,126.31699 155.737635,125.494989 C156.202747,124.696871 156.906634,124.007478 157.859727,123.5556 L157.859727,123.5556 Z"/></g></svg>