<svg xmlns="http://www.w3.org/2000/svg" width="400" height="300" viewBox="0 0 400 300"><g fill="none" fill-rule="evenodd"><rect width="400" height="300" fill="#81949F" fill-opacity=".08"/><g fill-rule="nonzero" transform="translate(152 110)"><path fill="#FCB400" d="M42.7020019,1.00945823 L7.04853193,15.7624132 C5.06583165,16.5829527 5.08637216,19.3991655 7.08150486,20.1899753 L42.8841638,34.3877958 C46.0301059,35.6353619 49.5333449,35.6353619 52.6787464,34.3877958 L88.4819459,20.1899753 C90.4765381,19.3991655 90.4976191,16.5829527 88.5143783,15.7624132 L52.8614489,1.00945823 C49.6084799,-0.336486075 45.9544303,-0.336486075 42.7020019,1.00945823"/><path fill="#18BFFF" d="M50.9578837,42.1409215 L50.9578837,77.6089862 C50.9578837,79.2960112 52.6589627,80.4511449 54.2270689,79.8295241 L94.1221553,64.3441376 C95.032965,63.983057 95.6302615,63.103058 95.6302615,62.1235998 L95.6302615,26.655535 C95.6302615,24.96851 93.9291825,23.8133763 92.3610763,24.4349972 L52.4659899,39.9203837 C51.5557208,40.2814643 50.9578837,41.1614632 50.9578837,42.1409215"/><path fill="#F82B60" d="M41.6421113,43.9709733 L29.8021257,49.6877231 L28.5999651,50.2688034 L3.60648208,62.2444645 C2.02215969,63.0087879 0,61.8541947 0,60.0941968 L0,26.8045078 C0,26.1677518 0.326486088,25.6180227 0.76432339,25.2039692 C0.94702587,25.0207262 1.15405264,24.8699156 1.36918752,24.7504562 C1.96648408,24.3920783 2.81837493,24.2964027 3.54269837,24.5828889 L41.4431926,39.5996273 C43.3696767,40.3639507 43.5210279,43.0634068 41.6421113,43.9709733"/><path fill="#000" fill-opacity=".25" d="M41.6421113,43.9709733 L29.8021257,49.6877231 L0.76432339,25.2039692 C0.94702587,25.0207262 1.15405264,24.8699156 1.36918752,24.7504562 C1.96648408,24.3920783 2.81837493,24.2964027 3.54269837,24.5828889 L41.4431926,39.5996273 C43.3696767,40.3639507 43.5210279,43.0634068 41.6421113,43.9709733"/></g></g></svg>