<svg xmlns="http://www.w3.org/2000/svg" width="400" height="300" viewBox="0 0 400 300"><defs><linearGradient id="a" x1="0%" x2="100%" y1="21.875%" y2="78.125%"><stop offset="0%" stop-color="#F36C00"/><stop offset="100%" stop-color="#F04162"/></linearGradient></defs><g fill="none" fill-rule="evenodd"><polygon fill="url(#a)" points="400 0 400 300 0 300 0 0"/><path fill="#FFF" fill-rule="nonzero" d="M113,165.757576 L113,134.242424 L118.939394,134.242424 L118.939394,146.848485 L127.424242,146.848485 L127.424242,134.242424 L133.363636,134.242424 L133.363636,165.757576 L127.424242,165.757576 L127.424242,152.181818 L118.939394,152.181818 L118.939394,165.757576 L113,165.757576 Z M139.060606,165.757576 L146.818182,134.242424 L154.454545,134.242424 L161.969697,165.757576 L156.272727,165.757576 L154.818182,159.090909 L146.575758,159.090909 L144.878788,165.757576 L139.060606,165.757576 Z M147.666667,153.757576 L153.606061,153.757576 L150.69697,141.030303 L150.575758,141.030303 L147.666667,153.757576 Z M181.484848,165.757576 L176.272727,152.909091 L173.363636,152.909091 L173.363636,165.757576 L167.424242,165.757576 L167.424242,134.242424 L176.030303,134.242424 C183.181818,134.242424 186.575758,137.757576 186.575758,143.69697 C186.575758,147.575758 185.242424,150.484848 181.848485,151.69697 L187.787879,165.757576 L181.484848,165.757576 Z M173.363636,147.939394 L176.393939,147.939394 C179.060606,147.939394 180.636364,146.606061 180.636364,143.575758 C180.636364,140.545455 179.060606,139.212121 176.393939,139.212121 L173.363636,139.212121 L173.363636,147.939394 Z M191.545455,134.242424 L197.484848,134.242424 L202.939394,156.787879 L203.060606,156.787879 L208.515152,134.242424 L214.333333,134.242424 L206.333333,165.757576 L199.545455,165.757576 L191.545455,134.242424 Z M219.909091,165.757576 L219.909091,134.242424 L236.272727,134.242424 L236.272727,139.575758 L225.848485,139.575758 L225.848485,146.848485 L233.727273,146.848485 L233.727273,152.181818 L225.848485,152.181818 L225.848485,160.424242 L236.636364,160.424242 L236.636364,165.757576 L219.909091,165.757576 Z M256.757576,143.090909 C255.787879,140.181818 254.454545,138.848485 252.393939,138.848485 C250.333333,138.848485 249.121212,140.181818 249.121212,142.242424 C249.121212,146.969697 262.454545,147.333333 262.454545,157.030303 C262.454545,162.363636 258.818182,166 252.515152,166 C247.666667,166 243.909091,163.333333 242.333333,157.272727 L248.272727,156.060606 C249,159.818182 251.181818,161.151515 252.878788,161.151515 C254.939394,161.151515 256.515152,159.818182 256.515152,157.393939 C256.515152,151.454545 243.181818,151.454545 243.181818,142.727273 C243.181818,137.393939 246.333333,134 252.515152,134 C257.848485,134 261.121212,137.151515 262.090909,141.515152 L256.757576,143.090909 Z M287.909091,134.242424 L287.909091,139.575758 L281,139.575758 L281,165.757576 L275.060606,165.757576 L275.060606,139.575758 L268.151515,139.575758 L268.151515,134.242424 L287.909091,134.242424 Z"/></g></svg>