<svg xmlns="http://www.w3.org/2000/svg" width="400" height="300" viewBox="0 0 400 300"><defs><linearGradient id="a" x1="0%" x2="100%" y1="21.875%" y2="78.125%"><stop offset="0%" stop-color="#00E070"/><stop offset="100%" stop-color="#FFBE3C"/></linearGradient></defs><g fill="none" fill-rule="evenodd"><rect width="400" height="300" fill="url(#a)" fill-rule="nonzero"/><path fill="#FFF" fill-rule="nonzero" d="M138.8155,140.44375 C134.667125,140.44375 131.259875,141.629 129.482,144.148 L129.482,128 L120,128 L120,171.258875 L129.629125,171.258875 L129.629125,155.110875 C129.629125,151.2595 131.8525,149.184625 135.703875,149.184625 C139.111125,149.184625 140.7405,151.111 140.7405,154.519625 L140.7405,171.2575 L150.2225,171.2575 L150.2225,164.5915 L150.2225,153.92425 C150.2225,145.331875 145.4815,140.44375 138.8155,140.44375 Z M169.92625,140.44375 C160.59275,140.44375 153.33275,146.962625 153.33275,156.2975 C153.33275,165.4825 160.59275,172 169.92625,172 C179.25975,172 186.518375,165.4825 186.518375,156.2975 C186.518375,147.111125 179.258375,140.44375 169.92625,140.44375 Z M169.92625,163.85175 C165.629375,163.85175 163.110375,160.740125 163.110375,156.296125 C163.110375,151.703625 165.777875,148.7405 169.92625,148.7405 C174.22175,148.7405 176.74075,151.852125 176.74075,156.296125 C176.74075,160.740125 174.22175,163.85175 169.92625,163.85175 Z M223.9995,141.18625 L215.99975,141.18625 C212.741,141.18625 208.73975,143.11125 206.81475,147.853625 L205.6295,150.075625 C204.29575,153.18725 203.259,155.259375 203.259,155.259375 L202.963375,156.593125 L202.517875,155.259375 C202.517875,155.259375 201.481125,153.03875 200.14875,150.075625 L199.110625,147.705125 C197.185625,142.964125 193.03725,141.03775 189.925625,141.03775 L181.925875,141.03775 C181.925875,141.03775 185.184625,141.927375 188.59325,147.705125 C192.0005,153.334375 201.332625,171.852875 201.332625,171.852875 L204.74125,171.852875 C204.74125,171.852875 214.07475,153.334375 217.482,147.705125 C220.74075,142.075875 223.9995,141.187625 223.9995,141.187625 L223.9995,141.18625 Z M236.44325,140.4465 C227.111125,140.4465 219.851125,146.964 219.851125,156.149 C219.8525,165.4825 226.8155,172 237.63125,172 C244.001625,172 247.557375,170.075 250.5205,167.556 L245.038375,161.62975 C242.816891,163.164553 240.182847,163.990958 237.48275,164.00025 C233.18725,164.00025 230.66825,162.222375 229.6315,159.11075 L252.594,159.11075 C253.038125,148.592 247.260375,140.445125 236.446,140.445125 L236.44325,140.4465 Z M229.630125,153.334375 C230.369875,149.778625 232.888875,148.002125 236.74025,148.002125 C240.4445,148.002125 242.6665,149.927125 243.110625,153.334375 L229.630125,153.334375 Z M274.22275,140.4465 C271.111125,140.4465 267.555375,141.48325 265.7775,144.742 L265.7775,141.036375 L256.148375,141.036375 L256.148375,171.11175 L265.7775,171.11175 L265.7775,157.778375 C265.7775,151.408 268.148,149.333125 272.444875,149.333125 C273.732645,149.32846 275.00265,149.633582 276.14775,150.22275 L279.259375,141.481875 C278.074125,141.036375 276.29625,140.445125 274.22275,140.445125 L274.22275,140.4465 Z"/></g></svg>