<svg xmlns="http://www.w3.org/2000/svg" width="400" height="300" viewBox="0 0 400 300"><defs><linearGradient id="a" x1="0%" x2="100%" y1="21.875%" y2="78.125%"><stop offset="0%" stop-color="#00E070"/><stop offset="100%" stop-color="#FFBE3C"/></linearGradient></defs><path fill="url(#a)" d="M400,0 L400,300 L0,300 L0,0 L400,0 Z M173.3875,141.3125 C164.9025,141.3125 158.3025,147.23875 158.3025,155.725 C158.3025,164.075 164.9025,170 173.3875,170 C181.8725,170 188.47125,164.075 188.47125,155.725 C188.47125,147.37375 181.87125,141.3125 173.3875,141.3125 Z M233.86,141.31375 L233.8575,141.315 C225.37375,141.315 218.77375,147.24 218.77375,155.59 C218.775,164.075 225.105,170 234.9375,170 C240.72875,170 243.96125,168.25 246.655,165.96 L241.67125,160.5725 C239.651719,161.967776 237.257134,162.719053 234.8025,162.7275 C230.8975,162.7275 228.6075,161.11125 227.665,158.2825 L248.54,158.2825 C248.94375,148.72 243.69125,141.31375 233.86,141.31375 Z M191.56875,141.8525 L184.29625,141.8525 L184.308298,141.856013 C184.515881,141.918503 187.373519,142.855787 190.3575,147.91375 C191.554261,149.890966 193.555065,153.617333 195.559957,157.446083 L196.09021,158.460835 L196.09021,158.460835 L196.442189,159.136642 C199.015923,164.084375 201.399487,168.797996 201.85913,169.708442 L201.925767,169.840498 C201.934368,169.857554 201.93875,169.86625 201.93875,169.86625 L205.0375,169.86625 C205.0375,169.86625 205.041883,169.857554 205.050485,169.840498 L205.08879,169.764582 C205.468581,169.01213 207.902248,164.196823 210.534792,159.136642 L210.886813,158.460835 L210.886813,158.460835 L211.594019,157.10856 C213.539258,153.399648 215.458437,149.832812 216.62,147.91375 C219.247123,143.37559 221.874245,142.226817 222.435396,142.024878 L222.495651,142.004054 C222.503769,142.001378 222.510913,141.999083 222.517062,141.997147 L222.541856,141.989636 C222.543945,141.989037 222.545,141.98875 222.545,141.98875 L222.545,141.9875 L215.2725,141.9875 C212.31,141.9875 208.6725,143.7375 206.9225,148.04875 L205.845,150.06875 C204.788952,152.5325 203.937721,154.279387 203.735631,154.689177 L203.69292,154.775401 C203.690981,154.77929 203.69,154.78125 203.69,154.78125 L203.42125,155.99375 L203.01625,154.78125 C203.01625,154.78125 202.07375,152.7625 200.8625,150.06875 L199.91875,147.91375 C198.16875,143.60375 194.3975,141.8525 191.56875,141.8525 Z M136.62,130 L128,130 L128,169.32625 L136.75375,169.32625 L136.75375,154.64625 C136.75375,151.145 138.775,149.25875 142.27625,149.25875 C145.37375,149.25875 146.855,151.01 146.855,154.10875 L146.855,169.325 L155.475,169.325 L155.475,153.5675 C155.475,145.75625 151.165,141.3125 145.105,141.3125 C141.33375,141.3125 138.23625,142.39 136.62,144.68 L136.62,130 Z M268.2025,141.31375 L268.2025,141.315 C265.37375,141.315 262.14125,142.2575 260.525,145.22 L260.525,141.85125 L251.77125,141.85125 L251.77125,169.1925 L260.525,169.1925 L260.525,157.07125 C260.525,151.28 262.68,149.39375 266.58625,149.39375 C267.75695,149.389509 268.9115,149.666892 269.9525,150.2025 L272.78125,142.25625 C271.70375,141.85125 270.0875,141.31375 268.2025,141.31375 Z M173.3875,148.855 C177.2925,148.855 179.5825,151.68375 179.5825,155.72375 C179.5825,159.76375 177.2925,162.5925 173.3875,162.5925 C169.48125,162.5925 167.19125,159.76375 167.19125,155.72375 C167.19125,151.54875 169.61625,148.855 173.3875,148.855 Z M234.1275,148.18375 C237.495,148.18375 239.515,149.93375 239.91875,153.03125 L227.66375,153.03125 C228.33625,149.79875 230.62625,148.18375 234.1275,148.18375 Z"/></svg>