<svg xmlns="http://www.w3.org/2000/svg" xmlns:xlink="http://www.w3.org/1999/xlink" width="400" height="300" viewBox="0 0 400 300"><defs><linearGradient id="a" x1="50%" x2="50%" y1="0%" y2="100%"><stop offset="0%" stop-color="#00A3F5"/><stop offset="100%" stop-color="#00107A"/></linearGradient><linearGradient id="b" x1="50%" x2="50%" y1="0%" y2="100%"><stop offset="0%" stop-color="#8000FF"/><stop offset="99.939%" stop-color="#29007A" stop-opacity=".5"/></linearGradient><linearGradient id="c" x1="0%" x2="100%" y1="50%" y2="50%"><stop offset="0%" stop-color="#FF0002"/><stop offset="100%" stop-color="#7A0001" stop-opacity=".5"/></linearGradient><linearGradient id="d" x1="50%" x2="0%" y1="52.727%" y2="28.055%"><stop offset="0%" stop-color="#0AF"/><stop offset="99.977%" stop-color="#006DA3"/></linearGradient><linearGradient id="e" x1="19.464%" x2="91.498%" y1="25.618%" y2="74.068%"><stop offset="0%" stop-color="#FFF" stop-opacity="0"/><stop offset="100%" stop-color="red"/></linearGradient><linearGradient id="q" x1="50%" x2="50%" y1="0%" y2="100%"><stop offset="0%" stop-color="#5F6066"/><stop offset="100%" stop-color="#41414B"/></linearGradient><linearGradient id="r" x1="50%" x2="50%" y1="0%" y2="100%"><stop offset="0%" stop-color="#272828" stop-opacity=".16"/><stop offset="100%" stop-color="#334047" stop-opacity=".4"/></linearGradient><linearGradient id="s" x1="50%" x2="50%" y1="0%" y2="100%"><stop offset="0%" stop-color="#FFF" stop-opacity=".06"/><stop offset="99.916%" stop-color="#FFF"/></linearGradient><linearGradient id="v" x1="9.343%" x2="50%" y1="32.289%" y2="61.468%"><stop offset="0%" stop-color="#FFF"/><stop offset="100%" stop-color="#DAF0FB"/></linearGradient><radialGradient id="h" cx="50%" cy="0%" r="100%" fx="50%" fy="0%"><stop offset="0%" stop-color="#FFFEFF"/><stop offset="100%" stop-color="#BCBDBD"/></radialGradient><radialGradient id="i" cx="50%" cy="0%" r="100%" fx="50%" fy="0%"><stop offset="0%" stop-color="#5D778A"/><stop offset="49.013%" stop-color="#79646C"/><stop offset="100%" stop-color="#A6A3C1"/></radialGradient><radialGradient id="j" cx="50%" cy="0%" r="100%" fx="50%" fy="0%"><stop offset="0%" stop-color="#414141"/><stop offset="100%" stop-color="#151515"/></radialGradient><radialGradient id="k" cx="50%" cy="50%" r="50%" fx="50%" fy="50%"><stop offset="0%" stop-color="#C9F"/><stop offset="100%" stop-color="#50F"/></radialGradient><radialGradient id="l" cx="53.612%" cy="67.861%" r="57.776%" fx="53.612%" fy="67.861%" gradientTransform="matrix(.8029 -.04416 .0355 .99902 .082 .024)"><stop offset="0%" stop-color="#FF7070"/><stop offset="100%" stop-color="#D13030"/></radialGradient><radialGradient id="m" cx="53.783%" cy="65.494%" r="70.209%" fx="53.783%" fy="65.494%" gradientTransform="matrix(-.45245 -.82606 .66316 -.56358 .347 1.469)"><stop offset="0%" stop-color="#C2EFFF"/><stop offset="100%" stop-color="#1FB4FF"/></radialGradient><radialGradient id="o" cx="50%" cy="50%" r="50%" fx="50%" fy="50%"><stop offset="0%" stop-color="#FCF9FF"/><stop offset="100%"/></radialGradient><filter id="g" width="130.8%" height="130.8%" x="-15.4%" y="-7.7%" filterUnits="objectBoundingBox"><feOffset dy="8" in="SourceAlpha" result="shadowOffsetOuter1"/><feGaussianBlur in="shadowOffsetOuter1" result="shadowBlurOuter1" stdDeviation="4"/><feColorMatrix in="shadowBlurOuter1" values="0 0 0 0 0.0736 0 0 0 0 0.0821333333 0 0 0 0 0.0864 0 0 0 0.16 0"/></filter><filter id="p" width="107.5%" height="107.5%" x="-3.8%" y="-3.7%" filterUnits="objectBoundingBox"><feMorphology in="SourceAlpha" radius="2" result="shadowSpreadInner1"/><feGaussianBlur in="shadowSpreadInner1" result="shadowBlurInner1" stdDeviation="2"/><feOffset in="shadowBlurInner1" result="shadowOffsetInner1"/><feComposite in="shadowOffsetInner1" in2="SourceAlpha" k2="-1" k3="1" operator="arithmetic" result="shadowInnerInner1"/><feColorMatrix in="shadowInnerInner1" values="0 0 0 0 0.0736 0 0 0 0 0.0821333333 0 0 0 0 0.0864 0 0 0 0.16 0"/></filter><filter id="u" width="106.3%" height="114.3%" x="-5.7%" y="-.6%" filterUnits="objectBoundingBox"><feOffset dy="1" in="SourceAlpha" result="shadowOffsetOuter1"/><feGaussianBlur in="shadowOffsetOuter1" result="shadowBlurOuter1" stdDeviation=".5"/><feColorMatrix in="shadowBlurOuter1" values="0 0 0 0 0.0736 0 0 0 0 0.0821333333 0 0 0 0 0.0864 0 0 0 0.32 0"/></filter><circle id="f" cx="200" cy="150" r="52"/><circle id="n" cx="200" cy="150" r="40"/><path id="t" d="M229,134 L227.495285,135.504715 C227.165725,135.834275 226.807997,136.134405 226.426181,136.40168 L202.3836,153.231769 L202.3836,153.231769 C202.26661,153.316369 202.143813,153.395568 202.015359,153.468808 C200.097505,154.562314 197.645154,153.913379 196.53788,152.019372 C195.430606,150.125366 196.087712,147.703509 198.005566,146.610004 C198.13849,146.534215 198.273981,146.466796 198.411414,146.407581 L224.58319,134.194505 C224.860834,134.064942 225.145692,133.951436 225.436356,133.854548 L228.316718,132.894427 C228.666556,132.777815 229.044688,132.966881 229.161301,133.316718 C229.241277,133.556647 229.178832,133.821168 229,134 Z"/></defs><g fill="none" fill-rule="evenodd"><rect width="400" height="300" fill="url(#a)"/><polygon fill="url(#b)" points="200 150 400 264 400 300 0 300 0 265"/><polygon fill="url(#c)" points="400 36 400 264 200 150"/><polygon fill="url(#d)" points="0 0 400 0 400 36 0 265"/><rect width="400" height="300" fill="url(#e)" opacity=".32"/><use xlink:href="#f" fill="#000" filter="url(#g)"/><use xlink:href="#f" fill="url(#h)"/><circle cx="200" cy="150" r="48" fill="url(#i)"/><circle cx="200" cy="150" r="46" fill="url(#j)"/><circle cx="200" cy="150" r="40" fill="url(#k)"/><path fill="url(#l)" d="M200,110 C222.09139,110 240,127.90861 240,150 C240,157.183199 238.10656,163.92416 234.791551,169.751015 L165.427418,129.868968 C172.362063,117.985238 185.248505,110 200,110 Z"/><path fill="url(#m)" d="M200,110 C214.824226,110 227.764964,118.064173 234.67472,130.045028 L165.373761,170.038799 C161.956462,164.146572 160,157.301764 160,150 C160,127.90861 177.90861,110 200,110 Z"/><use xlink:href="#n" fill="url(#o)" fill-opacity=".03"/><use xlink:href="#n" fill="#000" filter="url(#p)"/><circle cx="200" cy="150" r="39.5" stroke="#131516" stroke-linejoin="square" stroke-opacity=".08"/><circle cx="200" cy="150" r="16" fill="url(#q)" stroke="url(#r)"/><circle cx="200" cy="150" r="15.25" stroke="url(#s)" stroke-width=".5" opacity=".05"/><use xlink:href="#t" fill="#000" filter="url(#u)"/><use xlink:href="#t" fill="url(#v)"/></g></svg>