<svg xmlns="http://www.w3.org/2000/svg" width="400" height="300" viewBox="0 0 400 300"><defs><linearGradient id="a" x1="100%" x2="0%" y1="78.125%" y2="21.875%"><stop offset="0%" stop-color="#00473B"/><stop offset="100%" stop-color="#00A35C"/></linearGradient></defs><g fill="none" fill-rule="evenodd"><rect width="400" height="300" fill="url(#a)" fill-rule="nonzero"/><path fill="#FFF" fill-rule="nonzero" d="M199.849084,94.065357 C199.93562,93.9782143 200.06549,93.9782143 200.15207,94.065357 L201.515381,95.9747573 L201.515381,95.9747573 L202.744765,97.6525924 L202.744765,97.6525924 L203.576961,98.7690129 L203.576961,98.7690129 L204.732137,100.294052 L204.732137,100.294052 L205.736712,101.597073 L205.736712,101.597073 L206.802553,102.955529 L206.802553,102.955529 L207.920215,104.352502 L207.920215,104.352502 L208.495528,105.060144 L208.495528,105.060144 L209.080254,105.771069 L209.080254,105.771069 L209.673214,106.483163 L209.673214,106.483163 C242.570676,148.678318 217.267646,179.623569 207.068832,189.372708 L206.350597,190.048088 L206.350597,190.048088 L205.692655,190.646947 L205.692655,190.646947 L205.101387,191.168418 L205.101387,191.168418 L204.583177,191.611636 L204.583177,191.611636 L204.144404,191.975735 L204.144404,191.975735 L203.530699,192.463114 L203.530699,192.463114 L203.311326,192.623626 L202.921846,192.928685 L202.874098,193.641905 L202.874098,193.641905 L202.763791,195.125399 C202.743986,195.377378 202.723544,195.631185 202.70258,195.886015 L202.498092,198.236943 L202.498092,198.236943 L202.196354,201.387821 L202.196354,201.387821 L201.710031,206 L198.247789,206 L197.902777,202.766007 L197.902777,202.766007 L197.611507,199.838538 L197.611507,199.838538 L197.40007,197.555823 L197.40007,197.555823 L197.227634,195.532518 L197.227634,195.532518 L197.124497,194.202571 L197.124497,194.202571 L197.036018,192.928685 L196.63274,192.656806 L196.63274,192.656806 L196.173742,192.296047 L196.173742,192.296047 L195.823034,192.00967 L195.823034,192.00967 L195.137877,191.430585 L195.137877,191.430585 L194.584352,190.946107 L194.584352,190.946107 L193.960871,190.3839 C193.851483,190.283769 193.739445,190.180436 193.624892,190.073918 L192.908447,189.396737 C182.733516,179.623569 157.430577,148.678318 190.327897,106.483163 L190.920861,105.771069 L190.920861,105.771069 L191.505592,105.060144 L191.505592,105.060144 L192.645629,103.650259 L192.645629,103.650259 L193.470263,102.611643 L193.470263,102.611643 L194.521675,101.265459 L194.521675,101.265459 L195.509459,99.9789423 L195.509459,99.9789423 L196.424171,98.7690129 L196.424171,98.7690129 L197.820683,96.8868212 L197.820683,96.8868212 L199.653144,94.344294 L199.653144,94.344294 L199.849084,94.065357 L199.849084,94.065357 Z M200.10878,133.061678 C200.10878,132.909149 199.90995,132.890082 199.860243,133.004479 L199.849084,133.061678 L197.33896,189.094101 L197.33896,189.181696 C197.604554,189.613499 198.207663,190.23952 198.770458,190.780178 L199.17909,191.165299 L199.17909,191.165299 L199.809315,191.734664 L199.809315,191.734664 L199.97891,191.88277 L199.97891,191.88277 L200.271618,191.625623 L200.271618,191.625623 L200.778743,191.165299 L200.778743,191.165299 L201.18738,190.780178 L201.18738,190.780178 L201.611133,190.363047 C201.96072,190.009381 202.289153,189.649673 202.504186,189.35218 L202.61886,189.181696 L202.61886,189.094101 L200.10878,133.061678 Z" opacity=".95"/></g></svg>