<svg xmlns="http://www.w3.org/2000/svg" width="400" height="300" viewBox="0 0 400 300"><defs><linearGradient id="a" x1="0%" x2="50%" y1="21.875%" y2="78.125%"><stop offset="0%" stop-color="#00FFD4"/><stop offset="100%" stop-color="#0BF"/></linearGradient></defs><path fill="url(#a)" d="M400,0 L400,300 L0,300 L0,0 L400,0 Z M180.833902,163.450021 C180.776337,163.399029 180.701937,163.416116 180.630252,163.444867 C179.781164,163.784996 178.97145,163.95506 178.118561,163.95506 C177.457647,163.95506 176.838278,163.872876 176.18198,163.670535 C176.101063,163.64531 176.002224,163.621712 175.932983,163.670806 C175.885465,163.704439 175.856954,163.74865 175.825456,163.797472 L175.825456,163.797472 L169.448641,173.679909 L193.866995,198.071233 C196.053659,200.255757 197.147127,201.34802 198.411933,201.747548 C199.477433,202.084151 200.621406,202.084151 201.686906,201.747548 C202.767883,201.406064 203.723683,200.558455 205.344198,198.955458 L205.344198,198.955458 L180.910203,163.538172 C180.889567,163.508065 180.861327,163.474432 180.833902,163.450021 Z M183.880253,160.496596 L183.817519,160.514176 C183.751536,160.549437 183.715693,160.610465 183.67795,160.674747 L183.67795,160.674747 L183.672519,160.683698 C183.653512,160.715975 183.635319,160.747438 183.617398,160.778088 C183.548157,160.89716 183.484889,161.005654 183.410489,161.111978 C183.402343,161.123641 183.393111,161.135304 183.38415,161.146696 C183.356182,161.181956 183.328214,161.217488 183.324413,161.261428 C183.318711,161.322184 183.357811,161.37399 183.396098,161.424169 L183.396098,161.424169 L183.424337,161.462413 L207.738586,196.566423 L209.938827,194.368608 C210.273744,192.317027 211.00007,187.887853 211.747472,183.333492 L211.897123,182.421618 C212.845306,176.644297 213.78769,170.907046 213.971651,169.78742 C213.978168,169.748904 213.994731,169.706863 214.011023,169.665635 C214.046323,169.575857 214.079993,169.490147 214.003963,169.452716 C212.632988,168.91106 211.619079,167.708406 211.223726,166.318057 C211.218567,166.299613 211.215037,166.281711 211.21205,166.264623 C211.203904,166.221768 211.196572,166.184067 211.161816,166.149349 C211.11294,166.10134 211.022248,166.073132 210.955179,166.059299 L210.955179,166.059299 L184.015739,160.509836 C183.9522,160.496546 183.874812,160.483798 183.817519,160.514176 Z M219.799451,167.930106 L219.760215,167.931632 C219.66029,167.94872 219.581545,168.020326 219.515834,168.097085 C218.998833,168.701667 218.369688,169.190703 217.628129,169.498826 C217.617811,169.503166 217.607221,169.507234 217.596359,169.511574 C217.528476,169.538426 217.456791,169.566635 217.430724,169.632545 C217.42122,169.657227 217.417961,169.682723 217.414432,169.70849 L217.414432,169.70849 L217.41063,169.73697 L214.068045,190.24367 L233.580485,170.752744 L219.838688,167.934887 C219.816422,167.930276 219.78248,167.927835 219.760215,167.931632 Z M172.644787,160.998059 C172.613914,160.998059 172.583366,161.004297 172.554963,161.016503 L172.554963,161.016503 L161.490384,165.730291 L167.094006,171.327762 L173.206808,161.855161 C173.236976,161.808508 173.259947,161.763755 173.228585,161.717645 C173.220847,161.706524 173.202084,161.685639 173.193775,161.67479 C173.088202,161.535646 172.982657,161.39596 172.877084,161.235661 C172.864675,161.216945 172.852565,161.196332 172.840237,161.175175 C172.790139,161.089736 172.736457,160.998059 172.644787,160.998059 Z M225.139292,141.180998 L225.085813,141.196026 C225.052414,141.212029 225.034764,141.239966 225.012227,141.269531 C224.263879,142.260351 223.154934,142.890972 221.864061,143.072971 C221.738612,143.072971 221.716346,143.231643 221.69761,143.366718 C221.694623,143.386789 221.691908,143.406589 221.688921,143.425304 L221.688921,143.425304 L218.800613,161.126082 C218.798441,161.138287 218.796268,161.150764 218.794096,161.163512 C218.777804,161.253833 218.760154,161.35202 218.822879,161.414133 C219.852265,162.199357 220.460501,163.354275 220.600884,164.648064 C220.600884,164.77229 220.747784,164.79643 220.881922,164.8184 C220.90989,164.823011 220.937586,164.827351 220.963111,164.832775 L220.963111,164.832775 L236.31076,168.025479 L248.173813,156.175777 C249.968653,154.382644 251.027093,153.325371 251.56989,152.305529 L251.56989,152.305529 L225.364678,141.234542 C225.277516,141.197925 225.171346,141.155612 225.085813,141.196026 Z M149.238448,153.347341 C149.846418,154.099204 150.719631,154.971495 151.925107,156.175777 L151.925107,156.175777 L159.012907,163.255545 L170.788987,158.27215 C170.808809,158.263742 170.829962,158.255334 170.851712,158.246654 C170.98794,158.19295 171.147358,158.129752 171.147358,157.994948 C171.147358,157.870723 171.000404,157.846583 170.86613,157.824884 C170.838108,157.820273 170.810656,157.815662 170.785213,157.810509 L170.785213,157.810509 Z M217.754859,141.779944 L217.746789,141.779181 L184.40186,155.982115 C184.429828,155.986455 184.818665,157.388739 184.843918,157.393892 L184.843918,157.393892 L211.433893,162.873376 C211.493902,162.885853 211.567488,162.897787 211.622609,162.870392 C211.688049,162.837573 211.723892,162.77763 211.761092,162.714975 C211.765436,162.707923 211.769781,162.70087 211.774125,162.693547 C212.579224,161.366667 213.951286,160.487324 215.501202,160.397274 C215.629366,160.397274 215.649731,160.242941 215.667924,160.105154 C215.671183,160.081286 215.67417,160.057688 215.677971,160.035447 L215.677971,160.035447 L218.536139,142.509345 C218.540212,142.484662 218.542927,142.465676 218.54157,142.440722 C218.536953,142.368303 218.467441,142.327889 218.399014,142.288289 C218.372947,142.273099 218.347151,142.258181 218.325157,142.241636 C218.177171,142.129887 218.023211,142.005662 217.840469,141.825562 C217.793765,141.779452 217.746789,141.779181 217.746789,141.779181 Z M160.997088,134.762339 L151.925107,143.824291 C149.738231,146.008815 148.64479,147.101077 148.244839,148.364217 C148.106182,148.802261 148.024569,149.253325 148,149.706829 L148,149.706829 L172.298608,154.793836 C172.345801,154.803683 172.382648,154.811466 172.418653,154.789225 C172.477821,154.752608 172.520071,154.683172 172.553063,154.622145 C172.832471,154.103544 173.229889,153.626442 173.627306,153.190568 C173.709445,153.109469 173.628365,153.000161 173.554779,152.900889 C173.542261,152.884073 173.529988,152.867527 173.518747,152.851524 C172.366166,151.202417 162.491937,136.953915 160.997088,134.762339 L160.997088,134.762339 Z M201.361608,131.070292 C201.275531,131.033675 201.168004,131.004382 201.094147,131.061613 C201.055317,131.091991 201.030608,131.128336 201.003183,131.169022 C199.969181,132.702311 198.259059,133.602268 196.412356,133.602268 C196.167161,133.602268 195.922237,133.567008 195.646087,133.527136 C195.6059,133.52144 195.564898,133.515473 195.523353,133.509777 C195.393017,133.509777 195.312371,133.636444 195.240415,133.750091 C195.233355,133.761212 195.226295,133.772332 195.219235,133.783182 L195.219235,133.783182 L183.047991,152.60443 C183.036315,152.622331 183.023281,152.641046 183.009976,152.660033 C182.938563,152.762831 182.857103,152.879733 182.937748,152.959476 C182.984724,153.005586 183.031427,153.005586 183.078131,153.005586 C183.10157,153.005586 191.385003,149.482022 199.661457,145.958902 L201.092263,145.349812 C208.230071,142.311153 215.005476,139.425081 216.060834,138.975428 C216.071152,138.971088 216.082014,138.966748 216.092875,138.962137 C216.190084,138.922266 216.296526,138.878055 216.296526,138.776341 L216.296526,138.776341 L216.296526,138.360539 C216.296526,138.111816 216.334269,137.862823 216.375814,137.647191 C216.385046,137.599454 216.393735,137.540054 216.375542,137.494486 C216.341057,137.409319 216.254438,137.372702 216.169719,137.336899 L216.169719,137.336899 Z M175.616646,120.158764 L163.421317,132.340755 L176.477681,151.361632 C176.511079,151.410183 176.552624,151.465515 176.600414,151.499962 C176.644131,151.531696 176.693007,151.522746 176.745685,151.513252 L176.745685,151.513252 C177.237433,151.425372 177.722393,151.342374 178.165537,151.342374 C178.64235,151.342374 179.159351,151.421575 179.641867,151.543631 C179.717897,151.562888 179.809947,151.582146 179.875658,151.539291 C179.927793,151.505387 179.958476,151.457649 179.992146,151.405572 L179.992146,151.405572 L192.3722,132.247722 C192.383605,132.22982 192.396638,132.211105 192.409943,132.191848 C192.481357,132.089321 192.563089,131.972419 192.482171,131.892676 C191.499761,130.876359 190.938229,129.53646 190.938229,128.104341 C190.938229,127.714576 190.97923,127.324812 191.061505,126.935048 C191.072366,126.882971 191.082956,126.818959 191.061505,126.770408 C191.025663,126.68958 190.951534,126.657575 190.870345,126.622585 C190.063074,126.27432 187.490017,125.188025 184.663619,123.994891 C184.334591,123.855991 184.002116,123.715637 183.668575,123.574822 L183.00078,123.292873 C179.773061,121.929996 176.594241,120.585993 175.616646,120.158764 L175.616646,120.158764 Z M237.648337,133.310691 L226.840737,137.878283 C226.830691,137.882352 226.820101,137.886692 226.809239,137.891031 C226.709315,137.932259 226.589297,137.981353 226.589297,138.083337 C226.589297,138.18722 226.705785,138.234143 226.80761,138.275371 L226.80761,138.275371 L226.847254,138.291645 L252,148.930284 C251.961714,148.739606 251.913109,148.550827 251.853915,148.364217 C251.501941,147.252654 250.612923,146.273419 248.914477,144.565716 L248.173813,143.824291 L237.648337,133.310691 Z M225.293265,120.968915 L223.196207,133.788606 C223.182359,133.874317 223.20734,133.981454 223.270607,134.041126 C223.290158,134.059841 223.311066,134.067707 223.333603,134.076386 C223.345551,134.080997 223.35777,134.085608 223.370532,134.092118 C223.907083,134.366065 224.356201,134.724637 224.717884,135.126607 C224.744766,135.152917 224.75617,135.164309 224.770018,135.169191 C224.780065,135.172717 224.79147,135.172717 224.811563,135.172717 C224.842247,135.172717 224.87293,135.166479 224.901169,135.154273 L224.901169,135.154273 L235.138276,130.803397 L225.293265,120.968915 Z M212.036427,107.726856 L200.997209,124.824001 C200.933127,124.950532 201.015673,125.082786 201.09306,125.207283 L201.09306,125.207283 L201.127545,125.263428 C201.567159,126.001458 201.847654,126.844727 201.932915,127.688266 C201.932915,127.790251 202.052662,127.839615 202.152586,127.880572 C202.163448,127.885183 202.174038,127.889523 202.184356,127.893862 L202.184356,127.893862 L217.982752,134.599056 C218.01235,134.611804 218.066385,134.618856 218.098426,134.616957 C218.14703,134.613974 218.176628,134.583053 218.208126,134.549691 C218.223875,134.533146 218.240167,134.516058 218.259717,134.501411 C218.678151,134.189491 219.165283,133.948092 219.69043,133.776672 C219.709709,133.770434 219.729531,133.765823 219.74881,133.761483 C219.805832,133.748464 219.859324,133.736258 219.883763,133.682011 C219.896253,133.654074 219.900598,133.615016 219.904399,133.579484 C219.905757,133.564567 219.907386,133.550191 219.909287,133.537714 L219.909287,133.537714 L222.406043,118.085066 L212.036427,107.726856 Z M201.686906,98.2524969 C200.621406,97.9158344 199.477433,97.9158344 198.411933,98.2524966 C197.147127,98.6520047 196.053659,99.7442452 193.866995,101.928726 L193.866995,101.928726 L178.078917,117.699207 C179.710566,118.388279 191.114997,123.205164 192.581281,123.841019 C192.674961,123.881704 192.783846,123.925997 192.856617,123.854147 C193.839027,123.06876 195.102204,122.606766 196.36538,122.606766 C196.933973,122.606766 197.502565,122.687485 198.070886,122.848924 C198.150174,122.871436 198.246297,122.893406 198.314181,122.846781 C198.363328,122.812985 198.392925,122.767445 198.425238,122.717484 L198.425238,122.717484 L209.653173,105.346148 L206.231843,101.928726 C204.045179,99.7442425 202.951711,98.6520047 201.686906,98.2524969 Z"/></svg>