<svg xmlns="http://www.w3.org/2000/svg" xmlns:xlink="http://www.w3.org/1999/xlink" width="400" height="300" viewBox="0 0 400 300"><defs><linearGradient id="a" x1="0%" x2="50%" y1="21.875%" y2="78.125%"><stop offset="0%" stop-color="#00FFD4"/><stop offset="100%" stop-color="#0BF"/></linearGradient><filter id="c" width="115.4%" height="115.4%" x="-7.7%" y="-3.8%" filterUnits="objectBoundingBox"><feOffset dy="4" in="SourceAlpha" result="shadowOffsetOuter1"/><feGaussianBlur in="shadowOffsetOuter1" result="shadowBlurOuter1" stdDeviation="2"/><feColorMatrix in="shadowBlurOuter1" values="0 0 0 0 0.0736 0 0 0 0 0.0821333333 0 0 0 0 0.0864 0 0 0 0.12 0"/></filter><path id="b" d="M223.370532,134.092118 C223.35777,134.085608 223.345551,134.080997 223.333603,134.076386 C223.311066,134.067707 223.290158,134.059841 223.270607,134.041126 C223.20734,133.981454 223.182359,133.874317 223.196207,133.788606 L225.293265,120.968915 L235.138276,130.803397 L224.901169,135.154273 C224.87293,135.166479 224.842247,135.172717 224.811563,135.172717 C224.79147,135.172717 224.780065,135.172717 224.770018,135.169191 C224.75617,135.164309 224.744766,135.152917 224.717884,135.126607 C224.356201,134.724637 223.907083,134.366065 223.370532,134.092118 Z M237.648337,133.310691 L248.173813,143.824291 C250.360477,146.008815 251.453945,147.101077 251.853915,148.364217 C251.913109,148.550827 251.961714,148.739606 252,148.930284 L226.847254,138.291645 C226.834492,138.28622 226.821187,138.280796 226.80761,138.275371 C226.705785,138.234143 226.589297,138.18722 226.589297,138.083337 C226.589297,137.981353 226.709315,137.932259 226.809239,137.891031 C226.820101,137.886692 226.830691,137.882352 226.840737,137.878283 L237.648337,133.310691 Z M251.56989,152.305529 C251.027093,153.325371 249.968653,154.382644 248.173813,156.175777 L236.31076,168.025479 L220.963111,164.832775 C220.937586,164.827351 220.90989,164.823011 220.881922,164.8184 C220.747784,164.79643 220.600884,164.77229 220.600884,164.648064 C220.460501,163.354275 219.852265,162.199357 218.822879,161.414133 C218.760154,161.35202 218.777804,161.253833 218.794096,161.163512 C218.796268,161.150764 218.798441,161.138287 218.800613,161.126082 L221.688921,143.425304 C221.691908,143.406589 221.694623,143.386789 221.69761,143.366718 C221.716346,143.231643 221.738612,143.072971 221.864061,143.072971 C223.154934,142.890972 224.263879,142.260351 225.012227,141.269531 C225.034764,141.239966 225.052414,141.212029 225.085813,141.196026 C225.171346,141.155612 225.277516,141.197925 225.364678,141.234542 L251.56989,152.305529 Z M233.580485,170.752744 L214.068045,190.24367 L217.41063,169.73697 C217.411988,169.727477 217.413345,169.717984 217.414432,169.70849 C217.417961,169.682723 217.42122,169.657227 217.430724,169.632545 C217.456791,169.566635 217.528476,169.538426 217.596359,169.511574 C217.607221,169.507234 217.617811,169.503166 217.628129,169.498826 C218.369688,169.190703 218.998833,168.701667 219.515834,168.097085 C219.581545,168.020326 219.66029,167.94872 219.760215,167.931632 C219.78248,167.927835 219.816422,167.930276 219.838688,167.934887 L233.580485,170.752744 Z M209.938827,194.368608 L207.738586,196.566423 L183.424337,161.462413 C183.415377,161.449665 183.405873,161.436917 183.396098,161.424169 C183.357811,161.37399 183.318711,161.322184 183.324413,161.261428 C183.328214,161.217488 183.356182,161.181956 183.38415,161.146696 C183.393111,161.135304 183.402343,161.123641 183.410489,161.111978 C183.484889,161.005654 183.548157,160.89716 183.617398,160.778088 C183.635319,160.747438 183.653512,160.715975 183.672519,160.683698 L183.67795,160.674747 C183.715693,160.610465 183.751536,160.549437 183.817519,160.514176 C183.874812,160.483798 183.9522,160.496546 184.015739,160.509836 L210.955179,166.059299 C211.022248,166.073132 211.11294,166.10134 211.161816,166.149349 C211.196572,166.184067 211.203904,166.221768 211.21205,166.264623 C211.215037,166.281711 211.218567,166.299613 211.223726,166.318057 C211.619079,167.708406 212.632988,168.91106 214.003963,169.452716 C214.079993,169.490147 214.046323,169.575857 214.011023,169.665635 C213.994731,169.706863 213.978168,169.748904 213.971651,169.78742 C213.632776,171.849889 210.720302,189.581587 209.938827,194.368608 Z M205.344198,198.955458 C203.723683,200.558455 202.767883,201.406064 201.686906,201.747548 C200.621406,202.084151 199.477433,202.084151 198.411933,201.747548 C197.147127,201.34802 196.053659,200.255757 193.866995,198.071233 L169.448641,173.679909 L175.825456,163.797472 C175.856954,163.74865 175.885465,163.704439 175.932983,163.670806 C176.002224,163.621712 176.101063,163.64531 176.18198,163.670535 C176.838278,163.872876 177.457647,163.95506 178.118561,163.95506 C178.97145,163.95506 179.781164,163.784996 180.630252,163.444867 C180.701937,163.416116 180.776337,163.399029 180.833902,163.450021 C180.861327,163.474432 180.889567,163.508065 180.910203,163.538172 L205.344198,198.955458 Z M167.094006,171.327762 L161.490384,165.730291 L172.554963,161.016503 C172.583366,161.004297 172.613914,160.998059 172.644787,160.998059 C172.736457,160.998059 172.790139,161.089736 172.840237,161.175175 C172.852565,161.196332 172.864675,161.216945 172.877084,161.235661 C172.982657,161.39596 173.088202,161.535646 173.193775,161.67479 C173.202084,161.685639 173.220847,161.706524 173.228585,161.717645 C173.259947,161.763755 173.236976,161.808508 173.206808,161.855161 L167.094006,171.327762 Z M159.012907,163.255545 L151.925107,156.175777 C150.719631,154.971495 149.846418,154.099204 149.238448,153.347341 L170.785213,157.810509 C170.810656,157.815662 170.838108,157.820273 170.86613,157.824884 C171.000404,157.846583 171.147358,157.870723 171.147358,157.994948 C171.147358,158.129752 170.98794,158.19295 170.851712,158.246654 C170.829962,158.255334 170.808809,158.263742 170.788987,158.27215 L159.012907,163.255545 Z M148,149.706829 C148.024569,149.253325 148.106182,148.802261 148.244839,148.364217 C148.64479,147.101077 149.738231,146.008815 151.925107,143.824291 L160.997088,134.762339 C162.491937,136.953915 172.366166,151.202417 173.518747,152.851524 C173.529988,152.867527 173.542261,152.884073 173.554779,152.900889 C173.628365,153.000161 173.709445,153.109469 173.627306,153.190568 C173.229889,153.626442 172.832471,154.103544 172.553063,154.622145 C172.520071,154.683172 172.477821,154.752608 172.418653,154.789225 C172.382648,154.811466 172.345801,154.803683 172.304745,154.794921 L172.298608,154.793836 L148,149.706829 Z M163.421317,132.340755 L175.616646,120.158764 C176.762791,120.659653 180.934641,122.420699 184.663619,123.994891 C187.490017,125.188025 190.063074,126.27432 190.870345,126.622585 C190.951534,126.657575 191.025663,126.68958 191.061505,126.770408 C191.082956,126.818959 191.072366,126.882971 191.061505,126.935048 C190.97923,127.324812 190.938229,127.714576 190.938229,128.104341 C190.938229,129.53646 191.499761,130.876359 192.482171,131.892676 C192.563089,131.972419 192.481357,132.089321 192.409943,132.191848 C192.396638,132.211105 192.383605,132.22982 192.3722,132.247722 L179.992146,151.405572 C179.958476,151.457649 179.927793,151.505387 179.875658,151.539291 C179.809947,151.582146 179.717897,151.562888 179.641867,151.543631 C179.159351,151.421575 178.64235,151.342374 178.165537,151.342374 C177.722393,151.342374 177.237433,151.425372 176.750029,151.512439 L176.745685,151.513252 C176.693007,151.522746 176.644131,151.531696 176.600414,151.499962 C176.552624,151.465515 176.511079,151.410183 176.477681,151.361632 L163.421317,132.340755 Z M178.078917,117.699207 L193.866995,101.928726 C196.053659,99.7442452 197.147127,98.6520047 198.411933,98.2524966 C199.477433,97.9158344 200.621406,97.9158344 201.686906,98.2524969 C202.951711,98.6520047 204.045179,99.7442425 206.231843,101.928726 L209.653173,105.346148 L198.425238,122.717484 C198.392925,122.767445 198.363328,122.812985 198.314181,122.846781 C198.246297,122.893406 198.150174,122.871436 198.070886,122.848924 C197.502565,122.687485 196.933973,122.606766 196.36538,122.606766 C195.102204,122.606766 193.839027,123.06876 192.856617,123.854147 C192.783846,123.925997 192.674961,123.881704 192.581281,123.841019 C191.114997,123.205164 179.710566,118.388279 178.078917,117.699207 Z M212.036427,107.726856 L222.406043,118.085066 L219.909287,133.537714 C219.907386,133.550191 219.905757,133.564567 219.904399,133.579484 C219.900598,133.615016 219.896253,133.654074 219.883763,133.682011 C219.859324,133.736258 219.805832,133.748464 219.74881,133.761483 C219.729531,133.765823 219.709709,133.770434 219.69043,133.776672 C219.165283,133.948092 218.678151,134.189491 218.259717,134.501411 C218.240167,134.516058 218.223875,134.533146 218.208126,134.549691 C218.176628,134.583053 218.14703,134.613974 218.098426,134.616957 C218.066385,134.618856 218.01235,134.611804 217.982752,134.599056 L202.184356,127.893862 C202.174038,127.889523 202.163448,127.885183 202.152586,127.880572 C202.052662,127.839615 201.932915,127.790251 201.932915,127.688266 C201.847654,126.844727 201.567159,126.001458 201.127545,125.263428 C201.116412,125.244984 201.105008,125.226269 201.09306,125.207283 C201.015673,125.082786 200.933127,124.950532 200.997209,124.824001 L212.036427,107.726856 Z M201.361608,131.070292 L216.169719,137.336899 C216.254438,137.372702 216.341057,137.409319 216.375542,137.494486 C216.393735,137.540054 216.385046,137.599454 216.375814,137.647191 C216.334269,137.862823 216.296526,138.111816 216.296526,138.360539 L216.296526,138.776341 C216.296526,138.878055 216.190084,138.922266 216.092875,138.962137 C216.082014,138.966748 216.071152,138.971088 216.060834,138.975428 C213.715594,139.974656 183.123206,153.005586 183.078131,153.005586 C183.031427,153.005586 182.984724,153.005586 182.937748,152.959476 C182.857103,152.879733 182.938563,152.762831 183.009976,152.660033 C183.023281,152.641046 183.036315,152.622331 183.047991,152.60443 L195.219235,133.783182 C195.226295,133.772332 195.233355,133.761212 195.240415,133.750091 C195.312371,133.636444 195.393017,133.509777 195.523353,133.509777 C195.564898,133.515473 195.6059,133.52144 195.646087,133.527136 C195.922237,133.567008 196.167161,133.602268 196.412356,133.602268 C198.259059,133.602268 199.969181,132.702311 201.003183,131.169022 C201.030608,131.128336 201.055317,131.091991 201.094147,131.061613 C201.168004,131.004382 201.275531,131.033675 201.361608,131.070292 Z M184.40186,155.982115 L217.746789,141.779181 C217.746789,141.779181 217.793765,141.779452 217.840469,141.825562 C218.023211,142.005662 218.177171,142.129887 218.325157,142.241636 C218.347151,142.258181 218.372947,142.273099 218.399014,142.288289 C218.467441,142.327889 218.536953,142.368303 218.54157,142.440722 C218.542927,142.465676 218.540212,142.484662 218.536139,142.509345 L215.677971,160.035447 C215.67417,160.057688 215.671183,160.081286 215.667924,160.105154 C215.649731,160.242941 215.629366,160.397274 215.501202,160.397274 C213.951286,160.487324 212.579224,161.366667 211.774125,162.693547 C211.769781,162.70087 211.765436,162.707923 211.761092,162.714975 C211.723892,162.77763 211.688049,162.837573 211.622609,162.870392 C211.567488,162.897787 211.493902,162.885853 211.433893,162.873376 L184.843918,157.393892 C184.818665,157.388739 184.429828,155.986455 184.40186,155.982115 Z"/></defs><g fill="none" fill-rule="evenodd"><rect width="400" height="300" fill="url(#a)" fill-rule="nonzero"/><g fill-rule="nonzero" opacity=".95"><use xlink:href="#b" fill="#000" filter="url(#c)"/><use xlink:href="#b" fill="#FFF"/></g></g></svg>