<svg xmlns="http://www.w3.org/2000/svg" width="400" height="300" viewBox="0 0 400 300"><defs><linearGradient id="a" x1="0%" x2="50%" y1="21.875%" y2="78.125%"><stop offset="0%" stop-color="#0FA"/><stop offset="100%" stop-color="#0AF"/></linearGradient></defs><g fill="none" fill-rule="evenodd"><rect width="400" height="300" fill="url(#a)" fill-rule="nonzero"/><path fill="#FFF" fill-rule="nonzero" d="M223.370532,134.131955 C223.35777,134.125438 223.345551,134.120822 223.333603,134.116206 C223.311066,134.107517 223.290158,134.099642 223.270607,134.080907 C223.20734,134.021169 223.182359,133.913913 223.196207,133.828108 L225.293265,120.994267 L235.138276,130.839604 L224.901169,135.195283 C224.87293,135.207502 224.842247,135.213747 224.811563,135.213747 C224.79147,135.213747 224.780065,135.213747 224.770018,135.210217 C224.75617,135.205329 224.744766,135.193925 224.717884,135.167586 C224.356201,134.765173 223.907083,134.406204 223.370532,134.131955 Z M237.648337,133.349665 L248.173813,143.87487 C250.360477,146.061805 251.453945,147.155273 251.853915,148.419807 C251.913109,148.606623 251.961714,148.79561 252,148.986499 L226.847254,138.336117 C226.834492,138.330687 226.821187,138.325256 226.80761,138.319825 C226.705785,138.278552 226.589297,138.231577 226.589297,138.127579 C226.589297,138.025482 226.709315,137.976335 226.809239,137.935061 C226.820101,137.930717 226.830691,137.926372 226.840737,137.922299 L237.648337,133.349665 Z M251.56989,152.365469 C251.027093,153.386437 249.968653,154.444877 248.173813,156.239989 L236.31076,168.10277 L220.963111,164.906543 C220.937586,164.901112 220.90989,164.896767 220.881922,164.892151 C220.747784,164.870157 220.600884,164.84599 220.600884,164.721628 C220.460501,163.42641 219.852265,162.270218 218.822879,161.484127 C218.760154,161.421946 218.777804,161.32365 218.794096,161.233229 C218.796268,161.220467 218.798441,161.207977 218.800613,161.195758 L221.688921,143.475443 C221.691908,143.456707 221.694623,143.436885 221.69761,143.416792 C221.716346,143.281568 221.738612,143.12272 221.864061,143.12272 C223.154934,142.940521 224.263879,142.309204 225.012227,141.31729 C225.034764,141.287693 225.052414,141.259725 225.085813,141.243704 C225.171346,141.203246 225.277516,141.245605 225.364678,141.282262 L251.56989,152.365469 Z M233.580485,170.833046 L214.068045,190.345485 L217.41063,169.81615 C217.411988,169.806647 217.413345,169.797143 217.414432,169.787639 C217.417961,169.761844 217.42122,169.736319 217.430724,169.71161 C217.456791,169.645627 217.528476,169.617387 217.596359,169.590506 C217.607221,169.586161 217.617811,169.582088 217.628129,169.577744 C218.369688,169.269281 218.998833,168.779705 219.515834,168.174455 C219.581545,168.097611 219.66029,168.025926 219.760215,168.00882 C219.78248,168.005018 219.816422,168.007462 219.838688,168.012078 L233.580485,170.833046 Z M209.938827,194.474976 L207.738586,196.675216 L183.424337,161.53246 C183.415377,161.519698 183.405873,161.506936 183.396098,161.494174 C183.357811,161.44394 183.318711,161.392077 183.324413,161.331253 C183.328214,161.287265 183.356182,161.251694 183.38415,161.216394 C183.393111,161.20499 183.402343,161.193314 183.410489,161.181638 C183.484889,161.075197 183.548157,160.966583 183.617398,160.847379 C183.635319,160.816696 183.653512,160.785198 183.672519,160.752886 L183.67795,160.743925 C183.715693,160.679571 183.751536,160.618476 183.817519,160.583177 C183.874812,160.552765 183.9522,160.565527 184.015739,160.578832 L210.955179,166.13442 C211.022248,166.148268 211.11294,166.176507 211.161816,166.224569 C211.196572,166.259325 211.203904,166.297069 211.21205,166.339971 C211.215037,166.357078 211.218567,166.374999 211.223726,166.393463 C211.619079,167.785347 212.632988,168.989329 214.003963,169.531583 C214.079993,169.569054 214.046323,169.654859 214.011023,169.744737 C213.994731,169.78601 213.978168,169.828098 213.971651,169.866656 C213.632776,171.931401 210.720302,189.682671 209.938827,194.474976 Z M205.344198,199.066889 C203.723683,200.671655 202.767883,201.520199 201.686906,201.862061 C200.621406,202.199034 199.477433,202.199034 198.411933,201.862061 C197.147127,201.462091 196.053659,200.368623 193.866995,198.181688 L169.448641,173.763441 L175.825456,163.870097 C175.856954,163.821221 175.885465,163.776961 175.932983,163.743291 C176.002224,163.694143 176.101063,163.717766 176.18198,163.743019 C176.838278,163.945583 177.457647,164.027858 178.118561,164.027858 C178.97145,164.027858 179.781164,163.857606 180.630252,163.517103 C180.701937,163.48832 180.776337,163.471213 180.833902,163.522262 C180.861327,163.5467 180.889567,163.58037 180.910203,163.61051 L205.344198,199.066889 Z M167.094006,171.408698 L161.490384,165.805049 L172.554963,161.086058 C172.583366,161.073839 172.613914,161.067594 172.644787,161.067594 C172.736457,161.067594 172.790139,161.159372 172.840237,161.244905 C172.852565,161.266085 172.864675,161.286722 172.877084,161.305457 C172.982657,161.465934 173.088202,161.605774 173.193775,161.745071 C173.202084,161.755933 173.220847,161.776841 173.228585,161.787974 C173.259947,161.834134 173.236976,161.878937 173.206808,161.925641 L167.094006,171.408698 Z M159.012907,163.327572 L151.925107,156.239989 C150.719631,155.034378 149.846418,154.161124 149.238448,153.408432 L170.785213,157.876525 C170.810656,157.881684 170.838108,157.8863 170.86613,157.890916 C171.000404,157.912639 171.147358,157.936806 171.147358,158.061168 C171.147358,158.196121 170.98794,158.259388 170.851712,158.313152 C170.829962,158.321841 170.808809,158.330258 170.788987,158.338676 L159.012907,163.327572 Z M148,149.763901 C148.024569,149.309896 148.106182,148.858335 148.244839,148.419807 C148.64479,147.155273 149.738231,146.061805 151.925107,143.87487 L160.997088,134.802916 C162.491937,136.996911 172.366166,151.26114 173.518747,152.912067 C173.529988,152.928088 173.542261,152.944651 173.554779,152.961486 C173.628365,153.060868 173.709445,153.170296 173.627306,153.251485 C173.229889,153.68784 172.832471,154.165469 172.553063,154.684642 C172.520071,154.745737 172.477821,154.81525 172.418653,154.851907 C172.382648,154.874173 172.345801,154.86638 172.304745,154.857609 L172.298608,154.856523 L148,149.763901 Z M163.421317,132.378659 L175.616646,120.183222 C176.762791,120.684664 180.934641,122.447653 184.663619,124.023583 C187.490017,125.218034 190.063074,126.305528 190.870345,126.654178 C190.951534,126.689206 191.025663,126.721247 191.061505,126.802164 C191.082956,126.850768 191.072366,126.91485 191.061505,126.966985 C190.97923,127.357179 190.938229,127.747374 190.938229,128.137568 C190.938229,129.571268 191.499761,130.912647 192.482171,131.930085 C192.563089,132.009916 192.481357,132.126947 192.409943,132.229587 C192.396638,132.248866 192.383605,132.267602 192.3722,132.285523 L179.992146,151.464519 C179.958476,151.516654 179.927793,151.564444 179.875658,151.598385 C179.809947,151.641288 179.717897,151.622009 179.641867,151.60273 C179.159351,151.48054 178.64235,151.401252 178.165537,151.401252 C177.722393,151.401252 177.237433,151.484341 176.750029,151.571503 L176.745685,151.572318 C176.693007,151.581822 176.644131,151.590782 176.600414,151.559013 C176.552624,151.524528 176.511079,151.469135 176.477681,151.42053 L163.421317,132.378659 Z M178.078917,117.720951 L193.866995,101.933063 C196.053659,99.7461705 197.147127,98.6527244 198.411933,98.2527753 C199.477433,97.9157415 200.621406,97.9157415 201.686906,98.2527756 C202.951711,98.6527244 204.045179,99.7461677 206.231843,101.933063 L209.653173,105.354256 L198.425238,122.744766 C198.392925,122.794782 198.363328,122.840373 198.314181,122.874206 C198.246297,122.920883 198.150174,122.898888 198.070886,122.876351 C197.502565,122.714734 196.933973,122.633925 196.36538,122.633925 C195.102204,122.633925 193.839027,123.096429 192.856617,123.882684 C192.783846,123.954613 192.674961,123.910271 192.581281,123.869541 C191.114997,123.232984 179.710566,118.410783 178.078917,117.720951 Z M212.036427,107.737592 L222.406043,118.107235 L219.909287,133.576939 C219.907386,133.58943 219.905757,133.603821 219.904399,133.618756 C219.900598,133.654327 219.896253,133.693427 219.883763,133.721395 C219.859324,133.775702 219.805832,133.787921 219.74881,133.800955 C219.729531,133.8053 219.709709,133.809916 219.69043,133.816161 C219.165283,133.98777 218.678151,134.229436 218.259717,134.5417 C218.240167,134.556363 218.223875,134.573469 218.208126,134.590033 C218.176628,134.623432 218.14703,134.654387 218.098426,134.657373 C218.066385,134.659274 218.01235,134.652214 217.982752,134.639452 L202.184356,127.926858 C202.174038,127.922513 202.163448,127.918169 202.152586,127.913553 C202.052662,127.872551 201.932915,127.823132 201.932915,127.721035 C201.847654,126.876564 201.567159,126.032365 201.127545,125.29352 C201.116412,125.275056 201.105008,125.25632 201.09306,125.237313 C201.015673,125.112679 200.933127,124.980279 200.997209,124.853608 L212.036427,107.737592 Z M201.361608,131.106794 L216.169719,137.380317 C216.254438,137.41616 216.341057,137.452817 216.375542,137.538079 C216.393735,137.583696 216.385046,137.643162 216.375814,137.690952 C216.334269,137.906822 216.296526,138.15609 216.296526,138.405087 L216.296526,138.821349 C216.296526,138.923174 216.190084,138.967434 216.092875,139.00735 C216.082014,139.011966 216.071152,139.01631 216.060834,139.020655 C213.715594,140.020986 183.123206,153.066299 183.078131,153.066299 C183.031427,153.066299 182.984724,153.066299 182.937748,153.020138 C182.857103,152.940307 182.938563,152.823276 183.009976,152.720364 C183.023281,152.701357 183.036315,152.682621 183.047991,152.6647 L195.219235,133.822678 C195.226295,133.811816 195.233355,133.800683 195.240415,133.789551 C195.312371,133.675778 195.393017,133.548971 195.523353,133.548971 C195.564898,133.554674 195.6059,133.560647 195.646087,133.56635 C195.922237,133.606265 196.167161,133.641564 196.412356,133.641564 C198.259059,133.641564 199.969181,132.740614 201.003183,131.205632 C201.030608,131.164902 201.055317,131.128516 201.094147,131.098105 C201.168004,131.040811 201.275531,131.070137 201.361608,131.106794 Z M184.40186,156.046114 L217.746789,141.827503 C217.746789,141.827503 217.793765,141.827774 217.840469,141.873935 C218.023211,142.054234 218.177171,142.178596 218.325157,142.290468 C218.347151,142.307032 218.372947,142.321966 218.399014,142.337172 C218.467441,142.376816 218.536953,142.417275 218.54157,142.489774 C218.542927,142.514755 218.540212,142.533763 218.536139,142.558472 L215.677971,160.103919 C215.67417,160.126185 215.671183,160.149808 215.667924,160.173703 C215.649731,160.311643 215.629366,160.466146 215.501202,160.466146 C213.951286,160.556295 212.579224,161.436608 211.774125,162.764953 C211.769781,162.772285 211.765436,162.779345 211.761092,162.786404 C211.723892,162.849129 211.688049,162.909138 211.622609,162.941993 C211.567488,162.969418 211.493902,162.957471 211.433893,162.94498 L184.843918,157.459449 C184.818665,157.454289 184.429828,156.050458 184.40186,156.046114 Z" opacity=".8"/></g></svg>